<svg version="1.0" xmlns="http://www.w3.org/2000/svg" viewBox="0 0 1798 1280"><path d="M290.5 29.7c-9.4 2.6-15.3 15.9-14.2 31.9.7 11.2 3.1 17.6 8.3 22.4 4.1 3.8 4.7 4 10.6 4 8.3 0 11.9-2.4 15.9-10.7 7-14.5 4.1-37.5-5.6-44.9-3.6-2.7-10.5-4-15-2.7zm10.4 4.9C304.3 39 306 46.9 306 59c0 12.9-1.8 20.5-5.7 24.4-4.4 4.4-9 2.8-13-4.7-1.5-2.7-1.8-5.9-1.8-19.2 0-16.8.7-20.7 4.8-25.3 2.9-3.1 7.9-3 10.6.4zm30.6-4.1c-4.8 2.6-6.6 4.7-9.3 10.5-2.4 5-2.6 6.7-2.6 18 0 11 .2 13 2.2 17 4.7 9.3 8.4 12 16.6 12 5.4 0 6.6-.4 9.9-3.1 2.1-1.7 4.5-4.5 5.4-6.2 7.5-14.6 4.7-38.7-5.3-46.4-4.3-3.2-12.6-4.1-16.9-1.8zm12.4 4.1c3.7 4.8 4.6 9.3 4.6 24.4 0 15.6-.8 19.3-5.3 24.2-4.7 5.1-10 2.7-13.2-5.8-1.6-4.5-2-7.8-2-18.1 0-13.7 1.1-19.1 4.7-24.1 3.1-4.2 8.1-4.5 11.2-.6zm-95.4-2.3c-2.2 1.2-4.1 2.5-4.3 2.9-.2.5-1 .8-1.8.8s-1.4.4-1.4 1c0 1.3.6 1.3 2.9-.2 1.5-.9 2.3-.9 3.5.1 1.4 1.2 1.6 4.5 1.6 23.2 0 21.2-.1 21.9-2.2 23.9-1.2 1.1-2.5 2-3 2-.4 0-.8.4-.8 1s4 1 10 1 10-.4 10-1-.6-1-1.4-1c-.8 0-2.2-1-3-2.2-1.4-1.9-1.6-6.3-1.6-28V30l-2.2.1c-1.3 0-4.1 1-6.3 2.2zm150.8 26.4c-1 .4-1.3 93-1.3 458.4V975h639.8c496.3 0 640.1-.3 641-1.2.9-.9 1.2-103.9 1.2-457.5 0-450 0-456.2-1.9-457.3-2-1-1276.2-1.4-1278.8-.3zm1274.7 6c0 2.3-3.5 14-6.7 22.3-6.5 16.9-19.1 42.1-30.8 61.5-13.9 22.9-25.5 40.5-37.3 56.5-3.1 4.1-8.7 11.8-12.6 17-8 10.8-32.1 41.1-41 51.5-3.2 3.8-8 9.4-10.5 12.4-16.3 19.3-36.4 41.4-64.1 70.6-13.5 14.2-59.1 59.8-74 74-23.9 22.7-47.2 44.5-57.5 53.6-2.7 2.4-7.5 6.7-10.5 9.5-4.8 4.5-30.1 26.9-48.5 42.9-7.9 6.9-45.7 39.1-56.5 48.1-7.9 6.6-27 21.8-40.7 32.4-3.2 2.5-11.6 8.8-18.8 13.9-7.1 5.2-14.6 10.6-16.5 12.1-10.1 7.8-60 40.1-85.5 55.5-26.6 16-45.8 27-70 40-3.8 2.1-7.4 4.1-8 4.5-4.7 3.4-82.9 42.5-108.4 54.2-3.5 1.6-9.6 4.4-13.5 6.2-9.4 4.4-17.3 8.1-27.1 12.3-10.2 4.5-21.8 9.7-30.1 13.4-2.2 1-6.5 2.7-9.4 3.9-2.9 1.2-7.2 3-9.5 4s-6.6 2.9-9.6 4c-2.9 1.2-7.7 3.2-10.7 4.6-2.9 1.3-5.8 2.4-6.5 2.4-.7 0-1.7.4-2.2.9-.6.4-10.4 4.5-22 9-11.5 4.6-21.9 8.6-23 9.1-5.8 2.4-47.6 18.3-55.2 21.1-8.8 3.2-16 5.8-21.5 7.8-2.9 1.1-9.3 3.4-14.3 5.1-4.9 1.7-10.8 3.8-13 4.7-2.2.8-9.2 3.2-15.5 5.3-6.3 2.1-18.7 6.3-27.5 9.3-8.8 3-24.8 8.3-35.5 11.7-10.7 3.4-22 7-25 8-5.6 1.9-12.8 4-26 7.9-4.1 1.2-8.6 2.6-10 3.1-4.1 1.3-23.2 7-27.5 8.2-2.2.6-5.1 1.4-6.5 1.8-6.7 2-10.2 2.9-18 5-4.7 1.2-9.5 2.6-10.8 3.1-1.3.5-2.8.7-3.3.4-1-.7-1.3-904.8-.2-905.8.3-.4 286.5-.7 636-.7 600.4 0 635.3.1 635.3 1.7zm-.2 905.5c-1.6 1-1210.2.8-1214.3-.2l-3-.7 3.5-.6c1.9-.3 6.4-.9 10-1.2 9.1-.8 20.1-2.1 29.5-3.5 7.4-1 10.9-1.5 30-4 15.2-2 21.3-2.9 28.5-4 7.7-1.2 15.8-2.4 26.5-4 13.8-2 20.6-3.1 32-5 6.6-1.2 14.7-2.5 18-3 7.2-1.1 16.1-2.6 23.5-3.9 3-.5 7.1-1.3 9-1.6 1.9-.3 5.3-1 7.5-1.5s7.4-1.4 11.5-2c7.1-1.1 23-4.1 29.5-5.5 1.7-.3 5-1 7.5-1.5 11.9-2.2 16.2-3 25-5 5.2-1.1 11.1-2.3 13-2.6 1.9-.3 5.1-.9 7-1.4 1.9-.5 6.2-1.4 9.5-2 3.3-.7 7.4-1.6 9-2 1.7-.4 5.7-1.3 9-2 3.3-.6 7.6-1.5 9.5-2 1.9-.5 6.7-1.6 10.5-2.5 14.6-3.4 20.4-4.7 32.5-7.6 6.9-1.6 14.1-3.4 16-3.9 1.9-.5 6.4-1.6 10-2.5 3.6-.8 9.9-2.5 14-3.6 4.1-1.2 9.1-2.5 11-2.9 1.9-.4 6.1-1.5 9.3-2.4 12.7-3.5 20.7-5.7 31-8.5 4.3-1.2 9.7-2.7 12-3.5 2.3-.7 7.6-2.3 11.7-3.5 4.1-1.2 8.6-2.6 10-3.1 1.4-.4 4.5-1.3 7-2 4.2-1.2 17.1-5.3 35.5-11.3 17.1-5.6 36.6-12.4 37.2-13 .3-.4 1.3-.7 2.2-.7 1.3 0 9.5-2.9 19.6-7 1.1-.4 5.8-2.2 10.5-4 4.7-1.7 9.3-3.6 10.2-4.1 1-.5 2.2-.9 2.8-.9.5 0 3.8-1.3 7.2-2.8 3.5-1.6 7.9-3.4 9.8-4.1 1.9-.8 5.4-2.2 7.7-3.2 2.4-1.1 4.5-1.9 4.8-1.9.2 0 2.8-1.1 5.7-2.4 5.6-2.5 12.3-5.5 19.8-8.8 4.7-2.1 19.4-9.1 34.5-16.4 14-6.8 38.6-20.2 52-28.3 3.7-2.3 6.8-4.1 7-4.1.3 0 22.3-14.1 27.1-17.4 19-13 32.3-23.1 50.9-38.6 7.7-6.5 17.8-15.3 22.5-19.6 9.6-8.8 42.2-41.3 52.1-51.9 7.3-7.8 28.5-32.6 33.9-39.5 4.3-5.6 4.8-6.2 10.3-13 5.3-6.6 14.8-19.2 26-34.6 4.1-5.6 25.1-36.8 33.9-50.4 4.3-6.6 26.8-44 26.8-44.5 0-.2 1.3-2.6 2.8-5.2 1.6-2.6 4.7-8.2 6.9-12.3 2.3-4.1 5.7-10.4 7.7-14 4-7.2 30.7-60.8 35.4-71 1.7-3.6 4.1-9 5.5-12 1.4-3 3.6-8.1 5.1-11.3 1.4-3.2 2.6-6 2.6-6.2 0-.6 5.8-13.5 7-15.7.6-1 1-2.2 1-2.8 0-.5 1.3-3.8 2.8-7.2 1.6-3.5 4.8-11.3 7.1-17.3 2.4-6.1 4.7-11.9 5.1-13 3.8-9.2 11.3-29.3 14-37.5 1-3 3.3-9.3 5-14 1.7-4.7 3.8-10.8 4.7-13.5.8-2.8 1.9-5.9 2.3-7 1-2.4 9.8-29.6 11.1-34.3.5-1.7 1.4-4.8 1.9-6.7.6-1.9 1.4-5 1.9-6.8.5-1.7 1.9-6.4 3.1-10.2 1.2-3.9 3-10.2 4-14 1-3.9 2.8-10.4 4-14.5 1.2-4.1 2.4-8.6 2.8-10 .4-1.4.8 196.8 1 440.4.2 353.7 0 443.1-1 443.8zm-12.3-855.5c-.4 1-1.3 4.3-2.1 7.3s-1.8 6.6-2.3 8c-.5 1.4-1.4 4.3-2 6.5-4.1 14.7-22.9 71.5-26.1 79-.5 1.1-1.8 4.9-3 8.5-2.1 6.4-2.7 7.9-4.8 13-.5 1.4-3.3 8.6-6.2 16-5.9 15.4-6.2 16.2-8.3 21-.9 1.9-3 7.1-4.7 11.5-1.7 4.4-4.3 10.4-5.6 13.3-1.3 2.9-2.4 5.5-2.4 5.7 0 .4-1.3 3.4-7.5 17-1.5 3.3-3.9 8.5-5.2 11.5-15.5 34-35.7 73.6-54.6 106.5-31.2 54.5-72.4 114.6-103.3 150.5l-12 14c-24.1 28-62.1 65.9-86.4 85.9-4.1 3.4-10.6 8.8-14.5 12-6.3 5.2-23.7 18.4-29.1 22.1-11.7 8.1-29.4 20-29.8 20-.2 0-6.6 3.8-14.2 8.4-7.7 4.6-19.1 11.1-25.4 14.5-10.3 5.6-48.2 24.4-57 28.3-1.9.9-5.6 2.5-8.2 3.7-2.7 1.2-6.9 3-9.5 4.2-2.7 1.2-6.3 2.7-8 3.5-1.8.8-4.8 2-6.5 2.8-5.5 2.4-33.8 13.7-41.8 16.6-30 11.2-35.5 13.1-60.5 21.5-22.3 7.4-40.7 13.3-45.2 14.6-7 1.9-10 2.8-16.8 4.9-6.5 2-16.8 5-24 7-1.6.5-5.6 1.5-8.7 2.4-10.5 2.9-17.2 4.7-26.5 7.2-5.1 1.3-13.5 3.5-18.5 4.9-10.7 2.8-10.4 2.7-22.3 5.5-4.9 1.1-10.7 2.5-12.7 3-8.1 2.1-11.5 2.9-16 3.9-2.7.6-6.9 1.6-9.5 2.2-2.7.5-6.4 1.4-8.3 1.9-1.9.5-4.6 1.1-6 1.4-1.4.2-6.8 1.4-12 2.6-5.2 1.1-11.7 2.6-14.5 3.1-2.7.6-6.6 1.5-8.5 1.9-3.1.7-18.6 3.8-35 7.1-3 .6-7.3 1.5-9.5 2s-8.9 1.8-15 2.9c-6 1.1-13.5 2.5-16.5 3.1-6.3 1.2-12.7 2.3-22 3.9-3.6.6-8.5 1.5-11 2s-7.4 1.4-11 2c-3.6.6-8.7 1.5-11.5 2-2.7.5-7.9 1.3-11.5 1.9-3.6.5-9.6 1.5-13.5 2.1-3.8.6-9.9 1.6-13.5 2.1-3.6.6-8.5 1.4-11 1.9s-8.3 1.4-13 2c-4.7.6-11.3 1.5-14.8 2-3.4.5-9.4 1.4-13.2 2-3.9.5-10 1.5-13.8 2-6.5 1-22 3.1-38.7 5.1-4.4.5-11.4 1.4-15.5 1.9-9.1 1.1-21.1 2.5-34.5 3.9-5.5.6-11.2 1.4-12.8 1.7-1.6.3-2.7.1-2.7-.5s.9-1.1 2-1.1c1 0 2.9-.4 4.2-.9 2.2-.9 12.2-4 20.3-6.2 2.2-.6 5.1-1.5 6.5-1.9 2.4-.8 4.9-1.5 23-6.9 4.1-1.3 10-3.1 13-4 3-1 11.4-3.7 18.5-6 19.4-6.1 68-22.3 84.5-28.1 8-2.8 16.5-5.8 19-6.6 2.5-.8 5.4-1.9 6.5-2.4 1.1-.5 6.1-2.3 11-4 5-1.7 11.4-4 14.3-5.1 2.8-1 7.8-2.8 11-4 3.1-1.2 6.6-2.5 7.7-2.9 1.1-.4 6.7-2.6 12.5-4.8 9.7-3.7 39.9-15.3 44.5-17.2 1.1-.4 7-2.8 13-5.3 6.1-2.5 15.5-6.4 21.1-8.6 11-4.3 26.8-11 35.2-14.7 2.9-1.3 5.5-2.4 5.7-2.4.2 0 2.9-1.1 6-2.5 3-1.4 8-3.6 11-5 3.1-1.4 5.7-2.5 5.9-2.5.2 0 4.3-1.8 9-4s8.8-4 9-4c.3 0 4.7-2 9.8-4.4 5.1-2.4 12.9-6 17.3-8.1 32.8-15.1 94.9-46.2 119.2-59.6 11.6-6.4 13.9-7.7 21.8-11.9 4.4-2.4 9.1-5.1 10.5-6 1.4-.9 5-3 8-4.7 14.4-7.9 42.1-24.6 69.7-42.1 25.3-16 66.5-44.8 85.4-59.7 4.2-3.3 11.4-8.9 16-12.5 23.8-18.5 119.6-100.7 132.9-114 .3-.3 4.8-4.3 10-9s10.2-9.2 11-10c.8-.8 7.6-7.1 15-14 47.4-43.9 110.2-107.5 145-147 4.1-4.7 7.7-8.7 8-9 .3-.3 3.4-3.9 7-8s6.7-7.7 7-8c4.1-4 35.6-43 48-59.3 29.8-39.3 57-81.5 70.7-109.9 1.6-3.2 3.2-5.8 3.7-5.8.4 0 .5.8.1 1.7z"/><path d="M1056.5 618.5c-3.9 6.5-4.6 7.6-6.4 10.7-1 1.8-4.2 7.3-7.1 12.3-8.1 13.9-9.2 15.7-11.4 19.9-1.2 2.2-3.8 5.8-5.8 8-2.1 2.1-3.8 4.1-3.8 4.3 0 .1 3.7.3 8.3.2 7.7 0 8.1-.1 6-1.6-2.9-2-2.9-4.8 0-10.6 3.9-7.6 4.1-7.7 12.8-7.7 9.1 0 9.5.3 10.5 9.4.7 6-.4 8.6-3.7 8.6-1.1 0-1.9.4-1.9 1s4 1 10 1 10-.4 10-1-.4-1-1-1c-1.9 0-4.2-5.1-5.2-11.7-.5-3.7-1.3-9.1-1.7-11.8-5.3-33.9-6-35.9-9.6-30zm-1.6 15.7c.5 1.3 1.2 5.6 1.6 9.6l.7 7.3-6.8-.3c-8.2-.4-8.2-.6-2.4-10.2 2.2-3.6 4-7 4-7.6 0-1.9 2-1 2.9 1.2zm235.4-16.6c-2.9.7-3 2.4-.3 2.4 2.8 0 3.3 1.9 2.1 7.6-.9 4.5-1.6 7.1-4.2 16.4-.6 1.9-1.5 5.1-2 7-.6 1.9-1.4 4.8-1.9 6.5-.5 1.6-1.3 4.8-1.9 7-.5 2.2-2.1 5-3.5 6.2-1.5 1.2-2.6 2.5-2.6 2.8 0 .4 7.1.5 15.8.3 14.6-.3 16.1-.5 20.7-2.9 6.7-3.4 9.5-7.7 9.5-14.5 0-5-.3-5.7-3.9-9.2l-4-3.9 3.9-1.7c5.6-2.5 8-5.9 8-11.5 0-9.6-4.7-12.3-21.5-12.7-6.6-.1-13 0-14.2.2zm22.7 3.9c3.6 1.8 4.8 6.9 3.1 12.6-.9 3-2.1 4.4-5.1 5.9-4.4 2.3-13 2.8-13 .7.1-2.3 5-17.9 6.1-19.3 1.5-1.8 5.3-1.8 8.9.1zm-3.6 27.1c2.2 2.2 2.6 3.6 2.6 8.2 0 5.1-.3 5.8-4 9.4-3.8 3.5-4.5 3.8-10.1 3.8-4.1 0-6.1-.4-6.5-1.4-.3-.7.4-5.1 1.6-9.7 1.2-4.6 2.4-9.4 2.7-10.7.5-1.9 1.2-2.2 5.8-2.2 4.3 0 5.7.5 7.9 2.6zM19.6 84.5c-.9 1.3-1.6 4.4-1.6 6.9 0 8.4 5.2 13.6 14.5 14.6 5 .5 5 .5 5.3 4.3.4 4.5 2.5 4.6 3 .1.2-1.6.9-3.2 1.5-3.6.7-.4 6.9-.8 13.9-.8 12.8 0 17.8 1 17.8 3.7 0 1.8 1.7 1.6 2.4-.3.8-2 .8-11.8 0-13.8s-2.4-2.1-2.4-.1c0 2.9-3.8 3.6-18.2 3.3l-14.3-.3-.3-4.8c-.2-3.2-.8-4.7-1.7-4.7-.9 0-1.5 1.5-1.7 4.7l-.3 4.8-4.5.3c-6.3.5-10.3-.5-11.8-2.8-1.1-1.8-.8-2.4 2.3-5.5 3.7-3.8 4.2-5.4 2.3-7.3-1.9-1.9-4.4-1.4-6.2 1.3zm27.5 35.3c-1.9.9-4.8 3.4-6.5 5.5-2.7 3.4-3 4.5-3.1 11.1 0 9.3 2.5 13.5 10.4 17.2 12.4 5.9 25.8 0 29.2-12.8 2.2-8-2.1-16.7-10.2-20.8-4.9-2.5-15-2.6-19.8-.2zm20.6 7.4c5 2.1 6.3 3.8 6.3 8.3 0 6.4-3.8 9.3-15.2 11.5-5.6 1.1-7.4 1.1-10.8 0-11.3-3.7-10.4-15.9 1.5-19.6 5.3-1.6 14.7-1.7 18.2-.2zm6 56.8c-1.5 1.8-3 2-15.3 2-13.4 0-16.1.5-19.4 3.8-2.4 2.4-2 10.4.8 14.1 2.7 3.7 2.7 4.1.2 4.1-1.5 0-2 .7-2 3 0 2.4 1.4 7.2 2.7 8.9.2.3 1-.5 1.9-1.7 1.4-2.1 2.2-2.2 15.9-2.2 12.7 0 14.5.2 15.4 1.7.9 1.6 1.2 1.6 2.1.3 1.1-1.7 1.2-9.6.1-12.5-.8-1.9-.8-1.9-2 .3-1.1 2.1-1.7 2.2-14.2 2.2-13.6 0-14.3-.2-16.7-4.7-1.7-3.1-1.5-5.7.6-7.6 1.5-1.4 4.2-1.7 15.5-1.7 11.9 0 13.7.2 14.6 1.7 1.6 2.8 3.1-.2 3.1-6.2 0-6.5-1-8.1-3.3-5.5zm-25.2 42.4c-11.7 4.3-15.4 21.4-6.6 30.6 9.8 10.3 28.7 7.1 34.2-5.8 2.5-5.7 2.4-9.2-.2-14.8-4.4-9.2-17-13.8-27.4-10zm15.9 7.2c11.8 1.7 13.3 14.2 2.3 18.8-5 2-14 2.9-18.6 1.6-13.1-3.5-9.1-18.4 5.4-20.3 5.3-.7 6.1-.7 10.9-.1zm87.1-5.1c-.5.2-3.4 1.1-6.4 2-3 .9-7.5 3.1-10 4.8-7.6 5.2-15.6 14.7-12.3 14.7.4 0 2.3-1.7 4.2-3.7 8.3-8.5 27.9-12.5 44.5-8.9 8 1.7 12.7 4 17.5 8.7 4.5 4.4 5 4.6 5 2.3s-11.8-13.7-16.5-15.8c-6.1-2.9-13.5-4.6-19.5-4.5-3 0-5.9.2-6.5.4zm-1.3 31.8c-1.6 1.7-2.2 3.6-2.2 7 0 10.1 9.5 18.7 20.6 18.7 3.9 0 5.1-.5 8-3.4 4.1-4.1 4.4-8 1.2-13.8-5.1-9-22.2-14.3-27.6-8.5zm17.9 3.2c5 2.6 7.9 6.4 7.9 10.1 0 4.3-2.6 5.8-8.3 4.9-4.5-.8-12.6-4.5-14.4-6.7-2.5-2.9-2.6-6.5-.3-8.8 1.9-1.9 3-2.2 7.1-1.7 2.6.3 6.2 1.3 8 2.2zm-94.8 8.1c-2.1 2.4-2.4 2.4-18.7 2.4-18.6 0-17.9-.3-15.2 7.5 1.6 4.5 3.1 5.5 3.9 2.5.5-1.9 1.3-2 15.1-2 14 0 14.6.1 15.7 2.2 1.2 2.2 1.2 2.2 2 .3.9-2.5 1-11.4.1-13.7-.6-1.5-1-1.4-2.9.8zm48.7 1c0 .9.9 2.9 2 4.4 1.1 1.6 2.3 4.9 2.7 7.5.5 4 .2 5.5-2.2 10-2.8 5.1-2.8 5.4-1.5 9.6 2 6.3 8.2 12.3 15.1 14.4 5.2 1.6 6 1.7 9.5.3 7.9-3.1 9.5-13 3.2-19.5-4.1-4.2-10.8-7.3-15.8-7.3-4.5 0-4.6-.1-5.4-7.7-.6-6-.7-6 8.4-.7 5.2 3 9 5.1 19.8 11 2.6 1.5 6.1 3.4 7.7 4.4 12.1 7.1 15.5 8.3 15.5 5.6 0-1.4-2.1-3.1-9.2-7-6.4-3.5-12.9-7.1-16.8-9.3-20-11.3-31.1-17.3-32-17.3-.5 0-1 .7-1 1.6zm18.1 22.8c4.8 2 8.7 5.3 10.5 8.8 1.4 2.7 1.4 3.2-.1 5.4-1.2 1.9-2.4 2.4-5.5 2.4-6.8 0-19-6.9-19-10.7 0-.8.7-2.7 1.5-4.3 1.3-2.5 2.1-3 5.4-3 2.1 0 5.4.6 7.2 1.4zM19.2 275.2c-2 2-1.4 5.8 1 6.7 4.7 1.7 8.1-1.6 5.8-5.9-1.2-2.2-4.9-2.7-6.8-.8zm52.5 18.6c.5 3.5.3 4-2.4 5.1-1.8.7-7.3 1.1-15.3.9l-12.5-.3-.5-3.9c-.7-5.6-2.8-5.8-3.2-.4l-.3 4.3-4.7.3c-2.7.2-4.8.6-4.8.9 0 .3 2.7 3.1 6 6.1 5.8 5.2 6 5.5 4.4 7.3-2.1 2.3-1.2 7.8 1.6 10.4 2.5 2.3 2.5 3.5.2 3.5-2.9 0-3.1.8-1.3 6 1.6 5 3.4 6.3 4.5 3.5.4-1.2 3.1-1.5 15.2-1.5 13.7 0 14.6.1 15.1 2 .6 2.4 1.9 2.6 2.7.4.8-2 .8-10.2 0-13.2l-.6-2.2-2.4 2.5c-2.2 2.4-2.9 2.5-12.9 2.5-14.9 0-19.5-2.7-15.8-9.2 1.8-3 1.8-3-1.1-5.3-1.9-1.5-2.7-2.9-2.3-3.9.5-1.3 2.5-1.6 12.1-1.6 14.3 0 20.9-1.3 23-4.5 2.2-3.3 2-5.6-.6-9.5-3.3-4.9-4.7-4.9-4.1-.2zm50.3 35.1c0 2.7 11.5 13.1 17.8 16.3 6.5 3.2 7.1 3.3 18.2 3.2 10.5 0 12-.3 17.5-2.8 6.1-2.9 18.5-13.8 18.5-16.3 0-2-.9-1.6-5.3 2.3-2.2 2-6.5 4.8-9.6 6.2-5.3 2.4-6.6 2.6-21.1 2.6-14.7.1-15.8-.1-21.2-2.6-3.2-1.5-7.4-4.3-9.4-6.2-3.7-3.6-5.4-4.4-5.4-2.7zM47.5 346c-7.7 3.8-11.3 10.9-10.1 20.4 1.1 9.5 8.7 15.6 19.4 15.6 7.4 0 12-1.9 16-6.4 4.4-5.1 5.9-10.6 4.3-16.3-1.7-6.6-4.4-9.8-10.6-12.7-6.5-3.2-13.3-3.3-19-.6zm19.2 7.2c5.2 2.2 7.3 4.8 7.3 9 0 2.8-.7 4.6-2.4 6.3-2.9 2.9-11.3 5.5-17.8 5.5-11.1 0-17.4-8.2-11.8-15.3 4.1-5.2 18.1-8.3 24.7-5.5zm99.3 23.4c0 .3 1.8 2.6 4 5.1 3.3 3.8 4 5.3 4 8.9 0 5.7-3.4 9.7-10.1 11.9-7.8 2.6-7.9 2.5-7.9-12V378h-2.5c-7 0-13.5 7-13.5 14.4 0 5.3 1 7.8 4.9 11.9 4.1 4.5 8.7 6.2 16.6 6.1 7.9-.1 11.9-1.7 15.8-6.3 4.9-5.9 4.3-15.1-1.4-21.6-3.3-3.8-9.9-7.7-9.9-5.9zm-13.2 19.1c.3 6.6.1 7.3-1.6 7.3-1.1 0-3.1-.9-4.6-2.1-5-3.9-2.5-13.4 3.3-12.7 2.5.3 2.6.6 2.9 7.5zM49 387.6c-11 4.1-14.7 11.7-10 20.9 2.5 4.8 2.5 5.1 0 5.8-1.9.5-1.9.6-.1 5.6 2.2 6.3 2.7 6.8 4.1 4.2 1-2 1.8-2.1 24.8-2.1 22.6 0 23.8.1 25 2 2.4 3.9 3.2 2.1 3.2-7.5 0-5.7-.4-9.5-1-9.5-.5 0-1 .6-1 1.4 0 .8-1.2 2.4-2.7 3.6-2.2 1.7-3.8 2-8.7 1.8-5.9-.3-6.1-.4-5.7-2.8.9-6.8.5-10.7-1.8-14.3-3.4-5.5-9.5-8.7-17.8-9.2-3.7-.3-7.5-.2-8.3.1zm16.9 8.4c8 2.3 10.7 9.8 5.6 15.4-2.3 2.5-2.9 2.6-12.5 2.6-5.6 0-11-.5-12.2-1.1-1.1-.6-2.6-2.6-3.4-4.5-1.3-3-1.2-3.8 0-6.3 3.2-6.1 13.1-8.8 22.5-6.1zm111.3 20c-1.1 1.8-2.3 2-12.3 2-6 0-13.1.5-15.7 1.1-9.2 2.2-11.6 9.2-6.3 18.4l2.8 4.9-2.8 2.7c-3.8 3.5-3.9 8.6-.4 14.6 1.4 2.3 2.2 4.3 1.7 4.3-.4 0-1.6.6-2.5 1.2-1.6 1.2-1.6 1.6.1 6.2 1.8 5.1 4.2 7.3 4.2 3.8 0-2.9 1.7-3.2 16-3.2 12.5 0 12.9.1 14.8 2.5 1.1 1.4 2.3 2.5 2.6 2.5.3 0 .6-3.8.6-8.5 0-8.7-.6-10-2.8-6.5-1.1 1.8-2.3 2-14.6 2-11.7 0-13.5-.2-15-1.9-2.4-2.6-3.1-8.2-1.3-10.6 1.3-1.7 3-2 14.5-2.3 13-.4 13.1-.4 15.7 2.2 1.4 1.4 2.8 2.6 3 2.6.3 0 .5-4.1.5-9 0-5.3-.4-9-1-9-.5 0-1 .7-1 1.5 0 3-5.4 4.5-16.3 4.5-11.7 0-15-1.4-16.2-7-1.6-7.4 1.5-9 17.5-9 11.5 0 11.9.1 13.8 2.5 1.1 1.4 2.3 2.5 2.6 2.5.3 0 .6-3.8.6-8.5 0-8.7-.6-10-2.8-6.5zM46.8 432c-2 1.1-4.9 3.6-6.5 5.7-2.5 3.2-2.8 4.4-2.8 11.3 0 6.8.3 8.1 2.7 11.2 3.8 5 10.1 7.8 17.2 7.8 9.6 0 16.6-5 19.6-13.9 2.7-8.2-2-18-10.4-22-5.9-2.7-14.7-2.8-19.8-.1zm22.1 8c4.3 2.1 5.1 3.5 5.1 8.5s-5.3 9-14 10.6c-8.4 1.5-13.5.6-17.2-3.1-4-4-3.8-8.3.6-12.5 4.1-3.8 8.3-5.3 15.9-5.4 3.9-.1 7 .5 9.6 1.9zM38 471.9c-1.6 3.1-1.2 5.7 1.5 8.9 3 3.6 3.1 4.2.5 4.2-1.5 0-2 .7-2 2.9 0 1.7.5 3.3 1 3.6.6.3 1 1.5 1 2.5 0 2.9 2 3.5 3.6 1.1 1.4-2 2.4-2.1 14.4-2.1 13.6 0 16 .4 16 2.6 0 1.9 1.6 1.8 2.4-.2.8-2 .8-10.2 0-13.2l-.6-2.2-2.4 2.5c-2.2 2.4-2.8 2.5-13.4 2.5-11.6 0-14.2-.7-16-4-.8-1.6-.7-2.7.6-5 1.5-2.4 1.5-3.1.5-4.4-1.8-2.2-5.8-2-7.1.3zm112.8 11.4c-9.8 4.6-13.8 17.2-8.5 26.9 1.8 3.2 3.8 5 7.7 7 15.4 8 33-3.1 30.4-19.1-.9-5.5-3.6-9.5-8.5-12.8-3.5-2.3-5.5-2.8-11.3-3-4-.1-8.2.3-9.8 1zm20.4 8.2c3.9 1.6 6.8 5.3 6.8 8.6 0 3-5.9 8.5-10.5 9.9-2.2.6-6.5 1.3-9.5 1.6-16.2 1.3-20.5-14.5-5.5-20 5.2-1.9 14.4-2 18.7-.1zM50 501.9c-4.5.9-6.9 2.3-10 5.6-2.1 2.2-2.5 3.6-2.5 8.4.1 3.7.7 6.5 1.8 8.1 2.1 3 2.1 4 .2 4-2 0-1.9 3.7.1 8.6l1.6 3.9 1.8-2.3c1.8-2.2 2.2-2.2 24.8-2.2h23.1l1.9 2.5c1.1 1.4 2.3 2.5 2.6 2.5.3 0 .6-4.3.6-9.5s-.4-9.5-.8-9.5-1.6 1.3-2.5 3c-1.8 2.9-2 3-9.4 3s-7.5-.1-6.8-2.3c3-9.4-.2-16.9-9.5-21.7-4.2-2.1-12.1-3.1-17-2.1zm19.2 9.8c5.1 2.5 6.4 9 2.7 13.7-2 2.5-2.3 2.6-13.4 2.6-11 0-11.4-.1-13.4-2.6-1.1-1.4-2.3-3.4-2.6-4.4-.8-2.5 1.9-7.6 4.8-9.2 5.1-2.8 16.5-2.9 21.9-.1zm75.1 16.5c-4.6 5.1-5.6 11.5-2.8 18.1 3.3 7.9 9.9 11.7 20.3 11.7 13.2 0 21.2-8.9 18.1-20.3-1.2-4.4-7.7-11.7-10.4-11.7-1.9 0-1.9 1.4.1 3.1 5.1 4.2 5.7 11.4 1.3 16.4-3.6 4.1-9.3 6-16.1 5.2-5.9-.7-8.4-2.3-10.4-6.5-2.2-4.8-1.2-7.7 3.5-9.5 4.3-1.8 5.2-3.2 4-6.5-.5-1.4-1.7-2.2-3.2-2.2-1.3 0-3.3 1-4.4 2.2zm32.9 35.8c-1.1 1.8-2.3 2-13.6 2-13.7 0-18 1-21.3 4.9-3 3.5-2.9 8.2.3 13.7 1.8 3.1 2.2 4.4 1.2 4.4-3 0-4.3 1.8-3.1 4.2.6 1.3 1.5 3.5 2.2 5 1.1 3 3.1 3.8 3.1 1.3 0-2.7 3.8-3.5 16-3.5 11.6 0 12.2.1 14.6 2.5 1.4 1.4 2.7 2.5 2.9 2.5.3 0 .5-3.8.5-8.5 0-5-.4-8.5-1-8.5-.5 0-1 .7-1 1.5 0 2.6-3.8 3.5-15.4 3.5-10.5 0-11.7-.2-14.1-2.3-3.5-2.9-3.8-8.3-.5-10.9 1.9-1.5 4.1-1.8 14.2-1.8 11.4 0 12 .1 14.4 2.5 1.4 1.4 2.7 2.5 2.9 2.5.3 0 .5-3.8.5-8.5 0-8.7-.6-10-2.8-6.5zM47 567.5c-5.3 1.9-8.8 5.8-9.5 10.9-1 6.6.2 10.4 4.9 15.1 3.4 3.4 5.3 4.4 10.3 5.4 20.9 4.5 33.5-14.9 18.7-28.7-4.2-3.8-7.4-5.3-7.4-3.5 0 .4 1.5 2.2 3.3 4.1 2.8 2.9 3.2 4 3.2 8.7 0 3.8-.5 5.9-1.9 7.4-2.6 2.8-7.2 4.9-11.6 5.3l-3.5.3-.5-12.9c-.3-7.4-.9-13-1.5-13.1-.5-.2-2.6.3-4.5 1zm2.8 16.3c.3 7.9-.7 9.4-4.7 7.2-5.4-2.8-5.8-10-.9-13.4 4.2-3 5.3-1.8 5.6 6.2zM38 608c0 5.3.5 6 2.5 3.3 1.1-1.4 1.7-1.5 4.6-.4 5.1 2 7 2.7 12.1 5 2.6 1.2 5.2 2.1 5.8 2.1.5 0 1 .4 1 .9s-4.8 2.8-10.6 5.2c-8.7 3.5-11 4-12.5 3.1-1-.7-2.1-1.2-2.4-1.2-.3 0-.5 3.4-.5 7.5s.3 7.5.6 7.5 1.5-1.1 2.6-2.5 2.3-2.5 2.8-2.5 3.5-1.2 6.7-2.6c6.6-3 11.9-5.3 14.8-6.4 6.1-2.3 12.5-5.4 12.5-6.1 0-.4-8.1-3.9-17.9-7.9-9.9-3.9-18.5-7.8-19.2-8.6-2.1-2.5-2.9-1.5-2.9 3.6zm139.5.2c-1 2.2-1.5 2.3-18.7 2.8-9.7.3-17.9.7-18.2 1-.7.7 3.6 13 4.5 13 .4 0 .9-1 1.1-2.2.4-2.9 3.2-3.6 14.8-3.6 12.1 0 15.2.7 16.5 3.6 1.8 4.2 2.5 2.2 2.5-7.3s-.7-11.5-2.5-7.3zm-56 5.7c-1.2 3.8.3 6.2 3.7 5.9 1.7-.2 3.6-1.1 4.2-2.1 1.6-2.5-.4-5.1-4.2-5.5-2.3-.2-3.2.2-3.7 1.7zM74 646.4c0 2.3-2.4 2.6-19.6 2.6H38v2.4c0 2.8 2.7 9.6 3.8 9.6.4 0 1.3-.9 2-2 1.1-1.8 2.3-2 13.5-2 13.4 0 16.7.5 16.7 2.6 0 2.2 1.7 1.6 2.4-.9.8-2.9.8-10.1 0-12.1s-2.4-2.1-2.4-.2zm-54.2 3.7c-2.1 1.2-2.4 4.9-.6 6.7 1.8 1.8 5.6 1.4 6.8-.7 1.4-2.7 1.3-3.7-.6-5.5-1.8-1.8-3.2-2-5.6-.5zm157.7 3.1c-1 2.3-1.1 2.3-27.6 2.6-20.5.2-26.9.5-27.8 1.5-.8 1-.6 2.9.7 7 1.6 5.3 3.2 7.5 3.2 4.3 0-.8.7-2.2 1.6-3 2.3-2.4 44.9-2.4 48.2 0 1.2.8 2.2 2.2 2.2 3 0 .8.5 1.4 1 1.4.6 0 1-3.8 1-9.5 0-9.5-.7-11.5-2.5-7.3zM71.7 669.4c.8 5.1-1.2 5.7-16.9 5.4l-13.3-.3-.3-3.8c-.2-2.3-.8-3.7-1.7-3.7-.9 0-1.5 1.4-1.7 3.7-.3 3.7-.4 3.8-4.7 4.3-5.4.6-6.1 2-2.2 4.3 1.6.9 4.1 3.1 5.6 4.9l2.7 3.2 1.6-2.1c1.6-2 2.8-2.2 17-2.5l15.4-.3 2.4-2.8c2.9-3.4 3-6.2.4-10.5-2.7-4.4-5.1-4.3-4.3.2zm103.1 5.8c-.3 2.2-.8 2.3-13.3 2.9-7.1.3-14.2 1.1-15.7 1.7-7.6 3.2-7.8 19.7-.3 24.6 3 2 5.2 2 7.1.2 3.1-3.1.9-6.6-4.3-6.6-6.2 0-8.1-7.1-2.8-10.6 2.8-1.8 8.5-1.5 9.6.6.4.8 2.1 4.5 3.7 8.1 4.4 9.7 10.1 13.5 16.2 10.8 2.9-1.3 6-6.1 6-9.1 0-.8-1.1-3.6-2.5-6.3l-2.4-4.9 2.4-2.2c2.9-2.7 3-3.5.9-8-1.9-3.9-4.1-4.5-4.6-1.2zm-2.5 12.2c2.6 2 3.3 7.8 1.2 9.9-3.9 4-10.5 1.5-14.1-5.5-2.6-5.1-2-5.8 4.9-5.8 3.6.1 6.9.6 8 1.4zM72 691.5c0 1.4-.1 2.6-.2 2.6-.2.1-6.7.4-14.5.8-13 .6-14.3.8-16.7 3-7.1 6.7-2.5 24.9 6.1 23.9 2.2-.2 2.9-.9 3.1-3.2.4-3.2-1-4.6-4.9-4.6-3.4 0-4.9-1.7-4.9-5.6 0-3.4 1.1-4.7 4.8-5.9 3.8-1.1 6.6.2 8 3.7 2 4.9 5.2 11.1 6.5 12.8 1.9 2.4 6.4 5 8.7 5 4.9 0 10-4.9 10-9.7 0-.8-1.1-3.7-2.5-6.4l-2.4-4.9 2.4-2.5c3-3 3.1-5.4.4-8.9-2.6-3.3-3.9-3.3-3.9-.1zm-2.4 13c3.5 3.5 3 8.4-1 10.4-4.1 1.9-8.8-.5-11.6-6-3-5.7-2.2-6.9 4.5-6.9 4.6 0 6 .4 8.1 2.5zm104.4 7.4c0 .6.6 2 1.2 3.1 1.1 1.6 1 2.3-.5 3.7-1.5 1.6-3.7 1.8-16 1.8h-14.2l-.3-3c-.2-1.7-.5-3.6-.8-4.4-.7-2.3-3.2.6-3.6 4.2-.3 2.9-.7 3.3-4.1 3.7-2.1.3-3.7.9-3.7 1.5.1.5 2.6 3.2 5.6 5.9 5.1 4.5 5.6 4.7 6.1 2.7s1.2-2.1 12.2-2.2c13.8 0 20.6-1 22.9-3.2 2.2-2.3 2-8.1-.4-11.4-2.2-2.9-4.4-4.1-4.4-2.4zM73.6 732.5c-.4 1.2-4.8 1.5-27.8 1.7l-27.3.3.2 2.5c.5 7.5 3.4 12.4 4.8 8.1.9-2.9 4.3-3.3 27.8-2.9 20.6.3 20.8.3 22.6 2.7l1.8 2.4.6-2.4c1.9-7.1-.4-18.2-2.7-12.4zm78.9 5.2c-6.8 1.7-12.5 10.1-12.5 18.4 0 17.1 22.7 25.5 35.1 13 9.6-9.6 6.3-25.3-6.3-30.6-3.5-1.4-11.9-1.8-16.3-.8zm20.8 9.8c2.4 1.5 4.7 5.4 4.7 7.9 0 2.4-4.2 6.7-8.6 8.8-6.3 2.9-18.3 3-22.1.2-7.7-5.7-3.5-16.2 7.4-18.5 5.4-1.1 15.8-.3 18.6 1.6zm-101.3 7c0 2.8-3.9 3.5-18.9 3.5H38v6c0 3.3.4 6 1 6s1-.7 1-1.5c0-2.6 3.8-3.5 15.5-3.5 11.3 0 11.7.1 14 2.6 3.3 3.5 3.4 8.7.3 10.8-1.8 1.3-5.3 1.6-17 1.6H38v5.5c0 5.3 1.1 7.2 2.4 4 .4-1.2 3-1.5 14.1-1.5 15.4 0 19.5-1.1 21.9-5.9 2.3-4.3 2-7.1-1.4-12.4-1.7-2.8-2.5-4.7-1.7-4.7.6 0 1.8-.4 2.6-.9 1.2-.7 1.1-1.7-.5-6-1.7-4.9-3.4-6.7-3.4-3.6zm102 24.1c0 .3.4 1.4 1 2.4 2.8 5.3-2.1 7.1-18 6.8l-12.5-.3-.3-3c-.2-1.7-.5-3.6-.8-4.4-.7-2.3-3.2.6-3.6 4.2-.3 3-.6 3.2-4.6 3.5-2.4.2-4.2.7-4 1.1.4 1.1 11.4 11.1 12.2 11.1.3 0 .6-.9.6-2 0-1.9.7-2 13.3-2.1 15-.1 20.6-1.3 22.4-4.9 1.6-3.1.7-7.8-2-10.8-1.9-2.1-3.7-2.9-3.7-1.6zM73.7 797.4c-.4 1-3.9 1.4-14.4 1.8-15.3.5-19.6 1.8-21.4 6.6-1.5 3.8-.3 10.2 2.6 13.7l2.3 3-2.6 2.8c-3.6 3.7-3.8 10.7-.4 15.4 2.7 3.8 2.8 5.3.3 5.3-2.8 0-3 .9-1.2 6.7 1.5 5 3.1 7 3.1 3.8 0-2.9 3.9-3.7 17.6-3.3 12.2.3 13.7.5 14.6 2.3 1.1 1.9 1.1 1.9 1.9 0 1.1-2.9 1-10.8-.1-12.5-.9-1.3-1.2-1.3-2.1.2-.9 1.6-2.7 1.8-14.4 1.8H46.1l-2-2.9c-1.2-1.6-2.1-4.3-2.1-6 0-4.9 3.6-6.1 17.8-6.1 10.7 0 12.1.2 13.7 2 1.4 1.6 2 1.7 2.7.8 1-1.6.9-10.6-.1-13.3-.8-1.9-.8-1.9-2 .3-1.1 2.1-1.7 2.2-14.6 2.2-13.2 0-13.4 0-15.4-2.6-2.5-3.1-2.7-8.6-.6-10.4 1.9-1.5 19.2-2.6 25.9-1.6 3 .5 4.6 1.2 4.6 2.2 0 2.2 1.7 1.6 2.4-.9 1.8-6.6-.6-16.8-2.7-11.3zm-2.2 66.8c-1 2.2-1.6 2.3-17 2.8l-16 .5-.3 6.2c-.3 6.5.6 8 2.3 4 1-2.1 1.6-2.2 14.2-2.5l13.1-.3 2.1 2.7c2.9 3.7 2.7 7.8-.5 10.3-2.4 1.9-4 2.1-17 2.1H38v5.5c0 5.2 1.1 7.2 2.3 4.1.5-1.1 3.6-1.5 14.4-1.8 10.8-.2 14.6-.7 17.4-2.1 6.6-3.3 7.4-11.9 1.7-18.3-2-2.2-1.5-3.4 1.4-3.4 1 0 1.8-.4 1.8-.9 0-1.7-3.3-11.1-3.9-11.1-.4 0-1.1 1-1.6 2.2zM66 907.9c0 1.2.4 2.1.9 2.1s2.2 2.6 3.8 5.7c5.3 11 3.1 21.8-5.8 27.6-9.3 6.1-24.3 5.9-34.6-.4-3.6-2.3-8.3-10.4-8.3-14.5 0-6.7 4.8-14 11.5-17.3 6.7-3.3 4.7-4.5-6.4-3.6-5 .4-9.1 1.1-9.1 1.6s.4.9.9.9c1.9 0 2 3.4.4 10.6-1.4 6.5-1.5 8.5-.4 13.5C22 949.5 32.6 958 48.6 958c7 0 8.9-.4 14.3-3.1 6.8-3.4 10.3-7.3 13.2-14.9 3.6-9.5 2-20.7-4.1-28.7-4-5.3-6-6.4-6-3.4zm291.4 64.3c-7.3 5.2-9.9 12.6-9.8 27.8 0 10.2.3 12.2 2.6 17.1 1.6 3.5 4 6.7 6.4 8.5 3.2 2.5 4.6 2.9 9.9 2.9 5.1 0 6.8-.5 9.6-2.7 10.3-7.8 13.2-31.8 5.6-46.5-.9-1.7-3.3-4.5-5.4-6.2-3.3-2.7-4.5-3.1-9.8-3.1-4.6 0-6.8.5-9.1 2.2zm13.4 1.8c4.6 4.3 5.6 8.4 5.6 25 .1 16.3-.6 20.2-4.7 24.7-2.7 3.1-7.7 3-10.5 0-3.6-3.8-5.2-11.1-5.2-24 0-13.7 1.8-21.7 5.8-25.4 3.1-2.8 6.1-2.9 9-.3zm1287 50.7c-3.7 2-6.5 4-6.2 4.4.3.5 1.4.3 2.5-.4 1.7-1 2.2-.9 3.5.7 1.1 1.6 1.4 6.1 1.4 22 0 11.1-.3 21.1-.6 22.2-.3 1.2-1.7 2.7-3 3.5-1.8.9-2.1 1.5-1.2 2.1 1.7 1 14.7.9 17.3-.2 1.5-.6 1.6-.9.4-.9-.9-.1-2.3-.9-3.2-1.9-1.5-1.6-1.7-5-1.7-27.4 0-19.2-.3-25.8-1.3-26.6-.9-.7-3.1 0-7.9 2.5zm41.2-2.6c-8.2 3.3-13 13.8-13 28.5 0 5 .5 10.6 1.1 12.5 3.9 12.2 9.2 16.9 18.9 16.9 5.7 0 6.2-.2 10.3-4.3 5.9-5.7 8-12.2 8.1-24.7.1-10.6-1.3-16.3-5.5-22.6-4.4-6.5-12.7-9.1-19.9-6.3zm12.2 4.9c1 1.4 2.5 5 3.3 8 1.8 6.7 2 24.2.3 30.7-1.5 5.9-5.1 11.1-8.3 11.9-3.2.8-7.2-2.1-9-6.3-2.6-6.1-3.7-20.1-2.5-29.4 1.1-8.9 2.2-12 5.4-15.7 2.8-3.1 8.2-2.7 10.8.8zm31.3-5.3c-3 .7-8.2 6.1-10.3 10.7-1.1 2.3-2.5 7.2-3.1 11-2.5 14.2 3 30.9 11.6 35.4 3.1 1.7 11.9 1.5 15.3-.3 7.2-3.7 11.5-14.2 11.5-28 0-21.3-9.7-32.5-25-28.8zm11.3 5c4.1 6.1 4.7 9.3 4.6 24.8-.1 16.5-1.1 20.5-6 24.4-3.6 2.8-5.7 2.6-9.1-.8-4.2-4.2-5.3-9.1-5.3-24.3 0-14.5 1.2-20.3 5.2-24.5 3.1-3.3 8.1-3.1 10.6.4zM824.5 1083c-1.1.4-3.9 1.4-6.2 2.1-4.9 1.4-5.5 2.6-1.5 3.1l2.7.3.3 24.2.2 24.1-2.5 2c-1.4 1.1-2.5 2.3-2.5 2.6 0 .3 4.1.6 9 .6 5 0 9-.3 9-.6s-1.1-1.5-2.5-2.6l-2.5-1.9V1110c0-14.8-.3-27.1-.7-27.3-.5-.3-1.7-.1-2.8.3zm81.5 1c-1.1 1.1-2 2.4-2 3 0 1.3 3.7 5 5 5 1.5 0 5-3.8 5-5.4 0-1.4-3.6-4.6-5.2-4.6-.5 0-1.7.9-2.8 2zm375.7-.2c-2.2 2.4-2.1 4.5.1 6.5 2.3 2.1 3.6 2.1 5.6.1 2.2-2.1 2-6.1-.3-7.4-2.7-1.4-3.5-1.3-5.4.8zm183.6-.3c-4.2 1.9-6.8 5.8-8.4 12.8-1.2 5.2-1.6 5.7-4.1 5.7-2.1 0-2.8.5-2.8 2 0 1.6.7 2 3 2h3v15.3c0 13.6-.2 15.6-1.8 17-1 1-2.4 1.7-3.1 1.7-.7 0-.9.4-.6 1 .3.6 5 1 10.6 1 5.9 0 9.9-.4 9.9-1s-.6-1-1.3-1c-.7 0-2.3-.9-3.5-2.1-2.2-1.9-2.2-2.7-2-16.7l.3-14.7 4.8-.3c3.8-.3 4.7-.7 4.7-2.2 0-1.5-.9-1.9-4.7-2.2l-4.8-.3-.3-5.7c-.5-9.9 3.3-12.6 9.3-6.8 3.2 3.1 5.8 3.3 6.9.4.8-2.2-.4-4.3-3.5-5.9-3.4-1.8-7.4-1.8-11.6 0zm-841.6 1.2c-13.9 4.7-22.5 21.2-18.6 35.7 2.8 10.4 7.9 16.4 16.8 20.2 4.3 1.8 17.4 1.8 22.6 0 4.7-1.6 11.5-7.1 11.5-9.2 0-1.8-.9-1.8-2.9 0-3.9 3.6-12 6.6-17.3 6.6-6.4 0-10.1-1.6-14.4-6.2-4.7-5.1-5.9-9.1-5.8-19.8.1-11.3 1.6-15.3 7.5-20.4 9.4-8 23.2-5 28.1 6 1.1 2.6 2.6 4.4 3.5 4.4 1.4 0 1.5-1.2 1.1-8.4-.7-10.1-1.1-11.1-4.1-9.2-1.9 1.3-2.9 1.3-7.7 0-7-1.8-14.2-1.7-20.3.3zm257.6 13.2c-2.9 3.3-5.3 6.4-5.3 6.9s.9 1.2 2 1.5c1.9.5 2 1.4 2 15.5 0 13.6.2 15.2 2.1 17.6 2.8 3.6 8.5 3.6 12.8 0 3.7-3.1 3.3-4.7-.8-3.1-5.5 2-6.1.4-6.1-15.9v-14.3l3.7-.3c2.7-.2 3.9-.8 4.1-2.1.3-1.4-.4-1.7-3.7-1.7H888v-5c0-2.8-.3-5-.7-5-.5 0-3.2 2.7-6 5.9zm375.9-.1c-5.7 6.2-6.2 7.7-3.2 8.5 1.9.5 2 1.4 2 15.9 0 14.9.1 15.5 2.3 17.6 3 2.8 8 2.8 11.8.1 3.5-2.4 4.1-5.6.8-3.9-1.1.7-3.2.9-4.5.6l-2.4-.6v-29.9l3.8-.3c2.5-.2 3.7-.8 3.7-1.8s-1.2-1.6-3.7-1.8c-3.8-.3-3.8-.4-3.8-4.7 0-2.4-.4-4.6-.8-4.9-.5-.3-3.2 2.1-6 5.2zm-596.2 4.9c0 .5.9 1.3 1.9 2 1.7 1 1.9 2.8 2.3 16 .3 10.5.8 15.4 1.8 17 3.2 4.9 11.4 5.8 16.6 1.8 3.9-3 4.4-3.1 4.4-.6 0 2.8 1.2 3.2 5.1 1.9 6.8-2.2 8.7-4.1 5-5.1-1.9-.5-2.1-1.4-2.3-16.8l-.3-16.4-6.7-.3c-4.3-.2-6.8.1-6.8.8 0 .5.6 1 1.3 1 .8 0 2.1.8 3 1.8 1.4 1.5 1.7 4.1 1.7 14 0 11.2-.2 12.3-2.2 14.2-2.7 2.5-9 2.7-10.9.3-1-1.1-1.5-6-1.9-16.7l-.5-15.1-5.7-.3c-3.2-.2-5.8.1-5.8.5zm48 .8c-3.2 1.2-5.3 3.5-3.2 3.5.6 0 1.8.7 2.6 1.6 1.3 1.2 1.6 4.1 1.6 14.5 0 12.5-.1 13.1-2.5 15.5-1.4 1.4-2.5 2.7-2.5 2.9 0 .3 3.8.5 8.5.5s8.5-.3 8.5-.6-1-1.4-2.2-2.4c-2.2-1.7-2.3-2.5-2.3-14.9 0-14.8.5-15.9 7.4-16.8 6.8-.9 7.1-.2 7.1 16.3 0 13.3-.2 14.5-2 15.6-3.5 2.2-2.2 2.8 6.5 2.8 4.7 0 8.5-.3 8.5-.6s-1-1.4-2.2-2.4c-2.1-1.7-2.3-2.8-2.6-14-.4-13.8.5-16.3 6-17.6 4.4-1 6-.7 8.1 1.8 1.4 1.7 1.7 4.1 1.7 14.5 0 11.9-.1 12.5-2.5 14.9-1.4 1.4-2.5 2.7-2.5 2.9 0 .3 3.8.5 8.5.5 8.7 0 10-.6 6.5-2.8-1.8-1.1-2-2.3-2-11 0-12.4-1.5-21-4.3-24-3-3.2-10.4-3.1-15.7.3-2.2 1.4-4.2 2.5-4.6 2.5-.3 0-1.5-1.1-2.6-2.5-2.5-3.2-9.7-3.5-14.6-.5-4.1 2.5-4.8 2.5-5.5 0-.6-2.2-2.5-2.4-7.7-.5zm62-.9c0 .4.8 1.3 1.8 2 1.4 1 1.8 3.5 2.2 16.9l.5 15.7 3 2.4c4.1 3.3 10 3.2 14.9-.1 2-1.4 3.9-2.5 4.1-2.5.3 0 .5 1.1.5 2.5 0 3-.2 2.9 6.1.9 5.6-1.9 7-3.3 4-4.1-2-.5-2.1-1.1-2.1-15.8 0-8.5-.3-16-.6-16.9-.5-1.2-2.1-1.6-7-1.6-3.6 0-6.4.4-6.4 1 0 .5.6 1 1.4 1 3.4 0 4.6 4.1 4.6 15.6 0 9.7-.3 11.5-2.1 13.8-1.6 2.1-2.9 2.6-6.4 2.6-2.4 0-4.7-.6-5.2-1.3-.4-.6-1-8.2-1.3-16.7l-.5-15.5-5.7-.3c-3.2-.2-5.8 0-5.8.4zm75.5.6c-2.6 1.5-3.9 2.9-5.4 5.6-1.7 3.3.2 6.4 3.7 6 2.3-.3 2.8-.8 3-3.8.4-4.4 2.7-7 6.2-7 3.8 0 6 2.9 6 7.7 0 3.7-.3 4.2-3.7 5.8-15.1 6.9-16.8 8.5-16.8 15.6 0 4.2.4 5.3 2.5 6.9 3.4 2.6 8.9 2.5 14-.3l4.3-2.2 1.4 2.2c1.8 2.8 6.2 3 9.8.7 3.3-2.1 3.2-4.2-.2-4.6l-2.8-.3-.5-13.5c-.6-14.6-1-16.1-4.5-18.4-2.9-1.9-14-2.1-17-.4zm13.5 22.9c0 8.3-1.1 9.8-7.3 9.9-3.1 0-3.9-.4-4.7-2.6-1.3-3.3-.4-6.7 2.3-9.2 2.2-2.1 7.6-5.2 9-5.2.4 0 .7 3.2.7 7.1zm48-23.1c-.8.4-3 1.4-4.7 2-4 1.5-4.2 2.8-.5 3.2l2.7.3.3 13.9c.2 11.9 0 14.1-1.4 15.7-1 1.1-2.3 1.9-3.1 1.9-.8 0-1.1.4-.8 1 .7 1.1 18.5 1.4 18.5.4 0-.3-1.1-1.5-2.5-2.6-2.5-1.9-2.5-2-2.5-19.4s0-17.4-2.2-17.3c-1.3 0-3 .4-3.8.9zm14-.1c0 .5.8 1.5 1.7 2.2 1.4 1.2 3.5 5.4 9.8 19.4.7 1.6 2.6 6.1 4.1 10 1.5 3.8 2.9 7.2 3 7.4 1.2 1.4 4-4 9.5-17.7 3.4-8.6 7.1-16.9 8.1-18.4 1-1.4 1.8-2.9 1.8-3.2 0-.3-2.2-.6-4.9-.6-5 0-7.4 1.3-4.6 2.4 2.3.9 1.8 4.3-2.2 14.3-3.4 8.6-6.3 12-6.3 7.4 0-1.1-.4-2.3-1-2.6-.5-.3-1-1.3-1-2.1s-.9-3.3-2-5.6c-2.9-6.1-3.6-10.6-1.6-11.4 3.7-1.4 1.1-2.4-6.4-2.4-4.4 0-8 .4-8 .9zm49.9 1.4c-5.6 3.8-8.3 9.8-8.2 18.6 0 5.7.5 8.5 2 11.1 6.4 11.3 21.9 10.7 29.7-1.1 1.4-2.1 2.6-4.1 2.6-4.4 0-1.2-2.2-.3-3.8 1.6-2.2 2.7-8.5 5.9-11.4 5.9-5.7 0-11.2-6.4-12.5-14.6l-.6-3.4H996v-2.9c0-3.6-3.3-9.4-6.5-11.5-3.8-2.5-13.4-2.1-17.6.7zm9.8 1.3c2.2.6 5.6 6.1 4.7 7.6-.7 1.1-15.4 1-15.4-.1 0-2.6 2.2-6.3 4.2-7.1 2.8-1.1 3.7-1.1 6.5-.4zm47.3-2.4c-5.3 2.2-7 3.2-7 3.9 0 .4 1 .9 2.3 1.1 2.2.3 2.2.3 2.5 23.1.2 22.9-.2 26.7-3.3 26.7-.8 0-1.5.4-1.5 1s4 1 10 1 10-.4 10-1-1.1-1-2.5-1c-3.3 0-4.5-2.7-4.5-10.4 0-6.1 1.1-8.9 2.5-6.6 1 1.6 10.7 1 14-.9 7.1-4.2 11.9-16.5 9.6-24.9-1.5-5.7-4.8-10.7-7.9-12.1-3.8-1.8-11.4-1.3-14.2.9-3.2 2.5-3.6 2.5-4.3 0-.6-2.2-1.9-2.4-5.7-.8zm20.3 6.6c2.1 2.3 4.7 9.6 4.7 13.1 0 4.1-2.8 11.6-5.1 13.7-3.1 2.8-9.6 2.5-12-.5-1.6-2-1.9-4-1.9-13 0-13.3.9-15.1 7.9-15.1 3.3 0 5.3.5 6.4 1.8zm22.7-6.6c-5.3 2.2-7 3.2-7 3.9 0 .4 1 .9 2.3 1.1 2.1.3 2.2.6 2.5 14.5.3 14.1.2 14.1-2.3 16.1-1.4 1.1-2.5 2.3-2.5 2.6 0 .3 4.3.6 9.5.6 5.7 0 9.5-.4 9.5-1s-.6-1-1.3-1c-.8 0-2.1-.8-3-1.8-2.4-2.7-2.5-24.1-.1-27.7 1.7-2.5 5.7-3.4 6.9-1.5 1.2 1.9 5.2 1.1 5.8-1.2 1.6-5.8-5.9-8.1-10.4-3.3-3 3.1-3.9 3.1-3.9 0 0-2.8-1.7-3.1-6-1.3zm32.4.7c-4.4 2.7-7.2 6.6-8.9 12.5-1.3 4.5-1.3 5.8 0 10.6 1.8 6.7 4 9.8 9.1 12.7 4.6 2.7 13 3.1 17.2.9 3.1-1.7 7.4-6 9.3-9.6.7-1.4 1.3-5.8 1.3-10.1.1-6.8-.2-8-2.8-11.3-4.4-5.8-8.1-7.6-15.6-7.6-4.6 0-7.4.6-9.6 1.9zm12.2 1.7c5.6 2.7 8.2 10.5 7.6 23.5-.3 4.9-4.8 9.9-9 9.9-7.1 0-11.7-8.2-11.7-21 0-7 1.5-10.3 5.7-12.7 3-1.6 3.4-1.6 7.4.3zm25.9-2.2c-6 2.2-6.8 3.5-3.2 5.1 2.2 1 2.2 1.3 2.5 23.4.2 19.8 0 22.6-1.4 24.2-1 1.1-2.3 1.9-3.1 1.9-.7 0-1.3.4-1.3 1s4 1 10 1 10-.4 10-1-.8-1-1.9-1c-3.2 0-4.4-2.7-4.5-10-.1-7.1.6-9.2 2.6-7.2 1.9 1.9 9.9 1.4 13.4-.7 9.3-5.7 13.2-19.7 8.3-29.8-2.8-5.7-6.5-8.3-12.3-8.3-4.6 0-9.6 1.6-9.6 3.2s-1.9.8-2.5-1.2c-.7-2.2-2.4-2.4-7-.6zm21.1 6.8c5 5.7 5.9 15.4 2.2 22.8-2.9 5.6-6.7 7.1-12.1 4.5-3.1-1.5-3.7-2.3-4.3-6.2-1.1-7.4 0-19 2.1-21.3 2.6-2.9 9.5-2.8 12.1.2zm25.8-6c-4.1 2.8-6.8 7.2-8.4 13.4-1.1 4.4-1.1 5.7.4 10.2 3.3 9.7 9.2 14.2 18.7 14.2 18.7 0 25.8-27.1 10-37.7-4.7-3.2-16.1-3.2-20.7-.1zm13.7 2.1c5 3.3 6.8 7.8 6.9 17 0 11-2.8 15.7-9.3 15.7-5.9 0-10.2-6.7-11.3-17.4-.8-8.1.7-13.1 5-15.7 4-2.4 4.6-2.4 8.7.4z"/><path d="M1226.8 1104.2c-5 2.1-6.2 3.8-2.8 3.8 3.1 0 4 3.2 4 14.7 0 12.8-.4 14.7-3.6 16.3-3.9 2.1-1.7 3 7.7 3 9.2 0 10.7-.7 6.4-3-3-1.6-3.9-6.7-3.3-18.5.3-6.3.9-8.9 2.3-10.5 1.9-2.1 5-2.7 6-1 .3.5 1.7 1 3.1 1 3 0 5.2-4.4 3.3-6.6-1.8-2.2-7.9-1.7-10.5.7-2.3 2.2-4.4 1.9-4.4-.7 0-1.9-2.5-1.7-8.2.8zm54 0c-5 2.1-6.2 3.8-2.8 3.8 3.4 0 4.2 3.4 3.8 16.4-.2 9.8-.6 12.6-2 13.9-.9.9-2.1 1.7-2.7 1.7-.6 0-1.1.4-1.1 1 0 1.2 17.7 1.4 18.4.1.3-.4-.6-1.3-1.9-1.9-2.5-1.1-2.5-1.1-2.7-18.9-.3-20.3-.1-20-9-16.1zm29.7-1c-13.4 7.4-14.3 27.9-1.6 35.9 7.6 4.9 18.6 3.5 23.9-3 4.8-5.9 6.6-16.6 3.8-23.2-1.5-3.6-5.6-7.9-9.3-9.8-2.8-1.4-14.2-1.4-16.8.1zm10 1.8c3.8 1.4 5.5 3.4 7.6 9.1 4.6 12.1.3 24.9-8.4 24.9-3.7 0-8.2-4.4-9.7-9.6-3.5-12.3-2-20.4 4.5-24.2 2.5-1.4 2.8-1.4 6-.2zm26.8-1.6c-4.5 1.7-5 2.4-2.5 4.2 2.1 1.4 2.2 2.3 2.2 14.8 0 11.8-.2 13.6-2 15.9-1.1 1.4-2 2.8-2 3.1 0 .3 3.6.6 8 .6s8-.4 8-.8c0-.5-.9-1.7-2-2.7-1.8-1.6-2-3.1-2-14.5 0-14.2.6-15.6 7.1-16.6 2.7-.5 3.9-.1 5.4 1.6 2.8 3.1 3.5 22.1 1 27.4-1 2-2.1 3.6-2.6 3.6s-.9.4-.9 1 3.3 1 8 1c4.4 0 8-.3 8-.7 0-.3-.8-1.5-1.7-2.6-1.5-1.6-1.9-4.5-2.3-16.7-.5-14-.6-15-2.9-17.4-3.9-4.1-12.4-3.5-17.1 1.2-1.3 1.4-1.6 1.3-2.4-1.1-1.1-2.9-2.3-3.1-7.3-1.3zm69 .6c-1.8 1-4.5 3.9-6 6.2-2.3 3.6-2.7 5.4-2.7 11.3 0 7.4 1 10.2 5.3 14.8 3.8 4.2 7.3 5.7 13.1 5.7 8.9 0 15.3-4.8 18.6-14.2 1.9-5.4 1.8-7.7-.7-14.4-1.7-4.6-2.9-6.1-6.7-8.5-3.9-2.4-5.6-2.9-11.1-2.9-4.8 0-7.5.5-9.8 2zm13.4 1.9c4.8 3 6.8 8.2 6.8 17.7 0 8.9-1.3 12.5-5.2 14.3-8.9 4-15.3-3.9-15.3-19 0-7.9.1-8.2 3.4-11.5 3.9-3.9 5.8-4.2 10.3-1.5zm-249.6 80.2c-1.8.7-2.2 1.5-1.9 4.1.3 2.9.7 3.3 3.5 3.6 3.6.4 5.6-2 4.7-5.5-.7-2.5-3.1-3.3-6.3-2.2zm-254.8 1.2c-5 1.2-5.3 1.9-1.8 3.5l2.5 1.2-.2 24.2c-.3 24.1-.3 24.3-2.5 25.3-4.2 1.8-2.4 2.5 6.7 2.5 5 0 9-.4 9-.9s-1-1.1-2.2-1.3c-2.1-.3-2.3-.9-2.6-8.1-.2-4.4.1-7.7.7-7.7.5 0 3.2 3.1 6.1 7 3.8 5.1 5 7.5 4.5 9-.6 1.9-.2 2 7.9 2 8.9 0 10.6-.8 5.7-2.6-2.7-1.1-18.1-19-18.1-21.2 0-1.6 9.5-9.7 13.7-11.7l3.8-1.9-3.4-.9c-1.9-.4-4.9-.6-6.7-.3-2.5.5-3.1 1-2.7 2.6.4 1.4-.9 3.3-4.8 6.9-3 2.7-5.7 4.7-6.1 4.4-.5-.2-.8-7.8-.8-16.9 0-18.6.7-17.4-8.7-15.1zm104.7-.3c-.8.5-2.5 1-3.7 1-2.8 0-3 1.6-.3 3 1.7.9 2 2.1 2 8 0 3.9-.4 7-.9 7-.4 0-2.3-.5-4.1-1.1-6.3-2.2-15.2 2.8-18.9 10.5-4.2 9-1.9 22.9 4.5 27.1 3.9 2.5 11.6 3.1 15.5 1.1 2.1-1.1 3.5-1.3 3.7-.6.5 1.5 5.4 1.2 9.6-.5 4.2-1.8 4.5-2.8 1.1-4.3l-2.5-1.2v-51h-2.2c-1.3 0-3 .5-3.8 1zm-4.3 23.2c2.2 2 2.3 2.9 2.3 14.1 0 13.9-.8 15.7-7 15.7-3.7 0-7.4-2.8-9.9-7.7-2.9-5.7-.6-19.6 3.8-23 2.6-2 8.2-1.6 10.8.9zm44.8-23.2c-1.1.4-2.8 1.1-3.9 1.4-1.7.6-1.6.8.8 2.7l2.6 2v47.9l2.7 1.7c1.9 1.3 4.7 1.8 10.2 1.8 9.1 0 13-1.9 17.6-8.4 2.6-3.7 3-5.3 3.3-11.9.3-7.1.1-8-2.7-12.4-2-3.1-4.3-5.3-6.7-6.3-4.8-2-6.7-1.9-11.4.5-2.2 1.1-4.1 2-4.4 2-.3 0-.7-4.8-.8-10.8-.3-10.6-.3-10.7-2.8-10.9-1.4-.1-3.4.2-4.5.7zm19.6 25.1c3.9 2.8 5.9 7.9 5.9 15.1 0 11.6-6.8 17.6-15.5 13.6-2.5-1.1-2.5-1.2-2.5-14V1214l3.3-2c4-2.5 5.2-2.5 8.8.1zm433.4-25.1c-1.1 1.8-8.7 5-11.8 5-1.6 0-4.3-1-6-2.3-4.4-3-12.1-3-16.5.2-11.2 7.9-13.3 24.2-3.8 28.8 6.7 3.2 14.7-1.4 19.2-11.2 1.3-2.7 2.6-6.9 3-9.2l.6-4.3h5.5c6.6 0 6.8-1.3-2.8 15.8-3.9 7-8.3 14.7-9.7 17.2-1.3 2.5-4 7.1-5.8 10.3-3.8 6.5-4.3 9-1.7 8.5 1.6-.3 5.5-6.3 13-19.8 3.6-6.6 7-12.7 10.8-19.5 8.4-14.9 10.5-18.9 10.5-19.6 0-1.2-3.7-1.1-4.5.1zm-22.7 4.6c3 1.4 3.2 1.9 3.2 6.5 0 3-.8 6.5-2 8.8-2.3 4.6-7.4 9.1-10.2 9.1-3.1 0-5.8-2.9-5.8-6.3 0-4 5.5-15.1 8.7-17.6 3.1-2.5 2.3-2.4 6.1-.5zm48.2-4.8c0 .5 1 2 2.1 3.3 8.6 9.7 10.9 16.7 10.9 32.9 0 8.7-.5 13.1-1.9 17.3-2 6.1-6.4 13.3-9.3 15.1-1 .6-1.8 1.7-1.8 2.4 0 1 .6.9 2.8-.2 4.4-2.3 11.5-10.6 14.8-17.1 2.7-5.6 2.9-6.8 2.9-17.6 0-11.1-.1-11.7-3.4-18.2-1.9-3.7-5.6-9-8.3-11.7-5-5.1-8.8-7.8-8.8-6.2zm-86.9 5.9c-3.8 3.8-6.9 8.1-9 12.4-2.9 6.2-3.1 7.5-3.1 17.4 0 10.2.2 11.1 3.4 17.9 3.5 7.2 12.5 17.6 15.2 17.6 2.1 0 1.7-1.3-1.5-4.4-6.5-6.3-9.3-15.6-9.4-31.7 0-14.5 2.3-22.1 8.9-29.4 4.9-5.3 5-5.5 2.9-5.5-.9 0-4.2 2.6-7.4 5.7zm-915.8 12.9c-1.7.7-3.4 1.8-3.8 2.4-1.1 1.7-2.5 1.1-2.5-1.1 0-1.8-.4-2.1-2.7-1.6-1.6.3-4.6 1.3-6.8 2.2l-3.9 1.7 2.7 1.4 2.7 1.5v23.5c0 22.9-.1 23.6-2 24.1-4.4 1.2-1.1 2.8 6 3.1 7.4.3 11.9-1.2 7.2-2.5-2.7-.7-3.4-3.1-3-10.8.2-4.8.6-5.9 1.8-5.5.8.2 4 .4 7.1.4 4.6 0 6.3-.5 9.1-2.6 11-8.4 10.9-29.5-.2-35.7-4.3-2.4-7.1-2.5-11.7-.5zm6.5 6c3.8 2.7 5.2 6.7 5.2 15.3 0 7.7-.1 8.1-3.4 11.5-3.8 4.1-6.6 4.5-11.3 1.6l-3.3-2v-24l3.3-2c3.9-2.4 6.5-2.5 9.5-.4zm30.4-6.3c-12 3.8-16.5 24.2-7.6 34.6 3.8 4.4 8.4 5.8 15.5 4.6 4.9-.8 12.4-7.1 13.1-11 .7-3.3.3-3.2-4.3 1-3.4 3.1-4.6 3.5-9.2 3.5-4.5 0-5.7-.4-7.9-2.8-3.2-3.5-5-8.2-4.6-11.8l.3-2.9 12.8-.3c14.3-.3 14.1-.2 10.6-7.7-3.3-7-10.6-9.8-18.7-7.2zm8.3 5.2c1.4 1.3 2.5 3.3 2.5 4.5 0 1.8-.6 2-8 2-9.2 0-10.1-1.1-5.1-6.1 3.6-3.6 7.3-3.7 10.6-.4zm34.2-3.5c-4.1 3.5-4.7 3.7-4.7 1.1 0-3-1.4-3.3-6.7-1.5-6 2-6 2-3.4 4.1 2.1 1.7 2.2 2.5 1.9 15.8-.3 13.4-.4 14-2.5 15-4.3 1.8-2.3 2.5 7.2 2.5 5.7 0 9.5-.4 9.5-1s-.9-1-2-1c-3 0-4-3.8-4-15.5 0-9.5.2-10.6 2.4-13.1 2.1-2.6 2.5-2.7 5.4-1.5 4 1.7 7.2.6 7.2-2.3 0-2.6-2.8-5.6-5.3-5.6-.9 0-3.2 1.3-5 3zm20.7-1.5c-4 1.8-6.4 5.5-6.4 10.1 0 3.1.7 4.5 4.3 7.9 2.4 2.2 6 4.9 8 5.8 2.1 1 4.4 2.9 5.3 4.2 3.3 5.1-1.1 10.4-7.4 8.9-3.8-.9-5.1-2.2-6.9-6.6-.8-2.1-1.9-3.8-2.4-3.8s-.9 2.6-.9 5.9v5.8l7.5.6c4.1.4 8.2.4 9.2.1 4.2-1.4 6.6-3 7.9-5.6 3.2-6.2 1.1-10.6-8-16.3-8.8-5.5-10.6-7.2-10.6-10.2 0-3 4.2-5.7 7.5-4.9 3 .8 6.5 4.4 6.5 6.8 0 1 .7 1.8 1.6 1.8 1.2 0 1.4-1 1.2-4.7-.3-4.5-.5-4.8-3.8-5.6-6.4-1.6-9.5-1.6-12.6-.2zm38.1-.2c-5.6 2.2-7.4 3.7-10.2 8.4-2.2 3.9-2.7 5.8-2.7 11.3.1 3.9.7 7.8 1.7 9.6 5.7 11 20.9 13.9 29.6 5.6 8.5-8.1 9.1-22.2 1.2-30.1-5.4-5.4-13.1-7.3-19.6-4.8zm11.9 5.8c1.4 1.7 2.8 4 3.1 5.2 2 8.9 2.2 10.9 1.2 15.6-1.2 6.3-4.7 10.1-9.1 10.1-6.9-.1-11.6-8.3-11.6-20.5 0-6.4.3-7.7 2.6-10.4 2.1-2.6 3.3-3.1 6.9-3.1 3.6 0 4.8.5 6.9 3.1zm37-5.6c-1.7.7-3.6 2.1-4.3 2.9-1.6 1.9-3.1 1.2-3.1-1.6 0-1.8-.4-2-3.2-1.4-4 .8-8.8 2.8-8.8 3.7 0 .4.9.9 2 1.2 1.9.5 2 1.4 2 15.6 0 12.6-.3 15.3-1.5 15.7-3.6 1.4-.9 2.4 6.5 2.4 4.7 0 8-.4 8-1s-.7-1-1.5-1-1.9-.9-2.5-1.9c-1.4-2.8-1.2-24.2.3-26.2 1.7-2.2 5.1-3.9 8-3.9 4.5 0 5.2 2.2 5.2 16.7 0 11.7-.2 13.6-1.7 14.7-1 .7-1.8 1.6-1.8 2 0 .3 3.6.6 8 .6 4.7 0 8-.4 8-1s-.7-1-1.5-1c-2 0-2.4-2.4-2.7-17.8-.4-13.2-.4-13.3-3.3-16.2-3.6-3.5-7.9-4.4-12.1-2.5zm31.9.2c-4.1 2.1-6.7 7.3-5.9 11.8.7 3.6 5.3 8.3 10.9 11.1 5 2.6 7.7 5.5 7.7 8.5 0 3.5-2.3 5.3-6.7 5.3-2.7 0-4.2-.7-6.4-3.2-1.6-1.8-2.9-4.2-2.9-5.3 0-1.2-.5-1.9-1.2-1.7-.8.3-1.3 2.4-1.3 5.9v5.4l6 .7c13.4 1.7 18.9-1.3 18.9-10.1 0-2.7-.6-5.6-1.3-6.4-.6-.9-4.4-3.4-8.2-5.8-8.5-5.1-10.7-7.9-9.1-11.4 2.4-5.3 10-4.1 12.9 2 2.3 4.8 3.3 4.4 3.3-1.4 0-4.8-.1-4.9-3.5-5.5-8.7-1.5-10.1-1.5-13.2.1zm64 .3c-1.8 1.1-3.3 2.4-3.3 3 0 .5-.4 1-1 1-.5 0-1-1.2-1-2.6 0-2.4-.3-2.6-2.7-2.1-1.6.3-4.6 1.3-6.8 2.3-3.8 1.6-3.9 1.7-1.7 2.7 3 1.4 3.3 3.1 3 17.7-.3 11.9-.4 12.5-2.5 13.5-4.2 1.8-2.4 2.5 6.7 2.5s10.9-.7 6.8-2.5c-2.2-1-2.3-1.6-2.6-13.5-.2-11.7-.1-12.7 1.9-14.9 1.5-1.6 2.8-2.1 4.3-1.6 5.4 1.7 6.4 1.7 7.4-.2 1.4-2.5-.6-6.7-3.3-7.1-1.1-.1-3.5.7-5.2 1.8zm21.8-.6c-6.7 2.4-10.1 9.3-5.8 12 2.6 1.7 5.1-.4 5.5-4.7.4-4.3 2.9-6.1 7.2-5.2 2.4.5 3.2 1.4 4 4.5.6 2.1.7 4.5.4 5.4-.6 1.5-10.2 6.6-12.4 6.6-.5 0-2.5 1.5-4.4 3.4-3.2 3-3.6 3.9-3.6 8.4 0 4.3.4 5.4 2.6 7.1 3.4 2.7 7.6 2.7 13-.1l4.4-2.2 2 2.2c2.3 2.5 5.3 2.8 9 .9 2.6-1.3 3.5-4.4 1.1-3.9-3.4.7-4.1-1.8-4.1-15 0-14.5-.8-16.9-6.8-19.3-4.1-1.8-7.5-1.8-12.1-.1zm11.5 19.2c1.1 4.2-.2 11.6-2.2 13.1-5.5 4-10.4 1.8-10.4-4.8 0-3.5.5-4.3 4.8-7.4 5.6-4.1 7-4.3 7.8-.9zm33.5-17.9c-2.5 1.4-4.6 2.2-4.8 1.7-1.2-3.5-2-3.7-7.7-1.9-5.5 1.8-7.4 3.5-3.7 3.5 2.8 0 3.1 1.8 3.1 16.1 0 11.6-.2 13.1-2 14.9-1.1 1.1-2 2.2-2 2.5 0 .3 3.6.5 8 .5 4.7 0 8-.4 8-1s-.6-1-1.4-1c-2.2 0-2.6-2.4-2.6-15.5v-12.4l2.9-2c3-2.1 6.6-2.7 8.8-1.3 2.3 1.4 3.3 6.4 3.3 15.6 0 9.9-1.3 15.6-3.6 15.6-.8 0-1.4.4-1.4 1s3.3 1 8 1c4.4 0 8-.2 8-.5s-.9-1.4-2-2.5c-1.8-1.8-2-3.3-2-14.5 0-14.3-1.2-18.5-5.9-20.9-4.1-2.2-5.9-2-11 1.1zm77.9-.4c-3 1.6-5.5 4-7.4 7.1-2.5 4-2.9 5.7-2.9 12 0 8.7 2.8 14.8 8.3 17.8 5 2.8 13.8 2 18.5-1.7 3.4-2.5 8-9.7 6.9-10.8-.3-.3-2.3 1.3-4.5 3.4-3.6 3.6-4.5 3.9-9.4 3.9-4.5 0-5.8-.4-8.2-2.8-3-3-5.9-11.2-4.9-13.7.4-1.2 2.8-1.5 13.1-1.5H996v-2.9c0-3.6-3.8-9.2-7.4-11-5.1-2.4-9.7-2.3-14.6.2zm9.7 3.5c1.2.9 2.3 2.8 2.5 4.2.3 2.5.2 2.5-7.6 2.8l-7.8.3.6-2.8c.9-3.5 4.3-6.3 7.6-6.3 1.4 0 3.5.8 4.7 1.8zm231.8-3.3c-4.9 3-5.2 3-6 .4-.6-1.8-1.2-2-3.8-1.5-6.2 1.3-11.5 4.6-7.2 4.6 2.7 0 3.5 3.8 3.5 16.4 0 11.3-.2 12.8-2 14.6-1.1 1.1-2 2.2-2 2.5 0 .3 3.6.5 8 .5 7.5 0 10.5-1.1 6-2.3-1.9-.5-2-1.4-2-14 0-13.4 0-13.6 2.6-15.6 3.3-2.6 7.6-2.7 9.7-.3 1.4 1.5 1.7 4.2 1.7 15 0 12.1-.2 13.3-2 14.4-3.5 2.2-2.2 2.8 6 2.8 7.5 0 10.5-1.1 6-2.3-1.9-.5-2-1.4-2-14.1 0-15.5-1.1-19.6-5.9-22-4.1-2.2-5.9-2-10.6.9zm37.7-1.1c-4.6 1.7-10.7 8.1-12.1 12.5-2.7 9.2 0 19.9 6.3 24.4 4.7 3.4 14 3.1 18.8-.5 3.5-2.7 7.4-9 5.9-9.6-.4-.1-2.3 1.1-4.1 2.8-5.7 5.4-15 3.6-18.7-3.5-1.1-2.1-1.7-7.4-1.4-13.7.2-5.2 4.9-9.8 10-9.8 3.5 0 3.9.3 5.7 4.2 1.6 3.7 2.3 4.3 4.9 4.3 2.6 0 3-.4 3.3-3 .3-3.6-2.4-6.6-7.7-8.4-4.1-1.3-6.5-1.3-10.9.3zm37.9-.1c-8.8 2.8-14.4 14.2-12.1 24.5 1.7 7.5 7.8 13.7 14.4 14.7 9.5 1.5 15.7-1.4 20.3-9.3 5.1-8.7 3.2-21.2-4-26.5-6-4.5-11.9-5.6-18.6-3.4zm12 5.4c3.8 4.2 4.9 7.7 4.9 15.9 0 10.9-2.9 15.4-9.7 15.4-3.6-.1-5.5-1.6-8.3-6.5-1.9-3.3-2.3-5.6-2.4-13.2-.1-8.4.1-9.3 2.3-11.7 3.5-3.7 9.8-3.7 13.2.1zm36.9-4.2c-5.3 2.8-6 3-6 1.1 0-2.6-1.9-2.8-7.5-1-5.8 1.8-7 3.1-3.2 3.6 2.1.3 2.2.7 2.5 13.8.3 14.8-.1 18-2.3 18-.8 0-1.5.4-1.5 1s3.3 1 8 1c7.5 0 10.5-1.1 6-2.3-1.9-.5-2-1.4-2-14 0-13.4 0-13.6 2.6-15.6 1.7-1.3 4.1-2.1 6.6-2.1 5.1 0 5.8 1.9 5.8 17 0 12.6-.4 15-2.6 15-.8 0-1.4.4-1.4 1s3.6 1 8.8 1h8.7l-2.5-2c-2.4-1.8-2.5-2.4-2.8-14.2-.3-11.4-.2-12.5 1.8-15.1 1.7-2.2 3-2.7 6.4-2.7 2.3 0 4.7.5 5.4 1.2.8.8 1.2 5.7 1.2 15.6 0 13.5-.1 14.4-2 14.9-4.6 1.2-1.4 2.3 6.8 2.3l8.7-.1-2.7-2c-2.8-2.1-2.8-2.1-2.8-14.9 0-14.6-1.2-19-6-21.5-1.6-.8-3.6-1.5-4.4-1.5-1.6 0-9.2 3.3-11.9 5.2-1.5 1.1-2 1-3.5-.8-2-2.6-5.4-4.4-7.9-4.4-1 .1-3.8 1.2-6.3 2.5zm59.5-.6c-8.2 3.7-11.5 9.6-11.5 20.3 0 13.7 9.2 21.3 21.7 17.9 4.7-1.3 12.3-8.9 12.3-12.4 0-1.6-.7-1.3-4.5 2.2-4.4 4-4.8 4.2-10.2 3.9-5.1-.3-5.9-.6-8.5-3.9-2.3-2.8-3-4.8-3.1-8.5l-.2-4.9 12.5-.5 12.5-.5-.3-3c-.7-6.1-8.1-12.5-14.4-12.5-1.3 0-4.1.9-6.3 1.9zm9 4.6c1.4 1.3 2.5 3.3 2.5 4.5 0 1.8-.6 2-8.1 2-7.9 0-8 0-7.4-2.3.9-3.2 5.2-6.7 8.1-6.7 1.4 0 3.6 1.1 4.9 2.5zm-297.7-4.9c-2.2.7-2.3 2-.3 2.8.9.3 2.3 2.2 3.1 4.2.8 2 4 8.8 7 15.1 6.8 14.4 7 15.2 4.6 20.6-2.5 5.5-3.5 6.2-9.7 6.2-4.8 0-5 .1-5.3 3-.6 5.2 5.1 7.2 11 3.7 2-1.2 4.2-4.2 6.9-9.8 2.1-4.4 3.9-8.6 3.9-9.2 0-.7.4-2 .9-3 .5-.9 2.4-5.5 4.1-10.2 6.3-16.7 7.3-19.2 8.8-20.7 1.3-1.3 1.3-1.6.1-2.4-3.3-2.1-9.2-.2-7.1 2.3.9 1.1.4 3.3-1.9 9.9-1.7 4.6-3.6 9.7-4.3 11.4l-1.3 3-2.3-5c-1.2-2.8-3.3-7.2-4.6-9.9-2.6-5.5-3.1-9.2-1.1-9.9 3.9-1.4-8.1-3.4-12.5-2.1zm68 1.2c-4.7 1.7-6.3 3.2-3.3 3.2 2.7 0 3.5 3.8 3.5 16s-.8 16-3.5 16c-.8 0-1.5.4-1.5 1s3.7 1 9 1 9-.4 9-1-.6-1-1.4-1c-2.7 0-3.1-2.4-3.6-19.5-.6-19.1-.2-18.5-8.2-15.7zm343.6 8.4c-7.7 5.2-12.3 16.2-9.3 22.1 2.6 4.9 5.1 6.7 9.6 6.7 5.1 0 7.8-1.2 11.1-4.9 4.4-5 6.2-9.7 6.2-16.5 0-5.8-.3-6.7-2.6-8.5-4-3.1-9.2-2.7-15 1.1zm14 3c1.8 2.5 2.1 6.9.7 9.6-.5.9-1.4 2.9-2.1 4.3-3.1 6.8-10 10.8-13.5 7.9-3.5-2.9 0-16.6 5.6-21.9 3-2.8 7.3-2.7 9.3.1z"/></svg>