<svg version="1.0" xmlns="http://www.w3.org/2000/svg" viewBox="0 0 1952 1280"><path d="M326 193.5V350h-16c-10 0-16 .4-16 1 0 .5-.1 1.3-.2 1.7-.2.5 6.9 1 15.7 1.3l16 .5.3 84.7.2 84.8h-15.4c-12.4 0-15.6.3-16.6 1.5-1.8 2.2-.4 2.4 16.5 2.7l15 .3.3 84.7.2 84.8h-15.4c-12.4 0-15.6.3-16.6 1.5-1.8 2.2-.4 2.4 16.5 2.7l15 .3v170l-15.7.3c-13 .2-15.8.5-15.8 1.7s2.8 1.5 15.8 1.7l15.7.3v170l-16 .5c-9.7.3-16 .9-16 1.5s6.3 1.2 16 1.5l16 .5.5 16.5c.4 13.8.7 16.5 2 16.5s1.6-2.7 2-16.5l.5-16.5h169l.5 16.5c.4 13.8.7 16.5 2 16.5s1.6-2.7 2-16.5l.5-16.5h169l.5 16.5c.4 13.8.7 16.5 2 16.5s1.5-2.6 1.8-16.2c.2-15.9.3-16.3 2.5-16.8 1.2-.3 39.3-.4 84.7-.3l82.5.3.3 15.4c.2 14.6 1.1 18.9 3.3 17.5.5-.3.9-7.7.9-16.4 0-15.7 0-16 2.3-16.5 1.2-.3 39.3-.4 84.7-.3l82.5.3.3 15.4c.2 14.6 1.1 18.9 3.3 17.5.5-.3.9-7.6.9-16.4 0-13.5.2-15.9 1.6-16.4.9-.3 38.9-.6 84.4-.6 65.2 0 83.1.3 83.7 1.2.4.7 1 8.2 1.3 16.6.7 20.2 2.4 20.2 2.8 0 .1-9.1.7-15.7 1.3-16.5 1.6-1.9 167.4-1.9 168.6 0 .4.6 1 8.1 1.3 16.6.4 11.1.9 15.6 1.8 15.9.9.3 1.2-3.3 1.2-15.6 0-12.2.3-16.2 1.4-17.1 1-.8 23.9-1 84.7-.9l83.4.3.5 16.5c.4 13.8.7 16.5 2 16.5s1.6-2.7 2-16.5l.5-16.5 85.8-.3c75.2-.2 85.7-.4 85.7-1.7 0-1.6-14.3-1.7-258.2-1.5-79.5.1-86.7-.1-87.6-1.6-.8-1.5-1.1-1.5-3.4 0-2.2 1.5-10.4 1.6-86.4 1.4l-83.9-.3-.3-2.3c-.2-1.2-.9-2.2-1.5-2.2-.7 0-1.7 1-2.2 2.2l-1 2.3h-169l-.3-3.3c-.5-4.5-3.6-4.1-4 .6l-.3 3.2-84.7-.2-84.7-.3-.3-2.2c-.4-3.1-3-2.9-4.2.2l-1 2.5h-83.6c-76.5 0-83.9-.1-85.6-1.7-1.7-1.5-1.9-1.5-3.6 0-1.7 1.6-15.1 1.7-172.8 1.4l-170.9-.2-.3-84.8c-.2-84.2-.2-84.9 1.8-85.4 2.6-.7 2.6-2.9 0-3.6-2-.5-2-1.4-2-85.2s0-84.7 2-85.2c1.1-.3 2-1.2 2-2s-.9-1.7-2-2c-2-.5-2-1.4-2-85s0-84.5 2-85c1.1-.3 2-1.2 2-2s-.9-1.7-2-2c-2-.5-2-1.4-2-85s0-84.5 2-85c1.1-.3 2-1.2 2-2s-.9-1.7-2-2c-2-.5-2-1.4-2-156.9C330 37.7 330 37 328 37s-2 .7-2 156.5zM231.7 45.9c-.2 1.1-2.7 3-5.3 4.3-9.6 4.6-10.7 13-2.6 19.8 2 1.7 4.7 4 6 5 2.1 1.8 2.3 2.6 2 10.7-.3 8.3-.4 8.8-2.6 9.1-2.6.4-9.2-5.5-9.2-8.2 0-.9-.5-1.6-1.1-1.6-.6 0-.9 2-.7 5.1.3 5 .4 5.1 4.3 6.5 2.2.7 5 1.4 6.3 1.4 1.7 0 2.4.7 2.9 3 .3 1.6 1 3 1.5 3 .4 0 1.1-1.4 1.5-3 .3-1.7 1.2-3 2-3 3 0 9.3-4.4 10.8-7.6 3.4-7.2.5-13.5-8.9-19.3l-3.6-2.3v-8.4c0-7.4.2-8.4 1.8-8.4 2 0 7.2 4.9 7.2 6.8 0 .7.5 1.2 1 1.2.6 0 1-1.7 1-3.8 0-4.1-.8-4.8-7.5-6.8-1.6-.5-3.4-1.9-4-3.2-1.2-2.7-2.1-2.8-2.8-.3zm.1 12.5c.4 7.8-1 9.2-4.9 4.8-3.5-3.8-3.4-3.8-.9-8 3.2-5.2 5.4-4 5.8 3.2zm7.4 22.3c3.5 3.4 3.8 8.6.6 12-3.9 4.2-4.8 3.1-4.8-6.2 0-4.7.3-8.5.7-8.5.4 0 2 1.2 3.5 2.7zM92.4 49.4c-1 2.7.1 5.1 2.6 5.4 3.1.5 5.3-2.3 3.9-4.9-1.2-2.2-5.7-2.5-6.5-.5zm162.6-.7c0 .5 1.8 3.3 4 6.2 2.2 2.9 4.3 6.5 4.6 8 .3 1.4 1 3.6 1.5 4.9 1.5 3.7 1.1 21.2-.7 26.1-2.1 6.2-3.9 9.3-6.8 12-1.4 1.4-2.6 2.8-2.6 3.3 0 3.9 10.8-6.5 14.6-14 2.6-5.1 2.8-6.7 2.8-15.2 0-10.5-1.8-15.9-7.4-23-3.2-4-10-9.6-10-8.3zm-232 .8c0 .4 1.1 1.8 2.5 3.1C28 54.9 28 55 28 73.2c0 15-.3 18.8-1.6 20.6-.8 1.2-2.2 2.2-3 2.2-.8 0-1.4.4-1.4 1s4 1 10 1 10-.4 10-1-.8-1-1.9-1c-3.3 0-4.2-2.4-3.9-10.7l.3-7.8 7.5-.8c10.9-1.1 16.3-5.8 16.3-13.9 0-5.4-2.5-9.4-7.2-11.5-3.8-1.7-30.1-3.2-30.1-1.8zm22.4 3.9c4.4 1.8 6.6 5.2 6.6 9.9 0 4.8-4 9.2-9.3 10.2-6.4 1.2-6.7.7-6.7-10.3 0-5.4.3-10.2.7-10.5 1.1-1.1 5.1-.8 8.7.7zm160.1-.3C196.9 61 194 67.7 194 79.9c0 7.2.4 9.1 3 14.7 3.1 6.4 11 15.4 13.6 15.4 2.1 0 1.7-.9-1.5-3.5-6.4-5.5-10.3-22.1-8.1-35.3 1.3-7.8 3.8-13.3 8.4-18.6 2.9-3.2 3-3.6 1.6-3.6-.6 0-3.1 1.9-5.5 4.1zm-137 12.3c-3.9 1.4-5.5 2.5-5.5 3.7 0 .5.7.9 1.5.9 1.3 0 1.5 2 1.5 12.4 0 11.7-.1 12.4-2.2 13.9-2.2 1.5-1.8 1.6 6.5 1.6 4.8.1 8.7-.1 8.7-.4 0-.3-1.1-1-2.5-1.5-2.5-.9-2.5-1.1-2.5-12.3 0-7.5.4-11.7 1.2-12.5 1.5-1.5 5-1.6 6.4-.2 1.2 1.2 4 .4 4.7-1.3.2-.7.1-2.2-.4-3.5-1.1-2.8-5.7-3-8.7-.2-1.2 1.1-2.3 2-2.5 2-.3 0-.7-.9-1-2-.6-2.2-.9-2.3-5.2-.6zm26.5-.5c-.8.5-2.7 1.4-4.2 2.2-3.3 1.5-3.6 2.9-.8 2.9 1.9 0 2 .7 2 12.6 0 11.7-.1 12.6-2 13.1-4.5 1.2-1.5 2.3 6.3 2.3 8 0 8.1-.1 6-1.8-2.1-1.6-2.3-2.5-2.5-16.7-.3-15.7-.7-16.9-4.8-14.6zm21.4 1.6c-10.9 6.5-11.1 25-.4 30.6 6.5 3.5 13.6 1.7 17.9-4.6 2.9-4.3 2-5.7-1.5-2.4-3.3 3.1-10.2 3.3-13.4.4-7.2-6.5-6.1-18.8 2-23 3-1.5 3.3-1.5 5.1.1 1 .9 1.9 2.2 1.9 2.9 0 2.2 3.7 4.7 6 4 3.3-1 2.3-5.4-1.9-8.2-4.6-3.1-10.4-3-15.7.2zm32.6-.3c-5.2 3.6-7.1 6.9-7.7 13.5-.7 7.3.7 12 4.8 15.9 2.6 2.5 3.8 2.9 8.8 2.9 4.7 0 6.4-.5 9.2-2.6 3.7-2.8 6.7-7.5 5.6-8.6-.4-.3-2 .6-3.6 2.1-2.1 2-4.3 3-7.5 3.3-4.1.5-4.8.2-7.3-2.4-2.6-2.8-5.6-10.6-4.5-11.8.3-.3 5.5-.5 11.5-.5h11l-.6-3.8c-.4-2.5-1.8-4.8-4.2-7-4.4-4-10.4-4.4-15.5-1zm8.8 2.4c1.3.9 2.2 2.6 2.2 4 0 2.4-.2 2.5-6.2 2.2-5.7-.3-6.3-.5-6-2.3.4-2.4 3.8-5.5 6.1-5.5.9 0 2.7.7 3.9 1.6zm1105.2.6c-4.8 2.4-7 5.9-7 11.3 0 5.3 1 7.1 10 16.8 4.3 4.8 5.3 7.3 4.5 11.4-.6 3.5-5 7.3-8.4 7.3-5.2 0-10.1-4.8-10.1-9.9 0-1.1-.4-2.2-.9-2.5-1.4-.9-3.1 4.2-3.1 9.2v4.8l3.8.1c2 0 6.2.3 9.2.7 4.4.6 6.2.3 9-1.1 4.8-2.5 8-7.6 8-12.7 0-4.8-1.8-7.9-9.3-16.3-6.8-7.6-7.6-9.7-5-13.2 4-5.2 14.3-3.5 14.3 2.5 0 2.5 1.7 4.1 3 2.8.5-.5 1.2-3.2 1.6-6.1l.6-5.1h-3.8c-2.2 0-6.1-.3-8.9-.6-3.1-.3-6-.1-7.5.6zM788 70c-1.3.9-1.3 1.2.3 2.1 2.2 1.3 2.1 2.6-.3 11.3-1.1 3.9-2.5 8.7-3 10.6-4 14.7-5.4 18.8-7.1 20.6-1 1.1-1.9 2.3-1.9 2.7 0 1.3 22.4.7 27.5-.7 7.2-1.9 12.7-5 16.3-9.1 4.4-5 5.9-8.2 6.7-14.6 1.2-10-2.7-18.2-10.4-21.6-4.4-1.9-25.8-3-28.1-1.3zm22.9 3.8c5.4 2.6 7.4 7.2 6.9 15.7-.5 8.2-3.1 14.6-8 19.1-4.5 4.3-6.4 5.1-13.4 5.9-8.1 1-9-.1-6.8-8.1 2.2-8.2 3.4-12.4 4.4-15.9.5-1.7 1.6-5.9 2.5-9.5 1-3.6 2.2-7.1 2.7-7.8 1.5-1.7 7.7-1.4 11.7.6z"/><path d="M806.3 135.6c-.4 1.2 28 30.3 104.9 107.3l105.5 105.6-.2 4.1c-.1 4-1.4 5.3-83.8 87.7-54.5 54.5-84.4 83.7-85.9 83.9-1.5.2-2.4 1.1-2.6 2.6-.2 1.6-29.3 31.3-84.8 86.8C713 660 674.6 698 674.1 698s-1.6 1.2-2.6 2.6c-.9 1.5-49.4 50.3-107.6 108.5C505.6 867.3 458 915.6 458 916.5c0 .8.7 1.8 1.6 2.2 1.1.4 7.1-4.9 20.8-18.6 10.5-10.5 19.9-19.1 20.9-19.1s2.2-1.2 2.8-2.7c1.3-3.7 168.7-171.1 171.3-171.5 1.2-.2 2.2-1.2 2.4-2.3.4-2.7 169-171.2 171.7-171.7 1.1-.2 2.1-1.2 2.3-2.5.4-2.7 3.3-5.4 3.9-3.6.7 2 6.3 1.6 6.3-.3 0-.9-.9-1.8-2-2.1-1.1-.3-2-.8-2-1.2 0-.3 36.8-37.4 81.8-82.4 72-71.9 82.1-81.7 84.7-81.7 2.6 0 12.8 9.8 85 82 69.9 69.9 81.7 82.2 80.3 83.1-1 .5-1.8 1.7-1.8 2.6 0 1.2.8 1.4 3.6 1.1 3.1-.4 3.7 0 5 2.4.8 1.5 2.2 2.8 3.2 2.8 1.5 0 165.2 162.6 165.2 164.1 0 .4-1.1 1-2.5 1.3-3.6.9-3.2 3.6.5 3.6 2.1 0 3-.5 3-1.6 0-2.6 2.4-1 4.3 2.9 1.1 2.1 2.6 3.7 3.5 3.7 1 0 39.6 37.9 86 84.3 61.2 61.2 84.2 84.8 84.2 86.4 0 1.6.8 2.4 2.8 2.9 1.7.4 9.5 7.4 21.9 19.7 13.6 13.5 19.6 18.8 20.7 18.4.9-.4 1.6-1.2 1.6-1.9S1464.6 789 1310 634.5c-154.5-154.5-281-281.4-281-282 0-.5 48.2-49.2 107.1-108.1C1241.9 138.6 1246.2 134 1240.5 134c-.8 0-49.7 48.1-108.5 107-58.8 58.8-107.3 107-107.7 107-.5 0-49-48.2-107.8-107-58.8-58.9-107.6-107-108.3-107-.7 0-1.5.7-1.9 1.6zM215.5 325.7c-3.2.6-7.3 4.6-9 8.6-1.9 4.5-1.9 4.7 0 4.7.8 0 1.5-.6 1.5-1.3 0-.8 1.2-2.4 2.6-3.8 3.5-3.3 10.4-3.4 13.6-.1 1.9 1.9 2.3 3.3 2.2 8-.1 7-2.1 10.5-12.9 22.6-4.1 4.6-7.5 8.9-7.5 9.5 0 .7 4.6 1.1 13.9 1.1h13.9l1.6-4.1c2-4.9 1.6-5.7-1.6-3.5-1.6 1.2-4.6 1.6-11 1.6-4.9 0-8.8-.3-8.8-.6 0-.4 3.5-4.3 7.8-8.8 8.4-8.8 12.2-15.4 12.2-21.3 0-9.1-8.2-14.7-18.5-12.6zm45.8.1-9.1.3-4.1 8.5c-2.3 4.7-3.9 8.9-3.6 9.4.3.4 2.4 1.1 4.8 1.5 4.8.8 10.7 3.6 12.6 5.9 4.7 5.6 4.1 14.7-1.1 19.1-3.7 3.1-4.7 3.1-10.8 0-5.3-2.7-8-2.4-8 .7 0 3.2 3 4.7 9.1 4.8 13.3 0 21.4-9.3 19.4-22.5-.9-6.3-6.1-11.6-13.8-14-5.1-1.6-5.7-2-5.1-3.9 1-3.1 2.2-3.6 10.2-3.6 6.9 0 7.3-.1 8.3-2.7.5-1.4.8-2.9.7-3.2-.2-.3-4.4-.5-9.5-.3zm79.4 24.9c-1.6 1.6-.5 3.3 2.1 3.3 3.5 0 4.5-.9 3.1-2.7-1.2-1.4-4.1-1.8-5.2-.6zm12.4.6c-1.3 1.7-.5 2.7 2.4 2.7 2.7 0 3.5-.8 2.8-2.6-.7-1.8-3.7-1.8-5.2-.1zm12.6-.7c-1.7 1.7-.5 3.4 2.4 3.4 2.4 0 3-.4 2.7-1.8-.3-1.7-3.8-2.9-5.1-1.6zm11.8.4c-1 1.6.4 3 2.9 3 2.9 0 3.9-1 2.5-2.7-1.3-1.5-4.5-1.7-5.4-.3zm13.2-.4c-1.7 1.7-.5 3.4 2.4 3.4 2.4 0 3-.4 2.7-1.8-.3-1.7-3.8-2.9-5.1-1.6zm12 0c-1.7 1.7-.5 3.4 2.4 3.4 2.4 0 3-.4 2.7-1.8-.3-1.7-3.8-2.9-5.1-1.6zm12 0c-1.7 1.7-.5 3.4 2.4 3.4 2.4 0 3-.4 2.7-1.8-.3-1.7-3.8-2.9-5.1-1.6zm12 0c-1.7 1.7-.5 3.4 2.4 3.4 2.4 0 3-.4 2.7-1.8-.3-1.7-3.8-2.9-5.1-1.6zm12.6.1c-2.5.9-1.4 3.3 1.5 3.3 3.4 0 4.3-.7 3.5-2.6-.5-1.4-2.7-1.7-5-.7zm12.4-.1c-1.7 1.7-.5 3.4 2.4 3.4 2.4 0 3-.4 2.7-1.8-.3-1.7-3.8-2.9-5.1-1.6zm12 .1c-1.6 1.6-.5 3.3 2.1 3.3 3.5 0 4.5-.9 3.1-2.7-1.2-1.4-4.1-1.8-5.2-.6zm13-.1c-1.7 1.7-.5 3.4 2.4 3.4 2.4 0 3-.4 2.7-1.8-.3-1.7-3.8-2.9-5.1-1.6zm12 0c-1.7 1.7-.5 3.4 2.4 3.4 2.4 0 3-.4 2.7-1.8-.3-1.7-3.8-2.9-5.1-1.6zm12 0c-1.7 1.7-.5 3.4 2.4 3.4 2.4 0 3-.4 2.7-1.8-.3-1.7-3.8-2.9-5.1-1.6zm12 0c-1.7 1.7-.5 3.4 2.4 3.4 2.4 0 3-.4 2.7-1.8-.3-1.7-3.8-2.9-5.1-1.6zm12 .1c-1.6 1.6-.5 3.3 2.1 3.3 3.4 0 4.3-.7 3.5-2.6-.5-1.4-4.4-1.9-5.6-.7zm13-.1c-1.7 1.7-.5 3.4 2.4 3.4 2.4 0 3-.4 2.7-1.8-.3-1.7-3.8-2.9-5.1-1.6zm12 .1c-1.6 1.6-.5 3.3 2.1 3.3 3.5 0 4.5-.9 3.1-2.7-1.2-1.4-4.1-1.8-5.2-.6zm12.3 1.2c0 1.7.6 2.1 3.1 2.1 2.4 0 3-.4 2.7-1.8-.2-1-1.4-1.8-3.1-2-2.2-.3-2.7.1-2.7 1.7zm12.7-1.3c-1.7 1.7-.5 3.4 2.4 3.4 2.4 0 3-.4 2.7-1.8-.3-1.7-3.8-2.9-5.1-1.6zm12 0c-1.7 1.7-.5 3.4 2.4 3.4 2.4 0 3-.4 2.7-1.8-.3-1.7-3.8-2.9-5.1-1.6zm12 0c-1.7 1.7-.5 3.4 2.4 3.4 2.4 0 3-.4 2.7-1.8-.3-1.7-3.8-2.9-5.1-1.6zm12 .1c-1.6 1.6-.5 3.3 2.1 3.3 3.4 0 4.3-.7 3.5-2.6-.5-1.4-4.4-1.9-5.6-.7zm13-.1c-1.7 1.7-.5 3.4 2.4 3.4 2.4 0 3-.4 2.7-1.8-.3-1.7-3.8-2.9-5.1-1.6zm11.8.4c-1 1.6.4 3 2.9 3 2.9 0 3.9-1 2.5-2.7-1.3-1.5-4.5-1.7-5.4-.3zm12.5.9c0 1.7.6 2.1 3.1 2.1 2.4 0 3-.4 2.7-1.8-.2-1-1.4-1.8-3.1-2-2.2-.3-2.7.1-2.7 1.7zm12.7-1.3c-1.7 1.7-.5 3.4 2.4 3.4 2.4 0 3-.4 2.7-1.8-.3-1.7-3.8-2.9-5.1-1.6zm12 0c-1.7 1.7-.5 3.4 2.4 3.4 2.4 0 3-.4 2.7-1.8-.3-1.7-3.8-2.9-5.1-1.6zm12 0c-1.7 1.7-.5 3.4 2.4 3.4 2.4 0 3-.4 2.7-1.8-.3-1.7-3.8-2.9-5.1-1.6zm12 .1c-1.6 1.6-.5 3.3 2.1 3.3 3.4 0 4.3-.7 3.5-2.6-.5-1.4-4.4-1.9-5.6-.7z"/><path d="M709.7 350.6c-1.7 1.7-.5 3.4 2.4 3.4 2.4 0 3-.4 2.7-1.8-.3-1.7-3.8-2.9-5.1-1.6zm12 .1c-1.6 1.6-.5 3.3 2.1 3.3 3.5 0 4.5-.9 3.1-2.7-1.2-1.4-4.1-1.8-5.2-.6zm12 .6c-.8 2 .1 2.7 3.5 2.7 2.3 0 2.9-.4 2.6-1.8-.4-2.2-5.3-2.9-6.1-.9zm13-.7c-1.7 1.7-.5 3.4 2.4 3.4 2.4 0 3-.4 2.7-1.8-.3-1.7-3.8-2.9-5.1-1.6zm12 0c-1.7 1.7-.5 3.4 2.4 3.4 2.4 0 3-.4 2.7-1.8-.3-1.7-3.8-2.9-5.1-1.6zm12 0c-1.7 1.7-.5 3.4 2.4 3.4 2.4 0 3-.4 2.7-1.8-.3-1.7-3.8-2.9-5.1-1.6zm12 .1c-1.6 1.6-.5 3.3 2.1 3.3 3.4 0 4.3-.7 3.5-2.6-.5-1.4-4.4-1.9-5.6-.7zm13-.1c-1.7 1.7-.5 3.4 2.4 3.4 2.4 0 3-.4 2.7-1.8-.3-1.7-3.8-2.9-5.1-1.6zm12 .1c-1.6 1.6-.5 3.3 2.1 3.3 3.5 0 4.5-.9 3.1-2.7-1.2-1.4-4.1-1.8-5.2-.6zm12 .7c-.8 1.9.1 2.6 3.5 2.6 1.7 0 2.8-.5 2.8-1.4 0-2.5-5.4-3.6-6.3-1.2zm13-.8c-1.7 1.7-.5 3.4 2.4 3.4 2.4 0 3-.4 2.7-1.8-.3-1.7-3.8-2.9-5.1-1.6zm12 0c-1.7 1.7-.5 3.4 2.4 3.4 2.4 0 3-.4 2.7-1.8-.3-1.7-3.8-2.9-5.1-1.6zm12 0c-1.7 1.7-.5 3.4 2.4 3.4 2.4 0 3-.4 2.7-1.8-.3-1.7-3.8-2.9-5.1-1.6zm12.4.3c-1.9 1.2-.5 3.1 2.3 3.1s3.6-.8 2.9-2.6c-.6-1.6-3.1-1.8-5.2-.5zm12.6-.3c-1.7 1.7-.5 3.4 2.4 3.4 2.4 0 3-.4 2.7-1.8-.3-1.7-3.8-2.9-5.1-1.6zm12 0c-1.7 1.7-.5 3.4 2.4 3.4 2.4 0 3-.4 2.7-1.8-.3-1.7-3.8-2.9-5.1-1.6zm12 .8c-.7 1.8.1 2.6 2.8 2.6 2.9 0 3.7-1 2.4-2.7-1.5-1.7-4.5-1.7-5.2.1zm13-.8c-1.7 1.7-.5 3.4 2.4 3.4 2.4 0 3-.4 2.7-1.8-.3-1.7-3.8-2.9-5.1-1.6zm12 0c-1.7 1.7-.5 3.4 2.4 3.4 2.4 0 3-.4 2.7-1.8-.3-1.7-3.8-2.9-5.1-1.6zm12 0c-1.7 1.7-.5 3.4 2.4 3.4 2.4 0 3-.4 2.7-1.8-.3-1.7-3.8-2.9-5.1-1.6zm12.4.3c-1.9 1.2-.5 3.1 2.3 3.1s3.6-.8 2.9-2.6c-.6-1.6-3.1-1.8-5.2-.5zm12.1.4c-1.5 1.8-.5 2.7 3 2.7 2.3 0 2.9-.4 2.6-1.8-.4-2.1-4.1-2.8-5.6-.9zm12.5-.7c-1.7 1.7-.5 3.4 2.4 3.4 2.4 0 3-.4 2.7-1.8-.3-1.7-3.8-2.9-5.1-1.6zm12 .8c-.7 1.8.1 2.6 2.8 2.6 2.9 0 3.7-1 2.4-2.7-1.5-1.7-4.5-1.7-5.2.1zm13-.8c-1.7 1.7-.5 3.4 2.4 3.4 2.4 0 3-.4 2.7-1.8-.3-1.7-3.8-2.9-5.1-1.6zm18.3 14.9c-.9 1.1-1.1 2.2-.4 3.2 1.4 2.3 2.9 2 3.2-.6.5-3.2-1.1-4.6-2.8-2.6zm-.4 13c-.8 2.1.3 4.5 2 4.5.9 0 1.4-1.1 1.4-3 0-3.2-2.3-4.2-3.4-1.5zm.4 12c-.9 1.1-1.1 2.2-.4 3.2 1.4 2.3 2.9 2 3.2-.6.5-3.2-1.1-4.6-2.8-2.6zm-.6 13c-.9 2.1.3 4.5 2.1 4.5 1 0 1.5-1 1.5-3 0-3.2-2.6-4.3-3.6-1.5zm0 12c-.9 2.1.3 4.5 2.1 4.5 1 0 1.5-1 1.5-3 0-3.2-2.6-4.3-3.6-1.5zm0 12c-.9 2.1.3 4.5 2.1 4.5 1 0 1.5-1 1.5-3 0-3.2-2.6-4.3-3.6-1.5zm.6 12c-1.5 1.8-.6 4.5 1.5 4.5 1 0 1.5-1 1.5-3 0-3.3-1.1-3.8-3-1.5zm0 12c-.9 1.1-1.1 2.2-.4 3.2 1.4 2.3 2.9 2 3.2-.6.5-3.2-1.1-4.6-2.8-2.6zm-.4 13c-.8 2.1.3 4.5 2 4.5.9 0 1.4-1.1 1.4-3 0-3.2-2.3-4.2-3.4-1.5zm.4 12c-.9 1.1-1.1 2.2-.4 3.2 1.4 2.3 2.9 2 3.2-.6.5-3.2-1.1-4.6-2.8-2.6zm-.5 12.5c-1 1.6.5 5 2.1 5 .9 0 1.4-1.1 1.4-3 0-3-2.1-4.2-3.5-2zm-807 10.6c-3.2.7-7.3 4.7-9 8.7-1.9 4.5-1.9 4.7 0 4.7.8 0 1.5-.6 1.5-1.3 0-.8 1.2-2.4 2.6-3.8 3.5-3.3 10.4-3.4 13.6-.1 1.8 1.8 2.3 3.4 2.3 7.5 0 7-1.9 10.5-11.9 21.9-4.7 5.4-8.6 10.2-8.6 10.8 0 .6 5.1 1 13.9 1h13.9l1.6-4.1c2-4.9 1.6-5.7-1.6-3.5-1.6 1.2-4.6 1.6-11 1.6-4.9 0-8.8-.3-8.8-.6 0-.4 3.5-4.3 7.8-8.8 8.3-8.7 12.2-15.4 12.2-21.1 0-4.5-2.1-8.7-5.4-10.9-2.7-1.7-9.6-2.8-13.1-2zm38 .1c-3.4.6-7.3 4.7-9.7 9.9-1.8 4.1-2.2 6.7-2.2 15.4 0 9.3.3 11.1 2.5 15.5 3.3 6.4 7.7 9.5 13.8 9.5 6.8 0 10.5-2.9 14.2-11 2.5-5.4 3-19 1-26.1-2.8-10.1-10.3-15.1-19.6-13.2zm8.6 4c3.8 4.6 4.4 7.5 4.4 20.7 0 10.7-.4 13.9-1.8 17.3-3.5 7.6-9.6 8.1-13.4 1.1-1.5-2.8-1.8-5.8-1.8-18.4 0-15 0-15.1 2.8-18.7 3.1-4.2 7.3-5 9.8-2zm760.3-2.2c-.9 2.1.3 4.5 2.1 4.5 1 0 1.5-1 1.5-3 0-3.2-2.6-4.3-3.6-1.5zm0 12c-.9 2.1.3 4.5 2.1 4.5 1 0 1.5-1 1.5-3 0-3.2-2.6-4.3-3.6-1.5zm-681.1 11.2c-2.5.9-1.4 3.3 1.5 3.3 3.5 0 4.5-.9 3.1-2.7-1.2-1.3-2.5-1.5-4.6-.6zm11.8.6c-1.3 1.7-.5 2.7 2.4 2.7 1.2 0 2.5-.3 2.8-.7.9-.8-1.2-3.3-2.8-3.3-.7 0-1.8.6-2.4 1.3zm12.6-.7c-1.7 1.7-.5 3.4 2.4 3.4 2.4 0 3-.4 2.7-1.8-.3-1.7-3.8-2.9-5.1-1.6zm12.4.7c-1.3 1.7-.5 2.7 2.4 2.7 1.2 0 2.5-.3 2.8-.7.9-.8-1.2-3.3-2.8-3.3-.7 0-1.8.6-2.4 1.3zm12.6-.7c-1.7 1.7-.5 3.4 2.4 3.4 2.4 0 3-.4 2.7-1.8-.3-1.7-3.8-2.9-5.1-1.6zm12 0c-1.7 1.7-.5 3.4 2.4 3.4 2.4 0 3-.4 2.7-1.8-.3-1.7-3.8-2.9-5.1-1.6zm12 0c-1.7 1.7-.5 3.4 2.4 3.4 2.4 0 3-.4 2.7-1.8-.3-1.7-3.8-2.9-5.1-1.6zm12.6.1c-2.6 1-1.3 3.3 1.8 3.3 2.4 0 3-.4 2.7-1.7-.3-1.8-2.4-2.6-4.5-1.6zm11.9.5c-1.9 1.9-1.4 2.8 1.6 2.8 3.5 0 4.5-.9 3.1-2.7-1.4-1.6-3.1-1.7-4.7-.1zm12.5-.6c-1.7 1.7-.5 3.4 2.4 3.4 2.4 0 3-.4 2.7-1.8-.3-1.7-3.8-2.9-5.1-1.6zm12.5.6c-1.9 1.9-1.4 2.8 1.6 2.8 3.5 0 4.5-.9 3.1-2.7-1.4-1.6-3.1-1.7-4.7-.1zm12.5-.6c-1.7 1.7-.5 3.4 2.4 3.4 2.4 0 3-.4 2.7-1.8-.3-1.7-3.8-2.9-5.1-1.6zm12 0c-1.7 1.7-.5 3.4 2.4 3.4 2.4 0 3-.4 2.7-1.8-.3-1.7-3.8-2.9-5.1-1.6zm12 0c-1.7 1.7-.5 3.4 2.4 3.4 2.4 0 3-.4 2.7-1.8-.3-1.7-3.8-2.9-5.1-1.6zm12 0c-1.7 1.7-.5 3.4 2.4 3.4 2.4 0 3-.4 2.7-1.8-.3-1.7-3.8-2.9-5.1-1.6zm12.6.1c-2.5.9-1.4 3.3 1.5 3.3 3.5 0 4.5-.9 3.1-2.7-1.2-1.3-2.5-1.5-4.6-.6zm12.4-.1c-1.7 1.7-.5 3.4 2.4 3.4 2.4 0 3-.4 2.7-1.8-.3-1.7-3.8-2.9-5.1-1.6zm12.5.6c-1.9 1.9-1.4 2.8 1.6 2.8 3.5 0 4.5-.9 3.1-2.7-1.4-1.6-3.1-1.7-4.7-.1zm12.5-.6c-1.7 1.7-.5 3.4 2.4 3.4 2.4 0 3-.4 2.7-1.8-.3-1.7-3.8-2.9-5.1-1.6zm12 0c-1.7 1.7-.5 3.4 2.4 3.4 2.4 0 3-.4 2.7-1.8-.3-1.7-3.8-2.9-5.1-1.6zm12 0c-1.7 1.7-.5 3.4 2.4 3.4 2.4 0 3-.4 2.7-1.8-.3-1.7-3.8-2.9-5.1-1.6zm12 0c-1.7 1.7-.5 3.4 2.4 3.4 2.4 0 3-.4 2.7-1.8-.3-1.7-3.8-2.9-5.1-1.6zm12.6.1c-2.5.9-1.4 3.3 1.5 3.3 3.5 0 4.5-.9 3.1-2.7-1.2-1.3-2.5-1.5-4.6-.6zm12.4-.1c-1.7 1.7-.5 3.4 2.4 3.4 2.4 0 3-.4 2.7-1.8-.3-1.7-3.8-2.9-5.1-1.6zm12.5.6c-1.9 1.9-1.4 2.8 1.6 2.8 3.5 0 4.5-.9 3.1-2.7-1.4-1.6-3.1-1.7-4.7-.1zm12.5-.5c-1.7 1.6-.5 3.3 2.3 3.3 1.9 0 3-.5 3-1.4 0-2-3.9-3.4-5.3-1.9zm12-.1c-1.7 1.7-.5 3.4 2.4 3.4 2.4 0 3-.4 2.7-1.8-.3-1.7-3.8-2.9-5.1-1.6zm12 0c-1.7 1.7-.5 3.4 2.4 3.4 2.4 0 3-.4 2.7-1.8-.3-1.7-3.8-2.9-5.1-1.6zm12 0c-1.7 1.7-.5 3.4 2.4 3.4 2.4 0 3-.4 2.7-1.8-.3-1.7-3.8-2.9-5.1-1.6zm12.6.1c-2.5.9-1.4 3.3 1.5 3.3 3.5 0 4.5-.9 3.1-2.7-1.2-1.3-2.5-1.5-4.6-.6zm12.4-.1c-1.7 1.7-.5 3.4 2.4 3.4 2.4 0 3-.4 2.7-1.8-.3-1.7-3.8-2.9-5.1-1.6zm12.5.6c-1.9 1.9-1.4 2.8 1.6 2.8 3.5 0 4.5-.9 3.1-2.7-1.4-1.6-3.1-1.7-4.7-.1zm12.5-.5c-1.7 1.6-.5 3.3 2.3 3.3 1.9 0 3-.5 3-1.4 0-2-3.9-3.4-5.3-1.9zm12-.1c-1.7 1.7-.5 3.4 2.4 3.4 2.4 0 3-.4 2.7-1.8-.3-1.7-3.8-2.9-5.1-1.6zm12 0c-1.7 1.7-.5 3.4 2.4 3.4 2.4 0 3-.4 2.7-1.8-.3-1.7-3.8-2.9-5.1-1.6zm12 0c-1.7 1.7-.5 3.4 2.4 3.4 2.4 0 3-.4 2.7-1.8-.3-1.7-3.8-2.9-5.1-1.6zm12.5.6c-1.9 1.9-1.4 2.8 1.6 2.8 3.5 0 4.5-.9 3.1-2.7-1.4-1.6-3.1-1.7-4.7-.1zm12.5-.6c-1.7 1.7-.5 3.4 2.4 3.4 2.4 0 3-.4 2.7-1.8-.3-1.7-3.8-2.9-5.1-1.6zm12.5.6c-1.9 1.9-1.4 2.8 1.6 2.8 3.5 0 4.5-.9 3.1-2.7-1.4-1.6-3.1-1.7-4.7-.1zm11.9.1c-1.4 1.8-.4 2.7 3.1 2.7 3 0 3.5-.9 1.6-2.8-1.6-1.6-3.3-1.5-4.7.1zm12.6-.7c-1.7 1.7-.5 3.4 2.4 3.4 2.4 0 3-.4 2.7-1.8-.3-1.7-3.8-2.9-5.1-1.6zm36.4.7c-1.3 1.7-.5 2.7 2.4 2.7 1.2 0 2.5-.3 2.8-.7.9-.8-1.2-3.3-2.8-3.3-.7 0-1.8.6-2.4 1.3zm12.6-.7c-1.7 1.7-.5 3.4 2.4 3.4 2.4 0 3-.4 2.7-1.8-.3-1.7-3.8-2.9-5.1-1.6zm12 0c-1.7 1.7-.5 3.4 2.4 3.4 2.4 0 3-.4 2.7-1.8-.3-1.7-3.8-2.9-5.1-1.6zm12.4.7c-1.3 1.7-.5 2.7 2.4 2.7 1.2 0 2.5-.3 2.8-.7.9-.8-1.2-3.3-2.8-3.3-.7 0-1.8.6-2.4 1.3zm12.6-.7c-1.7 1.7-.5 3.4 2.4 3.4 2.4 0 3-.4 2.7-1.8-.3-1.7-3.8-2.9-5.1-1.6zm12 0c-1.7 1.7-.5 3.4 2.4 3.4 2.4 0 3-.4 2.7-1.8-.3-1.7-3.8-2.9-5.1-1.6zm12 0c-1.7 1.7-.5 3.4 2.4 3.4 2.4 0 3-.4 2.7-1.8-.3-1.7-3.8-2.9-5.1-1.6zm12.4.7c-1.3 1.7-.5 2.7 2.4 2.7 1.2 0 2.5-.3 2.8-.7.9-.8-1.2-3.3-2.8-3.3-.7 0-1.8.6-2.4 1.3zm12.1 0c-1.5 1.8-.5 2.7 3 2.7 2.3 0 2.9-.4 2.6-1.8-.4-2.1-4.1-2.8-5.6-.9zm12.5-.7c-1.7 1.7-.5 3.4 2.4 3.4 2.4 0 3-.4 2.7-1.8-.3-1.7-3.8-2.9-5.1-1.6zm12.4.7c-1.3 1.7-.5 2.7 2.4 2.7 1.2 0 2.5-.3 2.8-.7.9-.8-1.2-3.3-2.8-3.3-.7 0-1.8.6-2.4 1.3zm12.6-.7c-1.7 1.7-.5 3.4 2.4 3.4 2.4 0 3-.4 2.7-1.8-.3-1.7-3.8-2.9-5.1-1.6zm12 .1c-1.7 1.6-.5 3.3 2.2 3.3 1.7 0 3.3.4 3.6 1 1.4 2.2 3.5 1 3.5-2 0-2.9-.2-3-4.3-3-2.4 0-4.7.3-5 .7zm12-.1c-1.7 1.7-.5 3.4 2.4 3.4 2.4 0 3-.4 2.7-1.8-.3-1.7-3.8-2.9-5.1-1.6zm12.6.1c-2.5.9-1.4 3.3 1.5 3.3 3.5 0 4.5-.9 3.1-2.7-1.2-1.3-2.5-1.5-4.6-.6zm11.8.6c-1.3 1.7-.5 2.7 2.4 2.7 1.2 0 2.5-.3 2.8-.7.9-.8-1.2-3.3-2.8-3.3-.7 0-1.8.6-2.4 1.3zm12.6-.7c-1.7 1.7-.5 3.4 2.4 3.4 2.4 0 3-.4 2.7-1.8-.3-1.7-3.8-2.9-5.1-1.6zm12.4.7c-1.3 1.7-.5 2.7 2.4 2.7 1.2 0 2.5-.3 2.8-.7.9-.8-1.2-3.3-2.8-3.3-.7 0-1.8.6-2.4 1.3zm12.6-.7c-1.7 1.7-.5 3.4 2.4 3.4 2.4 0 3-.4 2.7-1.8-.3-1.7-3.8-2.9-5.1-1.6zm12 0c-1.7 1.7-.5 3.4 2.4 3.4 2.4 0 3-.4 2.7-1.8-.3-1.7-3.8-2.9-5.1-1.6zm12 0c-1.7 1.7-.5 3.4 2.4 3.4 2.4 0 3-.4 2.7-1.8-.3-1.7-3.8-2.9-5.1-1.6zm12.6.1c-2.6 1-1.3 3.3 1.8 3.3 2.4 0 3-.4 2.7-1.7-.3-1.8-2.4-2.6-4.5-1.6zm11.9.5c-1.9 1.9-1.4 2.8 1.6 2.8 3.5 0 4.5-.9 3.1-2.7-1.4-1.6-3.1-1.7-4.7-.1zm12.5-.6c-1.7 1.7-.5 3.4 2.4 3.4 2.4 0 3-.4 2.7-1.8-.3-1.7-3.8-2.9-5.1-1.6zm12.4.7c-1.3 1.7-.5 2.7 2.4 2.7 1.2 0 2.5-.3 2.8-.7.9-.8-1.2-3.3-2.8-3.3-.7 0-1.8.6-2.4 1.3zm12.6-.7c-1.7 1.7-.5 3.4 2.4 3.4 2.4 0 3-.4 2.7-1.8-.3-1.7-3.8-2.9-5.1-1.6zM1023 537.5c-.9 1.1-1.1 2.2-.4 3.2 1.4 2.3 2.9 2 3.2-.6.5-3.2-1.1-4.6-2.8-2.6zm-174.6 3c-.9 2.1.3 4.5 2.1 4.5 1 0 1.5-1 1.5-3 0-3.2-2.6-4.3-3.6-1.5zm348.8 1.2c.4 3.9 2.8 4.2 2.8.4 0-2.1-.5-3.1-1.6-3.1s-1.4.8-1.2 2.7zm-174.7 8.3c-1 1.6.5 5 2.1 5 .9 0 1.4-1.1 1.4-3 0-3-2.1-4.2-3.5-2zm-174.1 2.5c-.9 2.1.3 4.5 2.1 4.5 1 0 1.5-1 1.5-3 0-3.2-2.6-4.3-3.6-1.5zm349.3-.8c-1.3 1.3-.7 5.3.8 5.3 1 0 1.5-1 1.5-3 0-2.9-.9-3.8-2.3-2.3zm-174.8 10.9c-.8 1-1 2.1-.3 3.1 1.6 2.5 2.9 1.9 3.2-1.5.4-3.5-.8-4.1-2.9-1.6zm-173.6 1.1c-1.7.6-1.6 3.8 0 5.2 1.7 1.4 2.7.4 2.7-2.5 0-2.5-.9-3.4-2.7-2.7zm348.1.6c-.7 2-.2 4.7 1.1 5 1.4.3 1.9-4.3.6-5.6-.7-.7-1.2-.6-1.7.6zM1022.5 575c-1 1.6.5 5 2.1 5 .9 0 1.4-1.1 1.4-3 0-3-2.1-4.2-3.5-2zm-174.1 2.5c-.9 2.1.3 4.5 2.1 4.5 1 0 1.5-1 1.5-3 0-3.2-2.6-4.3-3.6-1.5zm348.8 1.2c.4 3.9 2.8 4.2 2.8.4 0-2.1-.5-3.1-1.6-3.1s-1.4.8-1.2 2.7zm-174.8 8.8c-.9 2.1.3 4.5 2.1 4.5 1 0 1.5-1 1.5-3 0-3.2-2.6-4.3-3.6-1.5zm-174 2c-.9 2.1.3 4.5 2.1 4.5 1 0 1.5-1 1.5-3 0-3.2-2.6-4.3-3.6-1.5zM1197 591c0 2 .5 3 1.5 3s1.5-1 1.5-3-.5-3-1.5-3-1.5 1-1.5 3zm-174.6 8.5c-.9 2.1.3 4.5 2.1 4.5 1 0 1.5-1 1.5-3 0-3.2-2.6-4.3-3.6-1.5zm-174 2c-.9 2.1.3 4.5 2.1 4.5 1 0 1.5-1 1.5-3 0-3.2-2.6-4.3-3.6-1.5zM1197 603c0 2 .5 3 1.5 3s1.5-1 1.5-3-.5-3-1.5-3-1.5 1-1.5 3zm-174.5 9c-.8 2.4.1 4 2.1 4 .9 0 1.4-1.1 1.4-3 0-3.5-2.5-4.2-3.5-1zm-173.3 1.2c-1.6 1.6-1.5 4.5.2 5.1 1.8.7 2.6-.1 2.6-2.9s-1.3-3.7-2.8-2.2zm348.2.2c-.8 2-.1 4.7 1.1 4.9.6.1 1.1-1.3 1.3-3.1.3-3.2-1.4-4.5-2.4-1.8zM1023 623.5c-1.5 1.8-.6 4.5 1.5 4.5 1 0 1.5-1 1.5-3 0-3.3-1.1-3.8-3-1.5zm-174.6 3c-.8 2.1.3 4.8 1.9 4.3 1.9-.7 2.2-5.8.2-5.8-.8 0-1.8.7-2.1 1.5zm348.8 1.2c.4 3.9 2.8 4.2 2.8.4 0-2.1-.5-3.1-1.6-3.1s-1.4.8-1.2 2.7zm-174.7 8.3c-1 1.6.5 5 2.1 5 .9 0 1.4-1.1 1.4-3 0-3-2.1-4.2-3.5-2zm-174.1 2.5c-.9 2.1.3 4.5 2.1 4.5 1 0 1.5-1 1.5-3 0-3.2-2.6-4.3-3.6-1.5zM1197 640c0 2 .5 3 1.5 3s1.5-1 1.5-3-.5-3-1.5-3-1.5 1-1.5 3zm-174.1 8.6c-.8 1-1 2.1-.3 3.1 1.6 2.5 2.9 1.9 3.2-1.5.4-3.5-.8-4.1-2.9-1.6zm-173.6 1.1c-1.7.6-1.6 3.8 0 5.2 1.7 1.4 2.7.4 2.7-2.5 0-2.5-.9-3.4-2.7-2.7zm348.1.6c-.7 2-.2 4.7 1.1 5 1.4.3 1.9-4.3.6-5.6-.7-.7-1.2-.6-1.7.6zM1022.5 661c-1 1.6.5 5 2.1 5 .9 0 1.4-1.1 1.4-3 0-3-2.1-4.2-3.5-2zm-174.1 2.5c-.9 2.1.3 4.5 2.1 4.5 1 0 1.5-1 1.5-3 0-3.2-2.6-4.3-3.6-1.5zM1197 665c0 2 .5 3 1.5 3s1.5-1 1.5-3-.5-3-1.5-3-1.5 1-1.5 3zm-174.5 8c-1 1.6.5 5 2.1 5 .9 0 1.4-1.1 1.4-3 0-3-2.1-4.2-3.5-2zm-761.1.8-9.1.3-4.2 8.5c-2.3 4.7-3.9 9-3.6 9.4.3.5 2.2 1.2 4.3 1.5 11.6 1.9 18.1 9.7 15.9 18.7-.9 4-5.6 8.8-8.5 8.8-1 0-3.8-1.1-6.4-2.5-5.2-2.8-7.8-2.4-7.8 1.1 0 3.1 2.7 4.4 9.5 4.4 6.9 0 12.3-2.6 16.2-7.7 2.5-3.2 2.8-4.5 2.8-10.8 0-6.3-.3-7.6-2.8-10.8-2.7-3.6-5.9-5.5-12.9-7.7-4.3-1.3-4.6-2.2-1.8-5 1.6-1.6 3.3-2 9-2 6.7 0 7.1-.1 8.1-2.7.5-1.4.8-2.9.7-3.2-.2-.3-4.4-.5-9.4-.3zm-44.9 2.9-5 2.7 3 .6 3 .5.3 19c.2 17.8.1 19.2-1.7 21.2-1.1 1.1-1.7 2.4-1.4 2.7.8.8 11.8.8 12.6 0 .3-.4 0-1.6-.8-2.8-1.2-1.6-1.5-6.4-1.5-24.3 0-25.4.5-24.3-8.5-19.6zm631.9-1.2c-.9 2.1.3 4.5 2.1 4.5 1 0 1.5-1 1.5-3 0-3.2-2.6-4.3-3.6-1.5zM1197 677c0 2 .5 3 1.5 3s1.5-1 1.5-3-.5-3-1.5-3-1.5 1-1.5 3zm-174.6 8.5c-.9 2.1.3 4.5 2.1 4.5 1 0 1.5-1 1.5-3 0-3.2-2.6-4.3-3.6-1.5zm-174 2c-.9 2.1.3 4.5 2.1 4.5 1 0 1.5-1 1.5-3 0-3.2-2.6-4.3-3.6-1.5zM1197 689c0 2 .5 3 1.5 3s1.5-1 1.5-3-.5-3-1.5-3-1.5 1-1.5 3zm-174.5 7.9c-.6.5-2.1 1.1-3.5 1.3-1.4.2-2.6 1.1-2.8 2-.3 1.5.4 1.8 4.7 1.8 5 0 5.1-.1 5.1-3 0-3-1.6-3.9-3.5-2.1zm-680.7 2.2c-2.7 1.5-2.1 2.9 1.3 2.9 2.3 0 3-.4 2.7-1.7-.4-2.1-1.8-2.5-4-1.2zm11.9 0c-2.2 1.3-1.3 2.9 1.7 2.9 2.9 0 3.9-1 2.5-2.7-1.3-1.5-1.8-1.6-4.2-.2zm12.6-.4c-2.6 1-1.3 3.3 1.7 3.3 3.2 0 4.2-2.3 1.4-3.4-.9-.3-1.6-.6-1.7-.5-.1 0-.8.3-1.4.6zm11.9.5c-1.9 1.9-1.4 2.8 1.7 2.8 3.7 0 4.8-1.5 2.2-2.9-2.4-1.4-2.4-1.4-3.9.1zm12.5-.5c-1.7 1.6-.5 3.3 2.3 3.3 1.9 0 3-.5 3-1.4 0-2-3.9-3.4-5.3-1.9zm12 0c-1.7 1.6-.5 3.3 2.3 3.3 1.9 0 3-.5 3-1.4 0-2-3.9-3.4-5.3-1.9zm12.6 0c-2.6 1-1.3 3.3 1.7 3.3 3.2 0 4.2-2.3 1.4-3.4-.9-.3-1.6-.6-1.7-.5-.1 0-.8.3-1.4.6zm12.5.4c-2.7 1.5-2.1 2.9 1.3 2.9 2.3 0 3-.4 2.7-1.7-.4-2.1-1.8-2.5-4-1.2zm12 0c-2.7 1.5-2.2 2.9 1 2.9 3.5 0 4.5-.9 3.1-2.7-1.3-1.5-1.8-1.6-4.1-.2zm12.5-.4c-2.6 1-1.3 3.3 1.7 3.3 3.2 0 4.2-2.3 1.4-3.4-.9-.3-1.6-.6-1.7-.5-.1 0-.8.3-1.4.6zm11.9.5c-1.9 1.9-1.4 2.8 1.7 2.8 3.7 0 4.8-1.5 2.2-2.9-2.4-1.4-2.4-1.4-3.9.1zm12.5-.5c-1.7 1.6-.5 3.3 2.3 3.3 1.9 0 3-.5 3-1.4 0-2-3.9-3.4-5.3-1.9zm12.6 0c-2.6 1-1.3 3.3 1.7 3.3 3.2 0 4.2-2.3 1.4-3.4-.9-.3-1.6-.6-1.7-.5-.1 0-.8.3-1.4.6zm12 0c-2.6 1-1.3 3.3 1.7 3.3 3.2 0 4.2-2.3 1.4-3.4-.9-.3-1.6-.6-1.7-.5-.1 0-.8.3-1.4.6zm12.5 0c-3.1.8-2.1 3.3 1.3 3.3 2.3 0 3-.4 2.7-1.7-.3-1.8-1.5-2.3-4-1.6zm12 .4c-2.7 1.5-2.2 2.9 1 2.9 3.5 0 4.5-.9 3.1-2.7-1.3-1.5-1.8-1.6-4.1-.2zm12.5-.4c-2.6 1-1.3 3.3 1.7 3.3 3.2 0 4.2-2.3 1.4-3.4-.9-.3-1.6-.6-1.7-.5-.1 0-.8.3-1.4.6zm11.9.5c-1.9 1.9-1.4 2.8 1.7 2.8 3.7 0 4.8-1.5 2.2-2.9-2.4-1.4-2.4-1.4-3.9.1zm12.5-.6c-1.7 1.7-.5 3.4 2.3 3.4 2 0 3-.5 3-1.5 0-.8-.4-1.5-.9-1.5s-1.6-.2-2.3-.5c-.8-.3-1.7-.2-2.1.1zm12.6.1c-2.6 1-1.3 3.3 1.7 3.3 3.2 0 4.2-2.3 1.4-3.4-.9-.3-1.6-.6-1.7-.5-.1 0-.8.3-1.4.6zm12 0c-2.6 1-1.3 3.3 1.7 3.3 3.2 0 4.2-2.3 1.4-3.4-.9-.3-1.6-.6-1.7-.5-.1 0-.8.3-1.4.6zm12 0c-2.6 1-1.3 3.3 1.8 3.3 2.4 0 3-.4 2.7-1.7-.3-1.8-2.4-2.6-4.5-1.6zm12.5.4c-2.7 1.5-2.2 2.9 1 2.9 3.5 0 4.5-.9 3.1-2.7-1.3-1.5-1.8-1.6-4.1-.2zm12.5-.4c-2.6 1-1.3 3.3 1.7 3.3 3.2 0 4.2-2.3 1.4-3.4-.9-.3-1.6-.6-1.7-.5-.1 0-.8.3-1.4.6zm11.9.5c-1.9 1.9-1.4 2.8 1.7 2.8 3.7 0 4.8-1.5 2.2-2.9-2.4-1.4-2.4-1.4-3.9.1zm12.5-.5c-1.7 1.6-.5 3.3 2.3 3.3 3.4 0 3.9-1.4 1.1-3-2.3-1.2-2.6-1.2-3.4-.3zm12.6 0c-2.6.9-1.3 3.3 1.7 3.3 1.9 0 3-.5 3-1.4 0-1.5-2.7-2.5-4.7-1.9zm24 0c-2.6 1-1.3 3.3 1.8 3.3 2.4 0 3-.4 2.7-1.7-.3-1.8-2.4-2.6-4.5-1.6zm12.5.4c-2.7 1.5-2.2 2.9 1 2.9 3.5 0 4.5-.9 3.1-2.7-1.3-1.5-1.8-1.6-4.1-.2zm12.5-.4c-2.6 1-1.3 3.3 1.7 3.3 3.2 0 4.2-2.3 1.4-3.4-.9-.3-1.6-.6-1.7-.5-.1 0-.8.3-1.4.6zm11.9.5c-1.9 1.9-1.4 2.8 1.7 2.8 3.7 0 4.8-1.5 2.2-2.9-2.4-1.4-2.4-1.4-3.9.1zm12.5-.5c-1.7 1.6-.5 3.3 2.3 3.3 3.4 0 3.9-1.4 1.1-3-2.3-1.2-2.6-1.2-3.4-.3zm12-.1c-1.7 1.7-.5 3.4 2.3 3.4 2 0 3-.5 3-1.5 0-.8-.4-1.5-.9-1.5s-1.6-.2-2.3-.5c-.8-.3-1.7-.2-2.1.1zm12.6.1c-2.6 1-1.3 3.3 1.7 3.3 3.2 0 4.2-2.3 1.4-3.4-.9-.3-1.6-.6-1.7-.5-.1 0-.8.3-1.4.6zm12 0c-2.6 1-1.3 3.3 1.8 3.3 2.4 0 3-.4 2.7-1.7-.3-1.8-2.4-2.6-4.5-1.6zm12.5.4c-2.7 1.5-2.2 2.9 1 2.9 3.5 0 4.5-.9 3.1-2.7-1.3-1.5-1.8-1.6-4.1-.2zm12.5-.4c-2.6 1-1.3 3.3 1.7 3.3 3.2 0 4.2-2.3 1.4-3.4-.9-.3-1.6-.6-1.7-.5-.1 0-.8.3-1.4.6zm11.9.5c-1.9 1.9-1.4 2.8 1.7 2.8 3.7 0 4.8-1.5 2.2-2.9-2.4-1.4-2.4-1.4-3.9.1zm11.9.1c-1.4 1.8-.4 2.7 3.1 2.7 3.2 0 3.7-1.5.9-3-2.5-1.3-2.6-1.3-4 .3zm12.6-.7c-1.7 1.7-.5 3.4 2.3 3.4 2 0 3-.5 3-1.5 0-.8-.4-1.5-.9-1.5s-1.6-.2-2.3-.5c-.8-.3-1.7-.2-2.1.1zm12 0c-1.4 1.4-.7 2.9 2 4.1 4.2 2 5.5 1.7 5.1-1.5-.2-2.2-.9-2.8-3.3-3-1.7-.2-3.4 0-3.8.4zm12.6.1c-2.6 1-1.3 3.3 1.8 3.3 2.4 0 3-.4 2.7-1.7-.3-1.8-2.4-2.6-4.5-1.6zm12.5.4c-2.7 1.5-2.2 2.9 1 2.9 3.5 0 4.5-.9 3.1-2.7-1.3-1.5-1.8-1.6-4.1-.2zm12.5-.4c-2.6 1-1.3 3.3 1.7 3.3 3.2 0 4.2-2.3 1.4-3.4-.9-.3-1.6-.6-1.7-.5-.1 0-.8.3-1.4.6zm11.9.5c-1.9 1.9-1.4 2.8 1.8 2.8s4.2-2.3 1.4-3.4c-2-.8-1.8-.8-3.2.6zm11.9.1c-1.4 1.7-.4 2.7 2.5 2.7 3.1 0 3.9-1.7 1.5-2.9-2.5-1.4-2.6-1.4-4 .2zm12.6-.6c-1.7 1.6-.5 3.3 2.3 3.3 1.9 0 3-.5 3-1.4 0-2-3.9-3.4-5.3-1.9zm12-.1c-1.7 1.7-.5 3.4 2.4 3.4 2.4 0 3-.4 2.7-1.8-.3-1.7-3.8-2.9-5.1-1.6zm12.6.1c-2.6 1-1.3 3.3 1.8 3.3 2.4 0 3-.4 2.7-1.7-.3-1.8-2.4-2.6-4.5-1.6zm12.5.4c-2.7 1.5-2.2 2.9 1 2.9 3.5 0 4.5-.9 3.1-2.7-1.3-1.5-1.8-1.6-4.1-.2zm12.5-.4c-2.6 1-1.3 3.3 1.7 3.3 3.2 0 3.7-.9 1.8-2.8-1.3-1.3-1.6-1.3-3.5-.5zm12 0c-2.6 1-1.3 3.3 1.7 3.3 3.2 0 4.2-2.3 1.4-3.4-.9-.3-1.6-.6-1.7-.5-.1 0-.8.3-1.4.6zm11.8.6c-1.4 1.7-.4 2.7 2.5 2.7 3.1 0 3.9-1.7 1.5-2.9-2.5-1.4-2.6-1.4-4 .2zm12.6-.6c-1.7 1.6-.5 3.3 2.3 3.3 1.9 0 3-.5 3-1.4 0-2-3.9-3.4-5.3-1.9zm25.1 0c-3.1.8-2.1 3.3 1.3 3.3 2.3 0 3-.4 2.7-1.7-.3-1.8-1.5-2.3-4-1.6zm12 .4c-2.7 1.5-2.1 2.9 1.3 2.9 2.3 0 3-.4 2.7-1.7-.4-2.1-1.8-2.5-4-1.2zm11.9 0c-2.2 1.3-1.3 2.9 1.7 2.9 2.9 0 3.9-1 2.5-2.7-1.3-1.5-1.8-1.6-4.2-.2zm12.6-.4c-2.6 1-1.3 3.3 1.7 3.3 3.2 0 4.2-2.3 1.4-3.4-.9-.3-1.6-.6-1.7-.5-.1 0-.8.3-1.4.6zm11.8.6c-1.4 1.7-.4 2.7 2.5 2.7 3.1 0 3.9-1.7 1.5-2.9-2.5-1.4-2.6-1.4-4 .2zm12.6-.6c-1.7 1.6-.5 3.3 2.3 3.3 1.9 0 3-.5 3-1.4 0-2-3.9-3.4-5.3-1.9zm12.6 0c-2.6 1-1.3 3.3 1.7 3.3 3.2 0 4.2-2.3 1.4-3.4-.9-.3-1.6-.6-1.7-.5-.1 0-.8.3-1.4.6zm12 0c-2.6 1-1.3 3.3 1.7 3.3 3.2 0 4.2-2.3 1.4-3.4-.9-.3-1.6-.6-1.7-.5-.1 0-.8.3-1.4.6zm12.5.4c-2.7 1.5-2.1 2.9 1.3 2.9 2.3 0 3-.4 2.7-1.7-.4-2.1-1.8-2.5-4-1.2zm12 0c-2.7 1.5-2.2 2.9 1 2.9 3.5 0 4.5-.9 3.1-2.7-1.3-1.5-1.8-1.6-4.1-.2zm12.5-.4c-2.6 1-1.3 3.3 1.7 3.3 3.2 0 4.2-2.3 1.4-3.4-.9-.3-1.6-.6-1.7-.5-.1 0-.8.3-1.4.6zm11.9.5c-1.9 1.9-1.4 2.8 1.7 2.8 3.7 0 4.8-1.5 2.2-2.9-2.4-1.4-2.4-1.4-3.9.1zm12.5-.5c-1.7 1.6-.5 3.3 2.3 3.3 1.9 0 3-.5 3-1.4 0-2-3.9-3.4-5.3-1.9zm12.6 0c-2.6 1-1.3 3.3 1.7 3.3 3.2 0 4.2-2.3 1.4-3.4-.9-.3-1.6-.6-1.7-.5-.1 0-.8.3-1.4.6zm7.8 1.1c-.6 1.1-.6 2.4-.1 3.3.8 1.1 1.3 1.2 3 .1 1.1-.6 2.9-1.2 4-1.2s2-.6 2-1.4c0-3-7.4-3.6-8.9-.8zm16.7-1.1c-3.1.8-2.1 3.3 1.3 3.3 2.3 0 3-.4 2.7-1.7-.3-1.8-1.5-2.3-4-1.6zm12 .4c-2.7 1.5-2.2 2.9 1 2.9 3.5 0 4.5-.9 3.1-2.7-1.3-1.5-1.8-1.6-4.1-.2zm12.5-.4c-2.6 1-1.3 3.3 1.7 3.3 3.2 0 4.2-2.3 1.4-3.4-.9-.3-1.6-.6-1.7-.5-.1 0-.8.3-1.4.6zm11.9.5c-1.9 1.9-1.4 2.8 1.7 2.8 3.7 0 4.8-1.5 2.2-2.9-2.4-1.4-2.4-1.4-3.9.1zm12.5-.5c-1.7 1.6-.5 3.3 2.3 3.3 3.4 0 3.9-1.4 1.1-3-2.3-1.2-2.6-1.2-3.4-.3zm12.6 0c-2.6 1-1.3 3.3 1.7 3.3 3.2 0 4.2-2.3 1.4-3.4-.9-.3-1.6-.6-1.7-.5-.1 0-.8.3-1.4.6zm12 0c-2.6 1-1.3 3.3 1.7 3.3 3.2 0 4.2-2.3 1.4-3.4-.9-.3-1.6-.6-1.7-.5-.1 0-.8.3-1.4.6zm12 0c-2.6 1-1.3 3.3 1.8 3.3 2.4 0 3-.4 2.7-1.7-.3-1.8-2.4-2.6-4.5-1.6zm12.5.4c-2.7 1.5-2.2 2.9 1 2.9 3.5 0 4.5-.9 3.1-2.7-1.3-1.5-1.8-1.6-4.1-.2zm12.5-.4c-2.6 1-1.3 3.3 1.7 3.3 3.2 0 4.2-2.3 1.4-3.4-.9-.3-1.6-.6-1.7-.5-.1 0-.8.3-1.4.6zm11.8.6c-1.4 1.7-.4 2.7 2.5 2.7 3.1 0 3.9-1.7 1.5-2.9-2.5-1.4-2.6-1.4-4 .2zm12.6-.6c-1.7 1.6-.5 3.3 2.3 3.3 3.4 0 3.9-1.4 1.1-3-2.3-1.2-2.6-1.2-3.4-.3zM1022.5 710c-.8 2.4.1 4 2.1 4 .9 0 1.4-1.1 1.4-3 0-3.5-2.5-4.2-3.5-1zm-173.3 1.2c-1.6 1.6-1.5 4.5.2 5.1 1.8.7 2.6-.1 2.6-2.9s-1.3-3.7-2.8-2.2zm348.2.1c-.7 2-.2 4.7 1.1 5 1.4.3 1.9-4.3.6-5.6-.7-.7-1.2-.6-1.7.6zm-523 3.2c-.9 2.1.3 4.5 2.1 4.5 1 0 1.5-1 1.5-3 0-3.2-2.6-4.3-3.6-1.5zm696.8 1.2c.4 3.9 2.8 4.2 2.8.4 0-2.1-.5-3.1-1.6-3.1s-1.4.8-1.2 2.7zm-348.7 6.3c-1 1.6.5 5 2.1 5 .9 0 1.4-1.1 1.4-3 0-3-2.1-4.2-3.5-2zm-174.1 2.5c-.9 2.1.3 4.5 2.1 4.5 1 0 1.5-1 1.5-3 0-3.2-2.6-4.3-3.6-1.5zm348.8 1.2c.4 3.9 2.8 4.2 2.8.4 0-2.1-.5-3.1-1.6-3.1s-1.4.8-1.2 2.7zm-522.5-.1c-1.3 1.3-.7 5.2.8 5.8 1.7.6 2.9-1.3 2.3-4-.3-1.9-2-2.8-3.1-1.8zm696.7.8c-.8 2-.1 4.7 1.1 4.9.6.1 1.1-1.3 1.3-3.1.3-3.2-1.4-4.5-2.4-1.8zm-348.5 8.2c-.8 1-1 2.1-.3 3.1 1.6 2.5 2.9 1.9 3.2-1.5.4-3.5-.8-4.1-2.9-1.6zm-173.6 1.1c-1.7.6-1.6 3.8 0 5.2 1.7 1.4 2.7.4 2.7-2.5 0-2.5-.9-3.4-2.7-2.7zm348.1.7c-.8 2-.1 4.7 1.1 4.9.6.1 1.1-1.3 1.3-3.1.3-3.2-1.4-4.5-2.4-1.8zm174 2c-.8 2.1-.1 4.9 1.4 5.4.8.2 1.2-.7 1.2-2.7 0-3.3-1.7-5.1-2.6-2.7zm-697.2 2.3c.2 1.7.9 2.8 1.8 2.8s1.6-1.1 1.8-2.8c.3-2.2-.1-2.7-1.8-2.7s-2.1.5-1.8 2.7zm348.2 6.8c-.6 1.6 1.2 4.5 2.7 4.5.5 0 .9-1.4.9-3 0-3.2-2.6-4.3-3.6-1.5zm-174 2c-.9 2.1.3 4.5 2.1 4.5 1 0 1.5-1 1.5-3 0-3.2-2.6-4.3-3.6-1.5zM1197 751c0 2 .5 3 1.5 3s1.5-1 1.5-3-.5-3-1.5-3-1.5 1-1.5 3zm-522.8 1.7c.2 1.7 1 2.9 2.1 3.1 1.3.3 1.7-.3 1.7-2.7 0-2.5-.4-3.1-2.1-3.1-1.6 0-2 .5-1.7 2.7zm697 0c.4 3.9 2.8 4.2 2.8.4 0-2.1-.5-3.1-1.6-3.1s-1.4.8-1.2 2.7zm-348.7 6.3c-1 1.6.5 5 2.1 5 .9 0 1.4-1.1 1.4-3 0-3-2.1-4.2-3.5-2zm-174.1 2.5c-.9 2.1.3 4.5 2.1 4.5 1 0 1.5-1 1.5-3 0-3.2-2.6-4.3-3.6-1.5zM1197 763c0 2 .5 3 1.5 3s1.5-1 1.5-3-.5-3-1.5-3-1.5 1-1.5 3zm-522.8 1.7c.2 1.7 1 2.9 2.1 3.1 1.3.3 1.7-.3 1.7-2.7 0-2.5-.4-3.1-2.1-3.1-1.6 0-2 .5-1.7 2.7zm696.8.3c0 2 .5 3 1.5 3s1.5-1 1.5-3-.5-3-1.5-3-1.5 1-1.5 3zm-348.6 6.5c-.9 2.1.3 4.5 2.1 4.5 1 0 1.5-1 1.5-3 0-3.2-2.6-4.3-3.6-1.5zm-174 2c-.9 2.1.3 4.5 2.1 4.5 1 0 1.5-1 1.5-3 0-3.2-2.6-4.3-3.6-1.5zM1197 775c0 2 .5 3 1.5 3s1.5-1 1.5-3-.5-3-1.5-3-1.5 1-1.5 3zm-522.3-.3c-.4.3-.7 1.7-.7 3 0 1.6.6 2.3 2 2.3 1.6 0 2-.7 2-3 0-2.8-1.7-4-3.3-2.3zM1371 777c0 2 .5 3 1.5 3s1.5-1 1.5-3-.5-3-1.5-3-1.5 1-1.5 3zm-348.6 6.5c-.9 2.1.3 4.5 2.1 4.5 1 0 1.5-1 1.5-3 0-3.2-2.6-4.3-3.6-1.5zm-174 2c-.9 2.1.3 4.5 2.1 4.5 1 0 1.5-1 1.5-3 0-3.2-2.6-4.3-3.6-1.5zm349.3-.8c-1.3 1.3-.7 5.3.8 5.3 1 0 1.5-1 1.5-3 0-2.9-.9-3.8-2.3-2.3zm-523 1.9c-1.3 1.3-.7 5.2.8 5.8 1.7.6 2.9-1.3 2.3-4-.3-1.9-2-2.8-3.1-1.8zm696.7.8c-.8 2-.1 4.7 1.1 4.9.6.1 1.1-1.3 1.3-3.1.3-3.2-1.4-4.5-2.4-1.8zm-348.9 8.6c-.8 2.4.1 4 2.1 4 .9 0 1.4-1.1 1.4-3 0-3.5-2.5-4.2-3.5-1zm-173.3 1.2c-1.6 1.6-1.5 4.5.2 5.1 1.8.7 2.6-.1 2.6-2.9s-1.3-3.7-2.8-2.2zm348.2.1c-.7 2-.2 4.7 1.1 5 1.4.3 1.9-4.3.6-5.6-.7-.7-1.2-.6-1.7.6zm-523 3.2c-.9 2.1.3 4.5 2.1 4.5 1 0 1.5-1 1.5-3 0-3.2-2.6-4.3-3.6-1.5zm696.8 1.2c.4 3.9 2.8 4.2 2.8.4 0-2.1-.5-3.1-1.6-3.1s-1.4.8-1.2 2.7zm-348.7 6.3c-1 1.6.5 5 2.1 5 .9 0 1.4-1.1 1.4-3 0-3-2.1-4.2-3.5-2zm-174.1 2.5c-.9 2.1.3 4.5 2.1 4.5 1 0 1.5-1 1.5-3 0-3.2-2.6-4.3-3.6-1.5zm348.8 1.2c.4 3.9 2.8 4.2 2.8.4 0-2.1-.5-3.1-1.6-3.1s-1.4.8-1.2 2.7zm-522.8.7c-.9 2.2.2 4.6 2.1 4.6 1.2 0 1.5-.8 1.3-2.7-.3-3-2.5-4.2-3.4-1.9zm697.3-.7c-1.3 1.3-.7 5.3.8 5.3 1 0 1.5-1 1.5-3 0-2.9-.9-3.8-2.3-2.3zm-348.8 8.9c-.8 1-1 2.1-.3 3.1 1.6 2.5 2.9 1.9 3.2-1.5.4-3.5-.8-4.1-2.9-1.6zm-174.6 2c-.7 1.8.9 5.1 2.3 4.6 1.4-.3 1.1-5.5-.3-5.9-.7-.3-1.6.3-2 1.3zm349.1-.2c-.8 2-.1 4.7 1.1 4.9.6.1 1.1-1.3 1.3-3.1.3-3.2-1.4-4.5-2.4-1.8zm-522.2 1.5c-1.8 1.1-1.1 5.6.8 5.6 1.7 0 2.7-4.2 1.3-5.6-.4-.4-1.4-.4-2.1 0zm696.2.4c-.7 2-.2 4.7 1.1 5 1.4.3 1.9-4.3.6-5.6-.7-.7-1.2-.6-1.7.6zm-349 9.2c-.6 1.6 1.2 4.5 2.7 4.5.5 0 .9-1.4.9-3 0-3.2-2.6-4.3-3.6-1.5zm-174 2c-.9 2.1.3 4.5 2.1 4.5 1 0 1.5-1 1.5-3 0-3.2-2.6-4.3-3.6-1.5zM1197 837c0 2 .5 3 1.5 3s1.5-1 1.5-3-.5-3-1.5-3-1.5 1-1.5 3zm-522.8 1.7c.2 1.7 1 2.9 2.1 3.1 1.3.3 1.7-.3 1.7-2.7 0-2.5-.4-3.1-2.1-3.1-1.6 0-2 .5-1.7 2.7zm697 0c.4 3.9 2.8 4.2 2.8.4 0-2.1-.5-3.1-1.6-3.1s-1.4.8-1.2 2.7zm-348.7 6.3c-1 1.6.5 5 2.1 5 .9 0 1.4-1.1 1.4-3 0-3-2.1-4.2-3.5-2zm-174.1 2.5c-.9 2.1.3 4.5 2.1 4.5 1 0 1.5-1 1.5-3 0-3.2-2.6-4.3-3.6-1.5zM1197 849c0 2 .5 3 1.5 3s1.5-1 1.5-3-.5-3-1.5-3-1.5 1-1.5 3zm-943.7-1.3c-3.1.6-7.3 5.1-9.7 10.3-3.1 6.8-2.9 23.6.3 30.3 3.3 6.7 7.5 9.7 13.7 9.7 7.5-.1 11.2-3 14.9-11.5 2.1-5 2.4-19.1.6-25.6-2.8-10.1-10.3-15.1-19.8-13.2zm8.8 4c3.8 4.6 4.4 7.5 4.4 20.7 0 14.4-1.5 20.2-6 22.6-8.1 4.3-12.6-7.3-11.2-28.8.6-8.1 1-10 3.2-12.8 3-3.9 7.2-4.6 9.6-1.7zm-44.8-1.4c-4.8 2.5-5.3 3.4-2 3.9 2.2.3 2.2.5 2.5 18.8.3 18.7-.4 23-3.5 23-.7 0-1.3.4-1.3 1s3.3 1 8 1c4.4 0 8-.2 8-.5s-.9-1.4-2-2.5c-1.9-1.9-2-3.3-2-24.5 0-25.4.4-24.4-7.7-20.2zm456.7.7c0 2.3.4 3 2 3s2-.7 2-3-.4-3-2-3-2 .7-2 3zm697 0c0 2 .5 3 1.5 3s1.5-1 1.5-3-.5-3-1.5-3-1.5 1-1.5 3zm-348.6 6.5c-.9 2.1.3 4.5 2.1 4.5 1 0 1.5-1 1.5-3 0-3.2-2.6-4.3-3.6-1.5zm-174 2c-.9 2.1.3 4.5 2.1 4.5 1 0 1.5-1 1.5-3 0-3.2-2.6-4.3-3.6-1.5zM1197 861c0 2 .5 3 1.5 3s1.5-1 1.5-3-.5-3-1.5-3-1.5 1-1.5 3zm-522.3-.3c-.4.3-.7 1.7-.7 3 0 1.6.6 2.3 2 2.3 1.6 0 2-.7 2-3 0-2.8-1.7-4-3.3-2.3zM1371 863c0 2 .5 3 1.5 3s1.5-1 1.5-3-.5-3-1.5-3-1.5 1-1.5 3zm-349 7.5c-.7 1.8-1.7 2.5-3.5 2.5-1.6 0-2.5.6-2.5 1.5 0 1 1 1.5 3 1.5 1.7 0 3-.5 3-1 0-.6.9-1 2-1 1.6 0 2-.7 2-3 0-3.8-2.6-4.1-4-.5zm-174 1c-.7.8-1.9 1.5-2.6 1.5-2.7 0-1.4 2.8 1.4 3.2 4.2.6 5.2 0 5.2-3.3 0-3.2-1.9-3.9-4-1.4zm349 .5c-1.6 3-.4 4 4.6 4 3.2 0 4.4-.4 4.4-1.5 0-.9-.9-1.5-2.5-1.5-1.4 0-2.8-.7-3.1-1.5-.8-2.1-2.1-1.9-3.4.5zm-523.7.7c-2 .7-1.5 3 .9 4.7 2.7 1.9 3.8 1.2 3.8-2.5 0-2.9-1.4-3.6-4.7-2.2zm698.4 0c-.9.8-.9 4.8-.1 5.5.8.9 6.4-2.5 6.4-3.8 0-.7-1-1.4-2.2-1.8-2.9-.7-3.3-.7-4.1.1zm-1031 1c-1.5 1.4-.6 2.3 2.3 2.3 2 0 3-.5 3-1.5 0-1.5-4-2.1-5.3-.8zm11.8.2c-.7 1.3 1.7 2.4 4 1.9.9-.1 1.6-.8 1.6-1.3 0-1.4-4.8-1.9-5.6-.6zm13.2-.3c-1.5 1.5-.6 2.4 2.4 2.4 2 0 2.9-.4 2.7-1.3-.5-1.4-4-2.1-5.1-1.1zm12 0c-1.6 1.6-.5 2.5 2.6 2.2 1.7-.2 3.1-.8 3-1.3-.3-1.2-4.6-1.9-5.6-.9zm12.3.8c0 1.1 1 1.6 3.1 1.6 3.8 0 3.5-2.4-.4-2.8-1.9-.2-2.7.1-2.7 1.2zm12 .1c0 1 1 1.5 3 1.5s3-.5 3-1.5-1-1.5-3-1.5-3 .5-3 1.5zm12.7-.8c-1.5 1.4-.6 2.3 2.3 2.3 2 0 3-.5 3-1.5 0-1.5-4-2.1-5.3-.8zm12 0c-1.5 1.4-.6 2.3 2.3 2.3 2 0 3-.5 3-1.5 0-1.5-4-2.1-5.3-.8zm12-.1c-1.6 1.6-.5 2.5 2.6 2.2 1.7-.2 3.1-.8 3-1.3-.3-1.2-4.6-1.9-5.6-.9zm13 0c-1.5 1.5-.6 2.4 2.4 2.4 2 0 2.9-.4 2.7-1.3-.5-1.4-4-2.1-5.1-1.1zm12 0c-1.6 1.6-.5 2.5 2.6 2.2 1.7-.2 3.1-.8 3-1.3-.3-1.2-4.6-1.9-5.6-.9zm12.3.8c0 1.1 1 1.6 3.1 1.6 3.8 0 3.5-2.4-.4-2.8-1.9-.2-2.7.1-2.7 1.2zm12 0c0 1.1 1 1.6 3.1 1.6 3.8 0 3.5-2.4-.4-2.8-1.9-.2-2.7.1-2.7 1.2zm24.7-.7c-1.5 1.4-.6 2.3 2.3 2.3 2 0 3-.5 3-1.5 0-1.5-4-2.1-5.3-.8zm12-.1c-1.6 1.6-.5 2.5 2.6 2.2 1.7-.2 3.1-.8 3-1.3-.3-1.2-4.6-1.9-5.6-.9zm12.3.8c0 1.1 1 1.6 3.1 1.6 3.8 0 3.5-2.4-.4-2.8-1.9-.2-2.7.1-2.7 1.2zm12.7-.8c-1.6 1.6-.5 2.5 2.6 2.2 1.7-.2 3.1-.8 3-1.3-.3-1.2-4.6-1.9-5.6-.9zm12.3.8c0 1.1 1 1.6 3.1 1.6 3.8 0 3.5-2.4-.4-2.8-1.9-.2-2.7.1-2.7 1.2zm12 0c0 1.1 1 1.6 3.1 1.6 3.8 0 3.5-2.4-.4-2.8-1.9-.2-2.7.1-2.7 1.2zm12 .1c0 1 1 1.5 3 1.5s3-.5 3-1.5-1-1.5-3-1.5-3 .5-3 1.5zm12.7-.8c-1.5 1.4-.6 2.3 2.3 2.3 2 0 3-.5 3-1.5 0-1.5-4-2.1-5.3-.8zm12-.1c-1.6 1.6-.5 2.5 2.6 2.2 1.7-.2 3.1-.8 3-1.3-.3-1.2-4.6-1.9-5.6-.9zm12.3.8c0 1.1 1 1.6 3.1 1.6 3.8 0 3.5-2.4-.4-2.8-1.9-.2-2.7.1-2.7 1.2zm12.7-.8c-1.6 1.6-.5 2.5 2.6 2.2 1.7-.2 3.1-.8 3-1.3-.3-1.2-4.6-1.9-5.6-.9zm12.3.8c0 1.1 1 1.6 3.1 1.6 3.8 0 3.5-2.4-.4-2.8-1.9-.2-2.7.1-2.7 1.2zm12 0c0 1.1 1 1.6 3.1 1.6 3.8 0 3.5-2.4-.4-2.8-1.9-.2-2.7.1-2.7 1.2zm24 .1c0 1 1 1.5 3 1.5s3-.5 3-1.5-1-1.5-3-1.5-3 .5-3 1.5zm12.7-.9c-1.6 1.6-.5 2.5 2.6 2.2 1.7-.2 3.1-.8 3-1.3-.3-1.2-4.6-1.9-5.6-.9zm13 0c-1.5 1.5-.6 2.4 2.4 2.4 2 0 2.9-.4 2.7-1.3-.5-1.4-4-2.1-5.1-1.1zm12 0c-1.6 1.6-.5 2.5 2.6 2.2 1.7-.2 3.1-.8 3-1.3-.3-1.2-4.6-1.9-5.6-.9zm12.3.8c0 1.1 1 1.6 3.1 1.6 3.8 0 3.5-2.4-.4-2.8-1.9-.2-2.7.1-2.7 1.2zm12 0c0 1.1 1 1.6 3.1 1.6 3.8 0 3.5-2.4-.4-2.8-1.9-.2-2.7.1-2.7 1.2zm12 .1c0 1 1 1.5 3 1.5s3-.5 3-1.5-1-1.5-3-1.5-3 .5-3 1.5zm12 0c0 1 1 1.5 3 1.5s3-.5 3-1.5-1-1.5-3-1.5-3 .5-3 1.5zm12.7-.9c-1.6 1.6-.5 2.5 2.6 2.2 1.7-.2 3.1-.8 3-1.3-.3-1.2-4.6-1.9-5.6-.9zm13 0c-1.5 1.5-.6 2.4 2.4 2.4 2 0 2.9-.4 2.7-1.3-.5-1.4-4-2.1-5.1-1.1zm12 0c-1.6 1.6-.5 2.5 2.6 2.2 1.7-.2 3.1-.8 3-1.3-.3-1.2-4.6-1.9-5.6-.9zm12.3.8c0 1.1 1 1.6 3.1 1.6 3.8 0 3.5-2.4-.4-2.8-1.9-.2-2.7.1-2.7 1.2zm12 0c0 1.1 1 1.6 3.1 1.6 3.8 0 3.5-2.4-.4-2.8-1.9-.2-2.7.1-2.7 1.2zm24.7-.7c-1.5 1.4-.6 2.3 2.3 2.3 2 0 3-.5 3-1.5 0-1.5-4-2.1-5.3-.8zm12-.1c-1.6 1.6-.5 2.5 2.6 2.2 1.7-.2 3.1-.8 3-1.3-.3-1.2-4.6-1.9-5.6-.9zm13 0c-1.5 1.5-.6 2.4 2.4 2.4 2 0 2.9-.4 2.7-1.3-.5-1.4-4-2.1-5.1-1.1zm12 .1c-1.5 1.4-.6 2.3 2.3 2.3 2 0 3-.5 3-1.5 0-1.5-4-2.1-5.3-.8zm12-.1c-1.2 1.3.4 2.4 3.4 2.4 2 0 2.9-.4 2.7-1.3-.5-1.3-5-2.2-6.1-1.1zm12.3.8c0 1.1 1 1.6 3.1 1.6 3.8 0 3.5-2.4-.4-2.8-1.9-.2-2.7.1-2.7 1.2zm12 .1c0 1 1 1.5 3 1.5s3-.5 3-1.5-1-1.5-3-1.5-3 .5-3 1.5zm12.7-.8c-1.5 1.4-.6 2.3 2.3 2.3 2 0 3-.5 3-1.5 0-1.5-4-2.1-5.3-.8zm12-.1c-1.6 1.6-.5 2.5 2.6 2.2 1.7-.2 3.1-.8 3-1.3-.3-1.2-4.6-1.9-5.6-.9zm12.3.8c0 1.1 1 1.6 3.1 1.6 3.8 0 3.5-2.4-.4-2.8-1.9-.2-2.7.1-2.7 1.2zm12.7-.8c-1.5 1.5-.6 2.4 2.4 2.4 2 0 2.9-.4 2.7-1.3-.5-1.4-4-2.1-5.1-1.1zm12 0c-1.5 1.6-.5 2.4 2.9 2.4 2.4 0 3.4-.4 3.2-1.3-.5-1.3-5-2.2-6.1-1.1zm12.3.8c0 1.1 1 1.6 3.1 1.6 3.8 0 3.5-2.4-.4-2.8-1.9-.2-2.7.1-2.7 1.2zm24.7-.7c-1.5 1.4-.6 2.3 2.3 2.3 2 0 3-.5 3-1.5 0-1.5-4-2.1-5.3-.8zm12 0c-1.5 1.4-.6 2.3 2.3 2.3 2 0 3-.5 3-1.5 0-1.5-4-2.1-5.3-.8zm11.8.2c-.7 1.3 1.7 2.4 4 1.9.9-.1 1.6-.8 1.6-1.3 0-1.4-4.8-1.9-5.6-.6zm13.2-.3c-1.5 1.5-.6 2.4 2.4 2.4 2 0 2.9-.4 2.7-1.3-.5-1.4-4-2.1-5.1-1.1zm12 0c-1.5 1.6-.5 2.4 2.9 2.4 2.4 0 3.4-.4 3.2-1.3-.5-1.3-5-2.2-6.1-1.1zm12.3.8c0 1.1 1 1.6 3.1 1.6 3.8 0 3.5-2.4-.4-2.8-1.9-.2-2.7.1-2.7 1.2zm12 .1c0 1 1 1.5 3 1.5s3-.5 3-1.5-1-1.5-3-1.5-3 .5-3 1.5zm12.7-.8c-1.5 1.4-.6 2.3 2.3 2.3 2 0 3-.5 3-1.5 0-1.5-4-2.1-5.3-.8zm12 0c-1.5 1.4-.6 2.3 2.3 2.3 2 0 3-.5 3-1.5 0-1.5-4-2.1-5.3-.8zm12-.1c-1.6 1.6-.5 2.5 2.6 2.2 1.7-.2 3.1-.8 3-1.3-.3-1.2-4.6-1.9-5.6-.9zm13 0c-1.5 1.5-.6 2.4 2.4 2.4 2 0 2.9-.4 2.7-1.3-.5-1.4-4-2.1-5.1-1.1zm12 0c-1.5 1.6-.5 2.4 2.9 2.4 2.4 0 3.4-.4 3.2-1.3-.5-1.3-5-2.2-6.1-1.1zm12.3.8c0 1.1 1 1.6 3.1 1.6 3.8 0 3.5-2.4-.4-2.8-1.9-.2-2.7.1-2.7 1.2zm12 0c0 1.1 1 1.6 3.1 1.6 3.8 0 3.5-2.4-.4-2.8-1.9-.2-2.7.1-2.7 1.2zm24.7-.7c-1.5 1.4-.6 2.3 2.3 2.3 2 0 3-.5 3-1.5 0-1.5-4-2.1-5.3-.8zm12-.1c-1.6 1.6-.5 2.5 2.6 2.2 1.7-.2 3.1-.8 3-1.3-.3-1.2-4.6-1.9-5.6-.9zm13 0c-1.5 1.5-.6 2.4 2.4 2.4 2 0 2.9-.4 2.7-1.3-.5-1.4-4-2.1-5.1-1.1zm12 0c-1.5 1.6-.5 2.4 2.9 2.4 2.4 0 3.4-.4 3.2-1.3-.5-1.3-5-2.2-6.1-1.1zm12.3.8c0 1.1 1 1.6 3.1 1.6 3.8 0 3.5-2.4-.4-2.8-1.9-.2-2.7.1-2.7 1.2zm12 0c0 1.1 1 1.6 3.1 1.6 3.8 0 3.5-2.4-.4-2.8-1.9-.2-2.7.1-2.7 1.2zm12 .1c0 1 1 1.5 3 1.5s3-.5 3-1.5-1-1.5-3-1.5-3 .5-3 1.5zm12.7-.8c-1.5 1.4-.6 2.3 2.3 2.3 2 0 3-.5 3-1.5 0-1.5-4-2.1-5.3-.8zm12-.1c-1.6 1.6-.5 2.5 2.6 2.2 1.7-.2 3.1-.8 3-1.3-.3-1.2-4.6-1.9-5.6-.9zm13 0c-1.5 1.5-.6 2.4 2.4 2.4 2 0 2.9-.4 2.7-1.3-.5-1.4-4-2.1-5.1-1.1zm12 0c-1.5 1.6-.5 2.4 2.9 2.4 2.4 0 3.4-.4 3.2-1.3-.5-1.3-5-2.2-6.1-1.1zm12.3.8c0 1.1 1 1.6 3.1 1.6 3.8 0 3.5-2.4-.4-2.8-1.9-.2-2.7.1-2.7 1.2zm12 0c0 1.1 1 1.6 3.1 1.6 3.8 0 3.5-2.4-.4-2.8-1.9-.2-2.7.1-2.7 1.2zm24 .1c0 1 1 1.5 3 1.5s3-.5 3-1.5-1-1.5-3-1.5-3 .5-3 1.5zm12.7-.9c-1.6 1.6-.5 2.5 2.6 2.2 1.7-.2 3.1-.8 3-1.3-.3-1.2-4.6-1.9-5.6-.9zm13 0c-1.5 1.5-.6 2.4 2.4 2.4 2 0 2.9-.4 2.7-1.3-.5-1.4-4-2.1-5.1-1.1zm12 0c-1.6 1.6-.5 2.5 2.6 2.2 1.7-.2 3.1-.8 3-1.3-.3-1.2-4.6-1.9-5.6-.9zm12.3.8c0 1.1 1 1.6 3.1 1.6 3.8 0 3.5-2.4-.4-2.8-1.9-.2-2.7.1-2.7 1.2zm12 0c0 1.1 1 1.6 3.1 1.6 3.8 0 3.5-2.4-.4-2.8-1.9-.2-2.7.1-2.7 1.2zm12 .1c0 1 1 1.5 3 1.5s3-.5 3-1.5-1-1.5-3-1.5-3 .5-3 1.5zm12.7-.8c-1.5 1.4-.6 2.3 2.3 2.3 2 0 3-.5 3-1.5 0-1.5-4-2.1-5.3-.8zm12-.1c-1.6 1.6-.5 2.5 2.6 2.2 1.7-.2 3.1-.8 3-1.3-.3-1.2-4.6-1.9-5.6-.9zm13 0c-1.5 1.5-.6 2.4 2.4 2.4 2 0 2.9-.4 2.7-1.3-.5-1.4-4-2.1-5.1-1.1zm12 0c-1.6 1.6-.5 2.5 2.6 2.2 1.7-.2 3.1-.8 3-1.3-.3-1.2-4.6-1.9-5.6-.9zm12 0c-1.2 1.3.4 2.4 3.4 2.4 2 0 2.9-.4 2.7-1.3-.5-1.3-5-2.2-6.1-1.1zm12.3.8c0 1.1 1 1.6 3.1 1.6 3.8 0 3.5-2.4-.4-2.8-1.9-.2-2.7.1-2.7 1.2zm-509.5 7.6c-.8 2.4.1 4 2.1 4 .9 0 1.4-1.1 1.4-3 0-3.5-2.5-4.2-3.5-1zm-173.8.6c-.4.4-.7 1.8-.7 3.1 0 1.7.6 2.3 2.1 2.3 1.6 0 2-.5 1.7-2.7-.3-2.6-1.8-3.9-3.1-2.7zm349 .1c-1.3 1.3-.7 5.3.8 5.3 1 0 1.5-1 1.5-3 0-2.9-.9-3.8-2.3-2.3zm-523.3 3.8c-.9 2.1.3 4.5 2.1 4.5 1 0 1.5-1 1.5-3 0-3.2-2.6-4.3-3.6-1.5zm696.8 1.2c.4 3.9 2.8 4.2 2.8.4 0-2.1-.5-3.1-1.6-3.1s-1.4.8-1.2 2.7zm-871 2c.2 1.7 1 2.9 2.1 3.1 1.3.3 1.7-.3 1.7-2.7 0-2.5-.4-3.1-2.1-3.1-1.6 0-2 .5-1.7 2.7zm1044.2-1.2c-.9 2.1.3 4.5 2.1 4.5 1 0 1.5-1 1.5-3 0-3.2-2.6-4.3-3.6-1.5zm-521.9 5.5c-1 1.6.5 5 2.1 5 .9 0 1.4-1.1 1.4-3 0-3-2.1-4.2-3.5-2zm-174.1 2.5c-.9 2.1.3 4.5 2.1 4.5 1 0 1.5-1 1.5-3 0-3.2-2.6-4.3-3.6-1.5zm348.8 1.2c.4 3.9 2.8 4.2 2.8.4 0-2.1-.5-3.1-1.6-3.1s-1.4.8-1.2 2.7zm-522.8.8c-.9 2.1.3 4.5 2.1 4.5 1 0 1.5-1 1.5-3 0-3.2-2.6-4.3-3.6-1.5zm697.3-.8c-1.3 1.3-.7 5.3.8 5.3 1 0 1.5-1 1.5-3 0-2.9-.9-3.8-2.3-2.3zm-871.3 2.7c-.9 2.3 0 5.1 1.6 5.1 1 0 1.5-1 1.5-2.9 0-3.2-2.1-4.7-3.1-2.2zm1044.3-.8c-1.3 1.3-.7 5.2.8 5.8 1.7.6 2.9-1.3 2.3-4-.3-1.9-2-2.8-3.1-1.8zm-521.7 6.9c-1.5 1.8-.6 4.5 1.5 4.5 1 0 1.5-1 1.5-3 0-3.3-1.1-3.8-3-1.5zm-174.7 2.1c-.7 1.8.9 5.1 2.3 4.6 1.4-.3 1.1-5.5-.3-5.9-.7-.3-1.6.3-2 1.3zm349.1-.2c-.8 2-.1 4.7 1.1 4.9.6.1 1.1-1.3 1.3-3.1.3-3.2-1.4-4.5-2.4-1.8zm-522.7 1.2c-1.3 1.3-.7 5.2.8 5.8 1.7.6 2.9-1.3 2.3-4-.3-1.9-2-2.8-3.1-1.8zm696.7.8c-.8 2-.1 4.7 1.1 4.9.6.1 1.1-1.3 1.3-3.1.3-3.2-1.4-4.5-2.4-1.8zm-871.2 4.3c.2 1.7.9 2.8 1.8 2.8s1.6-1.1 1.8-2.8c.3-2.2-.1-2.7-1.8-2.7s-2.1.5-1.8 2.7zm1044 0c.2 1.7 1 2.9 2.1 3.1 1.3.3 1.7-.3 1.7-2.7 0-2.5-.4-3.1-2.1-3.1-1.6 0-2 .5-1.7 2.7zm-521.8 4.8c-.7 1.8 1.4 4.7 2.7 3.9.5-.3.9-1.6.9-3 0-2.7-2.7-3.4-3.6-.9zm-174 2c-.9 2.1.3 4.5 2.1 4.5 1 0 1.5-1 1.5-3 0-3.2-2.6-4.3-3.6-1.5zm348.8 1.2c.4 3.9 2.8 4.2 2.8.4 0-2.1-.5-3.1-1.6-3.1s-1.4.8-1.2 2.7zm-523 2c.2 1.7 1 2.9 2.1 3.1 1.3.3 1.7-.3 1.7-2.7 0-2.5-.4-3.1-2.1-3.1-1.6 0-2 .5-1.7 2.7zm697 0c.4 3.9 2.8 4.2 2.8.4 0-2.1-.5-3.1-1.6-3.1s-1.4.8-1.2 2.7zm-871 2c.2 1.7 1 2.9 2.1 3.1 1.3.3 1.7-.3 1.7-2.7 0-2.5-.4-3.1-2.1-3.1-1.6 0-2 .5-1.7 2.7zm1044 0c.2 1.7 1 2.9 2.1 3.1 1.3.3 1.7-.3 1.7-2.7 0-2.5-.4-3.1-2.1-3.1-1.6 0-2 .5-1.7 2.7zm-521.7 4.3c-1 1.6.5 5 2.1 5 .9 0 1.4-1.1 1.4-3 0-3-2.1-4.2-3.5-2zm-576.2 3c-5.3 2.4-7.7 6.7-7 12.6.4 3.6 1.7 5.7 7.6 12.5 6 7 7.1 8.8 7.1 11.9 0 5.3-3.6 9-8.8 9-4.6 0-8-2.8-9.7-8.1-1.6-4.5-3.5-4.9-3.5-.7 0 1.8-.3 5.1-.7 7.2-.6 3.7-.5 3.9 1.6 3.3 1.2-.3 4.5.1 7.3 1 9 2.6 16.5-.5 19.9-8.4 2.7-6.4 1.4-11.3-4.9-18-9.6-10-11-13.3-7.6-18.1 1.2-1.7 2.5-2.2 5.9-2.2 3.7 0 4.7.5 6.4 2.9 1.2 1.6 2.1 4.1 2.1 5.5 0 1.4.4 2.6.9 2.6 1.3 0 3.1-5.7 3.1-9.9v-3.6l-4.7-.1c-2.7 0-6.1-.3-7.8-.7-2-.4-4.4 0-7.2 1.3zm402.1-.5c-.9 2.1.3 4.5 2.1 4.5 1 0 1.5-1 1.5-3 0-3.2-2.6-4.3-3.6-1.5zM1197 935c0 2 .5 3 1.5 3s1.5-1 1.5-3-.5-3-1.5-3-1.5 1-1.5 3zm-523 2c0 2.3.4 3 2 3s2-.7 2-3-.4-3-2-3-2 .7-2 3zm697 0c0 2 .5 3 1.5 3s1.5-1 1.5-3-.5-3-1.5-3-1.5 1-1.5 3zm213-2.1c0 .5.9 1.1 2 1.4 2.6.7 2.6 4.4.1 12.3-1 3.2-2.8 9.7-4.1 14.4-3.3 12.6-4.3 15.2-6.2 16.4-1 .6-1.8 1.4-1.8 1.8 0 1.2 25.3.9 29.1-.3 12.1-3.8 18.8-10.6 21.9-22.2 2.4-8.9-2.1-18.6-10.3-22.6-3.7-1.8-6.2-2.1-17.5-2.1-7.3 0-13.2.4-13.2.9zm24.6 3.2c5.8 2.8 7.4 5.9 7.4 14.8 0 15-7.9 24.5-22.1 26.6-7.8 1.2-8.2-.9-3.5-17.8.9-3.1 2.3-8.3 3.2-11.5.9-3.1 1.8-6.8 2.1-8.2 1.3-6.2 5.4-7.4 12.9-3.9zM500 939c0 2.3.4 3 2 3s2-.7 2-3-.4-3-2-3-2 .7-2 3zm1044.4-1.5c-.9 2.1.3 4.5 2.1 4.5 1 0 1.5-1 1.5-3 0-3.2-2.6-4.3-3.6-1.5zm-522 6c-.9 2.1.3 4.5 2.1 4.5 1 0 1.5-1 1.5-3 0-3.2-2.6-4.3-3.6-1.5zm-174 2c-.9 2.1.3 4.5 2.1 4.5 1 0 1.5-1 1.5-3 0-3.2-2.6-4.3-3.6-1.5zM1197 947c0 2 .5 3 1.5 3s1.5-1 1.5-3-.5-3-1.5-3-1.5 1-1.5 3zm-522.3-.3c-.4.3-.7 1.7-.7 3 0 1.6.6 2.3 2 2.3 1.6 0 2-.7 2-3 0-2.8-1.7-4-3.3-2.3zM1371 949c0 2 .5 3 1.5 3s1.5-1 1.5-3-.5-3-1.5-3-1.5 1-1.5 3zm-871 2c0 2.3.4 3 2 3s2-.7 2-3-.4-3-2-3-2 .7-2 3zm1044.7-2.3c-.4.3-.7 1.7-.7 3 0 1.6.6 2.3 2 2.3 1.6 0 2-.7 2-3 0-2.8-1.7-4-3.3-2.3zm-522.3 6.8c-.9 2.1.3 4.5 2.1 4.5 1 0 1.5-1 1.5-3 0-3.2-2.6-4.3-3.6-1.5zm-174 2c-.9 2.1.3 4.5 2.1 4.5 1 0 1.5-1 1.5-3 0-3.2-2.6-4.3-3.6-1.5zM1197 959c0 2 .5 3 1.5 3s1.5-1 1.5-3-.5-3-1.5-3-1.5 1-1.5 3zm-522.3-.4c-1.3 1.3-.7 5.2.8 5.8 1.7.6 2.9-1.3 2.3-4-.3-1.9-2-2.8-3.1-1.8zm696.7.8c-.8 2-.1 4.7 1.1 4.9.6.1 1.1-1.3 1.3-3.1.3-3.2-1.4-4.5-2.4-1.8zm-871 2c-.9 2.3 0 5.1 1.6 5.1 1 0 1.5-1 1.5-2.9 0-3.2-2.1-4.7-3.1-2.2zm1044.3-.7c-1.2 1.2-.7 5.1.7 5.6 1.9.8 2.6-.1 2.6-3.5 0-2.6-1.7-3.7-3.3-2.1zm-522.2 7.3c-.8 2.4.1 4 2.1 4 .9 0 1.4-1.1 1.4-3 0-3.5-2.5-4.2-3.5-1zm-173.8.7c-.4.3-.7 1.7-.7 3 0 1.6.6 2.3 2 2.3 1.6 0 2-.7 2-3 0-2.8-1.7-4-3.3-2.3zm349 0c-1.3 1.3-.7 5.3.8 5.3 1 0 1.5-1 1.5-3 0-2.9-.9-3.8-2.3-2.3zm-522.6 2.7c-1.6 1.9-1 5.1.9 5.1 1.7 0 2.6-4.3 1.2-5.7-.5-.5-1.4-.3-2.1.6zm696.3 0c-.8 2.1-.1 4.9 1.4 5.4.8.2 1.2-.7 1.2-2.7 0-3.3-1.7-5.1-2.6-2.7zm-871.2 4.3c.2 1.7 1 2.9 2.1 3.1 1.3.3 1.7-.3 1.7-2.7 0-2.5-.4-3.1-2.1-3.1-1.6 0-2 .5-1.7 2.7zm1044.2-1.2c-.9 2.1.3 4.5 2.1 4.5 1 0 1.5-1 1.5-3 0-3.2-2.6-4.3-3.6-1.5zm-521.9 5.5c-1 1.6.5 5 2.1 5 .9 0 1.4-1.1 1.4-3 0-3-2.1-4.2-3.5-2zm-174.1 2.5c-.9 2.1.3 4.5 2.1 4.5 1 0 1.5-1 1.5-3 0-3.2-2.6-4.3-3.6-1.5zm348.8 1.2c.4 3.9 2.8 4.2 2.8.4 0-2.1-.5-3.1-1.6-3.1s-1.4.8-1.2 2.7zm-522.8.8c-.9 2.1.3 4.5 2.1 4.5 1 0 1.5-1 1.5-3 0-3.2-2.6-4.3-3.6-1.5zm696.8 1.2c.4 3.9 2.8 4.2 2.8.4 0-2.1-.5-3.1-1.6-3.1s-1.4.8-1.2 2.7zm-870.8.7c-.9 2.3 0 5.1 1.6 5.1 1 0 1.5-1 1.5-2.9 0-3.2-2.1-4.7-3.1-2.2zm1043.9.2c-.7 1.8.9 5.1 2.3 4.6 1.4-.3 1.1-5.5-.3-5.9-.7-.3-1.6.3-2 1.3zm-521.3 5.9c-1.5 1.8-.6 4.5 1.5 4.5 1 0 1.5-1 1.5-3 0-3.3-1.1-3.8-3-1.5zm-174.7 2.1c-.7 1.8.9 5.1 2.3 4.6 1.4-.3 1.1-5.5-.3-5.9-.7-.3-1.6.3-2 1.3zm349.1-.2c-.8 2-.1 4.7 1.1 4.9.6.1 1.1-1.3 1.3-3.1.3-3.2-1.4-4.5-2.4-1.8zm-522.7 1.2c-1.3 1.3-.7 5.2.8 5.8 1.7.6 2.9-1.3 2.3-4-.3-1.9-2-2.8-3.1-1.8zm696.7.8c-.8 2-.1 4.7 1.1 4.9.6.1 1.1-1.3 1.3-3.1.3-3.2-1.4-4.5-2.4-1.8zm173.7 1.5c-1.8 1.2-1 5.5 1.2 5.9 1.3.3 1.7-.3 1.7-2.7 0-3.3-.9-4.4-2.9-3.2zm-1044.9 2.8c.2 1.7.9 2.8 1.8 2.8s1.6-1.1 1.8-2.8c.3-2.2-.1-2.7-1.8-2.7s-2.1.5-1.8 2.7zm522.8 3.8c-.9 1.1-1.1 2.2-.4 3.2 1.4 2.3 2.9 2 3.2-.6.5-3.2-1.1-4.6-2.8-2.6zm-174.8 4.2c.2 1.7 1 2.9 2.1 3.1 1.3.3 1.7-.3 1.7-2.7 0-2.5-.4-3.1-2.1-3.1-1.6 0-2 .5-1.7 2.7zm349 0c.4 3.9 2.8 4.2 2.8.4 0-2.1-.5-3.1-1.6-3.1s-1.4.8-1.2 2.7zm-523 2c.2 1.7 1 2.9 2.1 3.1 1.3.3 1.7-.3 1.7-2.7 0-2.5-.4-3.1-2.1-3.1-1.6 0-2 .5-1.7 2.7zm696.8.3c0 2 .5 3 1.5 3s1.5-1 1.5-3-.5-3-1.5-3-1.5 1-1.5 3zm-870.8 1.7c.2 1.7 1 2.9 2.1 3.1 1.3.3 1.7-.3 1.7-2.7 0-2.5-.4-3.1-2.1-3.1-1.6 0-2 .5-1.7 2.7zm1044 0c.2 1.7 1 2.9 2.1 3.1 1.3.3 1.7-.3 1.7-2.7 0-2.5-.4-3.1-2.1-3.1-1.6 0-2 .5-1.7 2.7zm-521.7 4.3c-1 1.6.5 5 2.1 5 .9 0 1.4-1.1 1.4-3 0-3-2.1-4.2-3.5-2zm-174.1 2.5c-.9 2.1.3 4.5 2.1 4.5 1 0 1.5-1 1.5-3 0-3.2-2.6-4.3-3.6-1.5zm348.6 1.5c0 2 .5 3 1.5 3s1.5-1 1.5-3-.5-3-1.5-3-1.5 1-1.5 3zm-522.8 1.7c.2 1.7 1 2.9 2.1 3.1 1.3.3 1.7-.3 1.7-2.7 0-2.5-.4-3.1-2.1-3.1-1.6 0-2 .5-1.7 2.7zm696.8.3c0 2 .5 3 1.5 3s1.5-1 1.5-3-.5-3-1.5-3-1.5 1-1.5 3zm-871 2c0 2.3.4 3 2 3s2-.7 2-3-.4-3-2-3-2 .7-2 3zm1044.4-1.5c-.9 2.1.3 4.5 2.1 4.5 1 0 1.5-1 1.5-3 0-3.2-2.6-4.3-3.6-1.5zm-522 6c-.9 2.1.3 4.5 2.1 4.5 1 0 1.5-1 1.5-3 0-3.2-2.6-4.3-3.6-1.5zm-174 2c-.9 2.1.3 4.5 2.1 4.5 1 0 1.5-1 1.5-3 0-3.2-2.6-4.3-3.6-1.5zm348.6 1.5c0 2 .5 3 1.5 3s1.5-1 1.5-3-.5-3-1.5-3-1.5 1-1.5 3zm-522.3-.3c-.4.3-.7 1.7-.7 3 0 1.6.6 2.3 2 2.3 1.6 0 2-.7 2-3 0-2.8-1.7-4-3.3-2.3zm696.3 2.3c0 2 .5 3 1.5 3s1.5-1 1.5-3-.5-3-1.5-3-1.5 1-1.5 3zm-871 2c0 2.3.4 3 2 3s2-.7 2-3-.4-3-2-3-2 .7-2 3zm1044.7-2.3c-.4.3-.7 1.7-.7 3 0 1.6.6 2.3 2 2.3 1.6 0 2-.7 2-3 0-2.8-1.7-4-3.3-2.3zm-1068.2 69.2c-2.2 1.2-5 3.7-6.2 5.6-2.4 3.6-3 7.5-1.3 7.5.6 0 1-.4 1-1 0-2 7.1-8 9.6-8 4.9 0 10.4 5.8 10.4 10.9 0 4.7-5.1 13.2-13.4 22.4-4.7 5.2-8.6 9.8-8.6 10.1 0 .4 6.6.5 14.6.4l14.6-.3 1.3-4c1.6-4.6 1.2-5.5-1.3-3.2-1.5 1.3-3.9 1.7-11 1.7-5.1 0-9.2-.3-9.2-.7 0-.3 3.1-3.8 6.8-7.7 11.6-12 15.1-20.6 11.5-27.5-3.8-7.3-11.6-9.8-18.8-6.2zm37.4.2c-6.7 3.9-9.9 11.7-9.9 23.9 0 12.9 3.5 20.6 10.7 24 2.4 1.1 5.1 2 6.1 2 4.8 0 12-5.9 13.9-11.5 2.8-7.7 3.4-14.8 1.9-21.5-2.3-10.6-3.9-13.4-9.6-16.9-4.4-2.6-8.5-2.6-13.1 0zm10.4 2.3c3.1 2.9 4.6 7.8 5.4 17.8 1 12.9-2.3 25.2-7.1 26.4-4 1-6.3-.4-8.6-5.1-1.9-3.9-2.2-6.2-2.2-17.2.1-13.7 1.2-18.3 5.4-22.3 2.8-2.6 3.9-2.5 7.1.4zm127.7-3.3c-3.5 1.4-8 5.9-8 8.1 0 1 .5 1.8 1 1.8.6 0 1-.4 1-.9 0-1.7 5.3-4.3 8.7-4.3 4.6 0 7.3 2.6 7.3 7.2 0 3.9-2 6.7-7 9.6-3.6 2.2-3.9 3.4-.7 3.4 1.2 0 3.7.9 5.5 2 5.7 3.5 7 10.7 3 16.6-1.9 2.8-2.9 3.4-5.8 3.4-1.9 0-5.4-1-7.7-2.2-3.9-2.1-4.4-2.1-5.8-.7-.9.8-1.3 2.3-.9 3.2.8 2.1 6.8 4.1 10.2 3.3 1.5-.3 4.1-.8 5.8-1.2 4.7-.9 10-5.8 12-10.9 1.4-3.9 1.5-5.1.4-9-.8-2.7-2.5-5.5-4.1-7-3.4-2.8-3.5-3.6-.9-6 1.1-1 2.2-3.2 2.5-4.9 1.7-8.7-7.5-15-16.5-11.5zm35.7 1.1c-2.6 1.6-4.6 3.9-6.5 7.8-2.4 4.9-2.7 6.6-2.7 16 0 9.5.3 11.1 2.8 16.2 2.2 4.6 3.6 6 7.2 7.7 5.7 2.7 8 2.6 12.9-.2 4.8-2.7 7.8-8.1 9.5-17 2.4-12.3-1.8-25.8-9.4-30.3-5.1-3-8.9-3-13.8-.2zm10.6 2.2c3.4 3.2 4.8 8.2 5.4 19.6.8 14.8-3 25-9.2 25-5.9 0-8.5-7.1-8.5-23.2 0-12.6 1-16.9 4.8-21.1 3.1-3.3 4.2-3.4 7.5-.3zm138.5-3c-.7.7-3.6 4.7-6.5 8.7-2.9 4.1-7.7 10.9-10.8 15.2-3 4.3-5.5 8.9-5.5 10.3 0 2.4.1 2.4 10 2.4h9.9l.3 5.7c.3 5.7.3 5.8 3.3 5.8 2.9 0 3-.2 3.5-5.5.5-5.4.6-5.5 3.8-5.8 2.8-.3 3.3-.7 3-2.5-.2-1.5-1.2-2.3-3.3-2.7l-3-.5-.2-14c-.4-18.4-1-20.8-4.5-17.1zm-2.8 21.1v10.5h-7.5c-4.1 0-7.5-.3-7.5-.8 0-.4 2.5-4.3 5.6-8.7 3-4.4 6.1-8.8 6.7-9.8.7-.9 1.5-1.7 1.9-1.7.5 0 .8 4.7.8 10.5zm27.7-20.3c-2.6 1.6-4.6 3.9-6.5 7.8-2.4 4.9-2.7 6.6-2.7 16 0 9.5.3 11.1 2.8 16.2 2.2 4.6 3.6 6 7.2 7.7 5.7 2.7 8 2.6 12.9-.2 7.7-4.4 12.1-18.2 9.6-30.5-1.7-8.7-4.8-14.2-9.6-16.9-4.9-2.8-8.9-2.9-13.7-.1zm10.5 2.1c7.2 6.6 7.9 35 1.2 42.3-4.3 4.5-9.7 2.1-12.3-5.5-1.4-4.4-1.4-25.8 0-30.2 1.3-3.7 5.6-8.9 7.4-8.9.7 0 2.3 1.1 3.7 2.3zm137.7-3.5c-6.7.2-9 .7-10.1 2-1.5 1.8-8.1 16.3-7.6 16.6.2.1 2.8.8 5.8 1.5 12 2.9 17.1 9.8 14.4 19.1-2.3 7.6-7.9 10-13.9 6-1.6-1.1-4.2-2-5.7-2-4.1 0-3.9 4.4.2 6.5 9.2 4.8 23.9-3.2 25.5-13.8 1.7-11-3.2-18.9-13.5-21.7-5.9-1.6-6.5-2.2-5-4.9.9-1.7 2.3-2.1 8.7-2.3 7.4-.3 7.7-.4 9.4-3.5 1-1.8 1.5-3.4 1.1-3.5-.4-.2-4.6-.2-9.3 0zm26.6 1.2c-11.1 5.5-14.2 28.8-5.7 43.2 1.7 2.9 8.7 6.8 12.2 6.8 4 0 9.9-3.9 12.4-8.2 7.9-13.6 4.4-36.3-6.4-41.8-4.9-2.5-7.5-2.5-12.5 0zm10.3 3c3.5 3.5 4.3 6.4 4.9 19 .6 11-1 18.9-4.3 22.5-2.8 3-5.3 3.2-8.6.6-3.5-2.8-4.8-8.3-4.8-20.5 0-13.3 1.3-18.8 5.2-22.1 3.7-3.1 4-3.1 7.6.5zm137.7-3.6c-13.4 5.2-20.5 15.1-20.5 28.5 0 10.3 3.9 17.8 10.7 20.6 4.4 1.9 7.1 1.9 11.4.1 6.4-2.7 9.9-8.6 9.9-16.7 0-10.6-7.8-17.4-17.2-14.8-2.2.6-4.2.8-4.5.5-1-1 1.9-6.6 5.1-9.9 3.6-3.9 9.9-7.7 12.7-7.7 1 0 1.9-.5 1.9-1 0-1.3-5.7-1.1-9.5.4zm-2 22c4.1 1.8 5.3 3.8 6 10.7.7 6.8-.4 10.7-3.8 13.3-5.5 4-11.9-1.7-13.1-11.7-1-7.5 0-10.6 3.8-12.3 3.8-1.6 3.1-1.6 7.1 0zm29-22c-4.3 1.9-7.3 5.5-9.5 11.7-3.9 10.6-1.8 27.2 4.2 33.6 2.5 2.7 7.9 5.3 11 5.3 3.8 0 9.7-4 12.2-8.2 7.9-13.6 4.4-36.3-6.4-41.8-4.5-2.3-7.3-2.5-11.5-.6zm9.2 3.4c3.7 3.7 5.3 10.2 5.3 21.2 0 10.4-1.6 17.2-4.7 20.6-2.7 2.9-5.2 3-8.5.4-3.4-2.6-4.8-8.7-4.8-20.9 0-12.3 1.5-18.5 5.3-21.7 3.6-3 3.9-3 7.4.4zm164.8-3.4c-7.1 3.1-11.5 12.8-11.5 25.3 0 11.8 4.5 20.8 11.9 23.9 4.5 1.9 6.5 1.8 11-.6 11.6-5.9 14.7-29.5 5.7-43.1-2.6-3.9-7.9-6.9-12-6.9-1.1.1-3.5.7-5.1 1.4zm9.2 3.4c3.7 3.7 5.3 10.2 5.3 21.2 0 14-3.5 23-8.8 23-6.1 0-9.2-7.7-9.2-22.7 0-12.5 1.5-18.7 5.3-21.9 3.6-3 3.9-3 7.4.4zm127.1-3.4c-5.5 2.4-7.8 5.6-7.8 10.8 0 4.1.5 5.4 3.5 8.7 1.9 2.1 3.5 4.3 3.5 4.8s-1.5 2.4-3.4 4.2c-6.9 6.6-5.4 16.1 3 20 5 2.4 7.1 2.6 12.6.9 5.3-1.6 8.8-6.2 8.8-11.7 0-5-1.3-7.4-6.5-12.4-3.8-3.6-3.9-3.9-2.1-4.9 1.1-.6 3-2.2 4.3-3.6 3.2-3.5 3.2-11 .1-14-4.4-4.1-10.7-5.2-16-2.8zm12.4 6.2c1.5 3.2-.7 10-3.9 12.1-2 1.3-2.5 1.2-6.3-2.3-3.7-3.4-4.1-4.1-3.8-7.8.3-3.5.8-4.3 3.7-5.8 3.1-1.5 3.7-1.5 6.3-.2 1.6.8 3.4 2.6 4 4zm-3.2 25.2c6 5.8 6.6 9.6 2.4 13.9-2.1 2.1-3.2 2.4-6.2 1.9-5.1-.8-7.2-3.7-7.2-9.8 0-4.9 2.8-10.8 5.1-10.8.5 0 3.2 2.2 5.9 4.8zm26.9-30.7c-6.7 3.9-9.9 11.7-9.9 23.9 0 12.9 3.5 20.6 10.7 24 5.5 2.6 7.3 2.5 12.5-.4 7.7-4.3 12.2-17.9 9.8-29.8-1.8-9.4-4.6-14.5-9.5-17.3-5.1-3-8.8-3.1-13.6-.4zm10.4 2.3c1.4 1.3 2.9 3.7 3.2 5.3.4 1.5 1.1 4.1 1.6 5.7 2.1 6.8.4 24-3.1 30.5-1.2 2.4-4.9 3.6-7.8 2.7-1.1-.4-3-2.8-4.3-5.4-1.9-4.1-2.2-6.2-2.2-17.2.1-13.4 1.2-18 5.5-22 2.8-2.6 3.9-2.5 7.1.4zm100.3-2.4c-5.8 2.3-8.9 5-12.4 11-2.3 3.8-2.6 5.5-2.6 13 0 9.2 1.1 12.3 6.4 18.4 1.7 1.8 4.5 3.9 6.2 4.6 1.8.7 4.9 3 6.8 5 5.7 6 15.5 10 24.8 10 5.7 0 5.3-1.3-.8-3-4.7-1.3-13-7-13-9 0-.5 1.9-1.8 4.3-2.8 5.6-2.6 9.3-6.7 11.7-13.3 2.5-6.8 2.5-13 0-19.8-2.5-7-7-11.6-13.7-14.1-6.6-2.5-11.4-2.5-17.7 0zm15.4 3.5c1.6.8 4.2 3.6 5.7 6.3 2.5 4.2 2.8 5.6 2.8 14.2 0 8.5-.3 10-2.7 14.1-3.5 5.9-6.6 7.9-12.4 7.9-6.5 0-10.6-3.3-13.3-10.5-4-10.6-2.2-23.4 4.2-29.7 3.2-3.3 4.3-3.8 8.2-3.8 2.6 0 5.9.7 7.5 1.5zm153-3.4c-1 1.8-.9 2.5.9 4.3 2.7 2.7 5.6 1.2 5.6-3 0-2.4-.5-3-2.7-3.2-1.9-.2-3 .3-3.8 1.9zm-495.1-.1c-1.7 1-4.6 8.6-3.6 9.6.3.3 1.6-.3 2.8-1.5 2-1.8 3.5-2.1 11.6-2.1 9.4 0 10.2.4 8.4 3.8-.5.9-1.9 4.8-3.2 8.7-1.2 3.8-2.5 7.9-3 9-.4 1.1-2.1 6.2-3.7 11.3-2.4 7.6-2.7 9.5-1.6 9.9 2.8 1.1 4.1-.7 7.2-10.3 11.6-35.4 12-36.9 11-38.2-1.2-1.4-23.4-1.7-25.9-.2zm474.4 11.5c-4.7 5.9-5 6.5-2.9 6.5 1 0 1.4 3 1.8 13.5.4 10.9.8 13.8 2.2 15.4 2.5 2.7 4.8 3 8.6 1.2 4.3-2 5.4-4.6 1.7-3.9-4.9.9-5.8-1.5-5.5-14.3l.3-11.4 3.3-.3c1.9-.2 3.2-.9 3.2-1.7 0-.8-1.3-1.5-3.2-1.7-3.1-.3-3.3-.6-3.6-4.6-.2-2.3-.6-4.2-1-4.1-.4 0-2.6 2.4-4.9 5.4zm40.8.2c-4.4 4.9-5 6.3-2.6 6.3 1.3 0 1.5 2.1 1.5 12.5 0 7.1.5 13.5 1.1 14.9 1.7 3.6 5.7 4.7 9.9 2.7s5.4-4.6 1.7-3.9c-4.8.9-5.2-.2-5.2-13.4v-12.3l3.3-.3c3.5-.4 4.6-3.2 1.3-3.2-3.6 0-5.1-1.2-5.1-4 0-4.5-1.4-4.3-5.9.7zm-106.1 3.6c-4.8 2.2-6.8 5.5-5.4 9.1 1.4 3.7 6.4 1 6.4-3.4 0-1.8.8-3.1 2.5-4 2.3-1.2 2.8-1.1 5.1 1 3.4 3.3 3 7.7-1.1 10.1-1.6 1-3.6 1.8-4.3 1.8-.7.1-3.3 1.4-5.7 3.1-4.3 3-5.4 5.6-4.7 10.8.4 2.6 4.3 5.4 7.6 5.4 1.2 0 3.9-.7 6-1.7 3.4-1.6 3.8-1.6 5.5-.1 2.4 2.2 6.4 2 9.2-.3 2.6-2.1 2.7-2-2.8-3.7-1-.2-1.3-3.5-1.3-12v-11.6l-3.1-2.9c-2.4-2.3-4-2.9-7.3-2.8-2.2 0-5.2.6-6.6 1.2zm10.8 20.1c.4 5.6-1.6 8.6-5.6 8.6-3 0-6.2-2.6-6.2-5.1 0-2.8 6.8-9.1 9.3-8.7 1.9.3 2.2 1.1 2.5 5.2zm28.7-19.4c-3.7 2.4-4.5 2.5-4.5.4 0-1.4-.7-1.5-3.7-1.1-4.7.8-5.8 1.9-4.4 4.5 1.4 2.6 1.5 24.9.1 25.7-2.5 1.5-.5 2.5 5 2.5 5.7 0 7.8-1.1 4.5-2.4-1.3-.5-1.5-2.4-1.3-11.7.3-10.9.4-11.2 3-13.2 2.3-1.7 3.3-1.9 5.5-1.1l2.8.9.3 11.9c.2 10 0 12.2-1.4 13.7-1.7 1.8-1.5 1.9 4.9 1.9 6 0 8.8-1.1 5.5-2.2-.9-.3-1.4-4.4-1.8-13.7-.5-13-.6-13.3-3.3-15.7-3.4-2.9-7.2-3.1-11.2-.4zm-83.5.4c0 .8.5 1.8 1 2.1.6.4 1 5.4 1 11.7 0 13.2 1.3 16.9 6.5 18.6 3 .9 4.2.7 8-1.2 3.4-1.8 4.5-2 4.9-.9.7 1.6 4.6 1.7 8.1.1 2.8-1.2 3.3-2.8 1-2.8-2 0-2.5-2.6-2.8-16.5l-.2-12-4.7-.3c-4.7-.3-6.6 1.2-3.3 2.4 1.2.5 1.5 2.8 1.5 11.9 0 9.6-.3 11.4-1.8 12.8-2.2 2-7.7 2.2-8.9.4-.4-.6-1-7.1-1.3-14.2l-.5-13-4.2-.3c-3.3-.2-4.3 0-4.3 1.2zm129.8.3c-4.1 1.6-5 3.3-1.8 3.3 2.7 0 3.3 2.9 2.8 14.9-.3 8.6-.6 10.2-2.3 11.5-1.8 1.4-1.4 1.5 5.4 1.6h7.5l-2.2-2c-2.1-2-2.2-3-2.2-16.5 0-16.2.2-15.9-7.2-12.8zm37.2-.8c0 .6.5 1.3 1.1 1.7 1 .6 4.6 7.9 11.8 23.7 2.6 5.6 2.1 9.9-1.4 14.3-2.1 2.6-2.5 2.7-4.9 1.6-5.9-2.6-9.1 3.5-3.5 6.7 2.2 1.2 2.9 1.2 5.4 0 5-2.4 6.7-5.7 18.8-37.4 1.6-4.4 3.4-8.4 3.9-9 1.6-1.8.8-2.5-2.8-2.5-3.3 0-3.6.2-3.1 2.2.6 2.2-5.1 19.8-6.4 19.8-.3 0-2.5-4.1-4.8-9.1-3-6.5-3.9-9.5-3.2-10.2 2.1-2.1 1-2.7-4.9-2.7-3.3 0-6 .4-6 .9zm-151 71.6c-2.6 3.2 1.3 8.1 4.8 5.9 3.4-2.2 2.2-7.4-1.8-7.4-1 0-2.3.7-3 1.5zm24-.5c-.8.5-2.5 1-3.7 1-3.1 0-3.9 1.9-1.4 3.6 2 1.5 2.1 2.3 2.1 21.3 0 16.4-.3 20.1-1.5 21.1-2.3 1.9-.8 3 4.4 3 5.7 0 6.5-.6 4.6-3.4-1.2-1.6-1.5-6.4-1.5-24.8 0-12.6-.3-22.8-.7-22.8-.5 0-1.5.5-2.3 1zm18.5.2c-1.6.6-3.6 1.2-4.2 1.4-2 .5-1.5 2.2.7 2.9 1.9.6 2 1.5 2 21 0 12.5-.4 20.6-1 21-.5.3-1 1.3-1 2.1 0 1 1.4 1.4 5.5 1.4 5.5 0 6.9-1.2 4.5-3.6-.5-.5-1.1-10.6-1.2-23.8-.2-14.3-.7-23-1.3-23.2-.5-.1-2.3.3-4 .8zm19.5.2c-2 2.6-.8 6.1 2.2 6.4 2.2.3 2.9-.2 3.4-2.2 1.1-4.4-2.9-7.4-5.6-4.2zm-136.2 5.1c-6.8 6.6-10.2 14.2-10.7 23.9-.3 8.4.7 13.2 4.7 20.2 3.2 5.9 13.2 14.9 13.2 11.9 0-.2-1.4-2-3-3.9-6.2-7-7.5-11.6-7.5-26.6.1-12.1.3-14 2.4-18.2 1.2-2.6 3.6-6 5.2-7.7 3.2-3.4 3.5-4.1 1.6-4.1-.7 0-3.4 2-5.9 4.5zm255.2-4c0 .3 1.2 1.8 2.6 3.2 1.5 1.5 3.8 5.2 5.2 8.2 2.3 5.1 2.6 6.7 2.5 19.1 0 12.5-.2 13.9-2.5 18.5-1.4 2.7-3.8 6.1-5.2 7.4-1.4 1.4-2.6 2.8-2.6 3.3 0 1.8 2.3.6 6.9-3.7 11.2-10.5 14.2-27.3 7.5-42.2-2.7-6.1-14.4-17.2-14.4-13.8zm-238.7 16c-3.6 1.5-4.2 2.9-1.8 3.9 1.2.4 1.5 2.8 1.5 12.4 0 7.3-.4 12.2-1.1 12.9-1.9 1.9 0 3.3 4.6 3.3 4.1 0 7.3-1.9 4.7-2.8-.8-.2-1.2-3.9-1.2-11.6 0-12.7.9-14.7 7.1-14.9 4.9-.3 6 2.6 5.6 14.8-.2 5.5-.6 10.9-.8 12-.3 1.7.2 2 4 2.3 4.8.4 7.3-1 5.3-3-1.8-1.8-1.6-22.5.2-24.4 2.3-2.2 6.8-2.7 9.1-1 1.8 1.3 2 2.6 2 12.3 0 5.9-.4 12-.9 13.5-.8 2.8-.8 2.8 4.1 2.8h4.9l-.3-10.3c-.4-13.4-1.8-20.3-4.6-22.2-3.2-2.2-8.9-1.9-12.9.9l-3.4 2.3-2.8-2.3c-3.2-2.8-7.4-3.1-12.3-.7-3.3 1.5-3.6 1.5-4.5 0-1.1-2-2.3-2.1-6.5-.2zm57.5.4c-4.9 1.6-6.2 3.1-2.9 3.1 1 0 2.2.7 2.5 1.6 1.1 2.8.7 22.9-.5 24.1-2 2 .1 3.3 5.2 3.3 4.9 0 6.2-1.3 3.9-3.6-.5-.5-1.1-7.4-1.2-15.3-.2-8.6-.7-14.5-1.3-14.7-.5-.1-3.1.6-5.7 1.5zm61.5-.1c-4.7 1.8-5.3 2.7-2.3 3.5 1.9.5 2 1.4 2 13 0 7.5-.4 12.8-1 13.2-2.1 1.3.3 2.5 5 2.5s7.1-1.2 5-2.5c-.6-.4-1-6.3-1-14.9 0-9.7-.4-14.6-1.2-15.4-1.4-1.4-1.2-1.5-6.5.6zm26.1-1.1c-4.7.9-10.3 9.8-10.4 16.4 0 6.8 4.7 13.9 10.9 16.5 4.3 1.8 7 1.8 11.4-.1 7.8-3.2 11.4-9.9 10.4-19.1-1.2-11.2-9.4-16.2-22.3-13.7zm10.9 4.1c4.8 5.3 6.2 17.2 2.7 22.9-2.2 3.7-6 5.1-9.4 3.5-6.1-2.7-9-19.8-4.5-25.6 2.5-3.2 8.6-3.7 11.2-.8zm21.7-4.1c-.8.2-2.5.9-3.8 1.5l-2.2 1.1 2.1 2c1.9 1.7 2 2.8 1.6 13-.2 6.2-.6 12.1-.8 13.2-.3 1.7.2 2 3.5 2.3 4.9.4 7.4-.4 5.8-2-.8-.8-1.2-5.3-1.2-12.9v-11.7l3.5-1.6c3.8-1.8 6.7-1.1 7.9 2 1 2.6.7 22.2-.4 22.9-.5.3-1 1.3-1 2.1 0 1 1.3 1.4 4.9 1.4 5.1 0 7-1.2 5.3-3.3-.5-.7-1.2-6.8-1.4-13.6-.4-12-.5-12.4-3.2-14.7-3.2-2.8-7.6-3.1-11.7-.7-2.6 1.6-2.9 1.6-4.7 0-1-.9-2-1.7-2.3-1.6-.2 0-1.1.3-1.9.6zm37.3.3c-2.8 1.1-4.3 4-4.3 8.2 0 4.5 1.2 6 9 11.1 7.1 4.6 8.5 7.4 5.4 10.8-.9 1-2.7 1.9-4 1.9-2.4 0-8.4-5.3-8.4-7.5 0-.8-.5-1.7-1.1-2-.7-.5-.9 1.1-.7 4.6.3 4.8.5 5.3 2.8 5.5 1.4.1 4.3.5 6.5.9 7.4 1.2 14.2-5.8 11.9-12.3-.6-1.7-3.6-4.5-8.4-7.8-8.6-5.7-10-8.8-5.6-11.8 2.4-1.5 2.8-1.5 5.1 0 1.3.8 3.3 2.9 4.3 4.6 2.3 3.6 3.7 2.3 2.8-2.6-.6-2.9-1.1-3.4-4.4-4-4.9-.8-8.2-.7-10.9.4z"/></svg>