<svg version="1.0" xmlns="http://www.w3.org/2000/svg" viewBox="0 0 1724 1280"><path d="M38.7 20.6c-.4.4-.7 1.8-.7 3.1 0 1.4-.6 2.3-1.5 2.3-3.2 0-10.8 4.5-12.6 7.4-2.6 4.3-2.5 10.8.4 15.1 1.2 1.9 4.8 5.1 8 7.2l5.8 3.7-.3 12.6-.3 12.5-3-.4c-4.3-.5-8-3.5-9.9-8.1-2.3-5.8-3.8-5.1-3.4 1.7.3 5.6.4 5.9 4 7.6 2 1 5.6 2.1 8 2.5 4.1.7 4.3.9 4.6 4.5.2 2.8.8 3.7 2.2 3.7 1.4 0 2-.9 2.2-3.7.3-3.3.7-3.8 4.8-5.2 5.9-2.1 8.2-3.8 10.9-8.1 4.9-8 1.6-16.4-9-23.2l-6.8-4.3-.1-10.8V30h2.5c3 0 9.5 6.2 9.5 9 0 2.4 1.5 2.6 2.4.4 1.2-3.2.6-7.4-1.4-9.1-1-.9-4.3-2.4-7.2-3.3-4-1.2-5.3-2.1-5.8-3.9-.6-2.5-2.1-3.7-3.3-2.5zM38 39c0 10.2-.7 11-5.5 6-3.7-3.9-3.9-8.9-.5-12.5 1.3-1.4 3.2-2.5 4.2-2.5 1.6 0 1.8 1 1.8 9zm12.5 30c1.9 3.7 1.9 6.3 0 10-1.6 3.1-4.3 5-6.9 5-1.4 0-1.6-1.6-1.6-10.3 0-5.7.3-10.7.6-11 1.1-1 6.3 3.2 7.9 6.3zm112.2-43.2c-3.2 3.5-1.5 8.2 2.8 8.2 4.4 0 6.3-5.9 2.8-8.6-2.4-1.8-3.7-1.7-5.6.4zM94 28.6c-.6 1.4-2.1 5-3.5 8S88 42.3 88 42.5c0 .2-1.1 2.8-2.4 5.7-1.4 3-3.4 7.8-4.6 10.7-1.1 3-2.9 7.3-3.9 9.5-1 2.3-2.8 6.2-4 8.7-1.1 2.6-3.4 5.8-5.1 7.2-1.6 1.4-3 2.8-3 3.1 0 .3 4.1.6 9 .6 9.1 0 10.9-.7 6.8-2.5-3.2-1.4-3.4-6.7-.5-12.5l2.2-4.5 10.9-.3c12.7-.3 13.3 0 16.1 8.2 2 5.8 1.6 8.5-1.5 9.3-5 1.3-1.1 2.3 9 2.3 10.9 0 13.2-.8 8.9-3-1.1-.7-3.8-5-6-9.8-4.5-9.6-4.5-9.7-11.9-26.7C98.8 27.4 98.1 26 96.5 26c-.9 0-2 1.2-2.5 2.6zM97 46c.8 1.9 2.6 6.3 4.2 9.8 1.6 3.5 2.6 6.8 2.3 7.3-.9 1.4-18.5 1.2-18.5-.3s7-18.8 8.3-20.6c1.2-1.6 2-.8 3.7 3.8zm163.2-8.8c-.9 1.2-3.4 4-5.4 6.1-4.2 4.4-4.8 6.7-1.8 6.7 1.9 0 2 .7 2.1 15.2.1 21.2.9 23.3 8.8 23.3 4.2 0 5.5-.5 7.8-2.7 3.1-3.2 2.5-4.7-1.3-3-1.8.9-3.1.9-4.5.2-1.8-1-1.9-2.2-1.9-17V50.1l3.7-.3c2.7-.2 3.9-.8 4.1-2.1.3-1.4-.4-1.7-3.7-1.7H264v-5.5c0-5.9-1-6.8-3.8-3.3zm-58 9.3c-1.8.8-4 2.2-5 3.1-1.6 1.7-1.8 1.6-2.7-1-1-2.9-.5-2.9-9.7-.9-3.2.6-3.7 2.8-.8 3.6 1.9.5 2 1.4 2 16.6 0 15-.1 16.2-2 17.3-3.6 2.3-2.2 2.8 7 2.8 9.1 0 10.9-.7 6.8-2.5-2.2-1-2.3-1.6-2.6-14-.1-7.2-.1-13.9.2-15 .6-2.5 5.5-5.5 8.8-5.5 5.1 0 5.8 2.3 5.8 18.3 0 13.6-.1 14.8-2 15.9-3.6 2.3-2.2 2.8 7 2.8 5.3 0 9-.4 9-1s-.7-1-1.5-1c-2.7 0-3.5-3.8-3.5-16.3 0-14.6-.5-17.5-3.4-21.1-2.6-3.4-8.6-4.3-13.4-2.1zm88-.8c-3.8.8-10.9 8.3-12.1 12.8-1.2 4.5-1.4 12.6-.5 17.4.4 1.8 2.5 5.2 4.8 7.7 3.8 4.3 4.5 4.6 10.1 5.1 7.8.6 13.5-2.2 18.3-8.9 4.3-6.1 3.3-8.2-1.7-3.5-4.5 4.4-7.1 5.7-11.1 5.7-3.8 0-6.6-1.4-9.5-4.8-2.5-2.9-5.2-12.3-4.1-14.1.5-.7 5.3-1.1 14.2-1.1H312v-2.6c0-3.4-3.7-10-6.8-12-2.5-1.6-11-2.6-15-1.7zm7.3 3.9c2 .8 4.8 6.2 4.1 8-.4 1-2.6 1.4-8.7 1.4h-8.1l.6-3.2c.3-1.7.7-3.2.9-3.3.1-.1 1.3-.9 2.7-1.8 2.5-1.8 5.7-2.1 8.5-1.1zm39.5-2.9c-1.4.9-3.2 2.4-4 3.2-1.3 1.3-1.5 1.2-1.8-.8-.2-1.2-1-2.5-1.8-2.8-2-.8-12.4 3.2-12.4 4.8 0 .4 1 .9 2.3 1.1 2.2.3 2.2.5 2.2 16.3 0 15.6-.1 16-2.2 17-4.3 1.9-2.3 2.5 8.2 2.5 6.3 0 10.5-.4 10.5-1s-.9-1-1.9-1c-4 0-5.1-3.6-5.1-16.6 0-10.8.2-12.4 2.1-14.8 2.1-2.6 5.3-3.4 6.4-1.6 1 1.6 6.2 1.2 6.9-.6 1-2.5.7-4.2-1-5.8-2-2.1-5.3-2-8.4.1zm18.3.2c-5.5 1.6-6.8 3.5-3.3 4.6 2 .6 2 1.3 1.8 16.8-.3 15.7-.4 16.2-2.5 17.2-4.3 1.8-2.3 2.5 7.2 2.5s11.5-.7 7.3-2.5c-2.2-1-2.3-1.5-2.6-15.6-.3-16.1-.2-16.5 6.6-18.7 4-1.4 7.8 0 8.6 3.2 1 3.7.6 27.6-.4 29.7-.6 1-1.7 1.9-2.5 1.9s-1.5.4-1.5 1 3.8 1 9.4 1c5.3 0 9.8-.4 10.1-1 .3-.6-.2-1-1.2-1-3.8 0-4.3-1.9-4.3-16.5 0-15.7.2-16.3 6.9-18.6 2.8-1 3.7-.9 5.9.8 2.7 2 2.7 2.1 3 16.2.3 14.3-.4 18.1-3.3 18.1-.8 0-1.5.4-1.5 1s3.8 1 9.5 1 9.5-.4 9.5-1-.6-1-1.3-1c-.8 0-2.1-.8-3-1.8-1.4-1.6-1.7-4.3-1.7-16.3 0-12.6-.3-14.8-2-17.7-3.7-6-11.4-6.6-19.1-1.5l-4 2.6-3-2.9c-4.2-4-10.7-4.1-16.3-.2-4.2 2.9-5.6 2.8-5.6-.2 0-2.7-.9-2.9-6.7-1.1zm76.2-1.2c-3 .8-7.2 5.1-7.8 8.1-.3 1.5-.3 4 0 5.6.6 3.1 6.2 9.2 9.6 10.6 1.2.4 4.1 2.2 6.5 3.9 3.2 2.4 4.2 3.8 4.2 6 0 3.9-2.8 6.1-7.7 6.1-3.4 0-4.6-.6-6.8-3.1-1.4-1.8-2.9-4.5-3.2-6-.8-4.2-2.1-3.5-2.9 1.6-1.2 8.3-.5 9.1 8 9.8 4.2.4 8.9.4 10.5.1 6.3-1.3 10.8-8.9 8.8-14.9-1.2-3.5-3.5-5.7-9.7-9.3-8.5-4.8-11-7.1-11-10.1 0-3.5 2.8-6.1 6.6-6.1 3.5 0 6.6 2.5 8.5 6.9 2.1 4.6 2.9 3.8 2.9-2.9 0-5.9 0-6-2.9-6-1.5 0-4.8-.2-7.2-.4-2.4-.3-5.3-.2-6.4.1zM163 47.2c-7.9 3.3-8.9 4.5-4.2 5l2.7.3.3 14.8c.3 15.5-.4 18.7-3.8 18.7-1.1 0-2 .4-2 1s4 1 10 1 10-.4 10-1-.6-1-1.4-1c-.8 0-2.2-1-3-2.2-1.3-1.8-1.6-5.6-1.6-20V46l-2.2.1c-1.3 0-3.4.5-4.8 1.1zm334.5 62c-.3.7-.4 210.3-.3 465.8l.3 464.5 522.3.3c521.6.2 522.2.2 522.2-1.8s-.8-2-287.2-2.2l-287.2-.3-.6-2.5c-.9-3.8-3.9-3.8-4.6-.1l-.7 3.1-229.6-.2-229.6-.3v-230c0-229.2 0-230 2-230.4 4.1-.7 3.6-5.1-.6-5.1-1.9 0-1.9-5.7-1.9-231V108h-2c-1.1 0-2.3.6-2.5 1.2zM224.3 135c-.8 2.2-1.8 3-3.6 3-5.3 0-12.5 7.4-12.6 13.1-.2 6.1 4.7 12.7 12.8 17.5 3.8 2.2 4.3 4.7 3.9 17.4-.3 9.3-.4 9.5-2.8 9.8-3.3.4-9.5-4.8-11.1-9.3-1.9-5.2-2.9-4.3-2.9 2.5 0 5.9.1 6.1 3.3 7.4 1.7.8 5.5 2 8.2 2.8 4.5 1.2 5.1 1.7 5.5 4.6.7 4.3 2.4 4.6 2.8.5.4-3.6 3.3-6.3 6.9-6.3 1.4 0 4.1-1.8 6.8-4.5 4.3-4.2 4.5-4.8 4.5-10 0-7.7-1.9-10.7-10.5-16.5l-7.5-5.1v-21.2l3.2.7c3.6.7 7.3 3.8 9.1 7.5 2.1 4.3 3.7 3.7 3.7-1.2 0-5.4-1.7-7.1-8.5-8.8-2.8-.6-5.6-1.3-6.2-1.5-.7-.2-1.3-1.5-1.3-2.9 0-3.4-2.3-3.2-3.7.5zm.1 7.6c.9 2.4.7 14.7-.3 16.2-.6 1.1-1.7.6-4.5-2.2-5.2-5.3-4.8-11.1.9-14.4 2.7-1.5 3.2-1.5 3.9.4zm11 35.5c3.9 4.6 3.7 11.1-.6 15-5.3 5-6.3 3.9-6.6-7.5-.1-5.5 0-10.6.2-11.3.7-1.9 3.6-.3 7 3.8zm-69.2-39.5c-4 3.2-5.2 5.4-6.6 12.4-1 5-1.4 5.5-4.1 6-1.7.3-3 1.1-3 2 0 .9 1.3 1.7 3 2l3 .5.3 13c.4 17.8-.1 21-3.8 22.5-1.7.7-2.7 1.6-2.4 2.1.6 1.1 22.4 1.2 22.4.1 0-.4-1.5-1.4-3.3-2.2-1.8-.9-3.4-2.5-3.8-4-1-3.5-1-29.2-.1-30.7.4-.6 2.8-1.3 5.2-1.5 3.2-.2 4.5-.7 4.5-1.8s-1.3-1.6-4.7-1.8c-4.2-.3-4.9-.6-5.4-2.8-.9-3.4.2-12.2 1.7-14 1.9-2.3 4.6-1.6 8.2 2.2 2.9 3.1 3.7 3.5 5.4 2.5 3.1-1.6 3.4-3.7 1.2-6.5-1.8-2.3-2.8-2.6-8.2-2.6-5.1 0-6.8.5-9.5 2.6zm165.8-.3c-5.9 3.1-8.3 7.3-8.2 14.3.1 7.4 2.8 10.8 15 18.8 12.3 8 13.5 9.4 13.5 15.2 0 3.6-.5 5.1-2.6 7.2-2.3 2.2-3.5 2.6-8.2 2.6-6.7-.1-11.3-3.3-15.3-10.5-3.7-6.7-5.6-6.5-4.8.3 1.7 13.8 2.3 15.2 5.1 12.8 1-.8 2.7-1 4.7-.5 1.8.4 6.8.9 11.1 1.2 7 .4 8.2.2 12.2-2.2 5.5-3.2 7.9-7.4 7.9-14.2 0-6.8-3.2-11-14-17.9-10.8-7.1-16.4-12.5-16.4-15.8 0-4.1 1.8-6.6 5.6-8.2 2.9-1.2 4.2-1.3 7.2-.2 4.8 1.6 9.5 6 11.7 10.9 1 2.1 2.2 3.9 2.7 3.9 1.2 0 1-13.2-.3-16.9-1.1-3.1-1.2-3.1-3.1-1.5-1.7 1.6-2.4 1.6-6.1.5-7.7-2.4-12.8-2.4-17.7.2zm-80 .6c0 .5 1.3 1.1 2.8 1.4 4.6.9 5.2 3.7 5.2 26.1v20.2l2.9 4.7c4.3 6.7 8.8 8.7 19.9 8.7 10 0 14.3-1.3 18.3-5.7 5-5.4 5.3-6.6 5.9-29 .5-18.8.7-21.4 2.4-23.2 1.1-1.2 2.7-2.1 3.8-2.1 1 0 1.8-.5 1.8-1 0-.6-4.2-1-10.5-1s-10.5.4-10.5 1c0 .5.9 1 2 1s2.9.9 4 2c1.9 1.9 2 3.3 2 22.7 0 18.9-.2 21.1-2 24-4.1 6.8-15.1 9.3-23 5.3-6.5-3.3-7-5.4-7-29.8 0-19.3.2-21.6 1.8-22.8.9-.7 2.5-1.4 3.5-1.4.9 0 1.7-.5 1.7-1 0-.6-4.8-1-12.5-1-6.9 0-12.5.4-12.5.9zm-132.8 18.4c-4.5 1.7-9.8 6.9-11.7 11.3-3.1 7.5-1.6 18.2 3.5 24.7 6.9 8.8 22.8 9 30.3.3 4.1-4.6 5.2-8 5.2-16.1 0-7.4-.2-8.4-3.2-12.6-1.8-2.6-4.8-5.4-7-6.4-4.8-2.3-12.8-2.8-17.1-1.2zm13.2 5.8c4.1 4.9 5.6 9.5 5.6 17.3-.1 8.3-2.2 13.4-6.3 15.4-8.2 4-15.1-3.3-16.4-17.3-1.1-12.4 2.2-18.5 10.2-18.5 3.6 0 4.8.5 6.9 3.1zm1239.5 1.2c-7 4.7-9 14.3-4.3 21.3 1.4 2.1 4.7 6.1 7.3 8.9 7.7 8.1 9.1 10.4 9.1 14.9 0 5.9-3 10.2-8.1 11.7-3.7 1.1-4.6 1.1-7.7-.7-4.7-2.4-8.2-7.7-8.2-12.1 0-4-2.1-4.1-3.2-.2-1 3.5-2.6 15.3-2.2 15.8.2.2 1.5-.1 2.9-.7 2.1-1 3.8-.8 9.2 1 5.9 1.8 7.3 2 11.3.9 5.7-1.5 8.2-3.2 11.7-7.8 2.4-3.1 2.8-4.5 2.8-10.3 0-7.5-.7-8.8-12.2-21.3-5.7-6.2-6.3-7.3-6.3-11.1 0-6.6 5.7-10.6 12.5-8.7 3.8 1 7.5 6.3 7.5 10.8 0 4 2.1 4.1 3.2.2 1.7-6 3.1-14 2.5-14.5-.4-.4-2-.1-3.7.6-2.4 1-3.7 1-5.6.1-1.4-.6-5.3-1.1-8.8-1.1-4.9 0-7.1.5-9.7 2.3z"/><path d="M592 199.7c0 1 80.1 81.9 185.2 187L962.5 572 777.2 757.3C672.1 862.4 592 943.3 592 944.3c0 .9.6 1.7 1.4 1.7.8 0 84.8-83.2 186.6-185s185.4-185 185.8-185c.4 0 84 83.2 185.7 185 101.7 101.7 185.6 185 186.3 185 .7 0 1.5-.6 1.8-1.4.4-1-62-64-184.5-186.5C1053.3 656.4 970 572.7 970 572.1c0-.6 82.8-83.9 184-185.1 101.2-101.2 184-184.7 184-185.5 0-.8-.8-1.5-1.8-1.5-.9 0-81.1 79.4-185.7 184-101.2 101.2-184.4 184-184.8 184-.5 0-84.1-83.3-185.9-185C678 281.2 594.1 198 593.3 198c-.7 0-1.3.8-1.3 1.7zM327.3 540c-3.9 2.3-7.6 7.7-9.9 14.5-2.2 6.3-2.5 24.3-.5 29.5 3.4 9 5.7 12.4 10 15.2 9.9 6.2 21.8 1.9 26.7-9.7 5.9-14 5.5-27.6-1.1-41.1-3.5-7-8.8-10.4-16.6-10.4-3.6 0-6.5.7-8.6 2zm12.4 2c1.7 1 3.7 2.8 4.3 4 5.8 10.8 5.2 40.8-.9 49-2.5 3.5-6.2 4.6-9.9 3.1-11.5-4.8-11.8-50.4-.3-56.6 3.3-1.8 3-1.8 6.8.5zm56.3-2.2c-4.7 2.3-9.5 9.7-10.4 15.9-1.1 8.9 1.1 15.5 6.9 19.9 3 2.2 4.4 2.6 10.1 2.6 3.7 0 7.1-.5 7.7-1.1 1.7-1.7 3.7-1.3 3.7.7 0 2.4-5.5 11-9.4 14.5-3.2 3-12.5 7.7-15.1 7.7-.8 0-1.5.4-1.5 1 0 1.4 7.2 1.3 10.7-.1 7.6-3.1 11.5-5.5 15.6-9.7 12.7-13.1 15-33.8 5.1-46.4-5.2-6.6-15.6-8.8-23.4-5zm13.9 3.7c3.7 3.2 6.1 10.9 6.1 19.9 0 6.4-.1 6.7-3.2 8.6-4.3 2.6-9.8 2.6-13.1 0-2.7-2.1-5.7-10.5-5.7-15.7 0-4.7 2.5-11.5 4.9-13.5 3.2-2.5 7.4-2.3 11 .7zm33.5-3.6c-6.6 4-11.1 13.6-12 25.4-.7 9.8.7 18.2 4.2 25.5 6 12.2 20.8 15 29.5 5.5 6.4-7 9.9-21.7 7.9-33.5-1.2-7-4.4-15.5-7.2-18.9-4.7-5.8-16.1-7.8-22.4-4zm12.3 2c8.9 5.5 11.4 33.5 4.4 51.3-2.8 7.3-11.8 7.5-15.5.4-4.3-8.4-5.7-23.5-3.3-36.1 1.7-8.9 4.2-14.2 7.6-16 3.3-1.8 3-1.8 6.8.4zm59.3 29.6c-1.7 2.1-.4 3.5 3.5 3.5 1.9 0 3.7-.5 4-1 1-1.6-1.4-4-4-4-1.2 0-2.8.7-3.5 1.5zm16.1-.6c-2.5 1.6-.4 4.1 3.4 4.1 3.2 0 3.6-.3 3.3-2.3-.3-2.4-4.2-3.5-6.7-1.8zm15.6-.2c-.4.3-.7 1.5-.7 2.5 0 1.4.8 1.8 3.4 1.8 3.9 0 5.3-1.4 3.6-3.5-1.3-1.5-5.1-2-6.3-.8zm15.3.8c-.6.8-.9 1.9-.5 2.5 1 1.6 6.5 1.2 7.2-.6 1.1-3-4.4-4.6-6.7-1.9zm15.1-.1c-1.8 2.2-.5 3.6 3.5 3.6 3.1 0 3.5-.3 3.2-2.3-.4-2.7-4.8-3.6-6.7-1.3z"/><path d="M592.7 570.6c-.4.4-.7 1.6-.7 2.6 0 1.6.6 1.9 3.8 1.6 2.9-.2 3.7-.7 3.7-2.3 0-1.5-.8-2.1-3-2.3-1.7-.2-3.4 0-3.8.4zm16 .1c-.4.3-.7 1.5-.7 2.5 0 1.4.8 1.8 3.4 1.8 3.9 0 5.3-1.4 3.6-3.5-1.3-1.5-5.1-2-6.3-.8zm15.4.2c-2.3 1.5-.5 4.1 2.8 4.1 3.5 0 4.8-1.5 3.1-3.5-1.4-1.7-3.8-1.9-5.9-.6zm15 0c-2.5 1.6-.4 4.1 3.4 4.1 3.2 0 3.6-.3 3.3-2.3-.3-2.4-4.2-3.5-6.7-1.8zm15.6-.3c-.4.4-.7 1.6-.7 2.6 0 1.6.6 1.9 3.8 1.6 2.9-.2 3.7-.7 3.7-2.3 0-1.5-.8-2.1-3-2.3-1.7-.2-3.4 0-3.8.4zm15.3.9c-.6.8-.9 1.9-.5 2.5.9 1.5 7.2 1.2 7.8-.4 1.2-3.2-4.9-5-7.3-2.1zm16.1-.6c-2.3 1.5-.5 4.1 2.8 4.1 3.5 0 4.8-1.5 3.1-3.5-1.4-1.7-3.8-1.9-5.9-.6zm14.3.5c-.9 2.4.5 3.6 4.2 3.6 3.1 0 3.5-.3 3.2-2.3-.2-1.7-1.1-2.3-3.6-2.5-2.2-.2-3.4.2-3.8 1.2zm16.3-.7c-.4.3-.7 1.5-.7 2.5 0 1.4.8 1.8 3.5 1.8 3.8 0 5.9-2.5 3.4-4.1-1.7-1-5.3-1.2-6.2-.2zm15.3.8c-.6.8-.9 1.9-.5 2.5 1 1.6 6.5 1.2 7.2-.6 1.1-3-4.4-4.6-6.7-1.9zm15.1-.1c-1.8 2.2-.5 3.6 3.5 3.6 3.1 0 3.5-.3 3.2-2.3-.4-2.7-4.8-3.6-6.7-1.3zm15.3 0c-.9 2.4.5 3.6 4.2 3.6 3.1 0 3.5-.3 3.2-2.3-.2-1.7-1.1-2.3-3.6-2.5-2.2-.2-3.4.2-3.8 1.2zm16.3-.7c-.4.3-.7 1.5-.7 2.5 0 1.4.8 1.8 3.4 1.8 3.9 0 5.3-1.4 3.6-3.5-1.3-1.5-5.1-2-6.3-.8zm15.4.2c-2.3 1.5-.5 4.1 2.9 4.1 1.9 0 3.3-.6 3.7-1.6.6-1.7-1.2-3.4-3.7-3.4-.8 0-2.1.4-2.9.9zm15 .5c-1.8 2.2-.5 3.6 3.5 3.6 3.1 0 3.5-.3 3.2-2.3-.4-2.7-4.8-3.6-6.7-1.3zm15.6-.7c-.4.3-.7 1.5-.7 2.5 0 1.4.8 1.8 3.5 1.8 3.8 0 5.9-2.5 3.4-4.1-1.7-1-5.3-1.2-6.2-.2zm15.3.8c-.6.8-.9 1.9-.5 2.5.9 1.5 7.2 1.2 7.8-.4 1.2-3.2-4.9-5-7.3-2.1zm15.1-.1c-1.8 2.2-.5 3.6 3.5 3.6 3.1 0 3.5-.3 3.2-2.3-.4-2.7-4.8-3.6-6.7-1.3zm16-.5c-2.5 1.6-.4 4.1 3.4 4.1 3.2 0 3.6-.3 3.3-2.3-.3-2.4-4.2-3.5-6.7-1.8zm15.6-.2c-.4.3-.7 1.5-.7 2.5 0 1.4.8 1.8 3.5 1.8 3.8 0 5.9-2.5 3.4-4.1-1.7-1-5.3-1.2-6.2-.2zm15.4.2c-2.3 1.5-.5 4.1 2.9 4.1 1.9 0 3.3-.6 3.7-1.6.6-1.7-1.2-3.4-3.7-3.4-.8 0-2.1.4-2.9.9zm15 .5c-1.8 2.2-.5 3.6 3.5 3.6 3.1 0 3.5-.3 3.2-2.3-.4-2.7-4.8-3.6-6.7-1.3zm15.6-.8c-.4.4-.7 1.6-.7 2.6 0 1.6.6 1.9 3.8 1.6 2.9-.2 3.7-.7 3.7-2.3 0-1.5-.8-2.1-3-2.3-1.7-.2-3.4 0-3.8.4zm15.6.5c-1.9 1.9-.3 3.9 3.2 3.9 3.9 0 5.2-1.4 3.5-3.5-1.5-1.8-5.1-2-6.7-.4zm14.8 12.3c-2 2.3-1 6 1.7 6.4 2.1.3 2.3 0 2-3.4-.3-4.1-1.8-5.3-3.7-3zm-595.5 9.2c-2.1 2.1-2 5.7.2 7.7 3.6 3.3 8.2.9 8.2-4.1 0-4.7-5.2-6.9-8.4-3.6zm594.8 6.9c-1 2.6.5 6.7 2.4 6.3 1.2-.2 1.8-1.5 2-4.1.3-3.2 0-3.7-1.8-3.7-1.1 0-2.3.7-2.6 1.5zm.6 15c-1.7 2.1-.4 6.7 1.8 6.3 1.2-.2 1.7-1.3 1.7-3.7 0-3.8-1.5-5-3.5-2.6zm-.2 15.9c-1.4 3.1-.4 5.6 2.2 5.6 1.5 0 2-.7 2-2.4 0-5.6-2.3-7.3-4.2-3.2zm-.3 15.5c-.9 3 .4 6.3 2.3 5.9 1.2-.2 1.7-1.4 1.7-3.8 0-4-2.9-5.5-4-2.1zm.2 14.8c-1.2 1.2-.7 5 .8 6.3 2.1 1.7 3.5.3 3.5-3.6 0-2.6-.4-3.4-1.8-3.4-1 0-2.2.3-2.5.7zm-.3 16.8c-.4 1.8-.1 3.2 1 4.3 2.1 2.1 3.9.4 3.4-3.4-.4-3.9-3.5-4.5-4.4-.9zm.5 14.9c-1.5 3.2-.6 5.6 2.1 5.6 1.8 0 2.1-.5 1.8-3.7-.4-4.4-2.3-5.4-3.9-1.9zm-.5 15c-1 2.7.5 6.8 2.4 6.4 2.4-.5 2.4-7.1-.1-7.6-.9-.2-2 .4-2.3 1.2zm.7 14.9c-1.5 1.5-1.4 3.9.4 6.3 1.3 1.6 1.6 1.7 2.5.4 2.5-3.8 0-9.6-2.9-6.7zm-.7 17.2c-.4 1.8-.1 3.2 1 4.3 2.1 2.1 3.9.4 3.4-3.4-.4-3.9-3.5-4.5-4.4-.9zm0 13.9c-1.1 2.8 0 6.1 2.1 6.1 1.6 0 2-.7 2-3.5 0-2.5-.5-3.6-1.8-3.8-.9-.2-2 .3-2.3 1.2zm0 16.1c-1 2.6.5 6.7 2.4 6.3 1.2-.2 1.8-1.5 2-4.1.3-3.2 0-3.7-1.8-3.7-1.1 0-2.3.7-2.6 1.5zm.6 15c-1.7 2.1-.4 6.7 1.8 6.3 1.2-.2 1.7-1.3 1.7-3.7 0-3.8-1.5-5-3.5-2.6zm.2 14.7c-2.7 2.7-.3 8.7 2.7 6.9 1.5-.9 1.1-7.3-.4-7.8-.6-.2-1.6.2-2.3.9zm-.8 17.2c-.8 3.5.2 5.8 2.3 5.4 2.5-.5 2.5-7.1.1-7.6-1.2-.2-1.9.5-2.4 2.2zm-.1 15.2c-.8 2.1 1.4 6.7 3 6.2.6-.3 1.3-2.1 1.5-4.1.3-3.2 0-3.7-1.8-3.7-1.1 0-2.3.7-2.7 1.6zm.9 14.6c-1.7 1.7-1.5 4.3.3 5.8 2.1 1.8 3.7 0 3.3-3.6-.3-3.1-1.8-4-3.6-2.2zm-.8 16.2c-.8 3.5.1 5.6 2.6 5.6 1.8 0 2.1-.5 1.8-3.7-.4-4.6-3.4-5.9-4.4-1.9zm0 15c-1 2.7.5 6.8 2.4 6.4 2.4-.5 2.4-7.1-.1-7.6-.9-.2-2 .4-2.3 1.2zm.6 15.1c-1.7 2.1-.4 6.7 1.8 6.3 2.2-.4 2.9-6.3.8-7.1-.8-.3-2 .1-2.6.8zm0 15.4c-1.3 2.5-1.3 4.4.1 5.8 2.7 2.7 5-1.6 3.3-6.1-.8-2.1-2.1-2-3.4.3zm-.6 16.5c-.8 3.5.2 5.8 2.3 5.4 2.5-.5 2.5-7.1.1-7.6-1.2-.2-1.9.5-2.4 2.2zM1366 923c0 .5.8 1 1.9 1 1 0 2.4.7 3.1 1.5 1.2 1.5.8 3.6-5.5 26-2.8 10-4.7 17.1-5.5 20.3-1.1 4.3-3.7 8.2-5.5 8.2-.8 0-1.5.4-1.5.9 0 3.1 29.5 2.3 39.3-1 13-4.4 20.4-11.9 24.6-24.8 3-9.2-.5-22.5-7.2-27.5-7.1-5.2-8.9-5.6-26.9-5.6-10.5 0-16.8.4-16.8 1zm33.1 4.6c6.3 3.2 9.1 12.9 7.1 24.4-1.4 7.6-3.4 11.8-8.3 17.4-5.1 5.7-11 8.6-19.6 9.3-9.9.8-10.5-.5-6.4-14.7 4.9-17.1 5.7-19.9 8.5-30.5.9-3.3 2.4-6.6 3.4-7.3 2.1-1.7 11-.9 15.3 1.4zm-436.4 11.1c-1.2 1.2-.7 5 .8 6.3 2.1 1.7 3.5.3 3.5-3.6 0-2.6-.4-3.4-1.8-3.4-1 0-2.2.3-2.5.7zm.3 15.8c-1.7 2.1-.4 6.7 1.8 6.3 1.2-.2 1.7-1.3 1.7-3.7 0-3.8-1.5-5-3.5-2.6zm-.2 15.9c-1.4 3.1-.4 5.6 2.2 5.6 1.5 0 2-.7 2-2.4 0-5.6-2.3-7.3-4.2-3.2zm-.4 15c-1 2.7.5 6.8 2.4 6.4 2.4-.5 2.4-7.1-.1-7.6-.9-.2-2 .4-2.3 1.2zm-.1 16.2c-.8 2.1 1.4 6.7 3 6.2.6-.3 1.3-2.1 1.5-4.1.3-3.2 0-3.7-1.8-3.7-1.1 0-2.3.7-2.7 1.6zm.1 15.9c-.4 1.8-.1 3.2 1 4.3 2.1 2.1 3.9.4 3.4-3.4-.4-3.9-3.5-4.5-4.4-.9zM444.7 1070c-5.6 2.8-7.9 5.8-11.8 16-.9 2.2-1.4 7.6-1.4 14.5 0 14.2 2.7 21.9 9.7 27.9 3.8 3.3 4.7 3.6 10.6 3.6 12.1 0 17.6-6.4 21.2-24.4 1.3-6.3.9-11.8-1.5-20.9-3.9-15-15.6-22.3-26.8-16.7zm14.3 5.4c6.6 10.8 6.8 38.6.4 49.6-2.5 4.1-6.9 5.8-10.2 3.9-7.5-4.1-11.1-23.4-7.8-41.4 2.1-11.6 4.9-15.5 11.2-15.5 3.7 0 4.5.4 6.4 3.4zm509.5-5.9c-11.9 2.7-23.4 12.6-29.1 25.1-2.9 6.2-3.4 8.3-3.4 14.8 0 10.3 2.6 15.8 9.2 19.9 2.6 1.7 4.8 3.2 4.8 3.5 0 .6-4.3 4.4-9.7 8.5-4.9 3.7-5.5 5.3-1.5 4.2 4.6-1.3 14.3-.9 21.7.8 9.1 2.2 11.2 2.1 18.2-.5 5.5-2 14.3-9.1 13-10.4-.3-.3-2.7.7-5.3 2.2-3.9 2.3-6 2.8-11.5 2.8-3.6 0-8.4-.5-10.5-1.2-2.2-.6-5.7-1.5-7.8-1.9l-4-.9 2.4-2.2c1.3-1.2 3.6-2.2 5.1-2.2 2.6 0 4.7-.6 10.9-3.3 6.8-3 21-18.5 21-22.9 0-.8.5-1.9 1.1-2.5 1.6-1.6 2.3-15.2 1-20.1-2.9-10.4-14-16.4-25.6-13.7zm10.6 4.8c4.5 3 6 7.5 5.3 16-.5 6.8-1.4 10.5-4 16.4-3.8 8.8-5.2 11.1-9.4 15.4-11.2 11.7-25 7.2-25-8 0-10.4 5.7-25.9 12.4-33.8 3.8-4.4 10.5-8.2 14.7-8.3 1.4 0 4.1 1 6 2.3zm642.7 5.8c-1.2.6-1.8 2.2-1.8 4.4 0 2.8.4 3.6 2.4 4.1 4.7 1.2 8.4-3.3 5.8-7.2-1.1-1.7-4.5-2.4-6.4-1.3zm-212.3 1.3c-8 3.1-15.3 9.5-17.7 15.4-3 7.8-3.9 14.6-2.7 20.7 2.4 11.7 7.5 19.2 16.2 23.6 2.3 1.2 6.7 4.5 9.8 7.4 3.1 2.8 7.2 5.9 9 6.8 4.3 2 17.1 4.7 22.2 4.7 5.2 0 4.4-2.1-1.4-3.5-2.4-.7-5.5-1.8-6.9-2.5-3.7-1.9-11-8-11-9.1 0-.6 1.7-1.7 3.8-2.6 15.7-6.5 23.1-24.8 17-42.1-2.9-8.4-7.5-13.5-15.3-17.2-5.2-2.5-7.4-3-13.1-2.9-3.8.1-8.2.7-9.9 1.3zm17.5 4.6c7.9 4 11 11.4 11 26 0 8.7-.4 11.8-2.1 15.7-3.7 8.7-8.6 12.3-16.9 12.3-11.8 0-19-10.6-19-28 0-21.2 12.6-33.3 27-26zm170.7 6.3c-.9 1.3-3.5 4.3-5.8 6.6-2.3 2.2-4 4.2-3.8 4.4.2.1 1.3.7 2.4 1.3 1.8 1 2 2.4 2.5 17.7.5 15.8.6 16.7 2.9 19.1 3.9 4.1 12.4 2.7 15.2-2.5 1.3-2.5.5-3.6-1.5-2-.8.7-2.7 1.1-4.3.9-3.5-.4-4-2.4-4.2-18.1-.1-13.8.5-15.7 5.4-15.7 2.4 0 3.5-.5 3.5-1.5s-1-1.5-3.3-1.5c-4.4 0-5.7-1.5-5.7-6.7 0-4.8-1-5.4-3.3-2zm52.3-1.6c0 .5-2.2 3.4-5 6.5-2.7 3.1-5 5.8-5 6.1 0 .3.9.7 2 1 1.9.5 2 1.4 2 14.9 0 7.8.5 16 1 18 2.1 7.5 9.1 9 15.6 3.4 3.9-3.4 4.3-5.7.6-3.7-3.1 1.7-6 1.3-7.2-.9-.6-1.2-.9-7.7-.8-16.7l.3-14.8 4.3-.3c5.4-.4 5.2-2.5-.4-3.2-3.9-.5-3.9-.6-4.4-5.4-.3-2.7-1.1-5.1-1.7-5.4-.7-.2-1.3 0-1.3.5zm-138.9 11.1c-4.8 2.4-7.5 6.4-6.7 9.6.5 2.2 1.2 2.6 4.1 2.6 2.1 0 3.6-.5 3.6-1.3.1-.6.2-2.5.3-4.1.2-2.8 3.6-6.6 6.1-6.6 2.3 0 6.3 4 7 7 .9 4.3 0 6.3-3.7 7.9-12 5.1-16.1 7.8-18.4 12.3-2.3 4.4-1.7 7.7 2 11.4 4.2 4.2 7.7 4.4 14.7.8l5-2.5 2 2.5c2.5 3.2 6.6 3.4 10.3.5 3.3-2.6 3.3-3.7-.1-4.1l-2.8-.3-.5-14c-.6-16.2-1.9-20.4-7.3-22.3-4.8-1.7-11.7-1.5-15.6.6zm14.7 23.7c.2 3.3-.2 6.9-.9 8.1-1.5 2.9-6.1 4.8-9.4 4-4.8-1.2-5.7-9.3-1.4-13.2 2.5-2.3 9-5.4 10.4-5 .6.1 1.1 2.9 1.3 6.1zm24.7-24.5c-1.1.4-3.5 1.4-5.2 2-3.7 1.4-4.4 3-1.3 3 3.3 0 4.2 4.3 3.8 18.9-.3 12.6-.4 13.4-2.5 14.9-1.3.8-2.3 1.8-2.3 2.3 0 .5 4.2.9 9.3.9l9.2-.1-2.7-2.2-2.8-2.3v-28.3l2.9-2c2.9-2.1 7.6-2.7 9.8-1.3 2.3 1.5 3.3 6.5 3.3 17.3s-.8 14.5-3.6 16.2c-3.2 1.8-.9 2.7 7.1 2.7 8.4 0 10.4-.9 6.5-3-1.9-1-2-2.1-2-15.6 0-15.9-.9-19.8-5.3-22.7-3.7-2.4-8.5-2.1-13.2.8-4.9 3-5.3 3-5.7.3-.3-2.5-2.2-3.1-5.3-1.8zm72 1c-2.2 1-4.8 1.9-5.7 1.9-2.6.1-2.2 1.8.6 2.5 3.1.8 3.6 2.9 3.6 16.8 0 12.7-.8 16.3-3.9 17.3-4.7 1.5-1.5 2.5 7.9 2.5 6 0 10-.4 10-1s-.4-1-.8-1c-.5 0-1.7-.6-2.8-1.4-1.7-1.3-1.9-3.1-2.4-20.2-.3-11.2-.9-18.8-1.5-19-.5-.1-2.8.6-5 1.6zm-165.6 1.6c1.9 2.4 2.1 4 2.1 15.8 0 15.3 1 19.7 4.9 22.6 4.8 3.4 13.2 2.2 17-2.4 1.9-2.3 3.1-2 3.1.7 0 1.3.2 2.6.5 2.9.7.6 12.5-3.3 12.5-4.2 0-.3-1-1-2.2-1.5-2.2-1-2.3-1.5-2.8-18.5l-.5-17.5-6.2-.3c-6.6-.3-7.8.6-4.1 3 2 1.4 2.3 2.5 2.6 12.3.5 13-.7 17.9-4.8 20-3.9 2-7.3 1.9-9.3-.3-1.4-1.6-1.7-4.3-1.7-16.9 0-8.3-.3-15.8-.6-16.7-.5-1.2-2.1-1.6-6.6-1.6h-5.9l2 2.6zm210.1-1.1c0 .8.4 1.5 1 1.5.5 0 1.9 2.1 3.1 4.7 1.2 2.7 4.4 9.5 7.1 15.3 2.7 5.8 5.7 12 6.6 13.9 1.3 2.8 1.3 3.8.2 7-2.7 7.5-4.4 9-11.3 9.3-5.9.3-6.2.4-6.5 2.9-.8 6.5 9.3 8.1 14.3 2.3 2.8-3.2 7.5-12.5 9.8-19.4 1.3-4 5.5-15.2 7.7-20.5.4-1.1 1.8-4.7 3.1-8 1.2-3.3 2.8-6.7 3.6-7.6 2.1-2.5 1.6-2.9-3.8-2.9-5.1 0-5.1 0-3.7 2.2 1.3 2 1.2 2.9-1.2 9.4-1.5 3.9-3.3 9.2-4.1 11.8-2 6.8-2.5 6.4-8.9-7.6-4.1-8.9-4.8-12.2-3-13.3 2.6-1.6.3-2.5-6.5-2.5-6 0-7.5.3-7.5 1.5zm-92.3 84.1c-.4.4-.7 1.7-.7 2.9 0 1.7-.9 2.5-4.2 3.4-8.4 2.5-11.8 6.7-11.8 14.1 0 6.1 5.3 12.9 12.8 16.5l3.3 1.6-.3 12.7-.3 12.7-2.9-.3c-4.4-.5-8.2-3.6-10-8.2-2-5.2-3.6-4.3-3.6 1.9 0 3.3.5 5.2 1.8 6.3 1.8 1.5 8 3.6 12.2 4 2.1.3 2.5.9 2.8 4 .2 2.9.8 3.8 2.2 3.8 1.4 0 2-.9 2.2-3.6.3-3.3.7-3.7 4.7-5.1 2.5-.8 5.5-2.2 6.8-3.1 3.3-2.1 6.3-8.3 6.3-12.9 0-6.2-2.8-9.8-13.7-17.4l-4.3-2.9v-10.5c0-10.5 0-10.5 2.5-10.5 3 0 9.5 6.2 9.5 9.1 0 3.8 2.5 1.3 2.8-2.8.4-5.2-1.3-6.9-8.8-9-5-1.4-5.9-2-6.2-4.1-.3-2.6-1.8-3.8-3.1-2.6zm-.7 18.2c0 4.9-.3 9.2-.7 9.6-.4.3-2.2-.8-4-2.6-2.6-2.6-3.3-4-3.3-7.2 0-4.4 3-8.6 6.2-8.6 1.6 0 1.8.9 1.8 8.8zm13 31.2c2.4 5.8-1.5 14-6.7 14-2.3 0-2.3-.2-2.3-10.3 0-5.7.3-10.6.6-11 1.1-1.1 7.1 4.2 8.4 7.3zm-67.9-44.6c-4.7 1.5-8.3 6.4-10.2 13.8-1.4 5.7-1.8 6.3-4.5 6.8-4 .7-3.8 3.4.4 3.8l3.2.3v16.8c0 17.3-.4 19.1-4.2 19.1-1 0-1.8.4-1.8 1s4.3 1 11 1 11-.4 11-1-1.1-1-2.6-1c-4.3 0-5.5-4.7-5.2-21.3l.3-14.2 5.5-.5c4.1-.4 5.6-.9 5.8-2.2.3-1.4-.6-1.7-5.5-2l-5.8-.3-.3-5.2c-.6-10.8 5-16.1 9.8-9.3 3.7 5.2 10.6 3.3 8.4-2.4-.7-2-6.7-4.7-9.8-4.5-1.1.1-3.6.7-5.5 1.3zm110.9 3.1c-.5 1.4-1.8 4.5-2.9 6.8-1.1 2.4-2.9 6.8-4.1 9.7-1.2 2.9-3 7.2-4 9.5s-2.8 6.6-4 9.6c-4.4 11.4-9.2 20-11.6 21.1-4.4 2-2.5 2.8 6.6 2.8 8.7 0 11.7-1.1 6.5-2.4-2.9-.7-3.3-3.8-1.2-9.6 3-8.2 2.6-8 14.6-8 12.2 0 12.6.2 15.5 8.1 2.2 5.9 1.8 9.3-1.1 9.7-1.3.2-2.3.8-2.3 1.3s5.1.9 11.8.9l11.7-.1-2.9-2.1c-2.8-2.1-6.4-9.1-15.2-29.6-.9-2-2.9-6.5-4.5-10s-2.9-6.5-2.9-6.7c0-.3-1.3-3.4-3-7-3.2-6.9-5.4-8.2-7-4zm5.2 22.8c2.2 5 4 9.9 4.1 10.7.2 1.2-1.5 1.6-9 1.8-5.9.2-9.3-.1-9.3-.8 0-1.4 7.1-19.2 8.3-20.8 1.3-1.7 1.5-1.5 5.9 9.1zm-162.7-5.9c-.5.3-2.2.7-3.7 1-1.5.4-4.4 2-6.3 3.8-6 5.2-8.3 13.4-6.5 22.6 3.1 14.8 21.4 21.3 32.9 11.7 6.4-5.5 9.2-19.2 5.7-27.6-1.5-3.5-5.6-7.9-9.2-9.7-2.2-1.2-11.3-2.4-12.9-1.8zm6 4c4.1 1.7 6.2 4.8 8.1 11.8 2.5 9.4 1.2 17.1-3.6 22-4 3.9-8.2 3.8-12.5-.5-3.8-3.8-5.4-8.5-6.2-17.8-.6-7.7 1-11.9 6-14.9 3.8-2.4 3.9-2.4 8.2-.6z"/></svg>