<svg version="1.0" xmlns="http://www.w3.org/2000/svg" viewBox="0 0 1316 1280"><path d="M45 38.8c0 .4 1.4 1.3 3.1 1.9 3.1 1.2 3.2 1.3 2.6 6.3-.4 2.8-1.1 6.6-1.6 8.3-1.2 3.7-3.9 12.9-8.1 28.2-4.2 15-4.7 16.1-8.1 17.5-1.6.7-2.9 1.6-2.9 2.1s5.4.9 12 .9 12-.3 12-.8c0-.4-1.4-1.5-3-2.4-3.1-1.8-3.7-3.9-2.1-8 .5-1.3 1.4-4.3 2.1-6.8.6-2.5 1.7-6.3 2.4-8.5l1.3-4h7.9c5.1 0 10-.7 13.7-1.9 17.6-5.8 19.7-27.7 3.1-32.4-4.6-1.3-34.4-1.7-34.4-.4zm29.3 4.3c7.7 4 7.6 17.3-.3 22.9-3.4 2.4-16.2 4.1-17.4 2.2-.4-.6.3-4.2 1.4-7.9 1.2-3.7 2.6-8.6 3.2-10.8 2-6.9 2.5-7.5 6.9-7.5 2.2 0 5 .5 6.2 1.1zm27.2 74.1c-.3.7-.4 227.6-.3 504.3l.3 503h1128l.3-2.3.3-2.2H106V619.6c0-275.2-.3-501.1-.6-502-.7-1.9-3.3-2.1-3.9-.4zm954.4 69c-3.7 6.2-11.1 19.1-16.5 28.7-5.5 9.6-11.8 19.4-14.1 21.9-2.4 2.5-4.3 4.7-4.3 4.9 0 .2 4.1.3 9 .3 9.1 0 10.9-.7 6.8-2.5-3.2-1.4-3.4-3.9-.6-9.3 5.3-10.6 4.6-10.2 16.3-10.2 11.8 0 10.9-.7 12 10.1.7 7.2-.6 9.9-4.6 9.9-1 0-1.9.4-1.9 1s4.7 1 12 1 12-.4 12-1-.6-1-1.3-1c-3.5 0-5.3-4.9-7.7-21-.6-4.1-1.5-9.3-2-11.5-.4-2.2-1.4-7.8-2-12.5-2.1-13.7-3.5-19.5-5.1-19.8-.9-.1-3.9 4-8 11zm4.3 15.9c.6 4.1 1.1 8.7 1.2 10.4l.1 3-7.4.3c-4.1.2-7.8-.1-8.4-.7-.6-.6-.3-2.1 1-4.3 1.1-1.8 3.9-6.6 6.3-10.6 2.7-4.8 4.5-7.1 5.2-6.4.5.5 1.4 4.3 2 8.3zm50.6-25.7c-8.9 3.2-13.5 14.4-9.2 22.7.8 1.7 4.5 6.2 8.1 10.2 10 10.9 11.7 13.8 11 19.3-.3 3.2-1.3 5.4-3.3 7.5-7.5 7.8-19.9 3-22.5-8.7-1.7-7.8-3.2-7.1-4.3 2-.3 2.5-.9 6.6-1.2 9.1-.4 3.7-.2 4.5 1 4.5.9 0 1.6-.5 1.6-1 0-1.5 4.1-1.2 9 .5 10.3 3.6 21.1.6 26.1-7.4 2.4-3.8 2.9-5.5 2.9-11.1 0-5.9-.4-7.2-3.2-11.1-1.7-2.4-3.4-4.6-3.7-4.9-.3-.3-3.4-3.6-6.8-7.3-5.9-6.3-6.3-7.1-6.3-11.6 0-5.7 2.7-8.9 8.2-9.7 7-1.2 13.8 4.8 13.8 12.1 0 3.9 1.8 3.8 2.9-.2 2.8-10.8 3.3-13.4 2.7-14.8-.5-1.4-.9-1.4-3.4-.1-2.4 1.2-3.5 1.2-8.2 0-6.6-1.7-10.4-1.7-15.2 0z"/><path d="M203.6 215.5c-.3.9-.6 1.9-.6 2.1 0 .2 90 90.4 200 200.4s200 200.3 200 200.7c0 .5-90.1 90.9-200.1 200.9-146.3 146.3-200 200.6-199.6 201.8.4.9 1.2 1.6 1.9 1.6s91.4-90.1 201.4-200.1C547.7 681.8 607.2 623 608.1 623.6c.7.4 91 90.3 200.6 199.8 109.6 109.5 199.7 199.2 200.1 199.3.4.2 1.3-.1 2.1-.6.9-.6 1-1.4.3-2.7-.6-1.1-90.6-91.3-200.1-200.6C701.6 709.6 612 619.6 612 618.9c0-.8 89.6-91 199.1-200.5 145.5-145.5 199-199.6 198.6-200.8-.4-.9-1.2-1.6-1.9-1.6s-90.9 89.5-200.3 199C698.1 524.4 607.9 614 607.2 614c-.8 0-91.3-89.9-201.3-199.8-110-109.8-200.3-199.8-200.8-200-.5-.2-1.1.4-1.5 1.3zm858.3 781.2c-.9 1-6.9 11-13.4 22.3-19.6 34-20.9 36.1-24.4 39.2-4.3 3.8-3.1 4.8 5.9 4.8 5.6 0 10.5-1.2 9-2.2-.3-.2-1.4-.8-2.5-1.4-3.1-1.7-2.8-4.3 1.3-11.9l3.7-7 10.7-.3c12.2-.3 11.2-1.1 12.3 10.1.7 7.6-.2 9.7-4.1 9.7-3 0-3.1 1.6-.1 2.4 2.9.8 18.1.8 20.1 0 2.3-.9 2-2.1-.9-2.8-2.8-.7-3.7-3.4-6-17.6-.8-5.2-1.9-11.8-2.5-14.5-.5-2.8-1.4-8.6-2.1-13-1.8-12.1-3.4-18.8-4.5-19.2-.6-.2-1.7.4-2.5 1.4zm-1.7 25.4c.6 4.1 1.1 8.7 1.2 10.4l.1 3-7.4.3c-4.1.2-7.8-.1-8.4-.7-.6-.6-.3-2.1 1-4.3 1.1-1.8 3.9-6.6 6.3-10.6 2.7-4.8 4.5-7.1 5.2-6.4.5.5 1.4 4.3 2 8.3zm40.8-25.3c0 .4 1.4 1.6 3.1 2.6 3 1.8 3.1 2.1 2.6 6.6-.3 2.6-1.5 7.6-2.5 11.1-1.1 3.5-3 10.2-4.2 14.9-6.1 22.9-7.3 25.9-11.5 27.9l-2.9 1.4 2.4 1c1.4.5 9.4.7 18.5.4 17.7-.6 24.4-2.2 33.5-7.8 16.9-10.4 22.8-33.5 12.1-47.4-4.3-5.7-9.5-8.7-17.5-10.3-6.6-1.3-33.6-1.6-33.6-.4zm32.3 4.8c19.7 6.7 14.6 44.4-7.3 54.2-8 3.6-20.1 4-21.3.8-.5-1.3.3-4.6 10.4-40.6 1.2-4.1 2.3-8.6 2.6-10 1.3-6.1 6.4-7.5 15.6-4.4zM52.8 1169.4c-9.1 4-14.7 16.4-14.8 32.8 0 14 4.1 25.3 11.4 31.2 3.5 2.9 4.4 3.1 11.7 3.1 7.8-.1 7.9-.1 12-4 8.2-7.9 12.3-23.7 9.9-38.1-2.9-17.7-10.3-26.5-22-26.3-3 0-6.7.6-8.2 1.3zm14 4.5c9.1 9.8 9.1 48.1-.1 57.2-3.8 3.9-8.4 3.9-11.9.1-1.4-1.5-2.8-3.6-3.2-4.7-5-13.5-4.9-35.4.2-48.6 2.7-6.8 10.5-8.9 15-4zm1187.7-4.5c-13.1 3.1-25.4 14-32.2 28.4-2.2 4.8-2.6 7.1-2.6 14.7 0 6.2.5 10.1 1.6 12.6 1.9 4.3 9.2 10.9 12 10.9 3 0 1.5 2.1-5.9 8.3-8.2 6.9-9 8.3-4.3 7.1 4.8-1.2 13.5-1 19.4.5 15.7 3.9 26.1 1.6 34.9-7.8 2.8-2.9 2.9-5.6.2-3.6-5.4 4-7.3 4.9-11.4 5.6-2.6.3-6.9.3-9.7-.2-7.3-1.1-17.5-3.6-18.2-4.3-1.2-1.2 3.2-3.5 8.7-4.7 16.8-3.7 32-19.5 36-37.6 2.8-12.7-4.1-26.5-14.7-29.2-7.4-1.8-8.9-1.9-13.8-.7zm9.9 4.1c5.4 2.3 7.6 6.6 7.6 14.7 0 18.3-10.5 38.7-22.6 43.9-5.6 2.3-7.3 2.4-11.8.2-7.3-3.4-9.5-14.3-5.5-27.7 5.8-19.6 15.6-31.1 27.5-32.5.6 0 2.8.6 4.8 1.4z"/></svg>