<svg version="1.0" xmlns="http://www.w3.org/2000/svg" viewBox="0 0 2020 1280"><path d="M238.7 42.7c-.4.3-.7 224.2-.7 497.4 0 452 .1 496.7 1.6 497.3.9.3 324.6.6 719.4.6 708.8 0 717.9 0 719-1.9.7-1.3 1-55.9 1-169.5V699h49.3c29.1 0 49.8-.4 50.7-1 4.1-2.6-1.9-3-50-3.2l-49.5-.3-.3-77.2-.2-77.3 50.7-.2c47.3-.3 50.8-.4 51.1-2 .3-1.7-2.8-1.8-50.5-2l-50.8-.3-.5-246.5c-.3-135.6-.6-246.6-.8-246.8-.5-.5-1438.9-.1-1439.5.5zM1666 46.9c0 .5-6.9 5.6-15.2 11.3-17.3 11.8-43.2 29.6-65.3 44.8-8.2 5.7-23.2 16-33.3 22.9-10.1 6.9-24.7 17-32.5 22.4-7.8 5.4-22.2 15.3-32 22-9.8 6.7-23.3 16-30.1 20.7-6.8 4.7-20.5 14.1-30.5 21s-24.4 16.8-32 22c-7.6 5.2-21.4 14.7-30.7 21.1-9.3 6.4-23 15.8-30.4 20.9-7.4 5.1-20.5 14.1-29 20-8.5 5.8-19.1 13.1-23.5 16.1-15.4 10.7-25.1 17.4-40.5 27.9-8.5 5.8-19.2 13.2-23.7 16.3-12.9 8.9-23.5 16.2-40.3 27.7-8.5 5.9-22.6 15.6-31.3 21.6-8.7 6-23.1 15.9-32 22-8.9 6.1-22 15.1-29.2 20-7.1 5-20.9 14.4-30.5 21-9.6 6.6-24.2 16.7-32.5 22.4-8.2 5.7-22 15.2-30.5 21-8.5 5.9-23.4 16.1-33 22.7-9.6 6.6-23 15.8-29.7 20.4-6.8 4.7-13.2 9.1-14.3 9.9-2.5 1.8-28.9 20-46.5 32-12.4 8.5-24 16.5-61.2 42.1-18.3 12.6-30.4 20.9-100.1 68.8-10.1 6.9-24.7 17-32.5 22.4-7.8 5.4-22.1 15.2-31.7 21.8l-32 22c-8 5.5-21.8 15-30.8 21.2-9 6.2-22.5 15.5-30.1 20.7-7.6 5.2-22 15.1-32 22s-24.4 16.8-32 22c-7.6 5.2-21.9 15-31.7 21.8-9.9 6.7-23.5 16.1-30.4 20.9-6.9 4.7-19.5 13.4-28 19.3-8.5 5.8-19.1 13.1-23.5 16.1-15.4 10.7-25.1 17.4-40.5 27.9-8.5 5.8-19.3 13.2-24 16.5-17.1 11.8-24.8 17-37 25.3-6.9 4.7-15.5 10.7-19.1 13.4-3.7 2.6-7.2 4.8-7.8 4.8-.8 0-1.1-126.8-1.1-489.3 0-269.2.3-489.7.7-490 1-1.1 1423.3-.8 1423.3.2zm2.7 10.9c-2 4.5-22.2 44.4-24.9 49.2-1.4 2.5-4.6 8.5-7.3 13.4-2.6 4.9-6.1 11.2-7.8 14-1.6 2.8-3.8 6.6-4.8 8.3-1.1 1.8-2.7 4.8-3.8 6.5-3.8 6.8-8 13.6-15.1 24.8-4 6.3-8.5 13.5-10 16s-7 10.8-12.2 18.5c-8.6 12.7-12.3 18.1-22.8 32.9-5.1 7.2-34.2 46-34.9 46.6-.3.3-6.2 7.5-13.1 16-6.8 8.5-12.6 15.7-13 16-.3.3-5.4 6.2-11.3 13.2-5.8 6.9-11.2 13.2-11.9 14-.7.7-5.1 5.6-9.8 10.8-34.9 39.1-83.6 87.4-125 124-5.8 5.1-12.1 10.7-14 12.4-1.9 1.7-6.4 5.6-10 8.6-3.5 3-7.6 6.5-9 7.7-14.3 12.2-36.7 30.5-52.1 42.4-1.9 1.5-6.8 5.3-10.9 8.6-6.1 4.8-30.5 23.1-47 35.2-3.3 2.5-24.8 17.9-28 20.1-23.9 16.7-50 34.3-71.5 48.1-8.8 5.6-19.1 12.2-22.8 14.6-3.8 2.5-8.9 5.7-11.5 7.2-2.6 1.6-10.8 6.6-18.2 11.1-7.4 4.6-14.9 9.1-16.6 10-1.7 1-6.4 3.8-10.5 6.3-6.3 3.8-15 8.8-30.9 18-1.9 1.1-5.5 3.1-8 4.5-2.5 1.3-5.8 3.2-7.5 4.2-1.6 1-5.6 3.2-8.7 4.9-3.2 1.7-8.4 4.5-11.5 6.2-3.2 1.7-7.1 3.9-8.8 4.9-26.9 15.7-123.7 64.4-166.3 83.6-3.1 1.5-9 4.2-13 6-9.3 4.4-15.2 7.1-31.2 14.2-6.3 2.7-27.8 12.1-31.7 13.8-7.3 3.1-10 4.3-14.3 6.2-2.5 1.1-8.1 3.4-12.5 5.2-7.7 3-9.9 4-17.5 7.3-1.9.8-7.1 3-11.5 4.7-4.4 1.7-9.3 3.8-11 4.5-1.6.7-10.2 4.1-19 7.5-8.8 3.4-17.9 7.1-20.2 8.1-2.4 1-4.7 1.9-5.3 1.9-.5 0-2.9.9-5.2 1.9-2.4 1.1-6.8 2.8-9.8 3.9-3 1.1-10.4 3.9-16.5 6.2-6 2.3-13.4 5.1-16.2 6.1-10.5 3.8-16.4 5.9-21.5 7.8-2.9 1.1-10.7 3.8-17.3 6.1-6.6 2.3-13.8 4.8-15.9 5.6-2.2.8-11.2 3.9-20 6.9-17.7 5.9-20.7 7-28.1 9.5-2.7 1-8.4 2.8-12.5 4-4.1 1.2-9.7 3-12.5 4-2.7.9-7.9 2.6-11.5 3.8-23.1 7.2-33.4 10.4-40 12.3-7.5 2.1-14.6 4.2-27 7.9-12.6 3.8-17.6 5.2-35.3 9.9-4.2 1.2-11.2 3-15.5 4.2-4.2 1.1-11.7 3.1-16.7 4.4-4.9 1.3-10.1 2.7-11.5 3.1-2.3.6-2.4.5-1-.9.8-.9 7.1-5.5 14-10.2 29.7-20.4 65.5-45 91.3-62.8 8.2-5.6 21.7-14.9 30.1-20.7 8.4-5.8 22.8-15.7 32-22 9.2-6.3 23.6-16.2 32-22 8.4-5.8 22.7-15.6 31.7-21.8 9-6.2 23.6-16.2 32.4-22.3 8.8-6 22.7-15.6 30.8-21.2 8.2-5.6 21.9-15.1 30.5-21 27.6-18.9 48-32.9 62.1-42.7 7.6-5.2 21.4-14.7 30.7-21.1 9.3-6.4 23-15.8 30.4-20.9 7.4-5.1 21.8-15 32-22s24.6-16.9 32-22c7.4-5.1 21.8-15 32-22s24.6-16.9 32-22c7.4-5.1 20.7-14.3 29.5-20.3 8.8-6.1 22.8-15.7 31-21.4 8.3-5.7 22-15.1 30.5-20.9 8.5-5.8 22.9-15.7 32-22 9.1-6.3 22.8-15.7 30.5-21 7.7-5.3 22.1-15.2 32-22.1 9.9-6.8 23.9-16.4 31-21.3 7.2-4.9 20.2-13.9 29-19.9 8.8-6.1 23.2-16 32-22 8.8-6.1 21.9-15.1 29-20 7.2-4.9 21.8-15 32.5-22.4 10.7-7.3 27.3-18.7 36.8-25.3 9.5-6.5 24.2-16.6 32.6-22.4 8.4-5.8 22.1-15.2 30.5-21 8.4-5.8 22.1-15.2 30.5-21 8.5-5.8 22.7-15.6 31.7-21.8 16-11 31.7-21.8 64.7-44.5 9-6.2 22.7-15.6 30.5-21 7.8-5.4 21.4-14.7 30.2-20.8 31.1-21.3 74.5-51.2 94.4-64.9 7.6-5.2 21.4-14.7 30.7-21.1 9.3-6.4 22.8-15.6 29.9-20.5 7.2-5 21.8-15 32.5-22.3 10.7-7.3 20.1-13.9 20.9-14.7 2.2-2 3.2-.7 1.8 2.4zm3.9 11.4c-.4 5.1-1.1 11.3-1.6 13.8s-1.4 9-2 14.5c-.6 5.5-1.8 14.5-2.7 20-.9 5.5-1.9 12.5-2.4 15.5-.4 3-1.3 8.2-1.9 11.5-.6 3.3-1.5 8.7-2 12-.5 3.3-1.4 8.2-2 11-.6 2.7-1.5 7-2 9.5s-1.4 6.5-2 9c-.5 2.5-1.5 6.7-2 9.5-.5 2.7-1.4 6.8-1.9 9s-1.4 6-1.9 8.5c-.6 2.5-2.5 9.9-4.2 16.5-1.8 6.6-3.6 13.6-4.1 15.5-.4 1.9-1.2 5.2-1.8 7.2-.6 2.1-1.5 5.3-2 7-.5 1.8-1.5 5.3-2.3 7.8-.8 2.5-2.5 7.9-3.8 12-5.6 18.1-17.2 52.1-20.3 59.4-1 2.1-1.7 4.2-1.7 4.5 0 .4-.9 2.6-2 4.9-1.1 2.2-2 4.5-2 5 0 .4-.9 2.7-2 5-1.1 2.2-2 4.6-2 5.2 0 .5-.4 1.8-1 2.8-.5.9-3.6 7.8-6.9 15.2-9.5 21.9-11.8 26.6-20.8 44.5-8.9 17.7-10.6 20.7-20.8 39-10.2 18.3-27.6 46.4-36.2 58.8-3.1 4.5-8.7 12.5-12.4 17.8-19.9 28.8-46.9 62-75.8 93.4-10 10.8-49.9 50.2-56.4 55.6l-5.8 4.9h-126.8c-97.2 0-127-.3-127.9-1.2-.7-.7-1.2-2.3-1.2-3.6 0-2.2-.3-2.4-3.2-1.9-1.8.3-6.7 1.4-10.8 2.5-18.2 4.9-20.9 6.3-15.2 7.6 4.9 1.2 9.6 2.4 13.7 3.6 2.2.6 5.6 1.5 7.5 2 1.9.5 4.5 1.2 5.8 1.5 1.8.6 2.2.3 2.2-1.3 0-1.1.3-2.7.6-3.6.6-1.4 12.5-1.6 125-1.6 68.4 0 124.4.3 124.4.8 0 2.7-55.4 46.9-84 67.1-16.7 11.8-45.2 30.6-55.8 37-5.3 3.2-12.8 7.7-16.6 10.1-3.8 2.3-8.4 5-10.2 6.1-1.9 1-5 2.8-6.9 3.9-1.9 1.1-5.1 2.9-7 4-1.9 1.1-5.2 3-7.2 4.2-22.1 12.6-85.3 43.9-110.8 54.7-1.1.5-3.6 1.6-5.5 2.4-12.4 5.3-26.6 11.2-40.5 16.6-8.8 3.5-17.5 7-19.4 7.8-1.8.8-4.5 1.9-6 2.3-1.4.5-5.1 1.8-8.1 2.9-3 1.1-9.3 3.4-14 5.1-9.2 3.4-55.2 18.7-66.5 22.1-3.8 1.2-9.7 3-13 4.1-5.9 1.8-8.3 2.5-16 4.6-2.2.6-7.1 2-11 3.1-13.4 3.8-21.1 5.9-28.5 7.9-4.1 1.1-11.1 2.9-15.5 4-14.7 3.9-21 5.4-25 6.1-2.2.4-6.7 1.5-10 2.3-3.3.9-10 2.5-15 3.6-14.6 3.2-28.7 6.2-33.8 7.3-2.6.5-6.8 1.3-9.5 1.9-13.7 2.9-24.5 4.9-31.2 6-4.1.7-8.2 1.4-9 1.7-.8.3-4.2.9-7.5 1.3-3.3.5-8.5 1.4-11.5 2-3 .5-8.2 1.4-11.5 2-3.3.5-8.9 1.4-12.5 2-3.6.6-9.6 1.5-13.5 2-3.8.5-9.9 1.4-13.5 2-3.6.6-9.9 1.5-14 2s-10.4 1.4-14 2c-3.6.6-10.5 1.5-15.5 2-4.9.5-12.6 1.4-17 2-4.4.6-12.3 1.5-17.5 2-5.2.5-14 1.4-19.5 2-5.5.6-15.2 1.5-21.5 2-6.3.5-16.9 1.4-23.5 2-6.6.6-19.4 1.5-28.5 2-9.1.6-24.1 1.5-33.5 2.1-20.5 1.4-147.5 2.4-147.5 1.2 0-.5 3-1.6 6.8-2.5 3.7-.9 10.3-2.6 14.7-3.8 4.4-1.2 11.2-2.9 15-4 20.4-5.4 29.3-7.8 43-12 3.9-1.2 9.9-2.9 13.5-4 3.6-1 9.7-2.8 13.5-4 3.9-1.2 9.5-2.8 12.5-3.6 3-.8 6.4-1.8 7.5-2.4 1.1-.5 6.7-2.3 12.5-4 5.8-1.7 11.4-3.5 12.5-4 1.1-.5 6.7-2.3 12.5-4 11.9-3.6 33.5-10.7 36.5-12 1.1-.5 6.7-2.4 12.5-4.4 22.4-7.4 81.3-28.5 88.5-31.6 1.1-.5 6.5-2.5 12-4.6 10.9-3.9 36.1-13.8 41.2-16 1.7-.8 3.4-1.4 3.8-1.4.4 0 2.1-.6 3.8-1.4 1.8-.7 5.9-2.4 9.2-3.7 3.3-1.2 8.3-3.3 11-4.5 2.8-1.2 9.7-4.1 15.5-6.4 5.8-2.3 12.9-5.3 15.8-6.6 2.9-1.3 5.7-2.4 6.2-2.4.6 0 1.8-.4 2.8-1 2.1-1.2 29.1-13 29.7-13 .2 0 2.8-1.1 5.7-2.4 2.9-1.3 7.6-3.4 10.3-4.6 2.8-1.2 7.4-3.3 10.3-4.6 2.9-1.3 5.5-2.4 5.7-2.4.2 0 6.1-2.7 13.1-6 6.9-3.3 12.8-6 13-6 .2 0 6-2.7 13-6 6.9-3.3 12.8-6 13-6 1.2 0 73.6-35.8 95.4-47.2 8-4.2 19.2-10 25-13 5.8-3 12.5-6.6 15-8 2.5-1.4 7.2-4 10.5-5.8 6.6-3.6 12.1-6.6 17.5-9.7 1.9-1.1 6.4-3.6 10-5.5 14.6-8 17.2-9.5 48.5-27.8 5-2.9 10.4-6 12-7 4.6-2.7 27.8-16.9 38.4-23.6 5.2-3.2 11-6.8 12.8-7.9 3.2-1.9 13.8-8.8 40.8-26.4 12.2-7.9 43.3-29.3 57.2-39.2 22-15.7 27.8-19.9 36.3-26.3 5.2-3.9 9.7-7.3 10-7.6.3-.3 2.1-1.7 4-3 5.2-3.7 38.6-29.8 50.8-39.7 10.6-8.7 34.2-28.3 35.2-29.3.3-.3 3.4-3 7-6s6.7-5.7 7-6c.3-.3 4.3-3.9 9-8 26.8-23.6 42.2-38.1 74.5-70.5 35.2-35.2 53-54.3 80.1-86 38.2-44.8 83.7-106.2 108.9-147 8.7-14.1 14.2-23.1 17.2-27.7 1.2-2.1 2.3-3.9 2.3-4.1 0-.3 3.1-5.6 6.8-11.8 3.8-6.3 9.2-15.8 12.1-21.3 2.9-5.4 6.2-11.4 7.3-13.5 1.1-2 7-13.4 13-25.4 6.1-11.9 11.2-21.7 11.5-21.7.3 0 .2 4.2-.1 9.2zm1.9 465.6c-.3 1-12.8 1.2-59.7 1l-59.3-.3-.3-2.8c-.2-1.6-.9-3-1.5-3.3-.7-.2-4.8.5-9.2 1.6-4.4 1.2-10.9 2.8-14.5 3.6-11.2 2.8-10.7 3.3 7.8 8.3 2.3.6 5.9 1.6 8 2.1 7.5 2.1 8.7 1.8 9-1.8l.3-3.2H1675l-.2 77.2-.3 77.3-150.4.3c-82.8.1-150.9-.2-151.3-.6-.5-.5 1.7-3.3 4.9-6.2 17.4-16.2 47.3-46.1 57.8-58 2.2-2.5 7.4-8.3 11.5-13 4.1-4.7 7.7-8.7 8-9 1.6-1.6 23.3-28.4 27.1-33.5 2.4-3.3 4.6-6.2 4.9-6.5 3.7-3.6 33.8-46.7 43.5-62.5 3.7-6.1 8.5-13.7 10.5-17 12.3-19.5 38.4-68.8 47.5-89.5 1.5-3.6 4-9.2 5.5-12.5 6.7-14.6 8-17.6 8-18.3 0-.5.9-2.7 2-5 1.1-2.2 2-4.7 2-5.5 0-.7.4-1.7.8-2.3.5-.5 2.4-4.7 4.1-9.4 1.8-4.7 3.7-9.4 4.1-10.5.9-2.2 7.3-20.2 9.7-27.5.8-2.5 1.8-5.4 2.3-6.5.5-1.1 2.3-6.7 4-12.5 1.7-5.8 3.5-11.6 4-13 .9-2.4 6.1-20 8-27 .6-1.9 1.7-6.2 2.4-9.5.8-3.3 2.9-11.4 4.6-18 1.7-6.6 3.5-14 4-16.5s1.4-6.8 2-9.5c.6-2.8 1.5-7 2-9.5.8-4.5 3.1-15.5 4.9-24 .6-2.5 1.5-7.9 2.1-12 .6-4.1 1.5-9.5 2-12 1.1-5.7 2.6-15.2 4.1-26 3.4-25.3 3.4-24.5 3.7 201 .1 121.3 0 221.1-.3 221.8zm.5 331.1c0 151.3-.1 166.9-1.6 167.5-2.5 1-1234.2.7-1234.8-.3-.6-.8 2.4-1.2 28.9-3 7.7-.5 16.3-1.2 19-1.5 18.7-2 26.4-2.7 37-3.6 6.6-.6 14.9-1.5 18.5-2 3.6-.5 11-1.4 16.5-2 10.5-1.1 18-2 35.5-4.6 5.8-.8 16.8-2.4 24.5-3.5 21-2.9 26.5-3.8 32.5-4.9 3-.5 8.2-1.4 11.5-2 3.3-.5 8.5-1.4 11.5-2 3-.5 10.7-1.9 17-3 6.3-1.1 15.8-2.9 21-4 5.2-1.1 11.8-2.4 14.5-3 19.4-3.6 70.1-15.2 92-21 4.4-1.2 10.7-2.8 14-3.6 3.3-.8 9.2-2.4 13-3.5 7.5-2.1 14.3-4 22.8-6.4 7.2-2 25.7-7.5 28.7-8.5 1.4-.5 9.9-3.2 19-6s17.4-5.5 18.5-6c1.1-.5 3.8-1.4 6-2 2.2-.6 4.9-1.5 6-2 1.1-.4 3.4-1.3 5-1.8 18.3-6.3 47.4-17 49.7-18.2 1-.6 2.3-1 2.8-1 .6 0 3-.9 5.2-2 2.3-1.1 4.5-2 5-2 .4 0 3.2-1.1 6.2-2.5s5.8-2.5 6.1-2.5c.3 0 2.5-.9 4.9-1.9 2.3-1.1 6.7-3 9.7-4.1 3-1.2 6.8-2.8 8.4-3.5 1.7-.8 9.1-4.1 16.5-7.3 7.4-3.3 15.8-7 18.5-8.2 9.5-4.4 59-28.9 67.5-33.5 20.5-11.1 26.6-14.5 34.8-19.4 2.9-1.7 5.5-3.1 5.7-3.1.2 0 4.1-2.3 8.7-5.1 4.6-2.9 13.5-8.3 19.8-12.2 30.5-18.6 80.1-53.6 105-74.1 16.3-13.5 25.5-21.1 26-21.7.3-.3 3.5-3.1 7.3-6.2l6.7-5.7h309v166.9zM45.2 158.3c-.6.7-1.5 2.4-2.1 3.9-2.2 5.9 4.7 15.8 11.2 15.8 3.9 0 5.4.9 5.8 3.5.3 1.1 1.2 2.1 2.2 2.3 1.2.3 1.7-.3 1.7-2.2V179h13.5c12 0 13.7.2 15.4 1.9 2.4 2.4 3.1 1.1 3.1-5.9 0-7.2-.8-8.6-3.2-5.5-1.9 2.4-2.2 2.5-15.3 2.5H64.1l-.3-4.3c-.2-2.9-.8-4.2-1.8-4.2s-1.6 1.3-1.8 4.2l-.3 4.3h-5c-2.8 0-5.9-.5-7-1-2.3-1.3-2.5-4.3-.3-6 2.7-2.3 3.7-5 2.3-6.6-1.4-1.7-3.3-1.8-4.7-.1zm26.3 31c-5.6 2.2-7.5 3.8-9.5 7.7-4.2 8.3-1.5 18.7 6 22.9 5.4 3 15.4 2.9 20.1-.2 12.6-8.5 9.8-25.6-5-30.6-4.2-1.4-7.7-1.3-11.6.2zm17.6 9c2.5 1.7 3.5 3.1 3.7 5.6.6 6.5-5.5 10.3-16.9 10.5-6.9.1-8-.2-10.3-2.3-3.5-3.3-4-5.4-2.1-9.1 3.4-6.6 18.6-9.4 25.6-4.7zm4 49c-.8.8-6 1.4-14.8 1.8-13.3.5-13.7.6-16 3.3-2.9 3.4-3 8-.3 12.4 2.1 3.5 1.9 5.2-.7 5.2-1 0-1.3.5-.8 1.7.3 1 .9 3 1.2 4.6.7 3.6 1.9 4.2 3.3 1.7 1-1.8 2-2 13.9-2 10.4 0 13.1.3 14.1 1.5 1.9 2.3 3 .2 3-5.6 0-5.5-.6-6.3-3.4-4.4-2.8 2-22.3 2.1-24.8.1-2.8-2-3.4-7.3-1.3-9.6 1.6-1.8 3.1-2 12.9-2 8.1.1 11.6.5 13 1.5 2.7 2.1 3.6 1 3.6-4.3 0-5.7-1-7.8-2.9-5.9zm-23.6 38.1c-3.7 1.6-8.2 6.7-9.1 10.2-1 4.1.2 12.4 2.2 15.1 3 3.9 9.8 7.3 14.9 7.3 14.1 0 22.9-13.8 16.2-25.4-4.1-7.3-16-10.8-24.2-7.2zm20.1 8.2c1.3.9 2.7 2.8 3.1 4.2 1.7 7.1-5.5 12.1-17.5 12.2-7 0-7.6-.2-10.3-3.1-3.4-3.7-3.6-5.7-.8-9.3 3.8-4.8 9.5-6.8 17.7-6 2.9.2 6.4 1.2 7.8 2zm72.6-6.5c-2.9.5-7.7 2-10.6 3.4-5.7 2.7-15.6 11.6-15.6 14.1 0 2 .6 1.8 3.7-1.5 7.7-7.9 27.4-11.6 41.8-7.7 6.4 1.7 8.7 2.9 13.6 7.3 4.9 4.5 6.3 3.6 2.2-1.5-8.6-10.8-22.2-16.2-35.1-14.1zm-2.6 29.4c-5.5 8.3 4.9 21.5 16.8 21.5 5.7-.1 8-1.4 9.5-5.3 3.5-9.3-5.7-18.7-18.3-18.7-5.7 0-6.5.3-8 2.5zm16.1 1.6c5.8 3.2 8.3 5.9 8.3 9.1 0 4.1-3.4 5.5-9.7 3.8-4.6-1.3-10-4.3-11.5-6.5-1.2-1.6-.9-6 .4-7.3 1.9-1.9 8.4-1.4 12.5.9zm-83.2 7.5c-1.4 1.1-5.5 1.4-16.6 1.4-8.1 0-15 .4-15.3.9-.7 1 1.2 6.8 3 9.5 1.3 1.9 1.4 1.8 2.3-.7L67 334h11.8c10.4 0 12.1.2 13.9 2 2.6 2.4 3.3 1.2 3.3-6 0-5.5-.7-6.4-3.5-4.4zm42.5.8c0 .8.4 1.7.9 2.1 1.8 1.1 4.1 6.8 4.1 10.1 0 1.9-.9 4.8-2 6.6-2.8 4.5-2.5 8.6.9 13.9 4.9 7.8 15.1 11 21.8 6.9 9.1-5.5 1.7-20.1-11.5-22.4-7.2-1.3-7.2-1.3-7.2-6.7 0-2.7.3-4.9.8-4.9.4 0 1.8.9 3.2 2 1.4 1.1 2.8 2 3.2 2 .3 0 6.4 3.3 13.5 7.4 19.6 11.2 22.2 12.6 23.9 12.6 2.8 0 1-3.2-3.1-5.4-2.2-1.3-10.1-5.7-17.5-9.8-7.4-4.1-15.7-8.8-18.5-10.3-11.1-6.2-12.5-6.7-12.5-4.1zm18.3 21.1c3.7 1.5 8.7 7.1 8.7 9.7 0 2.8-3.7 5.1-7.1 4.4-4.5-.9-10-3.6-13.1-6.4-3.2-3-3.4-3.9-1.2-7 1.8-2.7 7.3-3 12.7-.7zM44.8 328.1c-3.3 1.9-1.5 6.9 2.4 6.9 1.5 0 3.8-2.7 3.8-4.4 0-.7-3.1-3.6-3.8-3.6-.4 0-1.5.5-2.4 1.1zM90 342.8c0 .4.5 1.3 1.1 1.9.8.8.8 1.7 0 3.2-1.1 2-2 2.1-14.1 2.1H64v-2.9c0-1.7-.5-3.3-1.1-3.7-1.4-.8-2.9 1.4-2.9 4.3 0 2-.5 2.3-4 2.3-2.2 0-4 .4-4 .8 0 .5 2.3 3 5.2 5.6 4.6 4.2 5.1 4.9 4 6.6-1.8 2.9-1.5 6.5.8 8.5 2.4 2.1 2.6 3.5.6 3.5-.8 0-1.7.4-2 .8-.5.8 1.3 6.7 2.7 8.9 1.1 1.7 2.7 1.6 2.7-.1 0-2.2 2.3-2.6 13.9-2.6 9.5 0 11 .2 12.6 2 2.6 2.8 3.5 1.6 3.5-4.5 0-7.5-.6-8.9-3.1-6.4-1.6 1.6-3.4 1.9-11.8 1.9-14.4 0-17.4-1.8-14-8.3 1-1.8.8-2.4-1.3-4.1-4.5-3.7-2.6-4.6 9-4.6 15.7 0 21.1-2 21.2-7.8 0-3.7-2.8-8.1-5.2-8.2-.5 0-.8.4-.8.8zm105.5 35.5c-1.6 1.6-5.5 4.1-8.5 5.6-5.1 2.4-6.4 2.6-19.6 2.6-12.9 0-14.4-.2-19-2.4-2.7-1.4-6.4-3.8-8.1-5.5-4-3.6-5.3-2.8-2.4 1.3 6.5 9.1 17 14.1 29.6 14.1 13.7 0 22.7-4.6 31.4-16.2 2.1-2.9-.3-2.5-3.4.5zM68 392.2c-5.1 3.5-7.3 7.1-7.8 13-.9 10.7 5.5 17.8 16.6 18.6 14.7 1 23.9-13.1 16.7-25.4-4.7-8-18.1-11.2-25.5-6.2zm20.3 7c4.2 1.6 5.9 5.5 4.1 9.6-1.9 4.5-8.4 7.2-17.4 7.2-6.3 0-7.1-.2-9.9-3.1-3.6-3.6-3.9-5.7-1-9.3 2.7-3.4 5.1-4.6 10.8-5.5 5-.9 9.1-.5 13.4 1.1zm86.7 20.2c0 .2 1.4 1.9 3 3.7 5.2 5.8 5.2 11.1 0 15.9-2.7 2.6-9.3 4.6-11.2 3.4-.4-.3-.8-5.4-.8-11.5 0-10.8 0-10.9-2.3-10.9-3.4 0-8.2 2.6-10.1 5.5-2.3 3.5-2.1 12 .3 15.9 3.3 5.3 7.5 7.1 16.6 7.1 6.8 0 8.5-.4 11.3-2.3 3.4-2.4 6.2-7.8 6.2-11.7 0-3.8-2.7-9.1-6.5-12.4-3-2.6-6.5-4.1-6.5-2.7zm-12.5 10.9c.4 1.3.5 4.3.3 6.8-.2 3.6-.7 4.5-2.5 4.7-5.1.7-7.1-8.2-2.7-11.7 3.4-2.7 4.2-2.6 4.9.2zm-95.3-.1c-7.1 3.4-9.3 10.9-5.2 17.6l2.1 3.4-2.1.5c-2.4.6-2.4.7-.7 5.6 1.9 5.3 3.2 6.4 4.6 3.8 1.1-2 1.8-2.1 21.6-2.1 19.4 0 20.5.1 21.7 2 2.2 3.5 2.8 2.2 2.8-6.5 0-5-.4-8.5-1-8.5-.5 0-1 .7-1 1.5 0 2.7-4.5 4.6-10.2 4.3-4.1-.2-5.2-.6-4.9-1.8 1.9-7 1.3-10.5-2.6-15-5.6-6.7-16.8-8.8-25.1-4.8zm23.1 8.9c3.4 3.6 3.5 7.2.2 10.4-2.2 2.3-3.2 2.5-11.3 2.5-10.8 0-13.6-1.5-13.6-7.4 0-6.7 5.9-9.9 16.4-9 4.5.4 6 1.1 8.3 3.5zm93.2 15.8c-.4.7-5.1 1.1-12 1.1-15.9 0-19.4 1.8-19.4 10-.1 3 .6 5.4 1.9 7 2.5 3.2 2.5 4.3 0 6.5-2.7 2.4-2.7 9.2 0 13.9l2.1 3.4-2.1.7c-2.3.7-2.4 1.6-.8 6.4 1.6 4.8 1.6 4.8 3.4 2.3 1.4-2.1 2.3-2.2 13.8-2.2 7.6 0 12.6.4 13.3 1.1 1.9 1.9 3.3 0 3.3-4.6s-1.4-6.5-3.3-4.6c-.7.7-5.4 1.1-12.3 1.1h-11.3l-2-2.9c-2.3-3.2-2.7-7.1-.9-8.9 1.6-1.6 26.4-1.7 27.4-.1 1.1 1.8 2.4-1.2 2.4-5.8 0-4.4-1.4-6.3-3.3-4.4-.7.7-5.5 1.1-12.8 1.1-11.3 0-11.7-.1-13.3-2.5-2.3-3.4-2-7.1.6-8.9 2.8-2 23.7-2.3 25.6-.4 2 2 3.4-.5 3-5.2-.3-4.2-1.9-6.2-3.3-4.1zM71.1 467.1c-7.4 3-11.1 8.5-11.1 16.9 0 5.5 2.7 10.2 7.9 13.7 6 4.1 17.3 2.8 23.4-2.6 4.4-3.8 6.1-13.6 3.3-18.9-4.1-8-15.4-12.3-23.5-9.1zm16.2 7.8c3.8 1.5 5.7 4 5.7 7.5 0 5.9-6.7 9.7-17.4 10-7.2.1-11.3-2-13-6.7-.8-2.1-.5-3.2 1.7-6 1.4-1.8 4-3.8 5.9-4.4 4.2-1.4 13.9-1.6 17.1-.4zm-26.1 28.3c-1.9 1.9-1.4 6.3.8 8.3 2.4 2.1 2.6 3.5.6 3.5-.8 0-1.7.4-2 .8-.5.8 1.3 6.7 2.7 8.9 1.1 1.7 2.7 1.6 2.7-.1 0-2.2 2.3-2.6 13.9-2.6 9.6 0 11 .2 12.6 2 2.4 2.7 3.5 1.1 3.5-5.2 0-6.9-.7-8.2-3.3-5.8-1.8 1.7-3.5 2-11.8 2-5.4 0-10.9-.4-12.3-1-2.8-1-3.4-3.7-1.5-7.1 1.9-3.7-2.9-6.7-5.9-3.7zM1785 511c0 .5 1.1 1.7 2.5 2.6 1.3.9 6.1 6.9 10.5 13.4l8 11.9v9.1c0 9.1 0 9.1-3 10.8-1.6.9-3 2-3 2.4 0 .5 4.7.8 10.5.8 6.3 0 10.5-.4 10.5-1s-.5-1-1-1c-.6 0-2.2-1.1-3.5-2.5-2.2-2.1-2.5-3.3-2.5-10.4v-7.9l7.8-11.9c4.4-6.5 9.1-12.6 10.5-13.6 4.3-2.8 3.2-3.7-4.3-3.7-6.5 0-9 1-5.5 2.4.8.3 1.5 1.2 1.5 2 0 1.8-10.2 18.6-11.2 18.6-1.3 0-11.8-16.4-11.8-18.3 0-1 .7-2 1.5-2.3 3.8-1.5.7-2.4-8-2.4-5.5 0-9.5.4-9.5 1zm173.3 1.2c-4.8 2.4-5.3 3.3-2.3 4.1 1.9.5 2 1.4 2 20.5v20.1l-2.5 1.9c-1.4 1.1-2.5 2.3-2.5 2.6 0 .3 4.1.6 9 .6 9.1 0 10.9-.7 6.8-2.5-2.3-1-2.3-1.3-2.8-25-.6-26.9-.3-26-7.7-22.3zm-1797.3 2c-6.4 3.3-9 7.6-9 15.2 0 10.8 6.2 16.6 17.5 16.6 13.8 0 22-11.6 16.5-23.4-2.4-5-5.1-7.3-11-9.3-5.2-1.8-9-1.6-14 .9zm19.7 7.8c6.1 3.7 5.4 10.4-1.4 13.8-4.5 2.3-13 3.6-17.2 2.7-3.8-.8-8.1-5.1-8.1-8 0-3 3.5-7.3 7.4-9 4.9-2.1 15.5-1.9 19.3.5zm1659.2 6.2c-5.5 3.1-7.9 8.2-7.9 16.3 0 11.3 5 17.5 14.1 17.5 5.2 0 10.7-3 13.8-7.6 2.8-4 2.1-5.7-1.2-2.7-5.2 4.8-11.8 5.8-15.5 2.3-3.2-3-5.4-7.7-5-10.8l.3-2.7 10.8-.3c12.2-.3 12.9-.8 10.1-6.7-3.4-7.2-12.2-9.6-19.5-5.3zm10.8 3.6c.7.9 1.2 2.6 1 3.7-.2 1.7-1.1 2-6.5 2.3-4.7.2-6.4-.1-6.8-1.2-.7-1.8 2.2-6.3 4.4-6.9 2.7-.8 6.5.3 7.9 2.1zm21.6-3.9c-5.1 3.2-5.7 10.1-.8 10.1 2.4 0 3.5-1.7 3.5-5.4 0-2.8 1.8-4.6 4.5-4.6 3.4 0 5.7 3.2 5.3 7.7-.2 3.1-.7 3.9-2.5 4.1-1.3.2-2.3.7-2.3 1.1 0 .5-1.4 1.1-3.2 1.5-3.7.7-10.8 7.8-10.8 10.7 0 7.6 8 11.2 15.3 6.9l3.4-2 1.8 2c2.1 2.3 6.2 2.6 8.8.6 2.3-1.7 2.2-3.6-.2-3.6-2.7 0-3.1-1.8-3.1-14.2 0-10.8 0-11-2.9-13.9-2.5-2.5-3.7-2.9-8.3-2.9-3.5 0-6.4.7-8.5 1.9zm12.7 19.8c0 6.7-.6 7.9-4.2 8.8-6.3 1.6-9.5-5.7-4.5-10.2 6.6-6 8.7-5.6 8.7 1.4zm22-20.9c-3.5 1.1-8 3.5-8 4.2 0 .4.9 1 2 1.3 1.9.5 2 1.4 2 12.4 0 10.4-.2 12.2-1.9 14-1.1 1.2-1.7 2.4-1.4 2.7.8.8 15.3.8 15.3 0 0-.3-1.1-1.5-2.5-2.6-2.4-1.8-2.5-2.4-2.5-12.3 0-8.6.3-10.7 1.9-12.6 1.8-2.2 2.1-2.3 5.6-1 2 .7 3.7 1.1 3.9.9.1-.1.7-1.1 1.4-2 1.1-1.3 1.1-2 0-3.7-1.6-2.6-5.5-2.7-8.8-.1-3 2.3-4 2.5-4 .6 0-1.8-1.1-2.5-3-1.8zM66.9 532c-6.9 3.6-8.9 11.1-4.9 17.8l2.1 3.4-2.1.5c-1.1.3-2 .6-2 .7 0 0 .6 2.1 1.4 4.6 1.4 4.8 4 6.4 4.9 3 .5-1.9 1.2-2 20.5-2 16.9 0 20.3.2 21.6 1.6.9.8 1.6 2 1.6 2.5s.5.9 1 .9c.6 0 1-3.5 1-8.5s-.4-8.5-1-8.5c-.5 0-1 .7-1 1.5 0 2.7-4.5 4.6-10.2 4.3-4.1-.2-5.2-.6-4.9-1.8 2.8-9.9-.5-16.6-10.2-20.8-4.3-1.8-13.6-1.4-17.8.8zm18 5.6c7.5 1.5 10.5 9 5.6 13.9-2.2 2.3-3.2 2.5-11 2.5-4.8 0-9.5-.5-10.6-1.1-2.6-1.4-4.1-5.5-3.3-9.2 1.1-5 10.2-7.9 19.3-6.1zm69.2 17.3c-3 4.2-2.9 12.9.2 17.6 3.4 5.2 8.3 7.5 16.1 7.5 9.6 0 14-2.7 16.7-10.2 1-3 1-4.4-.1-7.7-1.4-4.3-6.9-10.1-9.5-10.1-2.1 0-1.9.7.9 3.5 7.5 7.5 1.1 18.3-11 18.4-3.7.1-6-.5-8.5-2.2-5.8-3.9-6.5-10.7-1.1-11.5 2.8-.4 5.1-3.8 4.5-6.3-.8-3.1-5.7-2.5-8.2 1zm29.4 32c-.4.7-5.5 1.1-13.2 1.1-11 0-12.8.2-15.4 2.1-2.5 1.7-2.9 2.7-2.9 6.6 0 3 .7 5.5 2.1 7.5l2.1 2.9-2.1.6c-2.5.6-2.5.8-.9 6.8 1.2 4.3 2.8 6.1 2.8 3.1 0-.8.7-1.7 1.6-2 2.8-1.1 24.9-.7 26.1.5.6.6 1.6.8 2.2.5 1.2-.8 1.5-7.4.5-10-.5-1.4-.8-1.4-2.7-.1-1.6 1.1-4.9 1.5-12.4 1.5-8.9 0-10.6-.3-12.3-2-3.3-3.3-3.7-7-1-9.2 2.1-1.7 3.7-1.9 13.4-1.5 6.1.2 12 .6 13.1.8 1.8.4 2-.1 2-4.5 0-4.7-1.5-7-3-4.7zm-99.5.8c.1.5 1.4 2.4 3 4.3 5.8 6.6 2.7 15.7-6.2 18-6.6 1.8-6.8 1.5-6.8-11 0-10.5-.1-11-2.1-11-3.2 0-9.5 3.9-10.8 6.7-1.6 3.4-1.4 9.9.4 13.3.8 1.6 3.1 4.2 5.2 5.7 3.3 2.5 4.4 2.8 11.7 2.8 9.2 0 12.3-1.4 15.6-6.8 4-6.4 1.3-16.5-5.3-20.6-3.7-2.2-4.7-2.6-4.7-1.4zm-13.2 15.6c.3 5.9.1 6.7-1.5 6.7-2.8-.1-5.2-2.4-5.9-5.8-.5-2.5-.1-3.6 2-5.7 3.9-3.9 5.1-2.8 5.4 4.8zm-10.4 19.1c-1 2.6 0 6.1 1.6 5.7 2.9-.9 7.4-.1 11.7 1.9 2.3 1.1 4.8 2 5.5 2 .7 0 2.2.7 3.2 1.5 1.8 1.4 1.8 1.5-.5 2.4-1.3.5-5.3 2.1-8.9 3.5-3.6 1.5-7.8 2.6-9.5 2.4-2.9-.3-3-.1-3.3 4.1-.5 7.1 0 7.4 6.5 4 3.2-1.6 10.9-5.1 17.2-7.7 6.3-2.6 11.4-5.1 11.4-5.7 0-1.1-5.2-4.3-7.1-4.4-.7-.1-3.2-1-5.4-2.1-2.3-1.1-4.5-2-5-2-.9 0-9-3.5-13-5.6-3.3-1.7-3.7-1.7-4.4 0zm123.1 4.2c-1.4 1.1-5.5 1.4-16.7 1.4-16.2 0-15.7-.2-13.5 6.2 1.8 5.1 2.5 5.6 4.3 3 1.4-2.1 2.3-2.2 13.3-2.2 7.2 0 12.1.4 12.8 1.1 2 2 3.3-.1 3.3-5.1 0-5.5-.7-6.4-3.5-4.4zm-48.3 2.6c-2.7 2.7 0 7.2 4 6.6 1.9-.2 2.3-.9 2.3-3.8 0-3-.4-3.5-2.5-3.8-1.4-.2-3.1.3-3.8 1zm-42.7 30.4c-1.4 1-5.4 1.4-15.9 1.4-7.8 0-14.7.4-15.4.8-1 .7-1 1.6-.2 3.8 1.6 4.4 3.3 7.4 4.1 7.4.4 0 .9-1 1.1-2.3.3-2.1.7-2.2 12.3-2.5 10.9-.2 12.3-.1 14.2 1.7 2.6 2.5 3.3 1.3 3.3-5.9 0-5.5-.7-6.4-3.5-4.4zm-47.9 2.6c-3.1 1.7-1.3 6.8 2.5 6.8 2.3 0 4.2-2.6 3.4-4.8-.7-2.3-3.6-3.3-5.9-2zm139.4 4.3c-1.1 1.3-4.8 1.5-25 1.5-13 0-23.9.2-24.2.5-.6.7 1.9 8.6 3.2 9.9.4.4 1.3-.1 1.9-1.3 1.1-2 1.9-2.1 21.4-2.1 16.3 0 20.7.3 22.4 1.5 1.9 1.3 2.2 1.3 2.7-.1.9-2.3.7-8.7-.3-10.2-.6-1-1-1-2.1.3zm1770.3 3.1c-3.6 1.6-7.8 6.6-8.8 10.6-1 3.9.9 3.6 3.4-.5 5.6-9.1 20.1-4.3 18.8 6.3-1 7.9-4.9 13.7-19.4 28.7-1.8 1.8-3.3 3.8-3.3 4.3 0 .7 5.3 1 14.7.8l14.7-.3 2-3.7c2.3-4.5 1.6-5.7-1.8-3.4-1.9 1.2-4.9 1.6-11.6 1.6-4.9 0-9-.4-9-.8s2.7-3.4 6.1-6.7c3.3-3.3 7.9-8.6 10.1-11.9 3.5-5.1 4-6.5 4.1-11.7 0-6.9-1.9-10.4-7.4-13.1-4.1-2-8.3-2.1-12.6-.2zm-167.5.1c-2.1.5-2.4 2.3-.4 2.3 1.5 0 6.4 6.2 14.5 18.1l5.1 7.6v9c0 9.2-.8 11.3-4.2 11.3-1 0-1.8.4-1.8 1s4.2 1 10.5 1 10.5-.4 10.5-1-.9-1-1.9-1c-3.6 0-5.1-3.8-5-12.5v-8l8.2-12c5.4-7.9 9.2-12.5 11.2-13.4l3-1.5-3-.8c-3.5-1-13.5-.1-13.5 1.3 0 .5.9.9 2 .9 3 0 2.5 2-2.5 10.1-7.1 11.5-6.5 11.4-12.9 1.8-3.1-4.6-5.6-9.1-5.6-10 0-.9 1-2 2.3-2.4 2.1-.7 2.1-.8-.8-1.5-3.3-.8-13-1-15.7-.3zM90 676.6c0 .3.5 1.5 1.1 2.6 2 3.8-1 4.8-14.8 4.8H64v-2.9c0-1.7-.5-3.3-1.1-3.7-1.4-.8-2.9 1.4-2.9 4.3 0 2-.5 2.3-4 2.3-2.2 0-4 .4-4 .9s2.3 3 5.2 5.6c4.5 4.1 5.3 4.5 6.3 3.1 1-1.3 3.3-1.6 12.8-1.6 12 0 16.1-.9 18.3-3.8 2.3-3 1.2-9.3-2-11.4-1.3-.9-2.6-1-2.6-.2zm92 7.8c0 3.1-1.9 3.6-15.2 3.6-10.3 0-10.7.1-12.7 2.6-4 5.1-2.2 17.7 2.8 20.4 3 1.5 4.9 1.2 6.2-1.1 1.4-2.6-.6-5-4.5-5.4-3.7-.4-4.6-1.3-4.6-4.5 0-3.6 3.6-6.3 7.6-5.8 2.9.3 2.9.4 6.5 8.6 2.9 6.7 6.9 10.2 11.5 10.2 6.9 0 9.9-6.3 6.4-13.5l-2.2-4.6 2.1-2.3c2.6-2.8 2.7-4.6 0-8-2.5-3.2-3.9-3.3-3.9-.2zm-1.8 11.3c2 1.8 2.4 7.3.6 9.1-1.9 1.9-6.3 1.4-8.6-1.1-2.7-2.8-5.2-7.8-4.6-8.9 1-1.5 10.6-.9 12.6.9zm1663.6-10.3c-7.8 2.4-11.8 8.5-11.8 18 0 10.2 3.7 15.9 11.1 17.1 6.5 1.1 10.6-.3 14.9-5.3 2.2-2.4 4-5.1 4-6 0-1.6-.8-1.1-5.5 3.1-2.6 2.4-5.7 3.1-10 2.3-2.7-.5-4-1.6-6-5-1.4-2.3-2.5-5.5-2.5-6.9V700h10.4c11.3 0 13.4-.9 12.1-5.2-2.5-7.8-9.4-11.7-16.7-9.4zm6.2 4.6c1.1 1.1 2 2.9 2 4 0 1.9-.5 2.1-6.7 1.8-3.6-.2-6.8-.8-7-1.4-.6-1.8 4.5-6.4 7.2-6.4 1.4 0 3.4.9 4.5 2zm26.2-4.8c-7 2.3-11 9.8-6.2 11.3 2.8.9 4.8-1 5.2-4.8.3-2.9.6-3.2 4.2-3.5 4.5-.4 5.6.7 5.6 5.9 0 3.8.1 3.8-9.5 7.9-5.1 2.2-9.5 7-9.5 10.3 0 2.9 2.2 6.5 4.7 7.6 3.5 1.6 6.3 1.4 10.6-.9l3.7-2 2.1 2.1c1.6 1.6 2.8 2 5.2 1.5 5.3-1.1 7.4-4.6 2.7-4.6-2.6 0-3-1.9-3-13.9 0-8.1-.4-11.2-1.6-12.9-2.7-3.9-9.1-5.6-14.2-4zm8.8 21.5c0 6.5-1.8 9.3-6 9.3-3.5 0-5-1.7-5-5.7 0-2.8.7-3.8 4.7-6.7 2.6-1.9 5.1-3.2 5.5-3 .5.3.8 3 .8 6.1z"/><path d="M1904 686.7c-5.8 2-5.8 2.1-3.2 3.9 2.1 1.4 2.2 2.3 2.2 13.4 0 11-.2 12.1-2.2 14l-2.2 2h7.7c7.9 0 9.2-.6 5.7-2.8-1.8-1.1-2-2.3-2-11.7 0-9.6.2-10.6 2.4-13.2 2-2.2 2.7-2.6 3.7-1.6 1.8 1.8 6.6 1.6 7.3-.3.8-2.1.8-2-1-3.8-2.3-2.3-6.1-1.9-9 .9l-2.5 2.5-.9-2.5c-.5-1.4-1.1-2.5-1.2-2.4-.2 0-2.3.8-4.8 1.6zm-1813.1 10c-.1.5-.2 1.7-.3 2.8-.1 1.9-1 2-12.9 2.5-12.6.5-12.9.6-15.3 3.3-4.8 5.6-2.2 18.7 4.1 20.3 3.6.9 5.7-.2 5.3-2.8-.2-1.5-1.3-2.6-3.3-3.1-4.9-1.5-6-2.3-6.3-4.6-.7-4.4 5.7-8.3 9.8-6.1 1.1.6 2 1.6 2 2.3 0 2.8 5 11.5 8 14.1 4.1 3.4 8 3.4 11.4 0 3.2-3.3 3.4-7 .5-12.5l-2-4.1 2-1.5c2.7-1.8 2.7-6.3.1-9.1-2.2-2.3-2.9-2.7-3.1-1.5zm-3.2 12.8c5 3.5 3.6 10.5-2.2 10.5-2.7 0-4-.8-6.4-3.7-3-3.6-3.8-6.2-2.4-7.6 1.2-1.3 8.8-.7 11 .8zm94.7 9.9c.6 3.3.4 3.7-2 4.6-1.5.6-7.7.9-13.8.8l-11.1-.3-.5-2.9c-.7-4.2-2.8-4.4-3.2-.4-.3 3-.6 3.3-4 3.6-2.5.2-3.8.8-3.8 1.8 0 .8.4 1.4.8 1.4s2.3 1.6 4.2 3.5c3.8 3.8 5.5 4.3 6.4 2 .4-1.2 3-1.5 14.1-1.5 13.1 0 13.7-.1 16-2.5 1.4-1.3 2.5-3 2.5-3.6 0-2.7-2.4-7.7-4.3-8.8-1.8-1.2-1.9-1.1-1.3 2.3zM93 735.5c-1.1 1.3-4.7 1.5-24.4 1.5-12.7 0-23.7.4-24.3.8-1 .6-.9 2 .4 6.5 1.5 5.3 3.3 6.8 3.3 2.7 0-1 .7-2.1 1.6-2.4.9-.3 10.5-.6 21.3-.6 18.6 0 19.9.1 21.6 2 2.4 2.7 3.5 1.1 3.5-5 0-5.7-1.1-7.7-3-5.5zm71 4.2c-3.5.7-8.7 4.8-10.5 8.3-1.9 3.7-1.9 13.2-.1 16.8 2.4 4.5 7.2 7.4 13.6 7.9 9.7.9 16.2-2.6 19.5-10.4 2-4.7 1.9-7.2-.4-12.7-3.3-7.5-12.9-11.8-22.1-9.9zm18.7 10.7c4.8 5.6 1.7 11.2-7.9 14-7.1 2-11.1 2-15.1-.1-6.4-3.2-7.3-7.4-2.9-12.4 3.4-3.8 7.6-4.9 16.6-4.5 6.1.3 7.3.7 9.3 3zM90 756c-.9 1.8-2.3 2-15.3 2.2l-14.2.3-.3 3.3c-.6 5.6.3 6.7 3.4 4.3 2.3-1.8 4.1-2.1 12.3-2.1 10.6 0 13.4 1.1 14.5 5.6.9 3.3 0 6-2.2 7-.9.5-7.5 1.1-14.7 1.4l-13 .5-.3 2.8c-.6 5 .3 6 3.7 4.2 2.2-1.1 6.2-1.5 15.1-1.5 11.8 0 12.2-.1 14.5-2.6 3.1-3.4 3.3-9.1.5-12.7-2.5-3.2-2.5-4.3 0-5 1.7-.4 1.8-.9.8-3.8-.6-1.9-1.2-4-1.4-4.7-.5-1.8-2.2-1.5-3.4.8zm92.4 22.7c1.1 4.8-.6 5.4-14.5 5.1l-12.4-.3-.5-2.9c-.8-4.4-3-4.5-3-.2 0 3.6 0 3.6-4.5 3.6-2.5 0-4.5.3-4.5.7 0 1.1 9.7 9.3 10.9 9.3.6 0 1.1-.5 1.1-1 0-.6 4.9-1 12.8-1 10.9 0 13.2-.3 15.9-2 4.2-2.5 5.1-6 2.6-10.2-2.5-4.4-4.7-5-3.9-1.1zm-89 14.1c-.9 1.4-3.2 1.8-14.7 2.2-12.7.5-13.8.7-16.2 3-2.4 2.2-2.6 3.1-2.2 7.3.2 2.6 1.1 5.5 2.1 6.5 2.1 2.5 2 4.8-.4 7.2-2.6 2.6-2.6 8 0 12.2 2.5 4.1 2.5 4.8 0 4.8-2.3 0-2.4.5-.9 5.1.6 1.9 1.3 4 1.5 4.8.4 1.1.9.9 2.5-.7 1.8-2 3-2.2 13.7-2.2 8.8 0 12.3.4 13.9 1.5 1.9 1.3 2.2 1.3 2.7-.1.8-2.1.8-9.9 0-10.7-.4-.3-1.6 0-2.8.8-2.7 1.9-22.5 2.1-24.8.2-.8-.6-2.1-2.7-2.8-4.6-1.3-3.2-1.2-3.5 1.4-5.7 2.5-2.2 3.6-2.4 13.4-2.4 7.7.1 11.2.5 12.6 1.5 2.7 2.1 3.6 1 3.6-4.3 0-5.8-1.1-8-3-5.7-1 1.2-3.6 1.5-12.9 1.5-6.4 0-12.1-.4-12.7-.8-.5-.4-1.6-2.2-2.3-3.9-1.2-2.8-1.1-3.6.3-5.8 1.6-2.4 1.9-2.5 14-2.5 9.9 0 12.6.3 13.6 1.5 1.1 1.3 1.5 1.3 2.1.3 1-1.6 1-8.6.1-11-.7-1.7-.8-1.7-1.8 0zM90 853.5c-1 1.2-3.7 1.5-13.7 1.5-6.8 0-13.3.5-14.4 1-1.4.8-1.9 2.1-1.9 4.9 0 4.7.9 5.7 2.7 3.1 1.3-1.8 2.6-2 12.7-2 9.5 0 11.5.3 12.9 1.7 2.6 3 3.2 7.1 1.2 9.3-1.6 1.8-3.2 2-13.7 2-13.9 0-15.8.7-15.8 5.5 0 3.9 1.2 5.1 3 3 1-1.2 3.9-1.5 13.6-1.5 6.9 0 13.4-.5 14.7-1.1 4.8-2.2 6.1-9.1 2.7-14.7-2.4-4-2.4-3.9-.1-4.5 1.8-.4 1.9-.8.7-4.8-1.4-4.8-2.7-5.7-4.6-3.4zM51.5 891c-6.3.5-7 .7-6.7 2.5.6 3.3.5 4.7-.7 10.8-3.2 17.9 8 31.7 25.9 31.7 12.2 0 22-6.2 24.9-15.9 1.5-5 1.4-14.7-.2-19.2-1.5-4.3-7.2-11.7-8.3-10.7-.4.4.7 3.4 2.5 6.7 5.9 11.2 3.4 22.3-6.1 27.3-6.1 3.1-19.3 3.1-25.8 0-6.4-3.1-9.5-8.1-9.5-15.2 0-4.6.5-6.3 2.7-9.2 1.5-1.9 4.3-4.3 6.2-5.2 3.4-1.6 4.5-3.1 2.9-3.8-.5-.2-3.9-.1-7.8.2zm1365.1 200.5c-5.5 1.6-8.1 4.6-9.5 10.9-1 4.4-1.6 5.5-3.4 5.8-2.9.4-2.8 3.2.1 3.6 2.2.3 2.2.6 2.2 14.2 0 13-.1 14-2 15-3.5 1.9-1.2 3 5.8 3 7.9 0 10.5-1.1 6.7-2.8l-2.5-1.2v-27.9l3.8-.3c5.2-.4 5.1-3.1-.3-3.8-3.6-.5-4-.8-4.3-3.6-.2-1.8.1-4.7.6-6.5.6-2.7 1.4-3.5 3.5-3.7 1.5-.2 2.7.1 2.7.7 0 1.7 4.6 4.2 6.4 3.5 1.1-.4 1.6-1.5 1.4-3.2-.4-3.5-5.8-5.3-11.2-3.7zm-746.6.5c-10.2 1.2-18.7 9.8-20.5 20.8-2.9 17.7 7.6 31.1 24.5 31.2 7.8 0 12.3-1.5 17.6-5.7 3.9-3.1 4.1-5.9.2-3.4-7 4.4-9.1 5.1-14.8 5.1-10 0-15.8-5.3-18-16.4-3.4-16.9 6.7-30.8 20.5-28.2 4.3.8 9.8 5.4 11.5 9.6 2.2 5.2 3.5 3 3.1-5.1-.2-4.1-.5-7.6-.7-7.8-.2-.2-1.4 0-2.6.6-1.3.6-3.2.7-4.3.3-3.1-1.1-11.5-1.6-16.5-1zm174-.3c-5.9.9-10.9 4.3-6.1 4.3 2.7 0 3.1 2.5 3.1 23.1 0 17-.2 18.8-2 21.1-1 1.4-1.6 2.8-1.3 3.2.8.8 12.8.8 13.6-.1.4-.3-.2-1.2-1.3-2-1.9-1.3-2-2.6-2-25.3 0-13.1-.3-24-.7-24.2-.5-.2-1.9-.2-3.3-.1zm73.3 0c-2 .8-1.5 5.1.7 6.3 4 2.2 8-2.6 4.8-5.8-1.2-1.2-3.3-1.4-5.5-.5zm333.9.5c-3.2 3.2.8 8 4.8 5.8 3.4-1.8 1.9-7-2-7-.9 0-2.1.5-2.8 1.2zm-353.2 8.6c0 .4-1.8 2.7-4 5.2-3.9 4.3-4.3 6-1.4 6 1.1 0 1.4 2.4 1.4 13.4 0 12 .2 13.6 2.1 16 2.7 3.4 7.4 3.5 11.3.1 3.1-2.7 2.8-4.7-.4-2.7-2.5 1.5-2.5 1.5-4.4-.4-1.3-1.2-1.6-4-1.6-13.9v-12.4l3.3-.3c2-.2 3.2-.8 3.2-1.8s-1.2-1.6-3.2-1.8c-2.7-.3-3.3-.8-3.3-2.7 0-3-1-5.5-2.1-5.5-.5 0-.9.4-.9.8zm334 0c0 .6-1.7 2.9-3.8 5.1-3.7 3.9-6.2 5.2-6.2 3.1 0-1.9-6.6-1.1-8.5 1-2.3 2.5-3.1 2.5-3.8-.1-.4-1.6-1-1.9-2.9-1.4-6.8 2.1-9.6 4.8-5.8 5.8 1.9.5 2 1.3 2 12.5 0 10.6-.2 12.1-2 13.7-3.2 2.9-2.4 3.5 4.4 3.5 8.8 0 10.3-.7 7.1-3.2-2.4-1.9-2.5-2.4-2.5-12.6.1-13.5 1.9-16.5 8.2-13.1 1.6.9 2.4.7 4.3-1.1 1.4-1.3 3.1-2 3.9-1.7 1.3.5 1.6 2.8 1.6 14 0 12.7.1 13.5 2.3 15.5 3.1 2.9 7.5 2.8 11.1-.3 3.1-2.7 2.8-4.7-.4-2.7-2.5 1.5-4.6.7-5.4-2.1-.3-1.2-.6-7.2-.6-13.4v-11.2l3.3-.3c4.2-.4 4.3-3.1.2-3.8-2.5-.4-3.1-1.1-3.5-3.9-.4-3.1-3-5.8-3-3.3zm-531.3 7.8c-.4.4-.1 1.4.6 2.2.7 1 1.4 6.4 1.7 14.9.5 13.3.5 13.5 3.3 15.9 3.6 3.1 8.8 3.2 13 .2 1.7-1.2 3.2-1.8 3.4-1.2 1.1 3 1.9 3.3 5.6 2 4.9-1.6 5.3-2.2 3.4-4.4-1.3-1.4-1.7-4.5-1.9-15.7l-.3-14-5.2-.3c-2.9-.2-5.3-.1-5.3.2 0 .4.9 1.5 2 2.6 1.8 1.8 2 3.3 2 12.7 0 11.5-.3 12.3-3.7 14.2-2.9 1.5-4.5 1.4-6.9-.3-1.7-1.3-2-3.1-2.4-15.3l-.5-13.8-4-.3c-2.3-.2-4.4 0-4.8.4zm41.6.7c-3.5 1.2-4.3 3.1-1.8 4.1 1.2.4 1.5 2.9 1.5 13.4 0 10.3-.3 13.2-1.5 14.2-2.7 2.3-1.6 3 4.8 3 7.1 0 8.3-.5 6.2-2.7-1.2-1.1-1.5-4.2-1.5-13.1 0-6.4.4-12.2.8-12.8 1.4-2.1 6.9-3.6 9-2.5 2.4 1.3 3.2 5.1 3.2 15.7 0 8.2-1.3 13.4-3.4 13.4-.6 0-.4.5.4 1 1.6 1.1 12.3 1.4 13.3.4.3-.3-.3-1.6-1.4-2.7-1.8-1.9-1.9-3.4-1.7-13.7l.3-11.5 3.6-1.9c3.5-1.9 3.8-1.9 6.3-.3 2.6 1.7 2.6 1.9 2.6 14.1 0 9.7-.3 12.6-1.5 13.6-2.5 2-.7 3 5.5 3 6.6 0 7.9-.9 5-3.5-1.8-1.6-2-3.1-2-13.7 0-11.8-.7-14.8-4-17.5-2.7-2.2-9-1.5-13.2 1.3l-3.8 2.7-2.1-2.7c-2.7-3.4-8.7-3.6-13.2-.4l-3 2.2-1.5-2.2c-1.6-2.4-2.1-2.5-6.9-.9zm56.3.4c.4 1 1.1 7.4 1.4 14.3.7 15.9 2.7 19.9 9.7 20 3.5 0 8.3-1.8 8.3-3.2 0-.4.7-.8 1.5-.8s1.5.6 1.5 1.4c0 2.1 2 3 3.3 1.7.6-.6 2.1-1.1 3.3-1.1 3 0 4.1-2 2.1-3.5-1.4-1-1.7-3.3-1.7-14.7 0-9.1-.4-13.8-1.2-14.6-1.2-1.2-9.8-1.7-9.8-.6 0 .3.7 1.2 1.5 2 1.2 1.2 1.5 4.2 1.5 13.3 0 12.9-.3 13.6-5.7 14.7-5.5 1.1-6.3-1-6.3-15.5 0-8.5-.4-13.1-1.2-13.9-.7-.7-3-1.2-5.1-1.2-3.4 0-3.8.2-3.1 1.7zm64.7.2c-3.4 2.1-4.8 5-3.8 8.1 1.3 4.1 6.5 1.7 6.5-3 0-3.4 1.7-5 5.2-5 3.3 0 4.8 2.4 4.8 7.5 0 2.5-.5 3.7-1.7 4.1-5.1 1.7-11.1 4.9-13.5 7.2-2.2 2-2.8 3.5-2.8 6.7 0 7.9 6.9 10.8 14.6 6.3l3.7-2.2 1.5 2.2c1.6 2.5 5.7 2.9 8.5.8 2.3-1.8 2.2-3.6-.3-3.6-1.9 0-2-.7-2-9.8 0-11.6-1.2-16.4-4.7-19.2-3.4-2.7-11.6-2.7-16-.1zm12.7 19.8c0 6.9-.6 8.1-4.6 8.9-3.7.7-6.4-1.5-6.4-5.3 0-3 6.1-9.3 9.1-9.3 1.7 0 1.9.7 1.9 5.7zm42.5-20.5c-4.9 1.7-7.5 4.8-4.1 4.8 2.1 0 2.6 2.3 2.6 13.4 0 8.8-.3 10.7-2 12.8-1 1.4-1.6 2.8-1.3 3.2.8.8 12.8.8 13.6-.1.4-.3-.2-1.6-1.3-2.8-1.7-1.8-2-3.7-2.2-17-.2-8.8-.7-14.9-1.3-15.1-.5-.1-2.3.2-4 .8zm13.7-.5c5 10.1 9.3 19.4 11.8 25.8 1.7 4.4 3.6 8.4 4.1 8.9 1 1.1 3.8-2 3.9-4.2 0-.7.9-3.2 2-5.4 1.1-2.3 2-4.5 2-5 0-1.1 3.5-9.2 6.5-14.9 1.3-2.6 2.1-5 1.8-5.3-.4-.3-2.1-.6-3.9-.6-3.2 0-3.3.2-2.8 2.9.4 1.8-.2 5.1-1.5 8.8-2.5 6.6-5 12.3-5.6 12.3-.2 0-2-4.3-4.1-9.6-3.1-7.7-3.6-9.9-2.7-11.4.7-1 .9-2.1.6-2.4-.9-.9-12.5-.7-12.1.1zm43.7 1.6c-10.3 6.9-10.7 25.6-.6 31.7 6.4 3.9 16.1 1.6 20.4-4.9 3.3-4.9 3-7.2-.4-3.9-5.9 5.5-11.4 6.3-16 2.4-2.9-2.4-6-10.6-4.8-12.5.4-.7 5-1.1 11.6-1.1 10.4 0 10.9-.1 10.9-2.1 0-3.6-3.1-8.9-6.1-10.4-4.3-2.3-11-1.9-15 .8zm9.9 2.3c1.6 1.1 2.2 2.4 2 4.2-.3 2.6-.6 2.7-6.3 2.7-7 0-8.3-1.8-4.1-6 2.9-2.9 5.2-3.1 8.4-.9zm39.5-3c-3.8 1.6-5 3.2-2.9 4 1.4.5 1.6 3.5 1.6 21.9 0 20.5-.1 21.4-2 22-4.5 1.4-1.5 2.5 7 2.5 5.3 0 9-.4 9-1s-.8-1-1.8-1c-3.1 0-4.2-2.2-4.2-8.6 0-5.9 1.1-8.7 2.5-6.4.3.5 2.5 1 4.9 1 7.6 0 13.1-5.3 15.7-15.1 1.6-6-.2-12.8-4.6-17.5-2.7-2.8-4-3.4-7.4-3.4-2.3 0-5.6.7-7.3 1.6-2.8 1.5-3.2 1.5-4 0-1.1-1.9-2.2-1.9-6.5 0zm17.2 4.4c3.4 1.3 5.5 6.5 5.5 13.7 0 10.1-5.7 15.5-12.7 12.1l-2.8-1.3V1127c0-11.2.1-11.5 2.5-12.7 3-1.5 4.1-1.6 7.5-.3zm21.7-4.6c-4.8 1.8-5.8 3.2-3.3 4.5 2 1.1 2.1 2 2.1 13 0 10.5-.2 12-2 13.6-3.2 2.9-2.4 3.5 4.4 3.5 8.8 0 10.3-.7 7.1-3.2-2.4-1.8-2.5-2.5-2.5-11.8 0-11.7 1.1-15 5.1-15 1.5 0 3.1.4 3.4 1 1 1.6 2.9 1.2 4.3-1 1.7-2.8-.4-6-3.9-6-1.4 0-3.8.9-5.2 2-1.4 1.1-2.8 2-3.1 2-.3 0-.6-.9-.6-2 0-2.2-1-2.3-5.8-.6zm28.7.9c-5.3 3.5-8.2 9.9-7.6 16.9.6 7.2 3.2 11.6 8.3 14.5 12.4 7.1 26.7-3.3 25.1-18.3-.6-6.2-3.9-11.4-8.7-13.9-4.5-2.3-13-1.9-17.1.8zm13.4 3.1c5.9 5.8 7.1 16.7 2.9 23.9-3.1 5.1-9.9 4.8-13.2-.6-2.7-4.4-4.4-12.7-3.6-17.3.8-4.1 5.6-9.4 8.7-9.4 1 0 3.4 1.5 5.2 3.4zm21.2-4.1c-4.2 1.6-6.2 4.7-3 4.7 1.3 0 1.5 3 1.5 21 0 19.9-.1 21-2 22.2-3.6 2.3-2.2 2.8 7 2.8 5.3 0 9-.4 9-1s-.8-1-1.8-1c-3.2 0-4.2-2.2-4.2-9.2 0-6.2.9-8.4 2.5-5.8 1.1 1.8 8.4 1.1 11.8-1.2 6.7-4.3 9.7-12.6 8.2-22.3-.9-6.5-6-11.5-11.6-11.5-2.2 0-5.4.7-7.1 1.6-2.8 1.5-3.2 1.5-4 0-1-1.8-2-1.9-6.3-.3zm16.1 4.3c3.3.9 6.4 7.4 6.4 13.4 0 10.1-5.9 16.1-12.7 12.8l-2.8-1.3V1127c0-11.2.1-11.5 2.5-12.7 2.8-1.4 3.6-1.5 6.6-.7zm25.4-3.3c-5.2 3.4-7.4 8-7.4 15.1 0 14.7 12.8 23.1 24.9 16.3 4.8-2.7 9-10.2 9-16.2 0-5.9-3.7-12.7-8.4-15.3-5.4-3-13.6-3-18.1.1zm13.8 2.6c3.1 3.2 5.2 9.5 5.2 15.8 0 11.5-10.7 16.7-15.7 7.6-5-9-4.8-19.1.4-23.9 3.4-3.2 6.5-3 10.1.5zm69.7-3.7c-5.5 2-7 4.2-3.5 5.1 1.9.5 2 1.4 2 12.5 0 10.6-.2 12.1-2 13.7-2.9 2.6-1.6 3.5 5.5 3.5s8.4-.9 5.5-3.5c-1.8-1.7-2-3.1-2-17.2 0-16.5.2-16.1-5.5-14.1zm24.1 0c-6.6 3.8-9 8.2-8.9 16.8 0 5.2.5 7.3 2.4 10.2 4.8 7.4 14 9.8 21.9 5.8 7-3.6 10.6-12.5 8.6-21-1.4-5.6-3.1-8.1-7.6-10.9-3.9-2.3-13.1-2.9-16.4-.9zm11.9 3.5c7.4 7.6 7 25-.6 27.7-6.2 2.1-10.5-2-12.2-11.7-1.3-7.8-.3-13.2 3-16.3 3.4-3.1 6.6-3 9.8.3zm20.8-3.4c-3.7 1.2-4 1.9-1.8 3.7 2.1 1.8 2.2 24.6 0 27.6-2 2.9-1.1 3.4 5.6 3.4 6.5 0 7.8-.9 4.9-3.5-1.8-1.6-2-3.1-2-12.6 0-10.4.1-10.8 2.6-12.8 3.8-3 8.2-2.8 9.4.5 1.6 4 1.2 21-.5 24.3-.8 1.6-1.1 3.1-.8 3.5 1 .9 11.1.7 11.7-.3.3-.4-.1-1.7-.9-2.7-1.1-1.4-1.4-5.1-1.5-14.1 0-11.6-.1-12.3-2.6-15.2-3.1-3.8-8.1-4.2-13.2-1.1-4 2.5-4.2 2.5-4.2 0 0-2.2-1.5-2.4-6.7-.7zm61.7.9c-6.1 4.2-7.5 7.1-7.5 15.7 0 6.9.3 8.1 2.7 11.4 8.8 11.4 26 7.7 29.9-6.5 2.1-8.1-1-16.9-7.3-20.8-4.7-2.9-13.4-2.7-17.8.2zm13.4 3.3c2.8 2.8 3.6 4.5 4.1 8.9 1.5 11.5-1.5 18.6-7.6 18.6-5.8 0-10.9-8.7-10.9-18.6 0-6.1 4.7-12.4 9.2-12.4.9 0 3.3 1.6 5.2 3.5zM939 1183.1c-.8.5-2.5.9-3.6.9-1.2 0-2.7.6-3.3 1.4-1 1.2-.8 1.7.8 2.6 2 1 2.1 1.9 2.1 21.9 0 17.6-.2 21.1-1.5 22.1-2.2 1.8-.2 3 5.2 3 4.4 0 6.3-1.4 4.4-3.3-1.3-1.3-1.5-12.7-.2-12.7.5 0 2 1.5 3.2 3.2 1.3 1.8 3 4 3.8 4.8.7.8 2 2.9 2.8 4.8 1.3 3.2 1.5 3.3 6.5 3 5.7-.3 7.1-1.8 3.6-3.7-2.4-1.3-14.8-16.3-14.8-17.9 0-1.4 12.1-11.2 13.9-11.2.6 0 1.1-.5 1.1-1 0-.6-2.5-1-5.6-1-5 0-5.5.2-4.9 1.9.4 1.5-.6 3.1-4.1 6.5-2.7 2.5-5.2 4.2-5.6 4-.4-.3-.8-7-.8-14.9s-.4-14.6-.8-14.9c-.4-.2-1.4-.1-2.2.5zm221 .3c-.6.8-1 2.5-.8 3.8.2 1.8 1 2.4 3.5 2.6 3.9.4 5.5-2.8 2.7-5.9-2-2.3-3.7-2.4-5.4-.5zm-133.7.7c-4.1 1.2-4.9 2.5-2.3 3.9 1.7.9 2 2.1 2 6.9v5.9l-6.2-.5c-5.4-.4-6.8-.2-9.7 1.9-8.8 6-10.7 21.9-3.5 29.2 4.2 4.1 9.3 5.2 14.5 3.2 3.2-1.3 4.4-1.4 4.9-.5.8 1.2 4.1.8 9.3-1.3 3.2-1.2 3.6-2.8.7-2.8-1.1 0-2.1-.1-2.2-.3-.1-.1-.5-10.5-.8-23.2-.6-25.2-.3-24.3-6.7-22.4zm-2.9 20.5c2.5 2.5 2.6 3.2 2.6 13 0 9.5-.2 10.4-2.2 11.8-2.8 2-5.1 2-8.7.1-6.8-3.5-7.8-18.9-1.6-25.1 3.1-3.1 6.6-3 9.9.2zm40.6-20.9c-4.2.8-7 4.3-3.5 4.3 1.3 0 1.5 3 1.5 20.9 0 23.2.1 23.8 6.9 26 4.9 1.6 8.3 1.4 13.4-.8 5.3-2.3 8.9-6.8 10.6-13.2 1.1-3.8 1-5.4-.4-10.2-2.2-7.7-5.8-10.7-13-10.7-3.4 0-5.7.5-6.5 1.5-2.4 2.9-2.9 1.4-3.2-8.2-.3-10.5-.4-10.6-5.8-9.6zm15.8 21.9c5.8 1.6 8.3 16.1 4 22.8-2.5 3.8-5.8 5-10.4 3.7l-2.9-.7-.3-11.5c-.3-10.6-.1-11.5 1.9-13.2 2.3-1.8 4-2.1 7.7-1.1zm384-20.1c-4.5 3.1-10 3.3-14.6.5-8.3-5.1-18.7.9-22.1 12.7-1.3 4.7 0 9.5 3.4 12.3 3.1 2.6 10.1 1.8 13.7-1.6 3.6-3.4 7.8-12.2 7.8-16.4 0-2.9.1-3 5-3 2.8 0 5 .4 5 .8s-3.3 6.6-7.3 13.7c-4.1 7.2-8.5 15-9.9 17.5-1.4 2.5-3.5 6.2-4.7 8.3-2.6 4.6-2.6 5.7-.3 5.7 1.1 0 2.5-1.4 3.5-3.3 2.1-4 7.1-13.1 15.1-27.2 12.6-22.1 12.8-22.5 10.3-22.5-.7 0-2.9 1.1-4.9 2.5zm-16.9 3.1c2.1 1.5 2.3 2.2 1.7 6.6-1.2 8.5-7.7 15.9-12.7 14.3-5-1.6-2.3-15.1 4.3-20.8 2.5-2.1 3.7-2.1 6.7-.1zm-36.5 1.7c-7.1 7.5-10.4 15.7-10.4 25.4 0 6.6 2.7 15.5 6.4 20.8 2.9 4.2 10.7 11.5 12.3 11.5 1.9 0 1.7-.4-2.3-4.6-6.3-6.5-7.8-11.1-8.2-26.1-.5-15.7.9-21.3 6.9-27.8 4.2-4.6 4.6-5.5 2.5-5.5-.7 0-4 2.8-7.2 6.3zm78.6-5.9c0 .2 1.5 2.1 3.3 4.1 5.7 6.5 7.6 13.2 7.6 27.7.1 11.3-.2 13.3-2.3 18-1.3 2.9-4 7-6.1 9.1-2 2.1-3.4 4.1-3.2 4.4 1.1 1 9.7-5.9 12.5-10 8.7-12.6 9.4-28.4 2-40.6-3.1-5-10.8-13.1-12.4-13.1-.8 0-1.4.2-1.4.4zm-904.7 16.9c-3.5 1.2-4.3 3.1-1.8 4.1 1.3.4 1.5 3.8 1.5 21.5 0 19.8-.1 21.1-2 22.4-3 2.1-1.4 2.7 7.2 2.7 7.9 0 9.6-.7 5.6-2.5-2-.9-2.3-1.8-2.6-8.3-.2-5.8 0-7.2 1.2-7.2.8 0 1.8.4 2.1 1 1.6 2.5 10.4-.1 14.2-4.2 3.3-3.5 5.3-9.1 5.3-14.7 0-6.1-1.3-9.7-4.8-13.4-2.1-2.2-3.4-2.7-7.7-2.7-3.1 0-6 .6-7.4 1.6-2.2 1.6-2.4 1.6-3.3 0-1-1.8-2.7-1.8-7.5-.3zm18.8 4.7c4.6 2.5 6.4 14.5 3.1 21-2.5 5-6.2 6.6-10.7 4.4l-3.5-1.6v-10.7c0-5.8.4-11.1.8-11.7 1.5-2.4 7.1-3.1 10.3-1.4zm21.4-1.6c-10.6 11-5.1 31.3 8.6 31.6 5.6.1 12.1-4.3 15.6-10.6 1.9-3.6.4-3.5-3.5.2-8.2 7.8-18.2 3.8-19.4-7.6l-.3-3.5 11.3-.3 11.2-.3v-2.5c0-3.3-2.4-7.9-5.2-9.8-1.4-1-4.4-1.6-8.2-1.6-5.7 0-6.1.2-10.1 4.4zm10.8-1.3c2.8 1.3 5.3 5.7 3.9 7.1-.5.5-3.6.8-6.8.6-7-.4-8.1-2.3-3.8-6.3 3.1-2.8 3.4-2.9 6.7-1.4zm22-1.8c-4.4 1.7-5 2.5-2.7 4.1 1.7 1.3 1.9 2.7 1.9 13.6 0 9.2-.3 12.3-1.4 12.9-2.5 1.6-.1 3.1 4.7 3.1 5.8 0 8-1.1 5.7-3-1.2-1-1.5-3.6-1.5-12.6 0-10.9.1-11.4 2.4-12.9 1.9-1.3 2.9-1.4 4.5-.6 1.1.6 2.6 1.1 3.5 1.1 1.7 0 2.9-3 2-5.4-.9-2.3-6.9-2.1-9.4.4-1.1 1.1-2.2 2-2.4 2-.2 0-.6-.9-.9-2-.6-2.2-1.8-2.4-6.4-.7zm25.6 1.8c-1.6 1.8-2.9 4.2-2.9 5.7 0 3.6 4 8.3 10.2 12.1 7 4.3 8.5 6.4 6.3 9.7-3.3 5.1-10.2 3.5-13-3.2-2.1-5.1-3.7-4.3-3.3 1.7.3 5.1.3 5.2 3.8 5.5 1.9.1 4.9.6 6.7.9 4.5 1 10.9-2.7 12.3-7.1 1.6-4.8-.5-8-9.1-13.9-5.6-3.8-7.5-5.6-7.7-7.6-.4-3.3 1.8-5.1 6-4.7 2.6.2 3.6 1 4.8 3.5.8 1.8 1.8 3.3 2.2 3.3 1.4 0 2-4.8.8-6.9-.9-1.8-2-2.1-7.6-2.1-6.1 0-6.8.2-9.5 3.1zm32.2-.4c-3.5 2.8-7.1 9.8-7.1 14 0 12.3 11.5 22 21.7 18.4 4.5-1.6 8.8-5.4 10.9-9.6 2.2-4.2 2-13.4-.4-17.6-3.1-5.6-7.5-7.9-15.1-7.9-5.6 0-7.1.4-10 2.7zm13.7.9c3.9 2.7 5.6 7.3 5.6 15.4.1 8.7-1.7 12.5-6.5 13.5-6.5 1.5-11.9-6.6-11.9-17.7 0-5 .5-6.7 2.6-9.5 2.8-3.7 6.5-4.3 10.2-1.7zm20.5-2.3c-3.8 1.3-4.2 2.2-1.3 3 1.9.5 2 1.4 2 14 0 9.5-.4 13.7-1.2 13.9-2.5.9.6 2.8 4.5 2.8 4.6 0 7.6-1.3 5.8-2.4-.7-.5-1.1-5.1-1.1-13.1v-12.4l3-1.6c3.8-2 5.3-1.9 7.3.3 2.4 2.6 2.5 24.3.2 26.2-2.1 1.8-.2 3 4.7 3 5.4 0 7.2-.9 5.6-2.8-.9-1-1.5-6.2-1.8-15-.5-12.5-.7-13.5-2.9-15.3-2.8-2.3-9.7-2.5-12.5-.4-2.5 1.9-4.6 1.9-4.6 0 0-1.7-2.8-1.8-7.7-.2zm40.2 1.1c-5.7 5.7-4 11.1 5.5 17.4 8.8 5.9 10.4 10.7 4.5 13.4-3.4 1.5-6.9-.4-9.7-5.4-1.2-2.1-2.5-3.8-3-3.8-.4 0-.8 2.2-.8 5 0 4.8.1 5 2.7 5 1.5 0 4.2.5 6 1.2 2.6 1 4.1.9 7-.1 4.5-1.7 6.1-3.1 7.4-7 1.6-4.4-.7-7.8-9.2-13.6-5.6-3.8-7.5-5.6-7.7-7.6-.4-3.3 1.8-5.1 5.9-4.7 2.5.2 3.6 1 4.8 3.5 2.1 4.3 4.1 4.2 4.1 0 0-4.7-1.5-5.7-8.7-5.7-5.4 0-6.8.4-8.8 2.4zm47.8-1c-4.5 1.7-5 2.4-2.5 4.2 2 1.4 2.2 2.3 2.2 12.9 0 9-.3 11.7-1.6 12.9-2.4 2.5-.8 3.6 5.1 3.6 5.5 0 8-1.6 5.1-3.2-1.3-.7-1.6-2.7-1.6-11.7 0-9.5.2-11 2.1-13 1.4-1.4 2.7-2 3.8-1.5 5.5 2.3 7.8 1.3 6.7-3.2-.5-1.9-1.3-2.4-3.9-2.4-1.9 0-4.2.8-5.5 2-1.2 1.1-2.4 2-2.7 2-.3 0-.5-.9-.5-2 0-2.3-1.7-2.4-6.7-.6zm26.6 1.5c-3.2 3.3-3.7 6.2-1.3 8.2 1.9 1.6 4.8.1 5.2-2.7.9-6 1.2-6.4 4.6-6.4 1.8 0 3.9.6 4.5 1.4 1.6 2 1 8.7-.9 9.7-.8.4-3.7 1.7-6.5 2.9-5.4 2.4-9.4 6.4-9.6 9.5-.3 4.2.3 6.1 2.3 7.8 3.4 2.8 6.2 3 11.2.6l4.7-2.2 2.3 2.2c2.7 2.5 4.4 2.6 7.4.5 2.7-1.9 2.9-4.4.2-4.4-2.5 0-2.8-1.7-3.2-15.4-.4-13.4-1.4-14.6-11.5-14.6-5.8 0-6.7.3-9.4 2.9zm14.1 18.9c0 6.6-1.1 8.2-5.7 8.2-7.1 0-6.9-8.3.2-12.7 4.4-2.6 5.5-1.7 5.5 4.5zm20-21.1c-.8.3-2.6 1-4 1.5l-2.5 1 2.3.9c2.1.8 2.2 1.3 2.2 14.3 0 8.8-.4 13.7-1.1 14.2-1.8 1.1 1.2 2.4 5.8 2.4 3.9 0 7-1.9 4.5-2.8-.8-.2-1.2-4-1.2-12.2 0-12.8.6-14.4 5.6-15.6 1.7-.4 3.1 0 4.4 1.1 1.8 1.6 2 3.2 2 13.5 0 7.2-.4 12-1.1 12.7-1.8 1.8 0 3.3 4.1 3.3 5 0 7.3-.9 6.1-2.4-.5-.6-1.1-6.8-1.3-13.8-.3-11-.6-13-2.4-15.5-2.8-3.7-10-4.4-14.3-1.4-2.9 2.1-2.9 2.1-3.4.1s-2.6-2.4-5.7-1.3zm77.3 1.5c-10 7-9.5 26.8.8 32 4.5 2.3 8 2.2 13.2-.2 4-1.9 8.7-7.2 8.7-9.8 0-1.7-.4-1.5-4 1.8-6.8 6.4-15 4.4-18.3-4.5-1-2.6-1.6-5.4-1.3-6.2.4-1 3.3-1.3 11.6-1.3 10.4 0 11-.1 11-2 0-3.3-2.6-8.6-5.1-10.4-3.6-2.5-12.6-2.1-16.6.6zm9.2 1c2.7 1.2 4.4 5.3 2.8 6.9-.6.6-3.4.9-6.4.7-6.4-.4-7.5-2.4-3.3-6.3 3.1-2.9 3.4-2.9 6.9-1.3zm113.5-2.5c0 .5.9 1.9 2 3.3s2 2.8 2 3.1c0 .6 7.8 17.7 11.2 24.5.7 1.6.5 3.2-1.4 7-2.3 4.9-2.3 4.9-7.8 5.4-4.7.4-5.5.8-5.8 2.7-.2 1.4.5 2.7 2.2 3.9 2.2 1.4 3.1 1.5 5.7.4 3.5-1.5 7.1-5.9 9.5-11.6 2-4.7 7.3-18.9 8.4-22.5.9-3.1 3.6-9.3 5.6-13.1 2-3.7 1.9-3.8-2.5-3.8-3.9 0-4 0-3.5 3.2.6 3.5-4.3 18.9-6.1 19.4-.6.2-2.9-3.9-5.2-9.1-3.6-8.2-3.9-9.7-2.7-10.9 2.3-2.3 1.7-2.6-5.1-2.6-3.6 0-6.5.3-6.5.7zm62.3.6c-4.5 1.7-5 2.5-2.5 4.3 2.1 1.4 2.2 2.3 2.2 13.3 0 9.3-.3 12.1-1.5 13.1-2.3 1.9-.8 3 4 3 6.1 0 7.9-.8 6.3-2.8-.9-1-1.5-6.5-1.8-16.6-.5-16.5-.6-16.6-6.7-14.3zm19.2-.1c-4.1 1.5-4.2 1.6-1.7 3.4 2.1 1.4 2.2 2.3 2.2 13.8 0 7.6-.4 12.6-1.1 13.3-1.9 1.9 0 3.3 4.6 3.3s6.5-1.4 4.6-3.3c-.7-.7-1.1-5.3-1.1-11.9 0-10.5.1-11 2.6-13.3 3.3-3 5.7-3.2 8.4-.5 1.8 1.8 2 3.3 2 12.8 0 7.8-.4 11.3-1.5 12.8-1.9 2.8-1.1 3.4 4.6 3.4 4.9 0 6.8-1.2 5.1-3.3-.6-.7-1.2-6.9-1.3-13.9-.4-11.8-.6-12.8-2.8-15.2-3-3.1-8.7-3.5-13.3-.9-2.8 1.7-3 1.7-3.9 0-1.1-1.9-3-2-7.4-.5zm42.5 1c-9.2 6.2-10.7 22.4-2.8 29.4 2.8 2.4 7.2 4.4 9.9 4.4 3.5 0 9.6-3.8 11.9-7.5 2.6-4.3 1.9-5.7-1.3-2.7-1.3 1.2-3.7 2.6-5.4 3.2-8 2.8-16.3-8.3-13.5-17.9 1.6-5.1 5.7-9.1 9.4-9.1 2.5 0 3.2.6 4.5 3.9 1.6 4.1 3.9 5.5 6.7 3.9 2.4-1.3 2-3.6-1.3-6.9-2.6-2.6-3.7-2.9-8.9-2.9-4.5 0-6.7.5-9.2 2.2zm33.2.4c-9 7.1-9.5 21.2-1 29.1 3.6 3.4 10.9 5 15.5 3.4 7.9-2.8 12.3-9.5 12.3-18.5-.1-6.4-2.5-11.3-6.9-14.3-5.1-3.4-15.3-3.3-19.9.3zm13.3 1c4 2.6 6 8 6 15.9 0 8.2-2 12-6.7 13-2.2.5-3.7.2-5.7-1.2-3.9-3-5.5-7-5.9-15.4-.4-7-.2-7.7 2.3-10.7 3-3.6 6.2-4.1 10-1.6zm21.3-2.3c-4.1 1.2-4.8 2.2-2 3 2.4.6 3.2 4.5 3.2 15.6 0 5.4-.5 9.6-1.4 11.3-1.7 3.2-.8 3.8 5.4 3.8 3.9 0 5.9-1.3 4-2.5-.6-.4-1-5.7-1-13v-12.4l3-1.6c7.8-4 10-.9 10 14 0 6.8-.4 11.5-1.1 12.2-2 2 .1 3.3 5.1 3.3 5.3 0 6.8-1.1 4.5-3-1.2-1-1.5-3.8-1.5-12.5 0-11.1.1-11.4 2.7-13.5 3.6-2.8 8.3-2.4 10 1 1.9 3.7 1.7 21.9-.2 24.6-1.9 2.8-1.1 3.4 4.6 3.4 4.9 0 7.3-1.5 4.8-3.1-1-.6-1.5-4.3-1.9-14.3-.6-15.8-1.5-17.6-8.6-17.6-4.4 0-9.4 1.7-9.4 3.2 0 1.5-3 .8-5-1.2-2.7-2.7-9.4-2.7-13.8 0l-3.4 2.1-.5-2.1c-.6-2.2-1.8-2.3-7.5-.7zm62.5 1.3c-4.6 3.6-6.5 8.3-6.5 15.9 0 7 1.8 11.4 6.2 14.7 6.5 4.8 16.7 2.4 21.5-5.2 3.2-5 2.5-6.3-1.3-2.8-5.6 5.3-10.2 6.1-14.6 2.7-3.4-2.7-5.6-7-5.6-10.9v-3h22v-3.6c0-2.8-.8-4.4-3.4-7-3.1-3.1-3.9-3.4-9.2-3.4-4.8 0-6.5.5-9.1 2.6zm11.1 1.9c4.5 4.2 3.2 6-4.3 6-7.6 0-8.6-1.2-4.3-5.5 3.7-3.7 5.1-3.7 8.6-.5zm104 2.9c-6 3.3-11.4 11.1-11.4 16.5 0 4.7 3.3 10.1 6.2 10.2 6 .4 9.4-.4 12.1-2.9 4-3.8 5.8-7.9 6.4-14.4.5-5.1.3-5.9-2-8.2-2.8-2.8-7.5-3.3-11.3-1.2zm10.6 5.1c3.6 9.5-9.4 25-14.4 17.2-1.4-2-1.4-2.8 0-7.2.8-2.7 2.6-6.7 3.9-8.7 2.1-3.2 3.1-3.8 6-3.8s3.7.5 4.5 2.5z"/></svg>