<svg version="1.0" xmlns="http://www.w3.org/2000/svg" viewBox="0 0 2116 1280"><path d="M482 27.9c-1.7 3.4.4 6.3 4.3 5.9 2.9-.3 3.2-.6 3.2-3.8 0-3.2-.3-3.5-3.2-3.8-2.4-.2-3.4.2-4.3 1.7zm-77.7-.3c-2.7.6-3.1 2.4-.5 2.4 3.9 0 4.2 1.6 4.2 25.6v23.3l-2.9 1.7c-1.7 1-2.8 2.1-2.5 2.6.7 1 21.4 1.1 21.4 0 0-.4-1.4-1.6-3-2.6l-3.1-1.8.3-9.6.3-9.7 8.3-.7c9.5-.9 13.9-3.2 17.2-8.9 4.4-7.9.9-16.7-8-20.6-3.5-1.5-26.9-2.7-31.7-1.7zm22 4.1c2.3.3 5 1.8 6.8 3.5 2.4 2.5 2.9 3.8 2.9 7.9 0 3.9-.5 5.5-2.9 8.1-2.4 2.7-3.6 3.2-9 3.6l-6.1.4V43.8c0-6.3.3-11.8.7-12.1.8-.9 2.7-.9 7.6 0zM592 180.2c0 80.5-.4 146.8-.8 147.5-.5.8-4.3 1.3-10.7 1.5-9.2.3-10 .5-10 2.3 0 1.8.8 2 10.5 2.5l10.5.5.3 85.4c.1 62.2-.1 85.7-.9 86.7s-3.9 1.4-11 1.4c-9.2 0-9.9.1-9.9 2 0 1.8.8 2 10.8 2.2l10.7.3.3 88.4c.1 64.5-.1 88.7-.9 89.7s-3.9 1.4-11.1 1.4c-8.9 0-9.9.2-9.6 1.7.3 1.5 1.9 1.9 10.8 2.3l10.5.5.3 217.2.2 217.3 98.8.2 98.7.3.3 11.3c.2 10.4.4 11.2 2.2 11.2 1.9 0 2-.7 2-10.4 0-7.5.4-10.7 1.4-11.5 1-.8 27.2-1 97.2-.9l95.9.3.5 11c.4 9.4.7 11 2.3 11.3 1.5.3 1.7-.7 1.7-10.1 0-7.6.4-10.8 1.4-11.6 1-.8 27.2-1 97.2-.9l95.9.3.3 11.2c.2 10.4.4 11.3 2.2 11.3 1.8 0 2-.9 2.2-11.3l.3-11.2 95-.3c52.3-.1 96 0 97.2.3 2.1.5 2.2 1.1 2.5 11.3.2 8.7.6 10.7 1.8 10.7 1.2 0 1.6-2.1 2-11l.5-11h194l.3 11.2c.2 10.4.4 11.3 2.2 11.3 1.8 0 2-.9 2.2-11.3l.3-11.2 110.8-.3c109.9-.2 110.7-.2 110.7-2.2s-.7-2-110.5-2c-97.4 0-110.6-.2-111.1-1.5-.8-1.9-4-1.9-4.8 0-.5 1.3-23.7 1.5-197.1 1.5H1192v-2.4c0-1.4-.4-2.7-.8-3-1-.6-3.4.8-3.1 2 .6 3.5 2 3.4-97.3 3.2l-97.3-.3-.3-2.3c-.4-3-3-2.8-4.2.3l-.9 2.5H596V874.4l2.8-2.4c1.5-1.3 5.2-4.6 8.2-7.4 3.1-2.8 7.6-6.9 10-9 2.5-2.2 7-6.2 10-9 5.7-5.2 7.8-7.1 26-23.6 5.8-5.2 10.7-9.7 11-10 .3-.3 4.8-4.3 10-9s12-10.8 15-13.6c3-2.8 8-7.3 11-10s8-7.2 11-10 7.5-6.9 10-9c2.5-2.1 7-6.2 10-9s8-7.3 11-10 5.7-5.1 6-5.4c.3-.3 5.2-4.8 11-10s10.7-9.7 11-10c.4-.4 9.5-8.6 21.4-19.3 1.1-.9 3-1.7 4.3-1.7 1.8 0 2.3-.6 2.3-2.4 0-1.5 1.1-3.3 2.8-4.6 1.5-1.2 7-6.1 12.2-10.9 5.2-4.8 11.5-10.5 14-12.7 2.5-2.1 7-6.2 10-9s8-7.3 11-10 5.7-5.1 6-5.4c.3-.3 5.2-4.8 11-10s10.7-9.7 11-10c.3-.3 4.8-4.3 10-9s12-10.8 15-13.6c3-2.8 8-7.3 11-10s8-7.2 11-10 7.5-6.9 10-9c2.5-2.1 7-6.2 10-9s8-7.3 11-10 5.7-5.1 6-5.4c.3-.3 5.2-4.8 11-10s11.8-10.7 13.5-12.3c2.4-2.1 3.6-2.6 5.9-2.1 2.7.6 2.8.4 2.3-1.7-.7-2.6-.1-3.2 20.4-21.9 5.7-5.2 12.9-11.8 15.9-14.6 3-2.8 7.5-6.9 10-9 2.5-2.1 7-6.2 10-9s8-7.3 11-10 5.7-5.1 6-5.4c.3-.3 5.2-4.8 11-10s10.7-9.7 11-10c.3-.3 4.8-4.3 10-9s10.2-9.2 11-10c.8-.8 5.8-5.3 11-10s12-10.8 15-13.6c3-2.8 7.5-6.9 10-9 2.5-2.1 4.7-4.1 5-4.4 2-2 30.3-27.6 35.1-31.8 3.7-3.2 5.9-4 5.9-2.2 0 .5-.7 1-1.6 1-.9 0-1.4.7-1.2 1.7.4 2.3 3.8 3 3.8.9 0-.9.3-1.6.8-1.6.7 0 8.8 6.7 16.2 13.4 1.9 1.7 18.1 15.9 36 31.6 17.9 15.6 32.7 28.6 33 29 .3.3 2.1 1.8 4 3.4 1.9 1.5 5.5 4.7 8 7 2.5 2.2 7.9 7 12 10.6 4.1 3.6 7.7 6.7 8 7 .3.3 3.9 3.4 8 7s7.7 6.7 8 7c.3.3 3.9 3.4 8 7s9.1 7.9 11 9.6c1.9 1.8 11.6 10.3 21.5 18.9 9.9 8.6 18.4 16.5 18.9 17.4.5.9 1.5 1.9 2.2 2.4.7.4 1 1.5.7 2.3-.5 1.3-.1 1.5 1.5 1 2.2-.7 6.3 2.5 37.2 29.9 6.9 6 13.8 12.1 15.4 13.5 1.6 1.4 7.3 6.3 12.6 11s12.7 11.2 16.5 14.5c7.8 6.7 15.7 13.7 16.5 14.5.3.3 3.9 3.4 8 7s7.7 6.7 8 7c.3.3 3.9 3.4 8 7s7.7 6.7 8 7c.3.3 6.1 5.4 13 11.4 12.8 11.2 13.8 12.1 27.5 24.2 4.4 3.9 9.4 8.2 11 9.6 4.5 3.8 22.4 19.6 27 23.7 2.2 2 7.4 6.5 11.5 10.1 4.1 3.6 7.7 6.7 8 7 .3.3 3.9 3.4 8 7 4.1 3.5 7.7 6.7 8 7 .3.3 3.9 3.4 8 7s7.7 6.7 8 7c.3.3 22.3 19.6 49 43 26.7 23.3 48.7 42.6 49 43 .3.3 7.1 6.3 15.1 13.2 8.1 7 15.3 13.3 16 14 .8.7 3.2 2.8 5.4 4.7 2.2 1.9 7.2 6.2 11 9.6 36.2 32.2 41.5 36.3 41.5 32.2 0-.8-1.2-2.5-2.8-3.8-17.3-15.2-68.4-59.9-70.6-61.9-1.6-1.4-7.3-6.3-12.6-11s-12.7-11.2-16.5-14.5c-8.3-7.2-15.8-13.8-16.5-14.5-.3-.3-6.1-5.4-13-11.4s-14.1-12.3-16-14c-3.5-3.1-65.9-57.8-71.4-62.6-3.3-2.8-21.2-18.6-26.6-23.4-1.9-1.7-9.1-8-16-14s-14.1-12.3-16-14c-1.9-1.7-6.9-6-11-9.6-4.1-3.6-9.1-7.9-11-9.6-3-2.7-24.1-21.2-45.5-39.9-3.3-2.9-17.9-15.7-32.5-28.5-14.6-12.8-29.4-25.8-33-28.9-7.8-6.8-15.3-13.4-16-14.1-.3-.3-3.9-3.4-8-7s-7.7-6.7-8-7c-.3-.3-9.7-8.6-21-18.4-11.3-9.8-22.1-19.3-24-21-1.9-1.7-18.1-15.9-36-31.6-17.9-15.6-32.7-28.7-33-29-.3-.3-3.9-3.4-8-7-4.1-3.5-7.7-6.7-8-7-.3-.3-3.9-3.4-8-7s-8-7-8.6-7.5c-.6-.6-11.1-9.8-23.4-20.5-29.2-25.5-31.1-27.3-30.3-28.5.5-.6 5.1-4.8 10.3-9.5 5.2-4.7 10.2-9.2 11-10 .8-.8 5.8-5.3 11-10s12-10.8 15-13.6c3-2.8 7.5-6.9 10-9 2.5-2.1 7-6.2 10-9s8-7.3 11-10 5.7-5.1 6-5.4c.3-.3 5.2-4.8 11-10s10.7-9.7 11-10c.3-.3 4.8-4.3 10-9s10.2-9.2 11-10c.8-.8 5.8-5.3 11-10s12-10.8 15-13.6c3-2.8 7.5-6.9 10-9 2.5-2.1 7-6.2 10-9s8-7.3 11-10 5.7-5.1 6-5.4c.3-.3 5.2-4.8 11-10s10.7-9.7 11-10c.3-.3 2.8-2.5 5.5-5 2.8-2.5 9.5-8.6 15-13.6s11.7-10.6 13.8-12.4c4-3.4 4.8-6 2-6-1.5 0-7.5 5.2-36.8 31.9-2.2 2-8.7 7.9-14.5 13.1-5.8 5.2-10.7 9.7-11 10-.3.3-4.8 4.3-10 9s-11.7 10.6-14.5 13.1c-2.7 2.5-15.3 14-28 25.4-12.6 11.4-25 22.6-27.5 24.9-2.5 2.2-9.2 8.4-15 13.6-5.8 5.2-10.7 9.7-11 10-.3.3-4.8 4.3-10 9s-10 8.9-10.6 9.5c-34.1 31.5-62.1 56-63.9 56-2.3 0-6.5-3.3-22-17-4.9-4.4-12.6-11.1-17-14.9-4.4-3.8-10-8.7-12.5-11-3.9-3.5-9.2-8.2-22.5-19.7-1.6-1.4-9.1-8-16.5-14.5s-16.9-14.8-21-18.4c-4.1-3.6-7.7-6.7-8-7-.3-.3-3.9-3.4-8-7s-7.7-6.7-8-7c-.3-.3-15.1-13.4-33-29-17.9-15.7-33.8-29.6-35.5-31.1-1.6-1.4-7.5-6.6-13-11.4-5.5-4.8-11.6-10.2-13.5-11.9-1.9-1.7-6.9-6-11-9.6-8.1-7.1-11.5-10-20.3-17.9-5.6-5-8-6.1-9.2-4.1-.8 1.3-6.5-3.9 50.5 46 9.1 7.9 16.7 14.7 17 15 .3.3 3.9 3.4 8 7 4.1 3.5 7.7 6.7 8 7 .3.3 3.9 3.4 8 7 4.1 3.5 7.7 6.7 8 7 .3.3 3.9 3.4 8 7s7.7 6.7 8 7c.4.5 59.5 52.2 68.4 60 1.6 1.4 7.3 6.3 12.6 11 5.2 4.7 12.4 11 16 14 5.8 5 21.5 18.8 30 26.4 1.9 1.7 8.1 7.1 13.8 12.1 5.6 4.9 10.2 9.5 10.2 10.1 0 .7-1.7 2.6-3.7 4.4-2.1 1.8-6 5.3-8.8 7.9-2.7 2.5-9.3 8.4-14.5 13.1-5.2 4.7-11.7 10.6-14.5 13.1-2.7 2.5-15.3 14-28 25.4-12.6 11.4-25.2 22.8-28 25.3-2.7 2.5-7.5 6.9-10.5 9.6-9.1 8.3-15 13.6-25 22.6-5.2 4.7-11.7 10.6-14.5 13.1-12.1 11.1-38.3 34.7-41.3 37.2-1.9 1.5-3.8 2.5-4.3 2.1-.5-.3-1.3.6-1.9 2-.7 2.1-4.1 5.6-11.4 12.1-.7.5-3.9 3.5-7.2 6.5-8.5 7.8-14.6 13.3-25.4 23-5.2 4.7-11.7 10.6-14.5 13.1-2.7 2.5-15.3 14-28 25.4-12.6 11.4-27.3 24.7-32.5 29.5-5.2 4.7-11.5 10.4-14 12.6-2.5 2.1-5.2 4.6-6 5.4-.8.8-5.8 5.3-11 10s-12 10.8-15 13.6c-3 2.8-8 7.3-11 10s-5.7 5.1-6 5.4c-6.9 6.9-19.4 17.2-19.7 16.2-.7-2-4.3-1.4-4.3.7 0 1.1.5 2.1 1.1 2.3.6.2-3.3 4.4-8.7 9.3-5.5 5-12.4 11.3-15.4 14.1-3 2.8-7.5 6.9-10 9-2.5 2.1-5.2 4.6-6 5.4-.8.8-5.8 5.3-11 10s-9.7 8.7-10 9c-1.1 1.1-13.1 12-22 20-11.9 10.8-30.7 27.8-43 39-5.2 4.7-11.5 10.4-14 12.6-2.5 2.1-5.2 4.6-6 5.4-.8.8-5.8 5.3-11 10s-12 10.8-15 13.6c-12.9 11.9-15.7 14.4-16.4 14.4-.3 0-.6-38.5-.6-85.5 0-66.6.3-86 1.3-87.6 1-1.7 1-2.3 0-2.6-1.8-.7-1.9-179.3-.1-181.1.9-.9.9-1.5 0-2.4-1.7-1.7-1.7-172.9-.1-176.1.9-1.6.9-2.2 0-2.5-.8-.3-1.1-37.8-1.1-146.7 0-80.5-.3-147-.6-147.9-.3-.9-1.2-1.6-2-1.6-1.2 0-1.4 21.9-1.4 146.2zM464.9 47c-3.8 3-4.9 3-4.9-.2 0-2.2 0-2.2-6.7-.1-5 1.6-7 3.3-3.8 3.3 2.7 0 3.5 3.8 3.5 16 0 11.4-.1 12.2-2.4 14.5-1.3 1.3-2.1 2.6-1.8 2.9.7.8 17.2.8 17.2.1 0-.3-1.2-1.7-2.7-3-2.6-2.2-2.8-2.9-3.1-12-.4-10 .5-14 3.8-17 1.6-1.4 2-1.4 4.8.2 2.9 1.7 3.1 1.7 5.1-.1 2.6-2.4 2.6-2.7.1-5.4-2.8-2.9-4.9-2.8-9.1.8zm48.1-1.7c-14.2 4.5-17.5 28-5 36.4 4.5 3.1 12 3.1 16.3.1 4.4-3.1 7.6-7 7.7-9.1 0-2.3-.9-2.1-3.2.8-1 1.3-3.6 3-5.8 3.6-3.2 1-4.4.9-7.6-.7-5.2-2.6-7.7-7.2-7.7-14.3 0-9.2 3.4-14.1 9.8-14.1 4 0 4.4.2 5.8 3.9 1.8 4.3 3.9 5.6 6.8 4.1 4.4-2.4 1-8.5-6-10.9-4-1.3-6.4-1.3-11.1.2zm35.3.7c-2.9 1.3-5.2 3.4-7.3 6.6-2.6 4.2-3 5.7-3 12 0 13.2 5.1 19.4 15.7 19.4 6.6 0 12.7-3.7 15.8-9.7 2.2-4.2.7-4.6-3-.8-4.5 4.5-9.6 5.5-14.4 2.9-3.9-2.1-7.2-7.8-7.5-12.7l-.1-3.2 12.8-.3c12.4-.3 12.7-.3 12.7-2.5 0-3.7-4.3-10.1-8-11.9-4.6-2.2-8.5-2.2-13.7.2zm9.7 4c1.1 1.1 2 3.1 2 4.5 0 2.4-.2 2.5-7.6 2.5h-7.6l.7-2.8c.3-1.5 1.4-3.5 2.2-4.5 2.2-2.3 7.8-2.2 10.3.3zm-73.5-4c-1.1.4-3.3 1.4-5 2l-3 1.3 2.5.6 2.5.7.3 14.7c.2 13.8.1 14.7-1.8 15.9-3.5 2.2-2.2 2.8 6.5 2.8 4.7 0 8.5-.2 8.5-.5 0-.2-1.1-1.5-2.5-2.9-2.5-2.5-2.5-2.7-2.5-19.1 0-17.9 0-17.8-5.5-15.5zm995 23.8c-6.5.9-11.5 6.9-11.5 13.9 0 4.7 1.8 7.7 10.4 17.2 3.6 4.1 6.9 8.4 7.2 9.7 1.9 7.5-5.7 14.8-13.3 13-3.6-1-8.3-6.2-8.3-9.5 0-1.4-.4-3.2-.9-3.9-1.3-2.2-2.8.7-3.5 7.1-.3 3.2-.7 6.3-.9 7-.1.7.6 1.1 1.8.9 3.5-.6 4.9-.4 10.5 1.2 9.3 2.6 17-.7 20.9-8.9 3.9-8.4 2.3-13.1-8.4-24.6-6.4-6.8-7.5-8.5-7.5-11.5 0-2.4.8-4.3 2.6-6.1 2.2-2.2 3.2-2.5 7.1-2 5.5.6 8.2 3.5 8.3 8.5 0 2.6.4 3.3 1.7 3 1.1-.2 2-2.2 2.9-6.3.7-3.3 1.3-6.5 1.3-7 .1-.7-2.6-1.1-6.7-1.1-3.7-.1-7.6-.3-8.7-.6-1.1-.3-3.3-.3-5 0zm-995.1 55.6c-.4 1.6-1.7 2.7-4.4 3.5-2.2.6-5.3 2.5-6.9 4.2-2.5 2.5-3.1 3.9-3.1 7.5 0 6.8 1.3 8.8 9.3 14.2l4.7 3.3v11.3c0 6.2-.3 11.5-.6 11.9-.7.7-5.2-1.1-7.6-3.1-.9-.8-2.4-3-3.3-4.9-2.1-4.5-3.7-3.1-3.3 2.8.3 3.9.7 4.6 3.8 6.1 1.9.9 5.2 1.7 7.3 1.8 3.2 0 3.7.3 3.7 2.4 0 6.2 3.7 7.9 4.2 2 .3-3.3.7-3.7 4.8-5.1 2.7-.8 5.8-2.9 7.8-5 2.7-3.1 3.2-4.4 3.2-8.5 0-7.4-1.7-9.8-11.1-15.9l-4.9-3.1v-9.3c0-5.2.4-9.6.8-9.9 1.8-1.1 7.7 3 9.6 6.6 2.3 4.5 3.6 4.1 3.6-1.1 0-4.7-1.9-6.4-8.7-8.2-4.5-1.1-5.3-1.6-5.3-3.6 0-3.1-2.8-3-3.6.1zM484 140c0 4.4-.4 8-.8 8-1.8 0-6.4-6-6.4-8.4 0-3.5 2.8-7.6 5.2-7.6 1.8 0 2 .7 2 8zm9.2 23.9c2.8 2.5 3.3 3.6 3.3 7.6 0 3.9-.5 5.1-2.8 7.1-5.1 4.4-5.7 3.5-5.7-7.6 0-5.9.4-10 1-10 .5 0 2.4 1.3 4.2 2.9zm-36.7-32.7c-5.4 4.5-8 7.6-10.3 12.3-3.8 7.8-4.5 10.8-4.5 19.5s.6 11.6 4.5 19.7c2.4 4.8 12.2 15.3 14.3 15.3 2.1 0 1.9-.6-1.6-4.3-7.2-7.4-10.6-21.2-9.2-38.2.7-9.4 3.5-16.5 8.7-22.2 5.6-6.3 4.6-7.3-1.9-2.1zm54.5-2.6c0 .3 1.9 2.8 4.3 5.4 5.7 6.4 7.8 12.8 8.5 26.4.7 16.4-2 25.7-9.7 33-5.9 5.6-2.7 6.5 3.7 1 14.1-12 18.2-32.5 9.9-49.4-3.7-7.4-16.7-20.2-16.7-16.4zm-26.7 176.7c-6.2 3.2-8.3 5.4-4 4.4 4.9-1.3 5.2-.2 5.5 20 .4 20.6-.4 25.6-4.1 26.7-2.1.7-2.1.7-.2 1.6 2.3 1 10 1.2 13.3.4 2.4-.7 3-2.4.8-2.4-2.3 0-2.6-3.4-2.6-29.3 0-19.1-.3-24.7-1.2-24.7-.7.1-4.1 1.5-7.5 3.3zm37.6-1c-2 1.3-4.6 4.7-6.4 8.1-2.6 5.2-3 7.1-3.3 16.1-.6 16 3.4 25.7 12.5 30.4 3.2 1.6 10.4 1.2 13.8-.8 10-5.8 14.4-25.3 9.4-41.1-2.2-6.9-3.6-9.1-8.3-12.8-4.1-3.1-13-3.1-17.7.1zm12.9 1.7c3.5 3.3 4.9 6.9 6.2 16.2.9 7 .9 10.6 0 17.5-1.3 9.4-2.1 11.5-5.3 15-3.5 3.9-9.5 2.6-12.1-2.5-3.2-6.4-4.4-22-2.6-32.8 1.4-7.9 2.8-11.1 5.8-13.4 3.2-2.5 5.3-2.5 8 0z"/><path d="M604.2 331.7c.2 1 1 1.8 1.8 1.8s1.6-.8 1.8-1.8c.2-1.2-.3-1.7-1.8-1.7s-2 .5-1.8 1.7zm9.8-.3c0 1.5 2.4 2.8 3.4 1.9 1.3-1.4.5-3.3-1.4-3.3-1.1 0-2 .6-2 1.4zm11.2.3c.2 1 1 1.8 1.8 1.8s1.6-.8 1.8-1.8c.2-1.2-.3-1.7-1.8-1.7s-2 .5-1.8 1.7zm10.8-.4c0 1.9 1 2.7 2.6 2 2.1-.8 1.7-3.3-.6-3.3-1.1 0-2 .6-2 1.3zm10.2.4c.2 1 1 1.8 1.8 1.8s1.6-.8 1.8-1.8c.2-1.2-.3-1.7-1.8-1.7s-2 .5-1.8 1.7zm10.8-.3c0 2.1 2.1 3.1 3.1 1.5 1.4-2.2 1.1-2.9-1.1-2.9-1.1 0-2 .6-2 1.4zm11-.1c0 2.1 1.2 2.8 2.7 1.6 1.9-1.6 1.6-2.9-.7-2.9-1.1 0-2 .6-2 1.3zm10.2.4c.2 1 1 1.8 1.8 1.8s1.6-.8 1.8-1.8c.2-1.2-.3-1.7-1.8-1.7s-2 .5-1.8 1.7zm9.8-.8c0 .5.7 1.4 1.6 2.2 1.3 1 1.7 1 2.4-.1.5-.8.6-1.8.4-2.2-.7-1.1-4.4-1-4.4.1zm11.6-.1c-.8 1.3 1.1 3.5 2.3 2.8 1.6-1 1.4-3.6-.3-3.6-.8 0-1.7.4-2 .8zm10.6.9c.2 1 1 1.8 1.8 1.8s1.6-.8 1.8-1.8c.2-1.2-.3-1.7-1.8-1.7s-2 .5-1.8 1.7zm10 0c.2 1 1 1.8 1.8 1.8s1.6-.8 1.8-1.8c.2-1.2-.3-1.7-1.8-1.7s-2 .5-1.8 1.7zm11 0c.2 1 1 1.8 1.8 1.8s1.6-.8 1.8-1.8c.2-1.2-.3-1.7-1.8-1.7s-2 .5-1.8 1.7zm10.8-.4c0 2.1 1.2 2.8 2.7 1.6 1.9-1.6 1.6-2.9-.7-2.9-1.1 0-2 .6-2 1.3zm10.2.4c.2 1 1 1.8 1.8 1.8s1.6-.8 1.8-1.8c.2-1.2-.3-1.7-1.8-1.7s-2 .5-1.8 1.7zm10.4-.8c-.3.5.1 1.5 1 2.2 1.3 1 1.7 1 2.4-.1.5-.8.6-1.8.4-2.2-.7-1.1-3.1-1-3.8.1zM774 332c0 1.1.4 2 .9 2 1.3 0 3.2-2.6 2.4-3.3-1.3-1.4-3.3-.6-3.3 1.3zm10.2-.3c.2 1 1 1.8 1.8 1.8s1.6-.8 1.8-1.8c.2-1.2-.3-1.7-1.8-1.7s-2 .5-1.8 1.7zm9.8-.3c0 1.5 2.4 2.8 3.4 1.9 1.3-1.4.5-3.3-1.4-3.3-1.1 0-2 .6-2 1.4zm11.2.3c.2 1 1 1.8 1.8 1.8s1.6-.8 1.8-1.8c.2-1.2-.3-1.7-1.8-1.7s-2 .5-1.8 1.7zm10.8-.4c0 1.9 1 2.7 2.6 2 2.1-.8 1.7-3.3-.6-3.3-1.1 0-2 .6-2 1.3zm10.2.4c.2 1 1 1.8 1.8 1.8s1.6-.8 1.8-1.8c.2-1.2-.3-1.7-1.8-1.7s-2 .5-1.8 1.7zm11 0c.2 1 1 1.8 1.8 1.8s1.6-.8 1.8-1.8c.2-1.2-.3-1.7-1.8-1.7s-2 .5-1.8 1.7zm10.8-.3c0 .8.4 1.7.9 2 1.1.7 3.3-1.8 2.4-2.7-1.2-1.2-3.3-.7-3.3.7zm10.2.3c.2 1 1 1.8 1.8 1.8s1.6-.8 1.8-1.8c.2-1.2-.3-1.7-1.8-1.7s-2 .5-1.8 1.7zm9.8-.8c0 .5.7 1.4 1.6 2.2 1.3 1 1.7 1 2.4-.1.5-.8.6-1.8.4-2.2-.7-1.1-4.4-1-4.4.1zm11.6-.1c-.8 1.3 1.1 3.5 2.3 2.8 1.6-1 1.4-3.6-.3-3.6-.8 0-1.7.4-2 .8zm10.6.9c.2 1 1 1.8 1.8 1.8s1.6-.8 1.8-1.8c.2-1.2-.3-1.7-1.8-1.7s-2 .5-1.8 1.7zm10 0c.2 1 1 1.8 1.8 1.8s1.6-.8 1.8-1.8c.2-1.2-.3-1.7-1.8-1.7s-2 .5-1.8 1.7zm11 0c.2 1 1 1.8 1.8 1.8s1.6-.8 1.8-1.8c.2-1.2-.3-1.7-1.8-1.7s-2 .5-1.8 1.7zm10.8-.4c0 2.1 1.2 2.8 2.7 1.6 1.9-1.6 1.6-2.9-.7-2.9-1.1 0-2 .6-2 1.3zm10.2.4c.2 1 1 1.8 1.8 1.8s1.6-.8 1.8-1.8c.2-1.2-.3-1.7-1.8-1.7s-2 .5-1.8 1.7zm10.4-.8c-.3.5.1 1.5 1 2.2 1.3 1 1.7 1 2.4-.1.5-.8.6-1.8.4-2.2-.7-1.1-3.1-1-3.8.1zm11.4 1.2c0 2.4 2.3 2.1 2.8-.4.2-1-.3-1.7-1.2-1.7-1 0-1.6.9-1.6 2.1zm10.2-.4c.2 1 1 1.8 1.8 1.8s1.6-.8 1.8-1.8c.2-1.2-.3-1.7-1.8-1.7s-2 .5-1.8 1.7zm10 0c.2 1 1 1.8 1.8 1.8s1.6-.8 1.8-1.8c.2-1.2-.3-1.7-1.8-1.7s-2 .5-1.8 1.7zm11 0c.2 1 1 1.8 1.8 1.8s1.6-.8 1.8-1.8c.2-1.2-.3-1.7-1.8-1.7s-2 .5-1.8 1.7zm10.8-.4c0 1.9 1 2.7 2.6 2 2.1-.8 1.7-3.3-.6-3.3-1.1 0-2 .6-2 1.3zm10.2.4c.2 1 1 1.8 1.8 1.8s1.6-.8 1.8-1.8c.2-1.2-.3-1.7-1.8-1.7s-2 .5-1.8 1.7zm10.8-.3c0 2.1 2.1 3.1 3.1 1.5 1.4-2.2 1.1-2.9-1.1-2.9-1.1 0-2 .6-2 1.4zm11 0c0 .8.4 1.7.9 2 1.1.7 3.3-1.8 2.4-2.7-1.2-1.2-3.3-.7-3.3.7zm10.2.3c.2 1 1 1.8 1.8 1.8s1.6-.8 1.8-1.8c.2-1.2-.3-1.7-1.8-1.7s-2 .5-1.8 1.7zm9.8-.8c0 .5.6 1.4 1.4 2 1 .8 1.6.8 2.5-.2.6-.8.8-1.7.4-2-.9-1-4.3-.8-4.3.2zm11.6-.1c-.8 1.3 1.1 3.5 2.3 2.8 1.6-1 1.4-3.6-.3-3.6-.8 0-1.7.4-2 .8zm10.6.9c.2 1 1 1.8 1.8 1.8s1.6-.8 1.8-1.8c.2-1.2-.3-1.7-1.8-1.7s-2 .5-1.8 1.7zm10 0c.2 1 1 1.8 1.8 1.8s1.6-.8 1.8-1.8c.2-1.2-.3-1.7-1.8-1.7s-2 .5-1.8 1.7zm11 0c.2 1 1 1.8 1.8 1.8s1.6-.8 1.8-1.8c.2-1.2-.3-1.7-1.8-1.7s-2 .5-1.8 1.7zm10.8-.4c0 2.1 1.2 2.8 2.7 1.6 1.9-1.6 1.6-2.9-.7-2.9-1.1 0-2 .6-2 1.3zm10.2.4c.2 1 1 1.8 1.8 1.8s1.6-.8 1.8-1.8c.2-1.2-.3-1.7-1.8-1.7s-2 .5-1.8 1.7zm10.4-.8c-.3.5.1 1.5 1 2.2 1.3 1 1.7 1 2.4-.1.5-.8.6-1.8.4-2.2-.7-1.1-3.1-1-3.8.1zm11.4 1.2c0 2.4 2.3 2.1 2.8-.4.2-1-.3-1.7-1.2-1.7-1 0-1.6.9-1.6 2.1zm10.2-.4c.2 1 1 1.8 1.8 1.8s1.6-.8 1.8-1.8c.2-1.2-.3-1.7-1.8-1.7s-2 .5-1.8 1.7zm10 0c.2 1 1 1.8 1.8 1.8s1.6-.8 1.8-1.8c.2-1.2-.3-1.7-1.8-1.7s-2 .5-1.8 1.7zm11 0c.2 1 1 1.8 1.8 1.8s1.6-.8 1.8-1.8c.2-1.2-.3-1.7-1.8-1.7s-2 .5-1.8 1.7zm10.8-.4c0 1.9 1 2.7 2.6 2 2.1-.8 1.7-3.3-.6-3.3-1.1 0-2 .6-2 1.3zm12.7 19.4c-1.4 1.3-.6 3.3 1.3 3.3 1.3 0 2-.7 2-2 0-1.9-2-2.7-3.3-1.3zm0 9.9c-1.4 1.5-.6 3.4 1.4 3.4 1.4 0 1.9-.5 1.7-1.7-.3-1.8-2-2.7-3.1-1.7zm-.2 11.3c-.8 1.5.3 3.1 2.1 3.1.9 0 1.4-.7 1.2-1.7-.4-2-2.4-2.8-3.3-1.4zm-.3 11.8c.2 1 1 1.8 1.8 1.8s1.6-.8 1.8-1.8c.2-1.2-.3-1.7-1.8-1.7s-2 .5-1.8 1.7zm-.2 10.3c0 1.3.7 2 2 2s2-.7 2-2-.7-2-2-2-2 .7-2 2zm.7 8.7c-1.4 1.3-.6 3.3 1.3 3.3 1.3 0 2-.7 2-2 0-1.9-2-2.7-3.3-1.3zm-.5 12c.2 1 1 1.8 1.8 1.8s1.6-.8 1.8-1.8c.2-1.2-.3-1.7-1.8-1.7s-2 .5-1.8 1.7zm.3 9.2c-.8 1.5.3 3.1 2.1 3.1.9 0 1.4-.7 1.2-1.7-.4-2-2.4-2.8-3.3-1.4zm-.3 11.8c.2 1 1 1.8 1.8 1.8s1.6-.8 1.8-1.8c.2-1.2-.3-1.7-1.8-1.7s-2 .5-1.8 1.7zm-.2 10.3c0 1.3.7 2 2 2s2-.7 2-2-.7-2-2-2-2 .7-2 2zm.7 8.7c-1.4 1.3-.6 3.3 1.3 3.3 1.3 0 2-.7 2-2 0-1.9-2-2.7-3.3-1.3zm-.3 11.4c-.8 1.4 1.1 3.3 2.5 2.5.6-.4 1.1-1.4 1.1-2.2 0-1.6-2.6-1.9-3.6-.3zm-.2 11.1c.7 1.9 3.8 2.2 3.8.4 0-1-.9-1.6-2.1-1.6-1.2 0-1.9.5-1.7 1.2zm-663.9 4c-1.7.6-4.4 2.4-6 4-2.4 2.5-2.8 3.7-2.8 8.8 0 5.7.2 6.1 4.5 10.5l4.5 4.6-3.3 3c-7 6.3-8.6 11.8-5.5 18.4 2.6 5.4 7 7.5 15.6 7.5 6.5 0 7.6-.3 10.7-2.9 7.8-6.4 7.4-14.7-1.2-23.6-2.6-2.8-4.8-5.3-4.8-5.7 0-.4 1.6-1.6 3.5-2.8 3.7-2.3 6.5-6.9 6.5-10.7 0-8.7-11.2-14.4-21.7-11.1zm11.5 4.1c.7.6 2 2.3 2.7 3.7 1.8 3.5.3 8.9-3.6 12.6-3.2 3-4.8 2.5-9.8-3.1-6.6-7.5-2.4-16.6 6.9-14.8 1.4.2 3.1 1 3.8 1.6zm-3.4 29.6c5.5 3.8 7.6 7.1 7.6 11.9 0 9.2-11.6 12.3-16.8 4.4-2.8-4.3-1.7-13.4 2.2-17.8 1.6-1.9 2.3-1.7 7 1.5zm655.8-27.2c.2 1 1 1.8 1.8 1.8s1.6-.8 1.8-1.8c.2-1.2-.3-1.7-1.8-1.7s-2 .5-1.8 1.7zm-.2 10.3c0 1.3.7 2 2 2s2-.7 2-2-.7-2-2-2-2 .7-2 2zm-.7 9.2c-2.4 1.1-3 3.2-1.4 4.2 1.7 1.1 6.3-1.3 5.9-3.1-.4-2.1-1.7-2.4-4.5-1.1zM604 510.1c0 1.4.5 1.9 1.7 1.7 2.6-.5 2.9-3.8.4-3.8-1.5 0-2.1.6-2.1 2.1zm10.2-.4c.5 2.6 3.8 2.9 3.8.4 0-1.5-.6-2.1-2.1-2.1-1.4 0-1.9.5-1.7 1.7zm11 0c.2 1 1 1.8 1.8 1.8s1.6-.8 1.8-1.8c.2-1.2-.3-1.7-1.8-1.7s-2 .5-1.8 1.7zm10.8.3c0 1.5.5 2 1.8 1.8.9-.2 1.7-1 1.7-1.8s-.8-1.6-1.7-1.8c-1.3-.2-1.8.3-1.8 1.8zm10.2-.3c.5 2.6 3.8 2.9 3.8.4 0-1.5-.6-2.1-2.1-2.1-1.4 0-1.9.5-1.7 1.7zm10.3-.7c-.8 1.4.3 3 2.1 3 .8 0 1.4-.9 1.4-2 0-2.1-2.4-2.8-3.5-1zm11 0c-.8 1.4.3 3 2.1 3 .8 0 1.4-.9 1.4-2 0-2.1-2.4-2.8-3.5-1zm10.5 1.1c0 2.5 3.3 2.2 3.8-.4.2-1.2-.3-1.7-1.7-1.7-1.5 0-2.1.6-2.1 2.1zm10.2-.4c.5 2.6 3.8 2.9 3.8.4 0-1.5-.6-2.1-2.1-2.1-1.4 0-1.9.5-1.7 1.7zm11 0c.2 1 1 1.8 1.8 1.8s1.6-.8 1.8-1.8c.2-1.2-.3-1.7-1.8-1.7s-2 .5-1.8 1.7zm10.8.3c0 1.5.5 2 1.8 1.8.9-.2 1.7-1 1.7-1.8s-.8-1.6-1.7-1.8c-1.3-.2-1.8.3-1.8 1.8zm10 0c0 1.3.7 2 2 2s2-.7 2-2-.7-2-2-2-2 .7-2 2zm10.5-1c-.8 1.4.3 3 2.1 3 .8 0 1.4-.9 1.4-2 0-2.1-2.4-2.8-3.5-1zm11 0c-.8 1.4.3 3 2.1 3 .8 0 1.4-.9 1.4-2 0-2.1-2.4-2.8-3.5-1zm10.5 1.1c0 1.4.5 1.9 1.7 1.7 2.6-.5 2.9-3.8.4-3.8-1.5 0-2.1.6-2.1 2.1zm10.2-.4c.5 2.6 3.8 2.9 3.8.4 0-1.5-.6-2.1-2.1-2.1-1.4 0-1.9.5-1.7 1.7zm11 0c.2 1 1 1.8 1.8 1.8 2.2 0 1.8-2.9-.3-3.3-1.4-.3-1.8.1-1.5 1.5zm10.8.3c0 2.3 2.5 2.7 3.3.6.7-1.6-.1-2.6-2-2.6-.7 0-1.3.9-1.3 2zm10 0c0 1.3.7 2 2 2s2-.7 2-2-.7-2-2-2-2 .7-2 2zm10.5-1c-.8 1.4.3 3 2.1 3 .8 0 1.4-.9 1.4-2 0-2.1-2.4-2.8-3.5-1zm10.9.1c-.3.6-.2 1.5.4 2.1 1.3 1.3 3.2.2 3.2-1.8 0-1.6-2.6-1.9-3.6-.3zm10.6 1c0 1.4.5 1.9 1.7 1.7 2.6-.5 2.9-3.8.4-3.8-1.5 0-2.1.6-2.1 2.1zm10.2-.4c.5 2.6 3.8 2.9 3.8.4 0-1.5-.6-2.1-2.1-2.1-1.4 0-1.9.5-1.7 1.7zm10.8.3c0 1.5.5 2 1.8 1.8.9-.2 1.7-1 1.7-1.8s-.8-1.6-1.7-1.8c-1.3-.2-1.8.3-1.8 1.8zm11 0c0 2.3 2.5 2.7 3.3.6.7-1.6-.1-2.6-2-2.6-.7 0-1.3.9-1.3 2zm10 0c0 1.3.7 2 2 2s2-.7 2-2-.7-2-2-2-2 .7-2 2zm10.5-1c-.8 1.4.3 3 2.1 3 .8 0 1.4-.9 1.4-2 0-2.1-2.4-2.8-3.5-1zm10.9.1c-.3.6-.2 1.5.4 2.1 1.3 1.3 3.2.2 3.2-1.8 0-1.6-2.6-1.9-3.6-.3zm10.6 1c0 1.4.5 1.9 1.7 1.7 2.6-.5 2.9-3.8.4-3.8-1.5 0-2.1.6-2.1 2.1zm10.2-.4c.5 2.6 3.8 2.9 3.8.4 0-1.5-.6-2.1-2.1-2.1-1.4 0-1.9.5-1.7 1.7zm10.8.3c0 1.5.5 2 1.8 1.8.9-.2 1.7-1 1.7-1.8s-.8-1.6-1.7-1.8c-1.3-.2-1.8.3-1.8 1.8zm11 0c0 1.1.7 2 1.5 2s1.5-.9 1.5-2-.7-2-1.5-2-1.5.9-1.5 2zm10 0c0 1.3.7 2 2 2s2-.7 2-2-.7-2-2-2-2 .7-2 2zm10.5-1c-.8 1.4.3 3 2.1 3 .8 0 1.4-.9 1.4-2 0-2.1-2.4-2.8-3.5-1zm10.9.1c-.3.6-.2 1.5.4 2.1 1.3 1.3 3.2.2 3.2-1.8 0-1.6-2.6-1.9-3.6-.3zm10.6.9c0 1.5.5 2 1.8 1.8.9-.2 1.7-1 1.7-1.8s-.8-1.6-1.7-1.8c-1.3-.2-1.8.3-1.8 1.8zm10 0c0 1.3.7 2 2 2s2-.7 2-2-.7-2-2-2-2 .7-2 2zm22 0c0 1.1.7 2 1.5 2s1.5-.9 1.5-2-.7-2-1.5-2-1.5.9-1.5 2zm10 0c0 1.3.7 2 2 2s2-.7 2-2-.7-2-2-2-2 .7-2 2zm10.2-.3c.5 2.6 3.8 2.9 3.8.4 0-1.5-.6-2.1-2.1-2.1-1.4 0-1.9.5-1.7 1.7zm11.2-.6c-1 1.7 1.3 3.6 2.7 2.2 1.2-1.2.4-3.3-1.1-3.3-.5 0-1.2.5-1.6 1.1zm10.6.9c0 1.5.5 2 1.8 1.8.9-.2 1.7-1 1.7-1.8s-.8-1.6-1.7-1.8c-1.3-.2-1.8.3-1.8 1.8zm10 0c0 1.3.7 2 2 2s2-.7 2-2-.7-2-2-2-2 .7-2 2zm11 0c0 2.3 2.5 2.7 3.3.6.7-1.6-.1-2.6-2-2.6-.7 0-1.3.9-1.3 2zm11 0c0 1.1.7 2 1.5 2s1.5-.9 1.5-2-.7-2-1.5-2-1.5.9-1.5 2zm10 0c0 1.3.7 2 2 2s2-.7 2-2-.7-2-2-2-2 .7-2 2zm10.2-.3c.5 2.6 3.8 2.9 3.8.4 0-1.5-.6-2.1-2.1-2.1-1.4 0-1.9.5-1.7 1.7zm11 0c.2 1 1 1.8 1.8 1.8 2.2 0 1.8-2.9-.3-3.3-1.4-.3-1.8.1-1.5 1.5zm10.8.3c0 1.5.5 2 1.8 1.8.9-.2 1.7-1 1.7-1.8s-.8-1.6-1.7-1.8c-1.3-.2-1.8.3-1.8 1.8zm10 0c0 1.3.7 2 2 2s2-.7 2-2-.7-2-2-2-2 .7-2 2zm10.7-1.4c-.9 1 .4 3.4 1.9 3.4.8 0 1.4-.9 1.4-2 0-1.9-1.9-2.7-3.3-1.4zm11.3 1.5c0 2.4 2.3 2.1 2.8-.4.2-1-.3-1.7-1.2-1.7-1 0-1.6.9-1.6 2.1zm10 0c0 1.4.5 1.9 1.7 1.7 2.6-.5 2.9-3.8.4-3.8-1.5 0-2.1.6-2.1 2.1zm10.2-.4c.5 2.6 3.8 2.9 3.8.4 0-1.5-.6-2.1-2.1-2.1-1.4 0-1.9.5-1.7 1.7zm21.8.3c0 1.5.5 2 1.8 1.8.9-.2 1.7-1 1.7-1.8s-.8-1.6-1.7-1.8c-1.3-.2-1.8.3-1.8 1.8zm10 0c0 1.3.7 2 2 2s2-.7 2-2-.7-2-2-2-2 .7-2 2zm10.7-1.4c-.9 1 .4 3.4 1.9 3.4.8 0 1.4-.9 1.4-2 0-1.9-1.9-2.7-3.3-1.4zm10.9.2c-.8 1.3 1.1 3.5 2.3 2.8 1.6-1 1.4-3.6-.3-3.6-.8 0-1.7.4-2 .8zm10.4 1.3c0 1.4.5 1.9 1.7 1.7 2.6-.5 2.9-3.8.4-3.8-1.5 0-2.1.6-2.1 2.1zm10.2-.4c.5 2.6 3.8 2.9 3.8.4 0-1.5-.6-2.1-2.1-2.1-1.4 0-1.9.5-1.7 1.7zm11 0c.2 1 1 1.8 1.8 1.8 2.2 0 1.8-2.9-.3-3.3-1.4-.3-1.8.1-1.5 1.5zm10.8.3c0 1.5.5 2 1.8 1.8.9-.2 1.7-1 1.7-1.8s-.8-1.6-1.7-1.8c-1.3-.2-1.8.3-1.8 1.8zm10 0c0 1.3.7 2 2 2s2-.7 2-2-.7-2-2-2-2 .7-2 2zm10.7-1.4c-.9 1 .4 3.4 1.9 3.4.8 0 1.4-.9 1.4-2 0-1.9-1.9-2.7-3.3-1.4zm10.9.2c-.8 1.3 1.1 3.5 2.3 2.8 1.6-1 1.4-3.6-.3-3.6-.8 0-1.7.4-2 .8zm10.4 1.3c0 1.4.5 1.9 1.7 1.7 2.6-.5 2.9-3.8.4-3.8-1.5 0-2.1.6-2.1 2.1zm10.2-.4c.5 2.6 3.8 2.9 3.8.4 0-1.5-.6-2.1-2.1-2.1-1.4 0-1.9.5-1.7 1.7zm10.8-.3c0 2.1 2.1 3.1 3 1.5.5-.7.6-1.7.4-2.1-.9-1.4-3.4-.9-3.4.6zm11 .6c0 1.5.5 2 1.8 1.8.9-.2 1.7-1 1.7-1.8s-.8-1.6-1.7-1.8c-1.3-.2-1.8.3-1.8 1.8zm10 0c0 1.3.7 2 2 2s2-.7 2-2-.7-2-2-2-2 .7-2 2zm10.5-1c-.8 1.4.3 3 2.1 3 .8 0 1.4-.9 1.4-2 0-2.1-2.4-2.8-3.5-1zm10.9.1c-.8 1.4 1.1 3.3 2.5 2.5.6-.4 1.1-1.4 1.1-2.2 0-1.6-2.6-1.9-3.6-.3zm-187 9c-.8 1.4 1.1 3.3 2.5 2.5.6-.4 1.1-1.4 1.1-2.2 0-1.6-2.6-1.9-3.6-.3zm199 5c-1 1.7 1.3 3.6 2.7 2.2 1.2-1.2.4-3.3-1.1-3.3-.5 0-1.2.5-1.6 1.1zM989.5 529c-.8 1.4.3 3 2.1 3 .8 0 1.4-.9 1.4-2 0-2.1-2.4-2.8-3.5-1zm198.5.5c0 .8.9 1.5 2 1.5s2-.7 2-1.5-.9-1.5-2-1.5-2 .7-2 1.5zm199.7 4.1c-1.3 1.3-.7 2.4 1.4 2.4 1.1 0 1.9-.5 1.7-1.2-.5-1.4-2.2-2.1-3.1-1.2zm-398.2 5.3c-.8 1.5.3 3.1 2.1 3.1.9 0 1.4-.7 1.2-1.7-.4-2-2.4-2.8-3.3-1.4zm198.7.8c.5 2.6 3.8 2.9 3.8.4 0-1.5-.6-2.1-2.1-2.1-1.4 0-1.9.5-1.7 1.7zm198.8 5c0 .5.5 1.5 1 2.3.9 1.3 1.1 1.3 2 0 1.5-2.2 1.2-3-1-3-1.1 0-2 .3-2 .7zm-199 5.3c0 1.3.7 2 2 2s2-.7 2-2-.7-2-2-2-2 .7-2 2zm-198.3-.4c-.9 1 .2 2.4 1.9 2.4.8 0 1.4-.7 1.4-1.5 0-1.5-2.1-2.1-3.3-.9zm397.7 5.5c-1 1.7 1.3 3.6 2.7 2.2 1.2-1.2.4-3.3-1.1-3.3-.5 0-1.2.5-1.6 1.1zm-198.1 3.6c-2.1.7-1.5 3.3.7 3.3 1.1 0 2-.6 2-1.4 0-1.8-1.1-2.5-2.7-1.9zm-199.2 1.7c-.9 1-.9 1.6-.1 2.1 1.7 1 3.7-1.2 2.4-2.5-.8-.8-1.5-.6-2.3.4zm397.5 5.2c-.9 2.3-.8 2.4 1.4 2.4 1.1 0 2-.2 2-.4 0-1.2-1.3-3.6-2-3.6-.4 0-1.1.7-1.4 1.6zm-199.2 4.5c-1 1.7 1.3 3.6 2.7 2.2 1.2-1.2.4-3.3-1.1-3.3-.5 0-1.2.5-1.6 1.1zm-198.8.7c-.8 1.3 1.1 3.5 2.3 2.8 1.6-1 1.4-3.6-.3-3.6-.8 0-1.7.4-2 .8zm397.8 5.3c-1 1.7 1.3 3.6 2.7 2.2 1.2-1.2.4-3.3-1.1-3.3-.5 0-1.2.5-1.6 1.1zM989.5 581c-.8 1.4.3 3 2.1 3 .8 0 1.4-.9 1.4-2 0-2.1-2.4-2.8-3.5-1zm198.5.4c0 1.5 2.4 2.8 3.4 1.9 1.3-1.4.5-3.3-1.4-3.3-1.1 0-2 .6-2 1.4zm199.4 5.7c-1 1.7 1.3 3.6 2.7 2.2 1.2-1.2.4-3.3-1.1-3.3-.5 0-1.2.5-1.6 1.1zm-397.8 4.4c-.3.9.1 1.8 1 2.2 1.9.7 2.8-.2 2.1-2.2-.8-1.9-2.3-1.9-3.1 0zm198.4.5c0 1.3.7 2 2 2s2-.7 2-2-.7-2-2-2-2 .7-2 2zm199.3 5.5c-.7 2 .2 2.9 2.1 2.2.9-.4 1.3-1.3 1-2.2-.8-1.9-2.3-1.9-3.1 0zm-198.6 3.2c-1.4 1.3-.6 3.3 1.3 3.3 1.3 0 2-.7 2-2 0-1.9-2-2.7-3.3-1.3zM989.5 602c-.3.6.1 1.3 1 1.6 1.9.8 3 0 2-1.5-.8-1.4-2.2-1.4-3-.1zm397.9 6.1c-1 1.7 1.3 3.6 2.7 2.2 1.2-1.2.4-3.3-1.1-3.3-.5 0-1.2.5-1.6 1.1zm-397.3 4.3c-.9 1-.9 1.6-.1 2.1 1.7 1 3.7-1.2 2.4-2.5-.8-.8-1.5-.6-2.3.4zm197.9.1c0 .8.9 1.5 2 1.5s2-.7 2-1.5-.9-1.5-2-1.5-2 .7-2 1.5zm199 6.9c0 2.1 2.1 3.1 3 1.5.5-.7.6-1.7.4-2.1-.9-1.4-3.4-.9-3.4.6zm-198.6 2.7c-1 1.7 1.3 3.6 2.7 2.2 1.2-1.2.4-3.3-1.1-3.3-.5 0-1.2.5-1.6 1.1zm-198.8.7c-.8 1.3 1.1 3.5 2.3 2.8 1.6-1 1.4-3.6-.3-3.6-.8 0-1.7.4-2 .8zm397.8 6.3c-1 1.7 1.3 3.6 2.7 2.2 1.2-1.2.4-3.3-1.1-3.3-.5 0-1.2.5-1.6 1.1zM989.5 633c-.8 1.4.3 3 2.1 3 .8 0 1.4-.9 1.4-2 0-2.1-2.4-2.8-3.5-1zm198.7.7c.2 1 1 1.8 1.8 1.8s1.6-.8 1.8-1.8c.2-1.2-.3-1.7-1.8-1.7s-2 .5-1.8 1.7zm199.2 6.4c-1 1.7 1.3 3.6 2.7 2.2 1.2-1.2.4-3.3-1.1-3.3-.5 0-1.2.5-1.6 1.1zm-397.3 3.3c-1.2 1.4-.5 2.6 1.6 2.6 1.5 0 1.8-2.6.4-3.4-.5-.3-1.4 0-2 .8zm197.9.6c0 1.3.7 2 2 2s2-.7 2-2-.7-2-2-2-2 .7-2 2zm199 6.7c0 .5.5 1.5 1 2.3.9 1.3 1.1 1.3 2 0 1.5-2.2 1.2-3-1-3-1.1 0-2 .3-2 .7zm-198.3 1.9c-1.4 1.5-.6 3.4 1.4 3.4 1.4 0 1.9-.5 1.7-1.7-.3-1.8-2-2.7-3.1-1.7zm-199.1 1.2c-.2.4-.1 1.4.4 2.2.7 1.1 1.2 1.2 2.1.3.6-.6.8-1.6.5-2.2-.8-1.3-2.3-1.4-3-.3zm397.8 7.3c-1 1.7 1.3 3.6 2.7 2.2 1.2-1.2.4-3.3-1.1-3.3-.5 0-1.2.5-1.6 1.1zm-198.7 2.6c-1.3 1.2-.7 2.3 1.3 2.3 1.1 0 2-.7 2-1.5 0-1.5-2.1-2.1-3.3-.8zm-199 .9c-.9 1 .2 2.4 1.9 2.4.8 0 1.4-.7 1.4-1.5 0-1.5-2.1-2.1-3.3-.9zM173 668.2c-1.9.5-4.7 1.2-6.2 1.5-1.6.3-2.8.9-2.8 1.3 0 .5 1.2 1 2.8 1.2l2.7.3.3 24.3c.2 23.9.2 24.4-1.8 24.9-1.2.3-1.9 1.1-1.7 1.7.4 1.3 10.8 2 14.7 1.1l2.5-.7-2.8-2-2.7-2V694c0-14.2-.3-26.1-.7-26.3-.5-.2-2.4 0-4.3.5zm41.3.6c-5.9 1.8-6.5 2.7-2.8 3.6 2.4.6 2.5 1 2.5 7.6 0 6.4-1 9.4-2.5 7-.3-.5-2.9-1-5.7-1-7.3 0-11.7 3.3-15.8 11.7-7.3 15.4 5.9 33.2 19.7 26.6 3.5-1.7 4.1-1.8 5-.5.8 1.3 1.6 1.3 6.6-.3 3.1-1 5.7-2.1 5.7-2.5 0-.4-1.1-1.2-2.5-1.8l-2.5-1.1-.2-25.2c-.2-15.8-.7-25.3-1.3-25.5-.5-.1-3.4.5-6.2 1.4zm-3.4 21.8 3.1 2.6v12.4c0 13.7-.3 14.4-7.2 14.4-6.6-.1-10.8-6.3-10.8-16 0-6.9 1.6-10.8 5.7-13.9 3.7-2.7 5.5-2.6 9.2.5zm116.3-22.7c-1.8 1.1-1.1 6.1 1.1 7.5 2.4 1.5 5.1-.4 5.5-3.9.4-2.8-1-4.5-3.8-4.5-.8 0-2.1.4-2.8.9zm211.8 0c-15.8 3.2-28.5 20.2-26.6 35.6 1 8.1 2.5 12.3 5.9 16.2 13 14.8 35.1 1.4 30.5-18.6-2.4-10.6-11.4-15.3-22.5-11.6-3.7 1.2-2.9-2.3 2.1-9.7 2-3 11.6-9.8 13.9-9.8.8 0 2-.7 2.7-1.5 1.4-1.7.2-1.8-6-.6zm-2 28.1c3.3 3.6 4.6 9.5 3.7 17.2-.7 5.6-1.9 7.6-5.6 8.9-6.7 2.6-12.6-3.4-13.7-14-1.3-11.8.6-14.9 8.9-15 3.1-.1 4.5.5 6.7 2.9zM21 668.9c0 .4 1.5 2.4 3.3 4.3 1.7 1.9 3.9 5.7 4.9 8.4.9 2.7 2.6 7.6 3.8 10.9 5.3 14.1 10.2 28.2 10.7 30.2.3 1.3.8 2.3 1.2 2.3 1.3 0 2.8-1.6 3.3-3.5.3-1.1 2-5.8 3.8-10.5 1.7-4.7 3.9-10.6 4.7-13.3.9-2.6 2-4.7 2.5-4.7 1 0 3.2 5 7.7 17.5 6.4 17.8 6.8 18 10.4 6 .9-2.8 3-8.8 4.7-13.5 1.7-4.7 3.8-10.5 4.6-13 .8-2.5 1.9-5.4 2.4-6.5.5-1.1 1.5-3.7 2.2-5.9.7-2.1 2.5-4.7 4-5.8 1.6-1.1 2.6-2.4 2.3-2.9-.8-1.2-14.2-1.2-14.9 0-.3.5.5 1.6 1.9 2.5 1.4.9 2.5 2.3 2.5 3.1 0 1.5-2.4 9.4-4 13-.4 1.1-1.8 4.7-3 8-3.6 9.9-4.1 10.8-4.9 9.9-1.3-1.5-12.1-29.3-12.1-31.2 0-1 1.1-2.5 2.5-3.2 1.4-.7 2.5-1.7 2.5-2.2 0-.9-20.3-1.1-21.3-.2-.3.4.8 1.6 2.5 2.8 2.1 1.4 4 4 5.5 7.8l2.2 5.7-2.8 7.8c-4.8 13-5.1 13.7-6.1 12.7-.5-.5-2.3-4.5-3.8-8.9-1.6-4.4-4.1-10.9-5.6-14.4-3.1-7.7-3.2-9.7-.6-11.1 4-2.2 1.9-3-7.5-3-5.2 0-9.5.4-9.5.9zm1366.7 1.8c-1.4 1.3-.6 3.3 1.3 3.3 2.2 0 2.3-.1 1.4-2.4-.7-1.7-1.6-2-2.7-.9zm-198.6 3.3c-1.6.9-.6 3 1.5 3 1.5 0 2-2.5.6-3.4-.4-.2-1.4-.1-2.1.4zm-199.7 1.1c-.3.6-.2 1.5.4 2.1 1.3 1.3 3.2.2 3.2-1.8 0-1.6-2.6-1.9-3.6-.3zm398 7c-1 1.7 1.3 3.6 2.7 2.2 1.2-1.2.4-3.3-1.1-3.3-.5 0-1.2.5-1.6 1.1zm-397.8 3.4c-.3.9.1 1.8 1 2.2 1.9.7 2.8-.2 2.1-2.2-.8-1.9-2.3-1.9-3.1 0zm198.6.2c.5 2.6 3.8 2.9 3.8.4 0-1.5-.6-2.1-2.1-2.1-1.4 0-1.9.5-1.7 1.7zm-1084.3 2.4c-4.2 2.4-6.9 6.5-8.6 12.8-3.5 13.1 8.4 27.1 21 24.7 4.9-.9 11.3-5.9 13.7-10.5 2.8-5.7 2.7-15-.2-20.3-4.7-8.3-17.4-11.6-25.9-6.7zm12.7 1.8c4.4 2.7 6.8 8.3 7.2 17.1.3 6.6.1 7.9-2 11-1.9 2.8-3.1 3.6-6 3.8-2.1.2-4.6-.2-5.8-.8-3.1-1.6-5.8-8-6.6-15.2-.8-8.3.7-13.3 5-15.9 3.8-2.3 4.4-2.3 8.2 0zm26.4-2.7c-5.4 2.3-7 3.2-7 4 0 .4.9.8 2 .8 2.6 0 3.3 4.1 2.8 17.5-.3 9.7-.5 10.8-2.6 12.3-3.3 2.5-1.9 3.2 6.2 3.2 8.2 0 11.5-1.3 7.5-2.9-3.5-1.3-3.9-2.7-3.9-14.3 0-8.5.3-10.4 2.1-12.9 2-2.9 5.2-3.8 6.4-1.9.3.5 1.7 1 3 1 2.6 0 4-2.8 3-6-1-3.1-7.4-2.8-10.5.5-2.5 2.7-4 2.5-4-.6 0-2.1-1.2-2.3-5-.7zm113.5.2c-1.6.6-3.9 1.6-5 2.3-1.9 1.1-1.9 1.2.8 2.2l2.7 1.1v22.9c0 22.1-.1 23.1-2 24.1-3.5 1.9-1.1 3 6.5 3 7.2 0 10.5-1.3 6.8-2.7-2.8-1-3.3-2.3-3.3-9.7 0-6.7.1-6.8 2.3-6 4.4 1.5 10.1.9 14-1.5 10.6-6.5 12.9-25.5 4-33.8-3-2.9-4.1-3.3-8.6-3.3-3.6 0-6 .6-7.7 2-3.2 2.5-3.6 2.5-4.3 0-.6-2.2-1.7-2.3-6.2-.6zm17.3 4.7c5.6 1.9 8.2 9.5 6.8 19.3-1.4 9.4-9.5 13.8-15.3 8.4-2.1-2-2.3-2.9-2.3-13.3 0-11.9.6-13.6 5.5-14.8 1.1-.2 2-.5 2.1-.6.1 0 1.5.4 3.2 1zm22.7-3.7c-5 2.3-5 2.4-2.4 3.4 3.6 1.4 3.9 2.7 3.9 14.7 0 11.1-1 15.5-3.6 15.5-.8 0-1.4.6-1.2 1.2.5 1.4 10.6 2.3 14.6 1.3l2.4-.6-2.6-2.4c-2.5-2.3-2.6-2.9-2.6-13 0-8.4.4-11.3 1.8-13.7 1.4-2.4 2.2-2.8 4.2-2.3 4.8 1.2 7.2 1 8.4-.8 2.9-4.5-5.8-7.8-10.1-3.7-2.8 2.5-3.9 2.5-4.6 0-.6-2.5-2-2.4-8.2.4zm32.5-1.2c-5.4 2.3-7 3.2-7 4 0 .4.9.8 1.9.8 2.7 0 3.1 1.8 3.1 14.3 0 13.2-.5 15.3-3.3 16.1-2 .6-2.1.7-.5 1.7 2.5 1.4 15 .7 15.6-.9.2-.6-.4-1.2-1.2-1.2-2.8 0-3.6-4.6-3.6-20.6 0-16.4 0-16.3-5-14.2zm25.8.4c-10.7 5.7-13.8 23.9-5.5 32.5 3.1 3.3 8.3 5.9 11.7 5.9 4.1 0 10.5-4 13.3-8.2 3.1-4.9 2.2-6.1-1.8-2.4-5.8 5.4-15.2 3.7-18.7-3.4-2.4-4.9-2.3-13.7.2-17.7 4.2-7 12.3-7.8 13.6-1.3.8 3.7 2.6 5.3 5.6 4.8 1.7-.2 2.4-1 2.5-3.3.3-3.5-1.1-5.5-5-7.3-3.7-1.6-12.5-1.4-15.9.4zm37.7-.4c-6.6 3.6-10.5 10.8-10.5 19.4 0 17.1 15.4 24.9 27.6 14.1 3.8-3.2 6.7-8 5.7-9.1-.4-.3-2.4 1.1-4.5 3.1-3.5 3.4-4.4 3.8-9.2 3.8-3.9 0-6-.5-7.5-1.9-2.5-2.2-6.5-12.6-5.4-13.7.5-.5 6.2-1 12.8-1.1l12-.3.3-2.7c.4-3.5-2-8.1-5.7-10.7-3.3-2.3-12.1-2.9-15.6-.9zm10.2 4.1c.7.7 1.4 2.3 1.5 3.7.3 2.5.2 2.5-7.5 2.8-7.8.3-7.9.3-7.2-2 1.9-6.1 9-8.5 13.2-4.5zm39.3 2.2v2.5h44.1l-.3-2.3c-.3-2.2-.3-2.2-22-2.5L442 691v2.5zm1144-.4c0 2.4 2.3 2.1 2.8-.4.2-1-.3-1.7-1.2-1.7-1 0-1.6.9-1.6 2.1zm-981.8.6c.2 1 1 1.8 1.8 1.8s1.6-.8 1.8-1.8c.2-1.2-.3-1.7-1.8-1.7s-2 .5-1.8 1.7zm10.4-.8c-.3.5.1 1.5 1 2.2 1.3 1 1.7 1 2.4-.1.5-.8.6-1.8.4-2.2-.7-1.1-3.1-1-3.8.1zm11-.1c-.2.4-.1 1.4.4 2.2.7 1.1 1.1 1.1 2.4.1.9-.7 1.3-1.7 1-2.2-.7-1.1-3.1-1.2-3.8-.1zm10.6.9c.2 1 1 1.8 1.8 1.8s1.6-.8 1.8-1.8c.2-1.2-.3-1.7-1.8-1.7s-2 .5-1.8 1.7zm10 0c.5 2.6 3.8 2.9 3.8.4 0-1.5-.6-2.1-2.1-2.1-1.4 0-1.9.5-1.7 1.7zm11 0c.2 1 1 1.8 1.8 1.8s1.6-.8 1.8-1.8c.2-1.2-.3-1.7-1.8-1.7s-2 .5-1.8 1.7zm10.8.3c0 1.5.5 2 1.8 1.8.9-.2 1.7-1 1.7-1.8s-.8-1.6-1.7-1.8c-1.3-.2-1.8.3-1.8 1.8zm10.2-.3c.2 1 1 1.8 1.8 1.8s1.6-.8 1.8-1.8c.2-1.2-.3-1.7-1.8-1.7s-2 .5-1.8 1.7zm10.5-1.1c-.9 1 .4 3.4 1.9 3.4.8 0 1.4-.9 1.4-2 0-1.9-1.9-2.7-3.3-1.4zm10.9.2c-.8 1.3 1.1 3.5 2.3 2.8 1.6-1 1.4-3.6-.3-3.6-.8 0-1.7.4-2 .8zm10.6.9c.2 1 1 1.8 1.8 1.8s1.6-.8 1.8-1.8c.2-1.2-.3-1.7-1.8-1.7s-2 .5-1.8 1.7zm10 0c.5 2.6 3.8 2.9 3.8.4 0-1.5-.6-2.1-2.1-2.1-1.4 0-1.9.5-1.7 1.7zm11 0c.2 1 1 1.8 1.8 1.8s1.6-.8 1.8-1.8c.2-1.2-.3-1.7-1.8-1.7s-2 .5-1.8 1.7zm10.8.3c0 1.1.4 2 .9 2 1.3 0 3.2-2.6 2.4-3.3-1.3-1.4-3.3-.6-3.3 1.3zm10.2-.3c.2 1 1 1.8 1.8 1.8s1.6-.8 1.8-1.8c.2-1.2-.3-1.7-1.8-1.7s-2 .5-1.8 1.7zm10 0c.5 2.6 3.8 2.9 3.8.4 0-1.5-.6-2.1-2.1-2.1-1.4 0-1.9.5-1.7 1.7zm11 0c.2 1 1 1.8 1.8 1.8s1.6-.8 1.8-1.8c.2-1.2-.3-1.7-1.8-1.7s-2 .5-1.8 1.7zm31.4-.8c-.3.5.1 1.5 1 2.2 1.3 1 1.7 1 2.4-.1.5-.8.6-1.8.4-2.2-.7-1.1-3.1-1-3.8.1zM816 694c0 1.1.4 2 .9 2 1.3 0 3.2-2.6 2.4-3.3-1.3-1.4-3.3-.6-3.3 1.3zm10.2-.3c.2 1 1 1.8 1.8 1.8s1.6-.8 1.8-1.8c.2-1.2-.3-1.7-1.8-1.7s-2 .5-1.8 1.7zm10 0c.5 2.6 3.8 2.9 3.8.4 0-1.5-.6-2.1-2.1-2.1-1.4 0-1.9.5-1.7 1.7zm11 0c.2 1 1 1.8 1.8 1.8s1.6-.8 1.8-1.8c.2-1.2-.3-1.7-1.8-1.7s-2 .5-1.8 1.7zm10.8.3c0 1.5.5 2 1.8 1.8.9-.2 1.7-1 1.7-1.8s-.8-1.6-1.7-1.8c-1.3-.2-1.8.3-1.8 1.8zm10.2-.3c.5 2.6 3.8 2.9 3.8.4 0-1.5-.6-2.1-2.1-2.1-1.4 0-1.9.5-1.7 1.7zm10.4-.8c-.3.5.1 1.5 1 2.2 1.3 1 1.7 1 2.4-.1.5-.8.6-1.8.4-2.2-.7-1.1-3.1-1-3.8.1zm11-.1c-.8 1.3 1.1 3.5 2.3 2.8 1.6-1 1.4-3.6-.3-3.6-.8 0-1.7.4-2 .8zm10.6.9c.2 1 1 1.8 1.8 1.8s1.6-.8 1.8-1.8c.2-1.2-.3-1.7-1.8-1.7s-2 .5-1.8 1.7zm10 0c.5 2.6 3.8 2.9 3.8.4 0-1.5-.6-2.1-2.1-2.1-1.4 0-1.9.5-1.7 1.7zm11 0c.2 1 1 1.8 1.8 1.8s1.6-.8 1.8-1.8c.2-1.2-.3-1.7-1.8-1.7s-2 .5-1.8 1.7zm10.8.3c0 1.1.4 2 .9 2 1.3 0 3.2-2.6 2.4-3.3-1.3-1.4-3.3-.6-3.3 1.3zm10.2-.3c.2 1 1 1.8 1.8 1.8s1.6-.8 1.8-1.8c.2-1.2-.3-1.7-1.8-1.7s-2 .5-1.8 1.7zm10.3-.7c-.8 1.3.3 3 2 3 1.4 0 2.7-2.4 1.8-3.4-1-.9-3.1-.7-3.8.4zm11.1-.2c-.8 1.3 1.1 3.5 2.3 2.8 1.6-1 1.4-3.6-.3-3.6-.8 0-1.7.4-2 .8zm10.6.9c.2 1 1 1.8 1.8 1.8s1.6-.8 1.8-1.8c.2-1.2-.3-1.7-1.8-1.7s-2 .5-1.8 1.7zm10 0c.5 2.6 3.8 2.9 3.8.4 0-1.5-.6-2.1-2.1-2.1-1.4 0-1.9.5-1.7 1.7zm10.8-.3c0 2.1 2.1 3.1 3 1.5.5-.7.6-1.7.4-2.1-.9-1.4-3.4-.9-3.4.6zm11 .6c0 1.1.4 2 .9 2 1.3 0 3.2-2.6 2.4-3.3-1.3-1.4-3.3-.6-3.3 1.3zm10.2-.3c.2 1 1 1.8 1.8 1.8s1.6-.8 1.8-1.8c.2-1.2-.3-1.7-1.8-1.7s-2 .5-1.8 1.7zm10 0c.5 2.6 3.8 2.9 3.8.4 0-1.5-.6-2.1-2.1-2.1-1.4 0-1.9.5-1.7 1.7zm11 0c.2 1 1 1.8 1.8 1.8s1.6-.8 1.8-1.8c.2-1.2-.3-1.7-1.8-1.7s-2 .5-1.8 1.7zm10.8.4c0 1.4.5 1.9 1.7 1.7 2.6-.5 2.9-3.8.4-3.8-1.5 0-2.1.6-2.1 2.1zm10.2-.4c.5 2.6 3.8 2.9 3.8.4 0-1.5-.6-2.1-2.1-2.1-1.4 0-1.9.5-1.7 1.7zm10.8-.3c0 2.1 2.1 3.1 3 1.5.5-.7.6-1.7.4-2.1-.9-1.4-3.4-.9-3.4.6zm11 .7c0 2.4 2.3 2.1 2.8-.4.2-1-.3-1.7-1.2-1.7-1 0-1.6.9-1.6 2.1zm10.2-.4c.2 1 1 1.8 1.8 1.8s1.6-.8 1.8-1.8c.2-1.2-.3-1.7-1.8-1.7s-2 .5-1.8 1.7zm10 0c.5 2.6 3.8 2.9 3.8.4 0-1.5-.6-2.1-2.1-2.1-1.4 0-1.9.5-1.7 1.7zm11 0c.2 1 1 1.8 1.8 1.8 2.2 0 1.8-2.9-.3-3.3-1.4-.3-1.8.1-1.5 1.5zm10.8.3c0 1.5.5 2 1.8 1.8.9-.2 1.7-1 1.7-1.8s-.8-1.6-1.7-1.8c-1.3-.2-1.8.3-1.8 1.8zm10.2-.3c.2 1 1 1.8 1.8 1.8s1.6-.8 1.8-1.8c.2-1.2-.3-1.7-1.8-1.7s-2 .5-1.8 1.7zm10.5-1c-.8.7 1.1 3.3 2.4 3.3.5 0 .9-.9.9-2 0-1.9-2-2.7-3.3-1.3zm10.9.1c-.8 1.3 1.1 3.5 2.3 2.8 1.6-1 1.4-3.6-.3-3.6-.8 0-1.7.4-2 .8zm10.6.9c.2 1 1 1.8 1.8 1.8s1.6-.8 1.8-1.8c.2-1.2-.3-1.7-1.8-1.7s-2 .5-1.8 1.7zm10 0c.5 2.6 3.8 2.9 3.8.4 0-1.5-.6-2.1-2.1-2.1-1.4 0-1.9.5-1.7 1.7zm10.8-.4c0 1.6 3.6 4.7 5.5 4.7 2.5 0 1.6-3.4-1.2-4.8-3.4-1.5-4.3-1.5-4.3.1zm11 .7c0 1.1.4 2 .9 2 1.3 0 3.2-2.6 2.4-3.3-1.3-1.4-3.3-.6-3.3 1.3zm10.2-.3c.2 1 1 1.8 1.8 1.8s1.6-.8 1.8-1.8c.2-1.2-.3-1.7-1.8-1.7s-2 .5-1.8 1.7zm10.5-1c-.8.7 1.1 3.3 2.4 3.3.5 0 .9-.9.9-2 0-1.9-2-2.7-3.3-1.3zm10.9.1c-.8 1.3 1.1 3.5 2.3 2.8 1.6-1 1.4-3.6-.3-3.6-.8 0-1.7.4-2 .8zm10.4 1.3c0 1.4.5 1.9 1.7 1.7 2.6-.5 2.9-3.8.4-3.8-1.5 0-2.1.6-2.1 2.1zm10.2-.4c.2 1 1 1.8 1.8 1.8s1.6-.8 1.8-1.8c.2-1.2-.3-1.7-1.8-1.7s-2 .5-1.8 1.7zm10.8-.3c0 2.1 2.1 3.1 3 1.5.5-.7.6-1.7.4-2.1-.9-1.4-3.4-.9-3.4.6zm10.6-.6c-.2.4-.1 1.4.4 2.2.7 1.1 1.1 1.1 2.4.1.9-.7 1.3-1.7 1-2.2-.7-1.1-3.1-1.2-3.8-.1zm10.6.9c.2 1 1 1.8 1.8 1.8s1.6-.8 1.8-1.8c.2-1.2-.3-1.7-1.8-1.7s-2 .5-1.8 1.7zm10 0c.5 2.6 3.8 2.9 3.8.4 0-1.5-.6-2.1-2.1-2.1-1.4 0-1.9.5-1.7 1.7zm11.2-.6c-.8 1.4 1.1 3.3 2.5 2.5.6-.4 1.1-1.4 1.1-2.2 0-1.6-2.6-1.9-3.6-.3zm10.6 1c0 1.4.5 1.9 1.7 1.7 2.6-.5 2.9-3.8.4-3.8-1.5 0-2.1.6-2.1 2.1zm10.2-.4c.2 1 1 1.8 1.8 1.8s1.6-.8 1.8-1.8c.2-1.2-.3-1.7-1.8-1.7s-2 .5-1.8 1.7zm11 0c.5 2.5 2.8 2.8 2.8.4 0-1.2-.6-2.1-1.6-2.1-.9 0-1.4.7-1.2 1.7zm10.4-.9c-.8 1.3 1.1 3.5 2.3 2.8 1.6-1 1.4-3.6-.3-3.6-.8 0-1.7.4-2 .8zm10.4 1.3c0 1.4.5 1.9 1.7 1.7 2.6-.5 2.9-3.8.4-3.8-1.5 0-2.1.6-2.1 2.1zm10.2-.4c.2 1 1 1.8 1.8 1.8s1.6-.8 1.8-1.8c.2-1.2-.3-1.7-1.8-1.7s-2 .5-1.8 1.7zm10.8-.3c0 2.1 2.1 3.1 3 1.5.5-.7.6-1.7.4-2.1-.9-1.4-3.4-.9-3.4.6zm11 .6c0 1.6.5 2.1 2.3 1.8 1.2-.2 2.2-1 2.2-1.8s-1-1.6-2.2-1.8c-1.8-.3-2.3.2-2.3 1.8zm10.2-.3c.2 1 1 1.8 1.8 1.8s1.6-.8 1.8-1.8c.2-1.2-.3-1.7-1.8-1.7s-2 .5-1.8 1.7zm10.5-1c-.8.7 1.1 3.3 2.4 3.3.5 0 .9-.9.9-2 0-1.9-2-2.7-3.3-1.3zm10.9.1c-.8 1.3 1.1 3.5 2.3 2.8 1.6-1 1.4-3.6-.3-3.6-.8 0-1.7.4-2 .8zm10.4 1.3c0 1.4.5 1.9 1.7 1.7 2.6-.5 2.9-3.8.4-3.8-1.5 0-2.1.6-2.1 2.1zm10.2-.4c.2 1 1 1.8 1.8 1.8s1.6-.8 1.8-1.8c.2-1.2-.3-1.7-1.8-1.7s-2 .5-1.8 1.7zm10.8-.3c0 2.1 2.1 3.1 3 1.5.5-.7.6-1.7.4-2.1-.9-1.4-3.4-.9-3.4.6zm11 .6c0 1.1.4 2 .9 2 1.3 0 3.2-2.6 2.4-3.3-1.3-1.4-3.3-.6-3.3 1.3zm10.2-.3c.2 1 1 1.8 1.8 1.8s1.6-.8 1.8-1.8c.2-1.2-.3-1.7-1.8-1.7s-2 .5-1.8 1.7zm10.5-1c-.8.7 1.1 3.3 2.4 3.3.5 0 .9-.9.9-2 0-1.9-2-2.7-3.3-1.3zm10.9.1c-.8 1.3 1.1 3.5 2.3 2.8 1.6-1 1.4-3.6-.3-3.6-.8 0-1.7.4-2 .8zm10.4 1.3c0 1.4.5 1.9 1.7 1.7 2.6-.5 2.9-3.8.4-3.8-1.5 0-2.1.6-2.1 2.1zm10.2-.4c.2 1 1 1.8 1.8 1.8s1.6-.8 1.8-1.8c.2-1.2-.3-1.7-1.8-1.7s-2 .5-1.8 1.7zm11 0c.5 2.5 2.8 2.8 2.8.4 0-1.2-.6-2.1-1.6-2.1-.9 0-1.4.7-1.2 1.7zm10.4-.9c-.2.4-.1 1.4.4 2.2.7 1.1 1.1 1.1 2.4.1.9-.7 1.3-1.7 1-2.2-.7-1.1-3.1-1.2-3.8-.1zm10.4 1.3c0 1.4.5 1.9 1.7 1.7 2.6-.5 2.9-3.8.4-3.8-1.5 0-2.1.6-2.1 2.1zm10.7-1.5c-.9 1 .4 3.4 1.9 3.4.8 0 1.4-.9 1.4-2 0-1.9-1.9-2.7-3.3-1.4zm10.5 1.1c.2 1 1 1.8 1.8 1.8s1.6-.8 1.8-1.8c.2-1.2-.3-1.7-1.8-1.7s-2 .5-1.8 1.7zm10.8.4c0 1.4.5 1.9 1.7 1.7 2.6-.5 2.9-3.8.4-3.8-1.5 0-2.1.6-2.1 2.1zm-586.3 1.5c-.9 1 .2 2.4 1.9 2.4.8 0 1.4-.7 1.4-1.5 0-1.5-2.1-2.1-3.3-.9zm596.3 6.5c0 1.4.5 1.9 1.7 1.7 2.6-.5 2.9-3.8.4-3.8-1.5 0-2.1.6-2.1 2.1zm-795.3.6c-1.4 1.3-.6 3.3 1.3 3.3 1.3 0 2-.7 2-2 0-1.9-2-2.7-3.3-1.3zm597-.1c-1.4 1.4-.7 3.5 1.1 3.2.9-.2 1.7-1 1.7-1.7 0-1.6-1.8-2.5-2.8-1.5zm-199 2c-1.4 1.5-.6 3.4 1.4 3.4 1.4 0 1.9-.5 1.7-1.7-.3-1.8-2-2.7-3.1-1.7zm-199.3 1.5c-1 1.7 1.3 3.6 2.7 2.2 1.2-1.2.4-3.3-1.1-3.3-.5 0-1.2.5-1.6 1.1zm-547 2.4c-.4.8-.4 2.2 0 3 .4 1.3 3.7 1.5 20.5 1.5 11 0 20.6-.3 21.5-.6.9-.3 1.6-1.4 1.6-2.4s-.7-2.1-1.6-2.4c-.9-.3-10.5-.6-21.5-.6-16.8 0-20.1.2-20.5 1.5zM1586 712c0 1.3.7 2 2 2s2-.7 2-2-.7-2-2-2-2 .7-2 2zm-794.7.7c-1.8.6-1.6 3 .2 3.7.9.3 1.8-.1 2.2-1 .7-1.8-.7-3.3-2.4-2.7zm596.1 1.4c-1 1.7 1.3 3.6 2.7 2.2 1.2-1.2.4-3.3-1.1-3.3-.5 0-1.2.5-1.6 1.1zm-199 2c-.8 1.4 1.1 3.3 2.5 2.5.6-.4 1.1-1.4 1.1-2.2 0-1.6-2.6-1.9-3.6-.3zm-198.8.7c-.8 1.3 1.1 3.5 2.3 2.8 1.6-1 1.4-3.6-.3-3.6-.8 0-1.7.4-2 .8zm596.4 5.1c0 1.5.6 2.1 2.1 2.1 1.4 0 1.9-.5 1.7-1.7-.5-2.6-3.8-2.9-3.8-.4zm-796 3.5c0 1.5 2.4 2.8 3.4 1.9 1.3-1.4.5-3.3-1.4-3.3-1.1 0-2 .6-2 1.4zm597 0c0 2.1 2.1 3.1 3 1.5.5-.7.6-1.7.4-2.1-.9-1.4-3.4-.9-3.4.6zm-397.3 1.2c-.9 1 .4 3.4 1.9 3.4.8 0 1.4-.9 1.4-2 0-1.9-1.9-2.7-3.3-1.4zm198.3.9c0 .8.9 1.5 2 1.5s2-.7 2-1.5-.9-1.5-2-1.5-2 .7-2 1.5zm398.4 4c-.3.8-.3 1.9 0 2.4.9 1.3 3.6.2 3.6-1.4 0-1.9-3-2.7-3.6-1zM790.5 735c-.8 1.4.3 3 2.1 3 .8 0 1.4-.9 1.4-2 0-2.1-2.4-2.8-3.5-1zm596.9.1c-1 1.7 1.3 3.6 2.7 2.2 1.2-1.2.4-3.3-1.1-3.3-.5 0-1.2.5-1.6 1.1zm-397.8 2.4c-.3.9.1 1.8 1 2.2 1.9.7 2.8-.2 2.1-2.2-.8-1.9-2.3-1.9-3.1 0zm198.6.2c.5 2.6 3.8 2.9 3.8.4 0-1.5-.6-2.1-2.1-2.1-1.4 0-1.9.5-1.7 1.7zm398.2 4.4c-1 1.7 1.3 3.6 2.7 2.2 1.2-1.2.4-3.3-1.1-3.3-.5 0-1.2.5-1.6 1.1zm-795.7 2.5c-1.4 1.5-.6 3.4 1.4 3.4 1.4 0 1.9-.5 1.7-1.7-.3-1.8-2-2.7-3.1-1.7zm596.7 1.5c-1 1.7 1.3 3.6 2.7 2.2 1.2-1.2.4-3.3-1.1-3.3-.5 0-1.2.5-1.6 1.1zm-198.7.6c-1.4 1.3-.6 3.3 1.3 3.3 1.3 0 2-.7 2-2 0-1.9-2-2.7-3.3-1.3zM989.5 748c-.3.6.1 1.3 1 1.6 1.9.8 3 0 2-1.5-.8-1.4-2.2-1.4-3-.1zm596.8 4.6c-.7 1.9.2 2.8 2.2 2.1 1.9-.8 1.9-2.3 0-3.1-.9-.3-1.8.1-2.2 1zm-795.8 3.3c-.8 1.5.3 3.1 2.1 3.1.9 0 1.4-.7 1.2-1.7-.4-2-2.4-2.8-3.3-1.4zm398.2.7c-1.4 1.5-.6 3.4 1.4 3.4 1.4 0 1.9-.5 1.7-1.7-.3-1.8-2-2.7-3.1-1.7zm198.3.1c0 .5.5 1.5 1 2.3.9 1.3 1.1 1.3 2 0 1.5-2.2 1.2-3-1-3-1.1 0-2 .3-2 .7zm-396.9 1.7c-1.2 1.4-.5 2.6 1.6 2.6 1.5 0 1.8-2.6.4-3.4-.5-.3-1.4 0-2 .8zm595.9 5.7c0 1.4.5 1.9 1.7 1.7 2.6-.5 2.9-3.8.4-3.8-1.5 0-2.1.6-2.1 2.1zm-795.8 3.6c.5 2.6 3.8 2.9 3.8.4 0-1.5-.6-2.1-2.1-2.1-1.4 0-1.9.5-1.7 1.7zm597.2-.6c-1 1.7 1.3 3.6 2.7 2.2 1.2-1.2.4-3.3-1.1-3.3-.5 0-1.2.5-1.6 1.1zm-199 1c-1 1.7 1.3 3.6 2.7 2.2 1.2-1.2.4-3.3-1.1-3.3-.5 0-1.2.5-1.6 1.1zm-198.8.7c-.8 1.3 1.1 3.5 2.3 2.8 1.6-1 1.4-3.6-.3-3.6-.8 0-1.7.4-2 .8zM1586 774c0 1.3.7 2 2 2s2-.7 2-2-.7-2-2-2-2 .7-2 2zm-795.3 2.7c-1.4 1.3-.6 3.3 1.3 3.3 1.3 0 2-.7 2-2 0-1.9-2-2.7-3.3-1.3zm597 0c-1.4 1.3-.6 3.3 1.3 3.3 2.2 0 2.3-.1 1.4-2.4-.7-1.7-1.6-2-2.7-.9zm-398.1 2.8c-.3.9.1 1.8 1 2.2 1.9.7 2.8-.2 2.1-2.2-.8-1.9-2.3-1.9-3.1 0zm198.6.2c.2 1 1 1.8 1.8 1.8s1.6-.8 1.8-1.8c.2-1.2-.3-1.7-1.8-1.7s-2 .5-1.8 1.7zm397.8 4.2c0 1.5.6 2.1 2.1 2.1 2.5 0 2.2-3.3-.4-3.8-1.2-.2-1.7.3-1.7 1.7zM790.5 788c-.8 1.4.3 3 2.1 3 .8 0 1.4-.9 1.4-2 0-2.1-2.4-2.8-3.5-1zm596.9.1c-1 1.7 1.3 3.6 2.7 2.2 1.2-1.2.4-3.3-1.1-3.3-.5 0-1.2.5-1.6 1.1zm-397.8 1.4c-.3.9.1 1.8 1 2.2 1.9.7 2.8-.2 2.1-2.2-.8-1.9-2.3-1.9-3.1 0zm198.6.2c.5 2.6 3.8 2.9 3.8.4 0-1.5-.6-2.1-2.1-2.1-1.4 0-1.9.5-1.7 1.7zm397.8 4.8c0 .8.9 1.5 2 1.5s2-.7 2-1.5-.9-1.5-2-1.5-2 .7-2 1.5zm-795.8 5.2c.2 1 1 1.8 1.8 1.8s1.6-.8 1.8-1.8c.2-1.2-.3-1.7-1.8-1.7s-2 .5-1.8 1.7zm398.5-1c-1.4 1.3-.6 3.3 1.3 3.3 1.3 0 2-.7 2-2 0-1.9-2-2.7-3.3-1.3zm198.7.4c-1 1.7 1.3 3.6 2.7 2.2 1.2-1.2.4-3.3-1.1-3.3-.5 0-1.2.5-1.6 1.1zm-398 1c-1 1.7 1.3 3.6 2.7 2.2 1.2-1.2.4-3.3-1.1-3.3-.5 0-1.2.5-1.6 1.1zm597 4c-1 1.7 1.3 3.6 2.7 2.2 1.2-1.2.4-3.3-1.1-3.3-.5 0-1.2.5-1.6 1.1zm-795.7 4.6c-1.4 1.3-.6 3.3 1.3 3.3 1.3 0 2-.7 2-2 0-1.9-2-2.7-3.3-1.3zm398.6 0c-2.1.7-1.5 3.3.7 3.3 1.1 0 2-.6 2-1.4 0-1.8-1.1-2.5-2.7-1.9zm198.4-.1c-1.4 1.4-.7 3.5 1.1 3.2.9-.2 1.7-1 1.7-1.7 0-1.6-1.8-2.5-2.8-1.5zm-398.1 2.3c-.7 1.1 1.8 3.3 2.7 2.4.4-.3.7-1.2.7-2 0-1.5-2.6-1.8-3.4-.4zm597 2.8c-1.3 1.4-.5 3.3 1.4 3.3 1.1 0 2-.6 2-1.4 0-1.5-2.4-2.8-3.4-1.9zm-795.3 5c-1.8.6-1.6 3 .2 3.7.9.3 1.8-.1 2.2-1 .7-1.8-.7-3.3-2.4-2.7zm397.2 1.2c-.8 1.5.3 3.1 2.1 3.1.9 0 1.4-.7 1.2-1.7-.4-2-2.4-2.8-3.3-1.4zm198.9.2c-1 1.7 1.3 3.6 2.7 2.2 1.2-1.2.4-3.3-1.1-3.3-.5 0-1.2.5-1.6 1.1zm-397.8.7c-.8 1.3 1.1 3.5 2.3 2.8 1.6-1 1.4-3.6-.3-3.6-.8 0-1.7.4-2 .8zm596.4 5.3c0 1.4.5 1.9 1.7 1.7 2.6-.5 2.9-3.8.4-3.8-1.5 0-2.1.6-2.1 2.1zm-796 5.3c0 1.5 2.4 2.8 3.4 1.9 1.3-1.4.5-3.3-1.4-3.3-1.1 0-2 .6-2 1.4zm199.6.1c-.3.9.1 1.8 1 2.2 1.9.7 2.8-.2 2.1-2.2-.8-1.9-2.3-1.9-3.1 0zm198.6.2c.2 1 1 1.8 1.8 1.8s1.6-.8 1.8-1.8c.2-1.2-.3-1.7-1.8-1.7s-2 .5-1.8 1.7zm198.8-.3c0 2.1 2.1 3.1 3 1.5.5-.7.6-1.7.4-2.1-.9-1.4-3.4-.9-3.4.6zm199 4.6c0 1.3.7 2 2 2s2-.7 2-2-.7-2-2-2-2 .7-2 2zm-795.5 5c-.8 1.4.3 3 2.1 3 .8 0 1.4-.9 1.4-2 0-2.1-2.4-2.8-3.5-1zm199.6.4c-1.2 1.4-.5 2.6 1.6 2.6 1.5 0 1.8-2.6.4-3.4-.5-.3-1.4 0-2 .8zm197.9.6c0 1.3.7 2 2 2s2-.7 2-2-.7-2-2-2-2 .7-2 2zm199.7-1.4c-1.4 1.4-.7 3.5 1.1 3.2.9-.2 1.7-1 1.7-1.7 0-1.6-1.8-2.5-2.8-1.5zm198.3 5.3c0 1.5.6 2.1 2.1 2.1 2.5 0 2.2-3.3-.4-3.8-1.2-.2-1.7.3-1.7 1.7zm-795.3 4.8c-1.4 1.3-.6 3.3 1.3 3.3 1.3 0 2-.7 2-2 0-1.9-2-2.7-3.3-1.3zm398 0c-1.4 1.3-.6 3.3 1.3 3.3 1.3 0 2-.7 2-2 0-1.9-2-2.7-3.3-1.3zm-199.3 1.4c-1 1.7 1.3 3.6 2.7 2.2 1.2-1.2.4-3.3-1.1-3.3-.5 0-1.2.5-1.6 1.1zm398 0c-1 1.7 1.3 3.6 2.7 2.2 1.2-1.2.4-3.3-1.1-3.3-.5 0-1.2.5-1.6 1.1zm198.6 4.4c0 .8.9 1.5 2 1.5s2-.7 2-1.5-.9-1.5-2-1.5-2 .7-2 1.5zm-795.5 5.4c-.8 1.5.3 3.1 2.1 3.1.9 0 1.4-.7 1.2-1.7-.4-2-2.4-2.8-3.3-1.4zm397.7.8c.2 1 1 1.8 1.8 1.8s1.6-.8 1.8-1.8c.2-1.2-.3-1.7-1.8-1.7s-2 .5-1.8 1.7zm-198.6.1c-.8 1.3 1.1 3.5 2.3 2.8 1.6-1 1.4-3.6-.3-3.6-.8 0-1.7.4-2 .8zm397.4-.1c0 .5.5 1.5 1 2.3.9 1.3 1.1 1.3 2 0 1.5-2.2 1.2-3-1-3-1.1 0-2 .3-2 .7zm199.4 3.4c-1 1.7 1.3 3.6 2.7 2.2 1.2-1.2.4-3.3-1.1-3.3-.5 0-1.2.5-1.6 1.1zm-397.9 5.8c-.8 1.5.3 3.1 2.1 3.1.9 0 1.4-.7 1.2-1.7-.4-2-2.4-2.8-3.3-1.4zm-398.3 1.8c.5 2.6 3.8 2.9 3.8.4 0-1.5-.6-2.1-2.1-2.1-1.4 0-1.9.5-1.7 1.7zm199.3-.7c-.8 1.4.3 3 2.1 3 .8 0 1.4-.9 1.4-2 0-2.1-2.4-2.8-3.5-1zm397.9.1c-1 1.7 1.3 3.6 2.7 2.2 1.2-1.2.4-3.3-1.1-3.3-.5 0-1.2.5-1.6 1.1zm199 3.4c-.3.8-.3 1.9 0 2.4.9 1.3 3.6.2 3.6-1.4 0-1.9-3-2.7-3.6-1zm-795.7 6.2c-1.4 1.3-.6 3.3 1.3 3.3 1.3 0 2-.7 2-2 0-1.9-2-2.7-3.3-1.3zm198.9.8c-.3.9.1 1.8 1 2.2 1.9.7 2.8-.2 2.1-2.2-.8-1.9-2.3-1.9-3.1 0zm198.6.2c.2 1 1 1.8 1.8 1.8s1.6-.8 1.8-1.8c.2-1.2-.3-1.7-1.8-1.7s-2 .5-1.8 1.7zm199.5-1c-1.4 1.3-.6 3.3 1.3 3.3 2.2 0 2.3-.1 1.4-2.4-.7-1.7-1.6-2-2.7-.9zm462.3 2.2c0 .5 1 1.1 2.3 1.3 1.5.2 2.3 1.1 2.5 2.9.3 2.4-2 12.1-6.8 28.4-.5 1.6-1.2 4.1-1.5 5.5-2.2 8.1-3.9 12.1-5.6 13-4.8 2.6-1.8 3.2 14.4 2.8 15.8-.4 16.4-.5 22.7-3.6 10.8-5.2 16.4-12.2 19-23.4 1.1-4.7 1.1-6.6 0-10.5-2.2-8-5.3-11.7-12.7-15.3-3.7-1.7-6.3-2-19.3-2-8.6 0-15 .4-15 .9zm25.4 2.8c8.8 1.4 14.1 12.1 11.6 23.2-3.8 16.3-13.2 25-27.1 25.1-8.3 0-8.3-.2 1.1-32.6 1.7-5.6 3-10.8 3-11.5 0-2 3.1-4.9 5.4-4.9 1.2 0 3.8.3 6 .7zm-289.4.4c0 1.4.5 1.9 1.7 1.7 2.6-.5 2.9-3.8.4-3.8-1.5 0-2.1.6-2.1 2.1zm-398 5.9c0 1.3.7 2 2 2s2-.7 2-2-.7-2-2-2-2 .7-2 2zm-397.5 0c-.8 1.4.3 3 2.1 3 .8 0 1.4-.9 1.4-2 0-2.1-2.4-2.8-3.5-1zm199.1-.2c-.8 1.3 1.1 3.5 2.3 2.8 1.6-1 1.4-3.6-.3-3.6-.8 0-1.7.4-2 .8zm397.8.3c-1 1.7 1.3 3.6 2.7 2.2 1.2-1.2.4-3.3-1.1-3.3-.5 0-1.2.5-1.6 1.1zM1586 898c0 1.5.5 2 1.8 1.8.9-.2 1.7-1 1.7-1.8s-.8-1.6-1.7-1.8c-1.3-.2-1.8.3-1.8 1.8zm-397.3 4.7c-1.4 1.3-.6 3.3 1.3 3.3 1.3 0 2-.7 2-2 0-1.9-2-2.7-3.3-1.3zm-198.6 1.7c-.9 1-.9 1.6-.1 2.1 1.7 1 3.7-1.2 2.4-2.5-.8-.8-1.5-.6-2.3.4zm-199.9 1.3c.2 1 1 1.8 1.8 1.8s1.6-.8 1.8-1.8c.2-1.2-.3-1.7-1.8-1.7s-2 .5-1.8 1.7zm597.2-.6c-1 1.7 1.3 3.6 2.7 2.2 1.2-1.2.4-3.3-1.1-3.3-.5 0-1.2.5-1.6 1.1zm199.3 1.5c-1.4 1.5-.6 3.4 1.4 3.4 1.4 0 1.9-.5 1.7-1.7-.3-1.8-2-2.7-3.1-1.7zm-398.3 7.5c-.8 1.4 1.1 3.3 2.5 2.5 1.6-1 1.3-3.6-.3-3.6-.8 0-1.8.5-2.2 1.1zm-397.7.6c-1.4 1.3-.6 3.3 1.3 3.3 1.3 0 2-.7 2-2 0-1.9-2-2.7-3.3-1.3zm198.9.1c-.8 1.3 1.1 3.5 2.3 2.8 1.6-1 1.4-3.6-.3-3.6-.8 0-1.7.4-2 .8zm398.1-.2c-1.4 1.4-.7 3.5 1.1 3.2.9-.2 1.7-1 1.7-1.7 0-1.6-1.8-2.5-2.8-1.5zm198.9 2.1c-1.3 1.4-.5 3.3 1.4 3.3 1.1 0 2-.6 2-1.4 0-1.5-2.4-2.8-3.4-1.9zm-795.5 8.2c-1.5 1-.8 4.1.9 4.1 1.5 0 2.5-2.9 1.4-4-.5-.5-1.5-.5-2.3-.1zm198.4.1c-.8 1.4.3 3 2.1 3 .8 0 1.4-.9 1.4-2 0-2.1-2.4-2.8-3.5-1zm198.7.2c.7 1.9 3.8 2.2 3.8.4 0-1-.9-1.6-2.1-1.6-1.2 0-1.9.5-1.7 1.2zm199.2.9c-1 1.7 1.3 3.6 2.7 2.2 1.2-1.2.4-3.3-1.1-3.3-.5 0-1.2.5-1.6 1.1zM1586 929c0 1.5.5 2 1.8 1.8.9-.2 1.7-1 1.7-1.8s-.8-1.6-1.7-1.8c-1.3-.2-1.8.3-1.8 1.8zm-596.4 6.5c-.3.9.1 1.8 1 2.2 1.9.7 2.8-.2 2.1-2.2-.8-1.9-2.3-1.9-3.1 0zm198.6.2c.2 1 1 1.8 1.8 1.8s1.6-.8 1.8-1.8c.2-1.2-.3-1.7-1.8-1.7s-2 .5-1.8 1.7zM790 937.5c0 .8.9 1.5 2 1.5s2-.7 2-1.5-.9-1.5-2-1.5-2 .7-2 1.5zm597-.1c0 2.1 2.1 3.1 3 1.5.5-.7.6-1.7.4-2.1-.9-1.4-3.4-.9-3.4.6zm199 1.9c0 1.9 1 2.7 2.6 2 2.1-.8 1.7-3.3-.6-3.3-1.1 0-2 .6-2 1.3zm-398 6.7c0 1.3.7 2 2 2s2-.7 2-2-.7-2-2-2-2 .7-2 2zm-198.4-.2c-.2.4-.1 1.4.4 2.2.7 1.1 1.2 1.2 2.1.3.6-.6.8-1.6.5-2.2-.8-1.3-2.3-1.4-3-.3zM790.5 947c-.8 1.4.3 3 2.1 3 .8 0 1.4-.9 1.4-2 0-2.1-2.4-2.8-3.5-1zm597.2-.4c-1.4 1.4-.7 3.5 1.1 3.2.9-.2 1.7-1 1.7-1.7 0-1.6-1.8-2.5-2.8-1.5zm198.3 3.5c0 1.4.5 1.9 1.7 1.7 2.6-.5 2.9-3.8.4-3.8-1.5 0-2.1.6-2.1 2.1zm-397.3 4.5c-1.4 1.5-.6 3.4 1.4 3.4 1.4 0 1.9-.5 1.7-1.7-.3-1.8-2-2.7-3.1-1.7zm-398 2c-1.4 1.5-.6 3.4 1.4 3.4 1.4 0 1.9-.5 1.7-1.7-.3-1.8-2-2.7-3.1-1.7zm199 0c-.9 1 .2 2.4 1.9 2.4.8 0 1.4-.7 1.4-1.5 0-1.5-2.1-2.1-3.3-.9zm397.7 1.5c-1 1.7 1.3 3.6 2.7 2.2 1.2-1.2.4-3.3-1.1-3.3-.5 0-1.2.5-1.6 1.1zm198.6 1.8c0 1.5.6 2.1 2.1 2.1 2.5 0 2.2-3.3-.4-3.8-1.2-.2-1.7.3-1.7 1.7zm-397.6 6.2c-.8 1.4 1.1 3.3 2.5 2.5 1.6-1 1.3-3.6-.3-3.6-.8 0-1.8.5-2.2 1.1zm-198.8.7c-.8 1.3 1.1 3.5 2.3 2.8 1.6-1 1.4-3.6-.3-3.6-.8 0-1.7.4-2 .8zm-199.1 1.1c-.8 1.5.3 3.1 2.1 3.1.9 0 1.4-.7 1.2-1.7-.4-2-2.4-2.8-3.3-1.4zm596.9 1.7c.3.9.6 1.8.6 2.1 0 .3.7 0 1.5-.7 2.1-1.8 1.9-3-.6-3-1.5 0-1.9.4-1.5 1.6zm198.6.3c0 1.5.6 2.1 2.1 2.1 2.5 0 2.2-3.3-.4-3.8-1.2-.2-1.7.3-1.7 1.7zM989.5 977c-.8 1.4.3 3 2.1 3 .8 0 1.4-.9 1.4-2 0-2.1-2.4-2.8-3.5-1zm198.5.5c0 .8.9 1.5 2 1.5s2-.7 2-1.5-.9-1.5-2-1.5-2 .7-2 1.5zm-397.8 2.2c.5 2.6 3.8 2.9 3.8.4 0-1.5-.6-2.1-2.1-2.1-1.4 0-1.9.5-1.7 1.7zm597.2-.6c-1 1.7 1.3 3.6 2.7 2.2 1.2-1.2.4-3.3-1.1-3.3-.5 0-1.2.5-1.6 1.1zm199 .4c-.3.8-.3 1.9 0 2.4.9 1.3 3.6.2 3.6-1.4 0-1.9-3-2.7-3.6-1zm-596.8 8c-.3.9.1 1.8 1 2.2 1.9.7 2.8-.2 2.1-2.2-.8-1.9-2.3-1.9-3.1 0zm198.6.2c.5 2.6 3.8 2.9 3.8.4 0-1.5-.6-2.1-2.1-2.1-1.4 0-1.9.5-1.7 1.7zm-397.5 1c-1.4 1.3-.6 3.3 1.3 3.3 1.3 0 2-.7 2-2 0-1.9-2-2.7-3.3-1.3zm597 0c-1.4 1.3-.6 3.3 1.3 3.3 2.2 0 2.3-.1 1.4-2.4-.7-1.7-1.6-2-2.7-.9zM1586 991c0 1.5.5 2 1.8 1.8.9-.2 1.7-1 1.7-1.8s-.8-1.6-1.7-1.8c-1.3-.2-1.8.3-1.8 1.8zm-398 7c0 1.3.7 2 2 2s2-.7 2-2-.7-2-2-2-2 .7-2 2zm-198.6.1c-1 1.7 1.3 3.6 2.7 2.2 1.2-1.2.4-3.3-1.1-3.3-.5 0-1.2.5-1.6 1.1zm-198.9 1.9c-.8 1.4.3 3 2.1 3 .8 0 1.4-.9 1.4-2 0-2.1-2.4-2.8-3.5-1zm596.9.1c-1 1.7 1.3 3.6 2.7 2.2 1.2-1.2.4-3.3-1.1-3.3-.5 0-1.2.5-1.6 1.1zm198.6 1.2c0 1.9 1 2.7 2.6 2 2.1-.8 1.7-3.3-.6-3.3-1.1 0-2 .6-2 1.3zm-396.7 5.4c-2.1.7-1.5 3.3.7 3.3 1.1 0 2-.6 2-1.4 0-1.8-1.1-2.5-2.7-1.9zm-199.6 1.9c-.9 1 .2 2.4 1.9 2.4.8 0 1.4-.7 1.4-1.5 0-1.5-2.1-2.1-3.3-.9zm-199.5 3.1c.2 1 1 1.8 1.8 1.8s1.6-.8 1.8-1.8c.2-1.2-.3-1.7-1.8-1.7s-2 .5-1.8 1.7zm597.2-.6c-1 1.7 1.3 3.6 2.7 2.2 1.2-1.2.4-3.3-1.1-3.3-.5 0-1.2.5-1.6 1.1zm198.6 1c0 1.4.5 1.9 1.7 1.7 2.6-.5 2.9-3.8.4-3.8-1.5 0-2.1.6-2.1 2.1zm-397.6 6c-1 1.7 1.3 3.6 2.7 2.2 1.2-1.2.4-3.3-1.1-3.3-.5 0-1.2.5-1.6 1.1zm-198.9.9c-.8 1.4.3 3 2.1 3 .8 0 1.4-.9 1.4-2 0-2.1-2.4-2.8-3.5-1zm-198.8 1.7c-1.4 1.3-.6 3.3 1.3 3.3 1.3 0 2-.7 2-2 0-1.9-2-2.7-3.3-1.3zm597-.1c-1.4 1.5-.6 3.4 1.4 3.4 1.4 0 1.9-.5 1.7-1.7-.3-1.8-2-2.7-3.1-1.7zm198.3 1.4c0 1.3.7 2 2 2s2-.7 2-2-.7-2-2-2-2 .7-2 2zm-596.4 7.5c-.3.9.1 1.8 1 2.2 1.9.7 2.8-.2 2.1-2.2-.8-1.9-2.3-1.9-3.1 0zm198.4-.1c0 1.5 2.4 2.8 3.4 1.9 1.3-1.4.5-3.3-1.4-3.3-1.1 0-2 .6-2 1.4zm398 2.5c0 1.5.6 2.1 2.1 2.1 1.4 0 1.9-.5 1.7-1.7-.5-2.6-3.8-2.9-3.8-.4zm-795.6.2c-.8 1.4 1.1 3.3 2.5 2.5 1.6-1 1.3-3.6-.3-3.6-.8 0-1.8.5-2.2 1.1zm597 0c-1 1.7 1.3 3.6 2.7 2.2 1.2-1.2.4-3.3-1.1-3.3-.5 0-1.2.5-1.6 1.1zM1188 1040c0 1.3.7 2 2 2s2-.7 2-2-.7-2-2-2-2 .7-2 2zm-198.3-.4c-.9 1 .2 2.4 1.9 2.4.8 0 1.4-.7 1.4-1.5 0-1.5-2.1-2.1-3.3-.9zm596.7 1.9c-.3.8-.3 1.9 0 2.4.9 1.3 3.6.2 3.6-1.4 0-1.9-3-2.7-3.6-1zm-796.2 1.7c.7 1.9 3.8 2.2 3.8.4 0-1-.9-1.6-2.1-1.6-1.2 0-1.9.5-1.7 1.2zm596.8.2c0 2.1 2.1 3.1 3 1.5.5-.7.6-1.7.4-2.1-.9-1.4-3.4-.9-3.4.6zm-198.3 5.3c-1.4 1.3-.6 3.3 1.3 3.3 1.3 0 2-.7 2-2 0-1.9-2-2.7-3.3-1.3zm-198.6 1.7c-.9 1-.9 1.6-.1 2.1 1.7 1 3.7-1.2 2.4-2.5-.8-.8-1.5-.6-2.3.4zm596.3 1.7c-1 1.7 1.3 3.6 2.7 2.2 1.2-1.2.4-3.3-1.1-3.3-.5 0-1.2.5-1.6 1.1zM790 1054c0 1.3.7 2 2 2s2-.7 2-2-.7-2-2-2-2 .7-2 2zm597.7-1.4c-1.4 1.4-.7 3.5 1.1 3.2.9-.2 1.7-1 1.7-1.7 0-1.6-1.8-2.5-2.8-1.5zm-199.7 7.9c0 .8.9 1.5 2 1.5s2-.7 2-1.5-.9-1.5-2-1.5-2 .7-2 1.5zm-198.4.3c-.8 1.3 1.1 3.5 2.3 2.8 1.6-1 1.4-3.6-.3-3.6-.8 0-1.7.4-2 .8zm-198.9 1.8c-1.4 1.5-.6 3.4 1.4 3.4 1.4 0 1.9-.5 1.7-1.7-.3-1.8-2-2.7-3.1-1.7zm795.3.9c0 .8.9 1.5 2 1.5s2-.7 2-1.5-.9-1.5-2-1.5-2 .7-2 1.5zm-198.6.6c-1 1.7 1.3 3.6 2.7 2.2 1.2-1.2.4-3.3-1.1-3.3-.5 0-1.2.5-1.6 1.1zm-199 6c-1 1.7 1.3 3.6 2.7 2.2 1.2-1.2.4-3.3-1.1-3.3-.5 0-1.2.5-1.6 1.1zm-198.9.9c-.8 1.4.3 3 2.1 3 .8 0 1.4-.9 1.4-2 0-2.1-2.4-2.8-3.5-1zm596.5 3.1c0 2.5 3.3 2.2 3.8-.4.2-1.2-.3-1.7-1.7-1.7-1.5 0-2.1.6-2.1 2.1zm-795.5-.2c-.8 1.5.3 3.1 2.1 3.1.9 0 1.4-.7 1.2-1.7-.4-2-2.4-2.8-3.3-1.4zm596.8 1.3c.2.7 1 1.3 1.7 1.3s1.5-.6 1.8-1.3c.2-.7-.5-1.2-1.8-1.2s-2 .5-1.7 1.2zm-397.7 6.3c-.3.9.1 1.8 1 2.2 1.9.7 2.8-.2 2.1-2.2-.8-1.9-2.3-1.9-3.1 0zm198.6.2c.2 1 1 1.8 1.8 1.8s1.6-.8 1.8-1.8c.2-1.2-.3-1.7-1.8-1.7s-2 .5-1.8 1.7zm397.8 2.3c0 1.3.7 2 2 2s2-.7 2-2-.7-2-2-2-2 .7-2 2zm-795.8 1.7c.5 2.6 3.8 2.9 3.8.4 0-1.5-.6-2.1-2.1-2.1-1.4 0-1.9.5-1.7 1.7zm597.2-.6c-1 1.7 1.3 3.6 2.7 2.2 1.2-1.2.4-3.3-1.1-3.3-.5 0-1.2.5-1.6 1.1zM1188 1092c0 1.3.7 2 2 2s2-.7 2-2-.7-2-2-2-2 .7-2 2zm-198.5 0c-.3.6.1 1.3 1 1.6 1.9.8 3 0 2-1.5-.8-1.4-2.2-1.4-3-.1zm596.5 1.9c0 1.5.6 2.1 2.1 2.1 1.4 0 1.9-.5 1.7-1.7-.5-2.6-3.8-2.9-3.8-.4zm-795.3.8c-1.4 1.3-.6 3.3 1.3 3.3 1.3 0 2-.7 2-2 0-1.9-2-2.7-3.3-1.3zm597 0c-1.4 1.3-.6 3.3 1.3 3.3 2.2 0 2.3-.1 1.4-2.4-.7-1.7-1.6-2-2.7-.9zm-199 5.9c-1.4 1.5-.6 3.4 1.4 3.4 1.4 0 1.9-.5 1.7-1.7-.3-1.8-2-2.7-3.1-1.7zm-198.6 1.8c-.9 1-.9 1.6-.1 2.1 1.7 1 3.7-1.2 2.4-2.5-.8-.8-1.5-.6-2.3.4zm595.9 2.1c0 .8.9 1.5 2 1.5s2-.7 2-1.5-.9-1.5-2-1.5-2 .7-2 1.5zm-795.5 1.5c-.8 1.4.3 3 2.1 3 .8 0 1.4-.9 1.4-2 0-2.1-2.4-2.8-3.5-1zm596.9.1c-.8 1.4 1.1 3.3 2.5 2.5.6-.4 1.1-1.1 1.1-1.6 0-1.3-2.9-2-3.6-.9zm-198.7 5.6c-1.3 1.2-.7 2.3 1.3 2.3 1.1 0 2-.7 2-1.5 0-1.5-2.1-2.1-3.3-.8zm-199.1 1.1c-.8 1.3 1.1 3.5 2.3 2.8 1.6-1 1.4-3.6-.3-3.6-.8 0-1.7.4-2 .8zm596.8 1.3c-1 1.7 1.3 3.6 2.7 2.2 1.2-1.2.4-3.3-1.1-3.3-.5 0-1.2.5-1.6 1.1zm-796.2 3.6c.2 1 1 1.8 1.8 1.8s1.6-.8 1.8-1.8c.2-1.2-.3-1.7-1.8-1.7s-2 .5-1.8 1.7zm597.2-.6c-1 1.7 1.3 3.6 2.7 2.2 1.2-1.2.4-3.3-1.1-3.3-.5 0-1.2.5-1.6 1.1zm-852.2 28.7c-7.6 2.2-12.7 11.4-13.8 24.5-1.8 21.5 9 36.9 22.9 32.7 8.1-2.4 12-8.4 14.8-22.7 1.2-6.5.1-15.9-2.8-23-3.7-9.2-12.5-13.9-21.1-11.5zm9.9 4.9c4.2 4.6 5.2 9.5 5.1 24.3 0 11.1-.4 14.3-2 18-2.4 5.6-4.4 7.3-8.4 7.3-3.9 0-6.9-3.5-8.6-9.8-1.5-5.8-1.6-26.5 0-31.9 2.8-10 8.9-13.4 13.9-7.9zm1274.4 21c-7.5 1-16.3 7.2-19.3 13.5-1.1 2.4-2.5 6.9-3.2 10-2.5 11 2.3 23.4 11.3 29.7 2.5 1.7 5 3.1 5.5 3.1.6 0 3.1 2.2 5.8 5 5.1 5.4 9.5 7.5 19.4 9.6 11.4 2.4 17.9 1.2 8.8-1.6-7.9-2.4-15.8-8-15.8-11 0-.5 1.7-1.7 3.8-2.5 5.6-2.4 11.9-9.1 14.2-15.3 7.1-18.8-4-38.6-22.5-40.4-2.7-.3-6.3-.3-8-.1zm13.4 6.1c3.9 2.9 6.1 6.3 7.6 12.2 2.9 10.9 1.1 23.7-4.1 30-7.7 9.1-19.9 7.8-26.2-2.9-2.5-4.3-2.7-5.3-2.6-16.1 0-8.6.4-12.4 1.7-15.3 2-4.4 7-9.4 10-10.1 3.9-.8 11.1.4 13.6 2.2zm174.3-5.6c-2 2-1.4 5.4 1.3 6.8 2.3 1.2 2.8 1.2 4.7-.8 1.9-1.8 2-2.5 1-4.7-1.3-2.7-4.9-3.4-7-1.3zM749 1176.9c-8.7 4.2-9 4.5-5 5.1l3.5.5v45l-3.2 1.6c-1.8.9-3 1.9-2.6 2.3 1.1 1 20.3.7 20.3-.4 0-.6-.6-1-1.3-1-.8 0-2.1-.8-3-1.8-1.5-1.6-1.7-5-1.7-27.5 0-14.1-.3-25.8-.8-26.1-.4-.2-3.2.8-6.2 2.3zm36.5-.6c-13.6 7.7-15.3 38.9-2.8 51.4 4.1 4.2 4.5 4.3 10.5 4.3 5.7 0 6.8-.4 10.2-3.2 2.3-1.9 4.9-5.4 6.3-8.7 2.2-4.9 2.5-7 2.5-16.6-.1-6.4-.7-12.5-1.4-14.5-4.9-13.1-15.3-18.4-25.3-12.7zm12.9 3c3.7 3.7 5.6 12 5.6 24.2 0 12.4-2 20.6-5.8 24.2-4.6 4.2-9.4 2.2-12.9-5.5-2.5-5.6-2.5-30.9 0-37.5 3-7.7 8.5-9.9 13.1-5.4zm28.5-2.5c-4.7 3-7.6 8.2-9.8 17.5-3 12.6 1 28.3 8.8 34.7 3 2.6 4.4 3 9.3 3 8.1 0 12-2.6 16-11 2.9-6 3.1-7.3 3.2-17 0-6.2-.6-12.1-1.4-14.5-4.6-13.8-15.8-19.2-26.1-12.7zm13.5 2.5c3.7 3.7 5.6 12 5.6 24.2 0 12.4-2 20.6-5.8 24.2-3.1 2.8-6.1 2.9-9 .3-4.6-4.3-5.5-8.5-5.5-24.5-.1-13.1.2-15.6 2-19.7 3.3-7.1 8.3-8.9 12.7-4.5zm102.1-3.9c-1.6.7-3.7 2.2-4.6 3.2-2.5 2.8-5.9 9.2-5.9 11 0 2.3 2.2 1.2 4-2.1 5-9 16.1-9 20.4-.1 1.7 3.5 1.8 4.5.7 8.5-1.8 6.9-6.3 13.5-16.2 24.1-11.2 11.9-11.1 12 8.3 12 12.3 0 14-.2 15.7-1.9 1.8-1.8 4.5-9 3.7-9.8-.2-.2-1.4.6-2.9 1.7-2.1 1.7-4 2-12.6 2-5.8 0-10.1-.4-10.1-1 0-.5 1.5-2.4 3.3-4.2 16.8-17.2 20.9-24.5 18.6-33.2-2.5-9.6-13-14.3-22.4-10.2zm41.8 1.1c-3.3 2-4.9 4-7.4 9.1-2.8 6-3.1 7.5-3.1 16.7-.1 10.8.9 15.4 5 22 3.2 5.3 7.5 7.7 14.1 7.7 6.2 0 10.4-2.5 14.1-8.5 8.9-14.5 5-41.8-7-48-4.5-2.3-10.8-1.9-15.7 1zm16.2 7c1.7 3.5 2 6.1 2 19 0 16.3-.9 20.6-5.2 24.9-3.5 3.5-5.9 3.3-9.8-.8-4-4.2-4.6-6.9-5.2-21.6-.6-15 1.7-23.8 7.1-27.1 2.9-1.8 3.1-1.8 6.1-.1 1.6 1 3.9 3.6 5 5.7zm26.3-7.2c-7.7 4.6-10.8 12.6-10.8 27.7 0 9.8.2 10.9 3.3 17 4.2 8.3 7.9 11 15.6 11 4.8 0 6.2-.4 9.4-3.1 11.7-9.7 13.2-34.4 2.9-48.7-4.7-6.5-13.4-8.2-20.4-3.9zm11.6 1.8c5.1 4 6 7.8 6 25.4 0 17.6-1 21.7-5.9 24.9-5.3 3.5-10.9-1.1-13.3-10.7-2.5-9.9-1-29.6 2.8-36.6.9-1.8 5.4-4.9 7.1-5.1.4 0 1.8.9 3.3 2.1zm101.6-2c-3.6 2.1-8 7.8-8 10.4 0 2.1.3 2 4.8-2.5 3.4-3.5 4.6-4 8.4-4 5.8 0 8.8 2.9 8.8 8.6 0 4.5-1.8 7-8.1 10.9-4.9 3.1-5 4.5-.3 4.5 8.5 0 15 10.1 11.3 17.3-3.9 7.5-8.6 9-16.3 5.1-6-3-8.6-2.7-8.6 1 0 3.4 2.6 4.6 9.9 4.6 13.6 0 22.1-7.4 22.1-19.3 0-6.8-1.8-10.9-6-13.4-3.3-1.9-3.7-2.8-1.5-3.6 1.6-.7 5.5-7.8 5.5-10.2 0-2.9-3.1-7.6-6.3-9.5-4.2-2.6-11.2-2.6-15.7.1zm43.5-.2c-4.9 3-7.2 6.2-9.4 13-4 12.4-2.1 29.5 4.1 37.1 5.3 6.4 15.3 8.1 21.9 3.6 6.3-4.3 9.9-14 9.9-26.6 0-14.3-4.2-23.5-12.7-27.9-3.3-1.7-10.4-1.3-13.8.8zm9.8 1.2c7.1 3.2 10.8 23.3 7.3 39.6-2.3 10.7-7.1 15.3-12.4 12.1-4.1-2.5-5.8-6.5-7.1-16.3-.9-6.8-.9-11-.1-17.9 1.5-11.4 4.3-16.7 9.7-18.5.1-.1 1.3.4 2.6 1zm31.6-.8c-7.5 5-10.4 12.7-10.4 27.2 0 12.9 2.1 19.1 8.4 24.6 3.9 3.5 4.9 3.9 9.8 3.9 9 0 13.5-3.7 17.4-14.3 1.3-3.7 1.9-7.8 1.9-14.3 0-9.5-.7-13-4.3-20.2-4.1-8.5-15.4-11.9-22.8-6.9zm10.9 1.1c5.1 2.7 8.2 12.7 8.2 25.9-.1 18.6-6.3 30-13.8 25.5-5.5-3.3-6.7-7.6-6.7-25.3 0-17.5.9-21.3 6.2-25.4 3.1-2.5 2.7-2.5 6.1-.7zm105.3 15c-10 14-13.1 19.1-13.1 21.5 0 3.7.9 4 14 4.4l9.5.2.3 6c.3 6.7 1.1 8 4.1 7 1.7-.5 2.1-1.6 2.3-6.8.3-6.1.4-6.2 3.3-6.5 7.6-.9 7.6-7.2 0-7.2-1.2 0-2.6-.7-2.9-1.6-.3-.9-.6-9.2-.6-18.5 0-15.9-.1-16.9-1.9-16.9-1.3 0-5.9 5.7-15 18.4zm9.6 18.3c-.3.2-4.4.3-9.2.1l-8.7-.3 6.8-10c3.7-5.5 7.6-11.1 8.8-12.3l2.1-2.4.3 12.3c.1 6.7.1 12.4-.1 12.6zm31.8-34.8c-7.8 4.8-10.8 12-10.9 26.6-.1 14.9 2.7 22.5 10.1 27.3 4.6 3.1 12.8 3 17.4-.1 3.7-2.5 8.8-10.8 8.9-14.4 0-1.3.5-4.3 1.2-6.7 1.8-6.9-1.7-22.9-6.4-28.7-4.6-5.6-14.5-7.6-20.3-4zm10.4 1.6c3.9 2 6.3 7.6 7.2 17 1.5 16.2-.8 29.6-5.9 33.5-3.4 2.7-5.5 2.5-8.9-.8-3.9-4-5.3-10.3-5.3-24 0-14.2 1.6-20.9 6.1-24.6 3.6-3.1 3.2-3 6.8-1.1zm31.5-1.6c-7.6 4.7-10.8 13-10.8 28.1 0 9.7.2 11 3.2 17 3.9 8.1 7.9 11 15.2 11 10.9 0 16.1-6.1 19.1-22.3 1-5.4 1-8 0-13.5-1.3-6.6-3.8-13.1-6.3-16.3-4.5-5.7-14.5-7.6-20.4-4zm10.5 1.6c1.7.8 3.8 3.4 5.1 6.2 2 4.2 2.3 6.5 2.4 18.3.1 15.8-1.3 21.9-5.6 25.5-3.7 3.1-5.8 3.1-9.1.1-3.9-3.6-5.7-11.3-5.7-24.3 0-13.5 1.4-19.5 5.6-24 3.6-3.8 3.6-3.8 7.3-1.8zm114.8-2.8-9.8.4-3.8 8.2c-5.9 12.7-5.9 12.4-.9 13.7 9 2.2 11.6 3.3 14.7 6.2 3.7 3.5 5.1 6.5 5.1 11.4 0 11-8.9 17.1-16.8 11.5-4.1-2.9-9.6-2.6-10 .6-.5 3.5 3.3 5.3 11.3 5.2 8.1-.1 13.2-2.3 17.6-7.9 8.4-10.5 5-25.5-7.2-31.7-2.4-1.2-5.5-2.3-6.9-2.3-3.7 0-5.2-1.8-3.8-4.4 1.7-3.3 2.7-3.6 11.5-3.6 8.1 0 8.3 0 9.8-3 1.8-3.5 1.9-5.1.3-4.8-.7.1-5.7.4-11.1.5zm30.8 1.7c-7.3 4.4-10.6 12.8-10.6 26.8 0 10.3 1 14.8 4.9 21.1 3.2 5.4 7.5 7.7 14.2 7.7 4.7 0 6.1-.5 9.3-3.1 11.7-9.6 13.2-34.5 2.9-48.7-4.7-6.6-13.4-8.2-20.7-3.8zm16 7.1c1.7 3.5 2 6 2 19.5 0 14.1-.2 15.9-2.3 20.1-3.8 7.8-9 8.8-13.5 2.6-3.3-4.6-4.7-11.3-4.7-22.9 0-13.5 2.5-21.9 7.4-24.9 2.9-1.8 3.1-1.8 6.1-.1 1.6 1 3.9 3.6 5 5.7zm26.3-7.2c-7.7 4.6-10.8 12.6-10.8 27.7 0 9.8.2 10.9 3.3 17 4.2 8.3 7.9 11 15.6 11 4.8 0 6.2-.4 9.4-3.1 2.1-1.7 4.4-4.4 5.3-6.1 8.1-15.7 4.5-39.9-6.9-46.8-4.4-2.7-11.2-2.6-15.9.3zm11.6 1.8c5.1 4 6 7.9 6.1 25.4 0 14.5-.2 16.4-2.2 20-2.4 4.6-6.1 7-9.2 6-3-.9-6.5-6.2-7.9-11.8-2.5-9.9-1-29.6 2.8-36.6.9-1.8 5.4-4.9 7.1-5.1.4 0 1.8.9 3.3 2.1zm395.9 7.8c-5.4 6.1-6.4 8.1-3.9 8.1 1.1 0 1.5 2.9 1.8 14.2.4 15.8 1.3 19 6.1 20.9 2.6 1.1 3.5 1 6.5-.7 3.9-2.1 6.1-4.9 4.8-6.1-.5-.4-1.1-.2-1.3.4-.8 2.1-6.1 1.6-7.3-.7-.6-1.2-.9-7.1-.8-14.7l.3-12.8 3.5-.5c5.1-.7 5.4-3.8.3-4.2-3.7-.3-3.8-.4-4.3-5.1l-.5-4.8-5.2 6zm-47.8.8-4.9 5.6 2.2 1.5c2.1 1.4 2.2 2.1 2.2 15.3 0 8.1.5 14.8 1.1 16.3 1.4 2.9 5.9 5.1 8.7 4.1 3.1-.9 7.2-4.5 7.2-6.2 0-1.2-.3-1.3-1.4-.4-.8.7-2.7 1.1-4.3.9l-2.8-.3-.3-14.7-.3-14.7 3.8-.3c2.7-.2 3.9-.8 4.1-2.1.3-1.4-.4-1.7-3.7-1.7h-4.1v-4.5c0-3-.4-4.5-1.2-4.4-.7 0-3.5 2.5-6.3 5.6zm-126.5 4.1c0 .4.9 1.3 2 2 1.8 1.1 2 2.3 2 14.2 0 15.7 1.1 19.3 6.7 21.6 3.1 1.3 4.3 1.4 7.5.3 2.1-.7 4.3-1.8 4.9-2.6 1.5-1.7 3.9-1.7 3.9.1 0 2.4 1.5 2.6 6.4 1 5.1-1.8 5.5-2.4 2.6-4.2-1.9-1.1-2-2.3-2-17.2v-16h-6.5c-6.7 0-8.1.8-4.2 2.5 2.1 1 2.2 1.6 2.5 14.7l.3 13.7-3 1.6c-4 2-6.7 1.9-9.1-.5-1.8-1.8-2-3.3-2-17v-15h-6c-3.3 0-6 .3-6 .8zm49.3 1.8c-2.5 2-3.3 3.3-3.3 5.9 0 2.8 1.3 4.5 3.5 4.5 1.4 0 3.5-3.7 3.5-6 0-1.9.7-3.3 1.9-4 5.1-2.7 9.1.3 9.1 6.7 0 4.3.6 3.8-10.1 8.6-7.2 3.2-9.9 6.6-9.9 12.3 0 3.4.5 4.7 2.7 6.3 4.2 3.4 6.7 3.5 12.3.7l5.2-2.6 2.4 2.5c2.8 3 3.9 3.1 8.2.5 3.9-2.4 4.1-3.8.5-4.2l-2.8-.3-.3-13.7c-.3-13.5-.3-13.7-3.1-16.7-2.7-2.9-3.4-3.1-9.8-3.1-5.8 0-7.3.4-10 2.6zm14.7 21.3c0 6.1-.3 7.2-2.2 8.5-1.2.9-3.1 1.6-4.2 1.6-5.3 0-7.6-7.8-3.3-11.8 2.2-2.1 7.5-5.2 9-5.2.4 0 .7 3.1.7 6.9zm20.3-22.6c-3.5 1.2-4.3 3.1-1.8 4.1 1.2.4 1.5 3.1 1.5 15 0 12.7-.2 14.6-1.7 15.5-2.3 1.2-1.4 2 3 2.8 4.2.6 10.7-.4 10.7-1.7 0-.6-.6-1-1.4-1-2.2 0-2.6-2.4-2.6-14.9 0-10.1.3-12 1.8-13.4 2.5-2.3 7.5-3.1 10.1-1.8 2 1.1 2.1 1.9 2.1 15.1 0 12.2-.2 14-1.7 14.9-1.6.9-1.6 1.2-.3 2.1 1.7 1.1 8.3 1.3 11.8.4l2.3-.7-2.1-1.9c-1.8-1.7-2-3.1-2-15.5 0-13.1-.1-13.7-2.6-17-2.2-2.9-3-3.3-7.3-3.3-3.3 0-5.6.6-7.4 2-1.4 1.1-3 2-3.6 2-.6 0-1.1-.9-1.1-2 0-2.3-2.3-2.4-7.7-.7zm68.7-.1c-5.5 2.3-7 3.2-7 4 0 .4.9.8 2 .8 3.1 0 4 3.2 4 13.8 0 10.5-1.3 16.2-3.6 16.2-2.2 0-1.6 1.7.9 2.4 2.9.8 7.7.8 11.7-.1l3.3-.6-2.4-1.8c-2.3-1.7-2.4-2.3-2.9-18.6-.5-18.1-.6-18.4-6-16.1zm39-.3c0 .5.7 1.1 1.5 1.4.8.3 2.4 2.8 3.6 5.4 1.2 2.6 4.6 9.9 7.5 16.1 3 6.2 5.4 12.4 5.4 13.7 0 1.4-1.1 4.4-2.4 6.7-2.4 4.2-2.5 4.3-7.4 4-5.7-.3-7.8 1.3-6.8 5.2.9 3.5 6.4 4.5 10.7 2 4.5-2.7 7.6-9 16.1-32.4 1.1-3 2.4-6.4 2.8-7.5.4-1.1 1.4-3.6 2.1-5.5.7-1.9 2.1-4.7 3.1-6.2 1-1.4 1.8-2.9 1.8-3.2 0-.3-2.2-.6-5-.6-2.7 0-5 .4-5 1 0 .5.5 1 1 1 .6 0 1 .8 1 1.7.1 2.6-6.4 22.3-7.2 22.3-1 0-8.8-16.6-9.5-20.2-.4-2-.1-2.9 1.1-3.4 3.7-1.4 1.1-2.4-6.4-2.4-4.4 0-8 .4-8 .9z"/></svg>