<svg version="1.0" xmlns="http://www.w3.org/2000/svg" viewBox="0 0 2020 1280"><path d="M943.7 51.7 238 52l.2 487.8.3 487.7 707 .3c663.8.2 707.1.1 708.3-1.5.9-1.3 1.2-35.7 1.2-164V700l55.3-.2c48.3-.3 55.2-.5 55.2-1.8s-6.9-1.5-55.2-1.8l-55.3-.2V534l55.2-.2c51.7-.3 55.3-.4 55.6-2.1.3-1.6-2.8-1.7-55.2-1.7H1655V291.7c0-184-.3-238.6-1.2-239.5-.7-.7-1.9-1.1-2.7-1-.9.2-319.2.4-707.4.5zm697.3 5c0 .5-2.2 2.2-4.8 4-2.6 1.7-12.3 8.4-21.7 14.9-23.4 16.2-42.4 29.3-59 40.6-7.7 5.3-14.5 10-15 10.5-.6.6-7.1 5.1-14.5 10.1-13.2 8.9-20 13.6-54 37.2-9.1 6.2-23 15.9-31 21.4-8 5.5-20.7 14.3-28.3 19.5-13.1 9.1-19.6 13.5-56.8 39.2-8.5 5.8-21.5 14.8-28.9 19.9-7.4 5.1-20.5 14.1-29 20s-20.7 14.3-27 18.6c-11.4 7.9-20.3 14.1-36.2 25.1-13.5 9.3-32.9 22.7-47 32.5-7.3 5-20.9 14.3-30.1 20.7-19.4 13.3-44.1 30.3-60.7 41.8-28.6 19.8-41.3 28.6-52.5 36.3-6.6 4.6-19 13.1-27.5 19-17.2 11.8-37.1 25.6-49.7 34.3-14.6 10-24.5 16.9-38.8 26.7-7.7 5.3-19.4 13.4-26 18-6.6 4.6-19 13.1-27.5 19-8.5 5.8-22.7 15.6-31.5 21.7-8.8 6-20.9 14.4-27 18.6-6 4.2-14.6 10.1-19 13.1-4.4 3.1-14.3 9.9-22 15.2-7.7 5.4-20.3 14.1-28 19.4-7.7 5.3-22.1 15.2-32 22.1-9.9 6.8-25.6 17.6-35 24.1-9.3 6.4-20.6 14.2-25 17.2-4.4 3.1-13.4 9.3-20 13.9-6.6 4.5-20.1 13.8-30 20.6-19.7 13.6-36.1 24.9-64.5 44.6-10.2 7.1-25.1 17.4-33.2 22.9-8.1 5.6-21.8 15-30.5 21.1-8.7 6-22.1 15.2-29.8 20.5-26 17.9-46 31.6-57 39.3-6 4.2-14.6 10.1-19 13.1-30.8 21.3-64.5 44.6-110.6 76.4-9.7 6.7-17.9 12.2-18.3 12.2-.3 0-.6-217.4-.6-483V56h699.5c384.7 0 699.5.3 699.5.7zm7 2.7c0 .7-.7 3.1-1.6 5.2-1.6 3.8-2.6 6.1-7.4 16.9-4.6 10.3-18.4 37.3-25.5 50-8.2 14.6-12.1 21.4-14.7 25.2-1.5 2.3-2.8 4.4-2.8 4.7 0 2-37.6 58.8-51.3 77.6-25.8 35.1-50.3 65.8-76.7 96-7.9 9.1-14.7 16.7-15 17-.3.3-2.7 3-5.4 6-19.4 21.6-67.1 69.7-92.1 93-4.9 4.6-11.9 11.1-15.5 14.5-6.9 6.5-35.5 31.7-45.5 40-3.3 2.7-6.2 5.2-6.5 5.5-.5.5-10.1 8.6-27.5 22.9-22 18.2-78.2 60.7-101.8 77.2-4.3 3-11.5 8-16 11.2-11.4 8-60.4 40.9-68 45.6-3.4 2.1-12 7.5-19.2 12.1-7.1 4.5-14.3 9-16 10-1.6 1-6.8 4.1-11.5 7-7.4 4.6-29.8 18-38.5 23-21.1 12.2-27.8 16-28.2 16-.3 0-1.7.8-3.1 1.8-1.5 1.1-5.7 3.5-9.5 5.5-3.7 2.1-9.7 5.3-13.5 7.3-3.7 2.1-7.1 4-7.7 4.4-1.4 1-12.7 7.1-45 24-32.8 17.3-92.4 46.3-126.5 61.7-7.8 3.5-14.5 6.6-22.2 10.2-3.7 1.7-6.9 3.1-7.1 3.1-.3 0-4.4 1.8-9.1 4-4.7 2.2-8.8 4-9 4-.3 0-2.9 1.1-5.8 2.4-2.9 1.3-9.8 4.3-15.3 6.6s-11.8 5-14 6c-2.2 1-7.6 3.2-12 5-7.2 2.8-14.2 5.7-23 9.6-1.6.7-10.6 4.2-20 7.9-9.3 3.6-17.8 7-18.7 7.5-1 .6-2.2 1-2.8 1-.6 0-2.9.9-5.3 1.9-5 2.2-13.5 5.5-27.2 10.5-5.5 2.1-10.9 4.1-12 4.6-2.2 1-26.3 9.9-33.5 12.3-2.5.9-8.3 3-13 4.7-4.7 1.7-11.9 4.3-16 5.6-4.1 1.4-8.4 2.9-9.5 3.4-1.1.5-9 3.2-17.5 6s-16.4 5.5-17.5 6c-1.1.5-7.6 2.7-14.5 4.9s-17.9 5.8-24.5 8C390.9 981 378 985 365 989c-5.8 1.7-11.6 3.5-13 4-1.4.5-7.2 2.3-13 4-5.8 1.7-11.6 3.5-13 4-1.4.4-5.9 1.8-10 2.9-4.1 1.2-10.4 3-14 4.1-10.3 3.1-27.5 8.1-39 11.4-13.7 3.9-14.2 3.2-3.2-4.1 4.2-2.8 15.6-10.6 25.2-17.3 9.6-6.6 24.7-17 33.5-23.1 8.8-6 22.1-15.2 29.5-20.4 7.4-5.1 19.8-13.6 27.5-18.9 7.7-5.3 18.7-12.9 24.5-16.9 5.8-4 17.7-12.3 26.5-18.3 8.8-6.1 22.8-15.7 31-21.4 8.3-5.7 21.5-14.8 29.5-20.3 18.9-13.1 39.6-27.3 54.5-37.7 6.6-4.6 19-13.1 27.5-19 16-11 41.5-28.5 61.8-42.6 6.4-4.4 17.6-12.1 24.7-17 7.2-5 19.8-13.7 28-19.4 8.3-5.7 20.6-14.3 27.5-19 22.7-15.6 49.9-34.4 63.3-43.7 7.3-5 19.5-13.4 27.2-18.7 7.7-5.3 18.7-12.9 24.5-16.9 9.9-6.9 20.6-14.3 59.3-40.9 21.9-15.1 39.7-27.4 54.7-37.8 20.7-14.3 41.7-28.8 55.7-38.4 13.4-9.3 39.2-27 62.1-42.9 7-4.8 17.4-12 23.2-15.9 5.8-3.9 12.1-8.3 14-9.8 1.9-1.5 9.6-6.8 17-11.8 7.4-5.1 18.9-12.9 25.5-17.5 6.6-4.5 19.4-13.4 28.5-19.6 9.1-6.3 23.4-16.2 31.8-22 8.4-5.8 21.7-15 29.5-20.4 7.8-5.3 19.9-13.7 26.8-18.5 7-4.8 19.6-13.5 28-19.3 8.5-5.8 21.5-14.8 28.9-19.9 7.4-5.2 20-13.9 28-19.4 8-5.5 20.7-14.3 28.3-19.5 13.1-9.1 19.6-13.5 56.8-39.2 8.5-5.8 21.5-14.8 28.9-19.9 7.4-5.1 20.5-14.1 29-20 8.5-5.8 20.9-14.4 27.5-19 6.6-4.6 16.7-11.6 22.5-15.5 5.8-4 12.5-8.7 15-10.4 2.5-1.7 11.3-7.8 19.5-13.4 8.3-5.7 20.4-14.1 27-18.7 6.6-4.6 19-13.1 27.5-18.9 8.5-5.9 17.8-12.3 20.5-14.4 5.5-4 6.5-4.4 6.5-2.3zm1.6 19.3c-1.6 20.9-2.6 31.3-3.6 38.3-.6 4.1-1.5 10.6-2 14.5-.5 3.8-1.4 9.7-2 13-.6 3.3-1.5 8.9-2 12.5-.5 3.6-1.4 8.7-2 11.5-.6 2.7-1.5 7.2-2 10-1 5.3-4.6 21.7-6 27.5-.4 1.9-1.3 5.5-1.8 8-1 4.4-3.5 13.9-6.6 25.2-.9 3.2-2.2 8.2-3 11-1.6 5.9-3.5 12.2-7.6 24.8-1.6 4.7-3.9 12.1-5.3 16.5s-4 11.8-5.7 16.5c-1.8 4.7-3.5 9.6-4 11-1.2 3.8-14.8 37.8-17.6 43.8-1.3 2.9-2.4 5.4-2.4 5.6 0 .2-1.8 4.4-4.1 9.3-2.2 4.8-4.7 10.4-5.6 12.3-2.7 6-16.8 34.2-20.6 41.3-2.1 3.7-5.3 9.7-7.3 13.4-4.5 8.4-15 26.4-25.7 43.8-4.6 7.5-27.9 42.1-34.7 51.5-36.9 51.1-83.8 103.5-132 147.3l-9.5 8.7-128-.3-128-.2-.3-4.8c-.4-5.5-.6-5.6-10.7-2.6-6.8 2-8.5 2.4-17.2 4.8-2.4.6-6.1 1.6-8.3 2.3-2.2.6-4.2.9-4.5.6-.5-.5 1.3-1.7 22.2-14.9 22-13.9 74.8-49.1 92.4-61.7 3.7-2.6 9.5-6.7 13-9.2 6.1-4.2 27.2-19.6 38.9-28.4 3-2.3 11.6-8.8 19-14.6 7.4-5.8 16.7-13 20.5-16 3.9-2.9 10.6-8.3 15-12 4.4-3.6 10.5-8.6 13.5-11 3-2.5 5.7-4.7 6-5 .3-.3 3-2.5 6-5s5.7-4.7 6-5c.3-.3 3.4-3 7-6s6.7-5.7 7-6c.3-.3 3.9-3.4 8-7s7.7-6.7 8-7c.3-.3 4.3-3.9 9-8s11.7-10.4 15.5-14.1c3.9-3.6 10.2-9.4 14.1-13 19.4-17.5 78.6-78.2 100.4-102.9 4.1-4.7 8.3-9.4 9.4-10.5 6.6-7.1 39.1-46.6 52.2-63.5 25.1-32.3 61.4-84.5 73.5-105.7 1-1.7 2.9-4.9 4.2-7 14-22.3 35-62.4 46.8-89.1 2.4-5.5 3.2-3.7 2.5 5.5zm1.2 251.6-.3 199.2h-116l-.3-4.8c-.2-2.6-.7-4.7-1.2-4.7s-3.5.7-6.7 1.6c-3.2.9-7.4 2-9.3 2.4-1.9.5-5.3 1.4-7.5 2-5.1 1.4-11.2 3-14.8 3.7-3.7.7-3.2 3.5.8 4.4 1.7.4 5.5 1.4 8.5 2.2 12.6 3.5 25.6 7 27.7 7.4 2 .5 2.2.1 2.5-4.3l.3-4.9h116v161l-153.2.3c-84.3.1-153.3-.1-153.3-.4 0-.3 4.4-4.7 9.8-9.7 20.9-19.5 56.5-55.9 70.2-71.7 3.6-4.1 7.3-8.4 8.4-9.5 1-1.1 5.5-6.5 9.9-12 4.5-5.5 9-10.9 10-12 2.5-2.7 20.7-26.7 29.2-38.5 3.7-5.2 7.2-9.9 7.6-10.5.5-.5 2.8-3.9 5.2-7.5 2.4-3.6 6.2-9.2 8.4-12.5 4.7-7 15.3-23.6 16.8-26.2.6-1 4.2-7.2 8.1-13.8 9.2-15.5 14-23.9 19.8-34.8 5.3-9.9 22.6-44.4 22.6-45.1 0-.2 1.8-4.4 4.1-9.3 2.2-4.8 4.6-10.2 5.4-11.8.7-1.7 2.2-5 3.3-7.5 1.7-3.8 13-32.2 19.1-48 1-2.5 4.6-13.3 8-24 3.5-10.7 6.7-20.4 7.1-21.5 1.2-3.1 4.1-12.6 5-16.5 1-3.9 1.8-7.1 5-18 1.2-4.1 2.5-9.3 3-11.5.5-2.2 1.3-5.8 2-8 .6-2.2 1.5-6 2-8.5s1.4-6.5 2-9c.6-2.5 1.5-6.5 2-9 .7-4.4 2.9-15.3 5-25.5.6-2.8 1.8-9.5 2.6-15s1.9-12.7 2.4-16c.5-3.3 1-6.7 1.1-7.5 0-.8.5.2 1 2.3.5 2.3.8 87.2.7 203zm-612.4 368.1c.6.8 3.8 2.1 7.1 2.9 3.3.8 11.4 2.9 18 4.7 16.3 4.4 15.9 4.5 16.5-1l.5-4.5 124.8-.3c75.1-.1 124.7.2 124.7.7 0 .9-3.6 4.1-22 19.1-3 2.5-5.7 4.7-6 5.1-.3.3-3.4 2.8-7 5.5-3.6 2.8-10.4 8.1-15.2 11.8-19.2 14.8-60.5 43.4-79.8 55.3-3.6 2.2-10.5 6.5-15.5 9.5-4.9 3.1-16.9 10-26.5 15.5-42.6 24.2-85.3 45.3-131.5 64.8-1.6.7-6.3 2.7-10.3 4.4-4 1.8-11.4 4.8-16.5 6.7-5.1 1.9-10.1 3.9-11.2 4.3-5.4 2.3-12.9 5.1-13.6 5.1-.5 0-2.8.9-5.2 1.9-5.8 2.6-11.7 4.8-21.7 8.1-4.7 1.6-14.3 4.9-21.5 7.3-7.1 2.5-19.1 6.4-26.5 8.7-7.4 2.3-15.5 4.9-18 5.7-2.5.8-7.6 2.4-11.5 3.4-3.8 1.1-10.1 2.9-14 4-20.3 5.8-39.5 11-50 13.4-3.3.8-7.6 1.9-9.5 2.4-4.1 1.2-16.5 4.1-30 7.1-5.2 1.1-11.4 2.5-13.7 3-7.4 1.7-13.7 3.1-17.8 4-2.2.5-5.3 1.2-7 1.5-1.6.4-5.2 1-8 1.5-4.9.7-16.4 3-25.5 4.9-2.5.6-7.4 1.5-11 2.1-3.6.6-8.7 1.5-11.5 2-2.7.5-8.1 1.4-12 2-3.8.6-9.2 1.5-12 2-2.7.5-8.1 1.4-12 2-3.8.6-9.5 1.5-12.5 2s-9.5 1.4-14.5 2c-4.9.6-11.5 1.5-14.5 2s-9.5 1.4-14.5 2c-4.9.6-12.4 1.5-16.5 2-24.9 3.1-47 5.4-76.5 8-6.6.6-16.7 1.5-22.5 2-5.8.5-18.4 1.4-28 2-9.6.6-23.8 1.5-31.5 2-21.7 1.5-61.2 3-80 3.1-9.3 0-25.8.4-36.5.9-10.7.4-20 .5-20.7.1-.7-.3 2.2-1.7 6.5-2.9 4.2-1.2 10.9-3.2 14.7-4.3 3.9-1.1 8.1-2.4 9.5-2.9 1.4-.4 4.3-1.3 6.5-1.9 3.7-1 13.6-3.9 21-6 6.4-1.9 24.4-7.4 33-10.1 5-1.6 15.1-4.7 22.5-7s14.4-4.6 15.5-5c1.1-.4 19.1-6.4 40-13.3s40.5-13.5 43.5-14.6c21.3-7.7 29.2-10.5 34-12.1 5.9-1.9 24.2-8.6 27.5-10 1.1-.4 4.5-1.7 7.5-2.8 14.4-5.2 58-22.1 60.2-23.3 1-.5 2.3-.9 2.8-.9.6 0 3-.9 5.2-2 2.3-1.1 4.5-2 5-2s2.7-.8 5.1-1.9c2.3-1 6.7-2.8 9.7-4.1 3-1.3 6.9-2.9 8.5-3.6 1.7-.7 7.7-3.1 13.5-5.4 5.8-2.3 12.5-5.1 15-6.2 7.9-3.5 12.2-5.4 22.5-9.8 9.7-4 12.1-5.1 19.5-8.3 4-1.7 11.4-5 21.3-9.6 3.7-1.7 7-3.1 7.2-3.1.2 0 4.6-2 9.7-4.4 5.1-2.4 11.6-5.4 14.3-6.6 23.8-10.8 100.5-48.4 116-57 2.8-1.5 10.8-5.8 17.9-9.5 7.2-3.7 13.9-7.3 15-8 1.2-.7 5.6-3.1 9.9-5.4 16.6-8.8 53.9-30 68.6-38.8 4.1-2.5 8.9-5.4 10.7-6.4 8.6-4.8 10.3-5.9 16.9-9.9 7.1-4.4 11.7-7 12.4-7 .2 0 .9.6 1.5 1.4zM1650.5 862v161.5l-617.2.3c-382.2.1-618-.2-619.5-.7-1.7-.7 0-1 6.6-1 4.9-.1 13.9-.5 20-1.1 6.1-.5 17.2-1.4 24.6-2 7.4-.6 17.8-1.5 23-2 5.2-.5 15.1-1.4 22-2 6.9-.6 15.7-1.5 19.5-2 3.9-.5 11.7-1.4 17.5-2 5.8-.6 13.7-1.5 17.5-2 3.9-.5 11.1-1.4 16-2 5-.6 11.7-1.5 15-2 7-1.2 25-3.7 35-5 3.9-.5 9.5-1.4 12.5-2 3-.5 8.4-1.5 12-2 3.6-.5 9-1.4 12-2 3-.6 8.4-1.5 12-2 3.6-.5 8.5-1.4 11-2 2.5-.6 7-1.5 10-2s7.8-1.5 10.5-2c2.8-.6 7.5-1.5 10.5-2 5.2-.9 12.3-2.4 33.3-7.1 5-1.1 11.2-2.4 13.7-3 4.2-.9 11.1-2.5 22-5.1 2.5-.5 5.9-1.4 7.5-1.9 1.7-.4 6.8-1.7 11.5-2.9 16.7-4.2 24.6-6.2 31-8.1 3.6-1 13-3.7 21-5.9 8-2.3 15.6-4.5 17-5 1.4-.5 7.2-2.3 13-4 14.4-4.3 28.7-8.9 33.5-10.7 2.2-.9 5.4-1.9 7-2.3 1.7-.5 6.8-2.2 11.5-4 4.7-1.7 11-4 14-5 6.1-2 18.4-6.6 21.5-7.9 1.1-.5 7-2.8 13-5.1 10.8-4 16.7-6.4 25.2-10.1 2.4-1.1 4.5-1.9 4.8-1.9.3 0 2.7-1 5.3-2.1 11.1-5 13.2-5.9 13.6-5.9.2 0 3.8-1.6 8-3.5s11-5.1 15.2-7c4.2-1.9 7.8-3.5 8-3.5.8 0 46.2-22.6 56.4-28.1 14.3-7.6 21.1-11.4 25.3-13.7 2-1.2 5.2-3 7-4.1 11.1-6.4 19.5-11.3 37.2-22.1 20.9-12.8 65.9-43.9 87.5-60.5 4.7-3.6 9.8-7.6 11.4-8.8 5.3-4 8.6-6.8 27.1-22.6l14-11.9 156.5.1 156.5.2V862zM40.8 131.7c-2.6.6-4 6.3-2.9 11.3 1.2 5.6 4.4 8.6 10.6 10.1 2.8.6 5.6 1.3 6.3 1.5.6.2 1.2 1.5 1.2 3 0 3.4 2.4 2.6 2.8-1l.3-2.7 14.7.3c14.2.3 14.7.4 15.7 2.5 1.8 4.2 2.5 2.4 2.5-6.7 0-5-.4-9-.9-9s-1.1 1-1.3 2.2c-.2 1.4-1.3 2.5-2.8 2.9-3.2.9-24.3 1.1-26.4.3-.9-.4-1.6-1.8-1.6-3.4 0-7-2.8-8.1-3.2-1.3l-.3 4.8-4 .3c-5.6.5-11.5-1.4-11.5-3.7 0-.9 1.4-3 3-4.6 1.7-1.6 3-3.4 3-4.2 0-1.6-3-3.1-5.2-2.6zM64.7 166c-4.9 2.4-7.4 5.3-8.7 9.9-2.1 7.5-.8 13.3 4 18.1 8.7 8.7 24.4 7.1 30.5-3.2 2.8-4.8 2.3-15-.9-19.3-5.3-6.9-17-9.5-24.9-5.5zm19.6 7.1c5.8 3 7.3 8.9 3.4 13.1-2.6 2.8-11.4 5.8-17 5.8-4.5 0-10.3-2.5-11.7-4.9-4.2-7.9 3.8-15 16.8-15.1 3.5 0 7.3.5 8.5 1.1zm5.4 52.3c-.4 1-3.8 1.5-14.7 1.8l-14.2.3-2.9 3.3c-3.4 3.8-3.7 7.3-.9 12.5 2.4 4.4 2.4 4.7.5 4.7-1.8 0-1.9 2.8-.3 8.1 1.2 4.3 2.3 4.9 3.1 1.9.5-1.9 1.4-2 14.6-2 11.7 0 14.3.3 14.7 1.5 1.4 3.5 2.4 1 2.4-6 0-4.3-.4-7.5-1-7.5-.5 0-1 .6-1 1.4 0 2.2-2.4 2.6-14.5 2.6H64.1l-2-2.9c-2.5-3.5-2.7-6.4-.5-8.5 2.2-2.3 25.5-2.3 27.8-.1.8.8 1.7 1.5 2 1.5.3 0 .6-3.2.6-7 0-6.5-1-9-2.3-5.6zm-24.8 39.9c-4.1 1.9-6.1 3.9-8 8.2-4.1 8.8-1 18.7 7.1 23.2 3.8 2.1 5.5 2.4 11.1 2 7.4-.5 11.2-2.5 15-7.9 1.8-2.5 2.2-4.4 2.1-9.5-.1-7.5-2.8-12-9.2-15.3-4.4-2.3-13.8-2.6-18.1-.7zm22 9.3c7.7 6.4.2 15.7-13.4 16.4-6.9.4-9.5-.1-12.4-2.6-5.5-4.6-3.5-11.6 4.3-15 1.7-.7 6.6-1.3 10.8-1.4 6.8 0 8 .3 10.7 2.6zm73.1 2.8c-3 .7-7.3 2.1-9.5 3.2-6.6 3.1-19.4 16.4-15.9 16.4.4 0 2.2-1.5 3.9-3.3 6-6.2 16.7-9.7 29.7-9.7 11.9 0 21.5 3.1 27.5 8.9 4.2 4 5.9 4 3.6 0-4.2-7.2-14.1-13.4-25.1-15.8-6.2-1.3-7-1.3-14.2.3zm-70.7 29.1c-2.1 2.5-2.4 2.5-17.9 2.5H55.7l.6 3.2c.3 1.8 1 4.6 1.6 6.2l1.1 2.8 2.1-2.6c2-2.5 2.3-2.6 13.5-2.6 11.7 0 15.4.9 15.4 3.5 0 .8.5 1.5 1 1.5.6 0 1-3.5 1-8.5 0-4.7-.1-8.5-.2-8.5-.2 0-1.3 1.2-2.5 2.5zm73.2-1.3c-3.3 1.8-4.5 4-4.5 8.2 0 5.4 2.9 10 8.7 13.6 7.5 4.8 17.7 3.9 20.2-1.7 3.5-7.6-3.1-16.8-14.5-20.1-5-1.5-7.3-1.5-9.9 0zm13.7 4c3.9 2.2 7 5.2 7.9 7.7 1.2 3.1-1.3 7.1-4.4 7.1-4.2 0-13.2-4-15.9-7-3.4-3.7-3.5-6.3-.5-8.5 2.5-1.8 9-1.5 12.9.7zm-137.6 1.4c-2 2-2 2.7.3 5.5 1.8 2.2 1.9 2.2 4.5.6 3.1-2.1 3.4-5.2.7-6.7-2.7-1.4-3.7-1.3-5.5.6zm95.4 6.8c0 .8.9 3.1 2.1 5 2.8 4.8 2.8 11-.1 16.5-1.9 3.9-2.1 4.9-1.1 8.3 1.8 5.8 6.4 10.4 12.9 12.8 4.9 1.9 6.2 2 9.2 1 5.7-2 7-3.7 7-9.3 0-3.7-.6-5.8-2.4-8.1-3.1-4.1-9.9-7.5-15.6-7.8l-4.5-.3-.5-5.3c-.3-3-.3-5.5 0-5.7.3-.2 6.2 2.8 13.1 6.6 6.8 3.9 15.3 8.6 18.9 10.6 3.6 2 8.4 4.7 10.7 6 3.8 2.2 4.4 2.3 4.9.8.4-.9.3-2-.2-2.5-.8-.7-14.2-8.3-31.9-18-3.3-1.8-9.4-5.2-13.6-7.6-8.4-4.9-8.9-5-8.9-3zm19.2 23c3.9 2.1 8.8 7.6 8.8 9.7 0 .5-.9 1.8-2.1 3-1.7 1.7-2.9 2-6.1 1.5-4.9-.8-9.4-3-13-6.4-3.1-2.9-3.3-3.9-1.6-7.7.9-2.1 1.8-2.5 5.4-2.5 2.7 0 6 .9 8.6 2.4zM86 324.9c0 .6.5 1.3 1 1.6 2 1.2 1 4.5-1.6 5.5-3.9 1.5-25.4 1.3-25.8-.3-.3-.6-.7-2.5-1.1-4.1-.7-3.4-2.2-2.4-2.7 1.9-.3 2.8-.6 3-4.5 3.3-2.9.2-4.3.8-4.3 1.8 0 .8.4 1.4.9 1.4s2.8 1.9 5.2 4.2c4.2 4.1 4.3 4.1 5.7 2 1.4-2.1 2.2-2.2 15.7-2.2 15.1 0 16.1-.3 17.9-5.4.9-2.6-1.1-8.4-3.4-9.6-2.3-1.2-3-1.3-3-.1zm-29.4 21.7c-.9.8-1.6 2.2-1.6 2.9 0 2 2.2 6.5 3.2 6.5.4 0 .8.7.8 1.5s-.7 1.5-1.5 1.5c-1.7 0-2 2.8-.6 6.2.5 1.3 1.2 3.1 1.5 4 .5 1.6.8 1.5 3-.7 2.4-2.4 3.1-2.5 13.6-2.5 11.3 0 15 .9 15 3.5 0 .8.5 1.5 1 1.5.6 0 1-3.5 1-8.5s-.4-8.5-1-8.5c-.5 0-1 .7-1 1.5 0 2.6-3.7 3.5-14.3 3.5-8.8 0-10.9-.3-12.8-1.9-2.2-1.8-2.3-2.1-1.1-5.5 1.1-2.9 1.1-4 .2-5.1-1.6-1.9-3.5-1.9-5.4.1zm77.4 23.3c0 .4 1.8 2.9 4.1 5.5 8.8 10 19 14.3 31.8 13.3 8.7-.7 12.8-2 19.1-6.1 4.4-2.9 12-10.4 12-11.8 0-1.6-2.1-.7-4.9 2-1.7 1.5-4.2 3.4-5.8 4.1-1.5.7-3.6 1.7-4.5 2.2-.9.5-5.8 1.4-10.8 2-15.4 2-29.2-1.4-36.4-9-3-3.1-4.6-3.9-4.6-2.2zm-68.6 6c-14.3 6.5-13.5 27.1 1.1 32.7 8 3 18.2.2 23.2-6.3 2.3-2.9 2.6-4.4 2.5-10 0-5.6-.5-7.1-2.9-10.2-5.9-7.3-15.8-9.9-23.9-6.2zm17.9 7.2c13.2 6.8 5 18.9-12.9 18.9-14.5 0-17-14.3-3.2-18.7 4.5-1.5 13.4-1.6 16.1-.2zm-20 32.9c-7.3 3.3-10.2 10.8-6.7 17.5 1.2 2.4 1.3 3.4.3 5.2-.9 1.7-.9 3.2.1 6.8 1.4 4.9 2.4 5.6 4 2.5 1-1.9 2.1-2 22.5-2h21.4l1.9 2.5c1.1 1.3 2.2 2.1 2.6 1.8.9-1 .7-17.3-.2-17.3-.5 0-1.4 1.1-2 2.4-.8 1.9-2.2 2.6-5.5 3.1-2.4.4-5.5.5-6.8.3-2.1-.3-2.4-.8-2.5-4.8-.1-8.7-.4-9.7-4-13.3-6.5-6.4-17-8.4-25.1-4.7zm21.5 8c4.7 2.9 6 6.2 4 10.4-1.8 3.7-4.4 4.6-13.8 4.6s-12-.9-13.8-4.6C58 427.5 64 422 75 422c4.7 0 7.4.5 9.8 2zm91.2-8.4c0 .3 1.4 2.2 3 4.1 2.3 2.6 3 4.3 3 7.7 0 5.6-2.6 8.9-8.7 11-7.6 2.6-7.3 3-7.3-10.4v-12h-3.2c-3.8 0-9.5 4.1-10.9 7.8-2.8 7.1.1 15 7 19.3 3.8 2.5 5.5 2.9 11.3 2.9 7.8 0 11.3-1.4 15.2-6 4.6-5.5 3.4-16.3-2.6-21.6-2.4-2.2-6.8-4.1-6.8-2.8zm-13.6 10c.3.9.6 4 .6 7 0 6.4-1.7 7.8-5.8 4.7-4.5-3.3-4.2-9.2.6-11.7 3.5-1.9 3.9-1.9 4.6 0zm23.6 24.9c0 1.9-2.2 2.3-16.6 2.8-9.3.3-12.6.8-14.7 2.2-5 3.2-5.1 10.1-.4 16.9 2 2.9 2 2.9.1 4.5-4.3 3.5-4.6 9.9-.8 15.6 1.9 2.6 1.8 3.2-.7 3.8-2.3.6-2.2 2.7.3 8.9 1.1 3 2.8 3.8 2.8 1.3 0-2.9 3.9-3.7 16.2-3.3 10 .2 12.2.6 13.2 2 2.2 3 2.6 2.1 2.6-5.7 0-7.7-.6-9-2.8-5.5-1.1 1.8-2.3 2-13.7 2-11.7 0-12.5-.1-13.9-2.2-2.2-3-2.1-8.7.2-10.4 1.2-.9 5.4-1.3 13.9-1.4 11.2 0 12.4.2 13.5 2 .7 1.1 1.6 2 2 2 1.2 0 1-14.8-.2-15.5-.5-.3-1 .1-1 .9 0 2.5-6.8 3.8-17.3 3.5-8.2-.3-9.8-.7-11.1-2.4-1.8-2.4-2.1-8.6-.4-10.3 1.9-1.9 26.2-1.6 28.2.3.8.8 1.7 1.5 2 1.5.3 0 .6-3.4.6-7.5 0-4.3-.4-7.5-1-7.5-.5 0-1 .7-1 1.5zm-121.2 5.4c-4.8 2.4-6.5 4.2-8.3 8.5-4.2 10.1 1 21.3 11.3 24.3 5.4 1.7 6.9 1.6 12.5-.3 5.5-1.9 11.6-8.1 11.9-12.2.4-7-.5-11.8-2.7-14.8-5.1-6.7-17-9.3-24.7-5.5zm20.2 7.6c8.7 4.5 5.7 13.7-5.5 17-6.7 1.9-11.3 1.9-15.8 0-8.6-3.6-7.4-12.9 2.1-17.1 4-1.8 15.7-1.7 19.2.1zm-28.4 29.1c-2.2 2.2-2 4.5.8 8.7 2.4 3.5 2.4 3.5.4 4-2.2.6-2.2 3 .1 8.9l1 2.8 2.5-2.5c2.4-2.3 3.2-2.5 13-2.5 10.6 0 15.6 1.2 15.6 3.7 0 .7.5 1.3 1 1.3.6 0 1-3.5 1-8.5 0-8.6-.7-10.4-2.5-6.3-.9 2.2-1.7 2.3-12.6 2.6-10.2.2-11.9 0-14-1.7-2.2-1.8-2.3-2.1-1.1-5.5 1.1-2.9 1.1-4 .2-5.1-1.6-1.9-3.5-1.9-5.4.1zm1715.2 6.1c-1.9.5-1.3 3.3.6 3.3 1.6 0 5.5 4.9 13.4 16.7l6.2 9.2v9.9c0 10.1-.7 12.2-4.2 12.2-1 0-1.8.4-1.8 1s4.3 1 11 1 11-.4 11-1-.8-1-1.8-1c-3.5 0-4.2-2.1-4.2-12.7v-10.4l7.9-11.7c4.7-7.1 8.9-12.2 10.5-13 1.4-.6 2.6-1.8 2.6-2.7 0-1.2-1.4-1.5-6.9-1.5-7.2 0-9.8 1.3-6.8 3.5 1 .7 1.7 1.8 1.7 2.5 0 1.8-10.3 18-11.5 18-1 0-10.8-14.1-12.1-17.4-.4-1.2.1-2.2 1.6-3.3 1.7-1.2 1.9-1.7.9-2.4-1.4-.9-15-1-18.1-.2zm179 2.5c-5.7 3.1-7.8 5.6-3.8 4.3 4.5-1.4 5 .5 5 20.1 0 19.1-.7 23.2-4 24.1-4.7 1.2-1.4 2.3 7 2.3 5.3 0 9-.4 9-1s-.9-1-1.9-1c-1 0-2.2-.7-2.5-1.6-.3-.9-.6-11.8-.6-24.4 0-21.5-.3-26.1-1.9-26-.3.1-3.2 1.5-6.3 3.2zM160.2 514.1c-5 2.5-7.5 5.8-8.9 11.6-3.6 14.4 11.5 26.6 25.5 20.8 7.5-3.2 11.2-8.6 11.2-16.5 0-2.8-.6-6.3-1.4-7.8-4.7-9-16.9-12.8-26.4-8.1zm20.5 7.9c9.3 5.6 5.1 14.3-8.2 17.1-11 2.2-18.5-1-18.5-8.1 0-6.7 6.5-10.8 17.5-10.9 4.3-.1 6.9.5 9.2 1.9zm1650.8-6.3c-3.3.8-8.4 5.2-10.2 8.6-2.2 4.3-2.3 16.1-.1 20.2 3.1 5.9 6.2 7.8 12.5 7.9 4.4.1 6.7-.5 9.5-2.2 3.2-2 7.8-7.6 7.8-9.6 0-1.3-2.6-.5-3.7 1.2-1.8 3-8 5.5-11.7 4.8-5.1-1-9.6-7.1-9.6-13.1V530h12c10.6 0 12-.2 12-1.7 0-2.7-3.8-9.7-6-11.1-2.3-1.4-9.5-2.3-12.5-1.5zm6.3 4c1.2 1 2.2 2.9 2.4 4.3.3 2.4.1 2.5-6.5 2.8-8.2.4-9.6-1.2-5.1-5.9 3.2-3.3 6.2-3.7 9.2-1.2zm27.3-3.7c-5.8 1.4-9.4 6.9-6.8 10.4 2.2 3 5.7 1.2 5.7-2.8 0-4.1 1.5-5.6 5.7-5.6 3.8 0 5.6 2.5 5.1 7.3-.3 3.2-.7 3.5-10.7 8.1-1.3.6-3.7 2.3-5.3 3.8-3.6 3.3-4 10.4-.8 13.3 2.9 2.6 9.9 2.4 13.7-.3l3.1-2.2 1.4 2.2c1.8 2.6 8.1 2.9 10.5.5 1.8-1.7.9-3.9-1.2-3.1-2.5 1-3.5-3.3-3.5-15.4 0-11.1-.1-12-2.3-14-2.6-2.5-9.4-3.5-14.6-2.2zm9.9 22.5c0 6.2-.1 6.5-3.1 8.1-8.4 4.3-11.7-6.8-3.6-12.3 5.7-3.9 6.7-3.2 6.7 4.2zm30.1-20.9c-2.5 2-3.1 2.2-3.1 1 0-.9-.7-1.9-1.5-2.2-1.6-.6-10.5 1.6-10.5 2.6 0 .3.9 1.3 2 2.3 1.8 1.5 2 2.9 2 14.2 0 11.4-.2 12.6-2 13.7-3.5 2.2-2.2 2.8 6 2.8 7.4 0 10.5-1.1 6.2-2.3-2.3-.5-3.2-4.5-3.2-14.2 0-11.9 2.6-16 8.3-13.4 1.4.6 3.3.9 4.1.6 2.3-.9 2-5.4-.3-6.7-3-1.6-4.7-1.2-8 1.6zM65.5 521.3c-5.3 2.1-7.4 3.7-9 6.7-2 3.8-1.8 7.6.5 12.5 1.6 3.5 1.7 4 .3 4.3-1.7.4-1.4 4.2.6 9.6l1.1 2.8 2.1-2.6 2-2.6H105l1.6 2.5c.9 1.4 2 2.5 2.5 2.5 1.2 0 1.1-16.7-.1-17.5-.5-.3-1-.1-1 .4 0 .6-.9 2-2 3.1-1.5 1.5-3.3 2-7.9 2h-5.9l.1-7.2.1-7.1-4.6-4.2c-6.7-6-15.1-8-22.3-5.2zm18.5 8.2c6.1 3.2 7.6 8.5 3.5 12.9-2.3 2.5-2.9 2.6-12 2.6-10.8 0-12.7-.6-14.4-4.9-1.6-3.8.7-8.7 5.2-10.6 4.3-1.9 14.1-1.9 17.7 0zm72.4 24.5c-2.7 1.1-3.6 2.4-5 7.5-1.5 5.9.1 11.6 4.6 16 8 7.8 21.9 7.7 28.8-.1 2.8-3.2 3.2-4.5 3.2-9.2 0-6.3-2.8-11-8.1-13.8-3.4-1.7-4.7-1.4-2.7.7 5 5.1 6.2 10.9 3.2 15.5-2.5 3.8-7.2 5.7-13.6 5.7-4.7 0-6.3-.5-9.3-2.7-3.2-2.5-3.6-3.2-3.3-6.9.2-3.3.7-4.2 2.5-4.7 2.6-.6 6.3-3.5 6.3-4.9 0-1.1-2.8-4.1-3.8-4-.4 0-1.7.4-2.8.9zM80 580.8c0 .5 1.1 1.9 2.5 3.2 3.8 3.6 5 8.8 3.2 13.2-1.7 4.1-5.4 6.4-11.6 7.4l-4 .6-.3-11.8-.3-11.9-3.1.1c-10.1.5-14.8 14-8 22.9 7.2 9.4 25.1 9.4 32 .1 3.2-4.2 2.8-13.4-.8-18-3.2-4.3-9.6-8.1-9.6-5.8zm-13.2 16.5c.3 6.5.2 6.7-2.2 6.7-2.8 0-6.6-4.2-6.6-7.2 0-2.5 4.6-7 6.8-6.6 1.4.3 1.8 1.6 2 7.1zm118.6-8.6c-.9 1.5-3.2 1.9-15.4 2.3-14 .5-14.2.6-16.6 3.3-3 3.5-3.1 7.9-.4 13 2.5 4.6 2.5 4.7-.1 4.7-1.8 0-2 .4-1.5 2.7 1.1 4.5 2.8 8.3 3.7 8.3.5 0 .9-.6.9-1.4 0-2.2 2.4-2.6 14.9-2.6 8.8 0 12.2.4 13.7 1.5 1 .8 2.2 1.5 2.7 1.5.4 0 .7-3.2.7-7 0-7.3-.4-8.2-2.6-5.3-1 1.5-3.2 1.9-12.8 2.1-11.5.4-11.6.4-14.1-2.4-2.9-3.2-3.3-7.4-.7-9.7 1.5-1.4 4.1-1.7 13.3-1.7 10.1 0 11.8.2 13.7 2 1.2 1.1 2.4 2 2.7 2 .3 0 .5-3.4.5-7.5 0-7.6-.6-8.9-2.6-5.8zM56 619c0 4.7 1.1 6.3 2.5 4 .3-.6 1.4-1 2.3-1 1.9 0 17.2 5.8 18.6 7.1.6.5-.7 1.6-3 2.5-2.1.9-5.2 2.2-6.9 2.9-8.8 3.8-9.7 3.9-11 2.2-2.1-2.9-2.5-1.9-2.5 5.8 0 6.9 1 9.5 2.3 6.1.3-.8 2.9-2.5 5.9-3.9 8.5-3.9 14.7-6.7 15.3-6.7.3 0 2.4-.9 4.8-1.9 2.3-1 5-2.1 6-2.5 4.4-1.4 1.2-3.6-14-9.6-8.7-3.4-16.5-7.1-17.5-8.1-2.4-2.8-2.8-2.4-2.8 3.1zm130 10.4c0 2.3-2.4 2.6-18 2.6-17.1 0-17.6.2-15.3 7 1.9 5.7 1.9 5.7 4 3.1 1.7-2.1 2.5-2.2 14.8-1.9 12.3.3 13 .4 14.1 2.5.6 1.3 1.4 2 1.7 1.6 1.1-1.1.8-16.3-.3-16.3-.5 0-1 .6-1 1.4zm-51.8 4.8c-2.5 2.5-.6 6.8 2.9 6.8 2.7 0 5-3.9 3.8-6.2-1.1-2-4.9-2.4-6.7-.6zM90 654.4c0 2.5-6 3.6-20 3.6-7.5 0-13.9.3-14.2.6-.6.6 2.4 9.9 3.5 11 .4.4 1.1-.5 1.6-2L62 665h12.4c13.2 0 15.6.4 15.6 2.6 0 .8.5 1.4 1 1.4.6 0 1-3.3 1-8s-.4-8-1-8c-.5 0-1 .6-1 1.4zm-52 5.5c-1.6 3.1.4 6.3 3.7 5.9 5.5-.7 5.5-6.9 0-7.6-1.8-.2-2.9.3-3.7 1.7zm1733.3 4.7c-1.5.7-.5 3.4 1.2 3.4 1.4 0 6.1 6 14.3 18.1l5.2 7.5v10c0 10.3-.7 12.4-4.2 12.4-1 0-1.8.4-1.8 1s4.3 1 10.9 1c6.3 0 11.2-.4 11.6-1 .3-.6-.4-1-1.7-1-4.2 0-4.8-1.7-4.8-12.8v-10.3l8.1-12c4.9-7.2 9.1-12.4 10.5-13 1.3-.4 2.4-1.5 2.4-2.4 0-1.2-1.4-1.5-6.7-1.5-8.1 0-10.7 1.1-7.4 3.1 1.1.8 2.1 2 2.1 2.8 0 1.9-10.3 18-11.5 18-1.2 0-11.5-15-12.2-17.8-.3-1.3.2-2.1 1.6-2.6 2.5-.8 2.7-2 .5-2.9-1.8-.7-16.3-.7-18.1 0zm174.4 1.3c-4.3 2.8-7.9 8.4-7.5 11.7l.3 2.8 2.7-4c3.4-5.3 7.6-7.1 12.6-5.6 8.2 2.5 9.5 13.1 2.9 23.4-1.9 2.9-6.9 8.9-11.1 13.3-4.2 4.4-7.6 8.6-7.6 9.2 0 1.8 29.3 1.8 30.7 0 1.6-2 3.6-7.7 3-8.3-.3-.4-1.8.3-3.3 1.5-2.3 1.8-4 2.1-12 2.1-5.2 0-9.4-.4-9.4-.9s3-4 6.6-7.7c7.9-8.3 14.1-17.4 15-22.1 1-5.2-1.1-10.7-5.4-14.2-3.1-2.6-4.5-3.1-9.2-3.1-3.7 0-6.4.6-8.3 1.9zM186 671.4c0 .8-.7 1.7-1.6 2-.9.3-12.6.6-26 .6-25.7 0-24.9-.1-24.4 4.5.2 2.5 2.3 7.5 3.1 7.5.4 0 .9-.9 1.2-2 .5-1.9 1.4-2 23.1-2 21.5 0 22.6.1 23.8 2 2.2 3.5 2.8 2.2 2.8-6 0-4.7-.4-8-1-8-.5 0-1 .6-1 1.4zm-100 1.5c0 .6.5 1.3 1 1.6.6.3 1 1.6 1 2.9 0 3.8-3.3 4.7-16.5 4.4l-12-.3-.5-3.4c-.7-4.9-2.8-5.1-3.2-.4-.3 3.7-.4 3.8-4.5 4.1-2.4.2-4.3.6-4.3 1s2.3 2.7 5.1 5.1c4.5 3.9 5.3 4.2 6.3 2.9 1-1.3 3.9-1.7 15.9-2 12.4-.2 14.9-.6 16.4-2.1 2.6-2.5 2.2-9.1-.7-12.3-2.4-2.5-4-3.1-4-1.5zm1744.6 9.1c-7 2.2-10.9 8.7-11 18.5-.1 11.7 5.1 17.9 14.8 17.9 6.5 0 12.4-3.4 14.9-8.5 2.1-4.3.8-4.8-3.1-1.1-8.4 7.9-20.2 2.3-20.2-9.5V696h12c10.6 0 12-.2 12-1.7 0-2.7-3.8-9.7-6-11.1-2.8-1.7-9.8-2.3-13.4-1.2zm7.3 3.7c1.1 1 2.2 2.9 2.3 4.3.3 2.4.1 2.5-6.5 2.8-8.2.4-9.6-1.2-5.1-5.9 3.2-3.3 6.2-3.7 9.3-1.2zm27.2-3.7c-5.8 1.4-9.4 6.9-6.8 10.4 2.2 3 5.7 1.2 5.7-2.8 0-4.1 1.5-5.6 5.7-5.6 3.8 0 5.6 2.5 5.1 7.3-.3 3.2 0 3-11.7 8.6-4.9 2.3-7.1 5.7-7.1 10.6 0 5.5 2.5 7.8 8.4 7.8 2.8 0 5.4-.7 7.4-2.2l3.1-2.1 1.5 2.2c2.7 3.8 11.6 2.3 11.6-1.9 0-.9-.6-1.3-1.5-.9-.8.3-2.1-.2-3-1-1.2-1.2-1.5-4.1-1.5-13.8 0-11.5-.1-12.4-2.3-14.4-2.6-2.5-9.4-3.5-14.6-2.2zm9.9 22.5c0 6.5-.1 6.6-3.2 7.9-8.5 3.6-11.5-6.7-3.5-12.1 5.7-3.9 6.7-3.2 6.7 4.2zm30.5-21.3c-2.5 1.9-2.8 2-3.7.5-1.1-2.1-3.5-2.1-8.3-.1l-3.7 1.5 2.1 2c1.9 1.8 2.1 3 2.1 14.4s-.2 12.6-2 13.7c-3.5 2.2-2.2 2.8 6 2.8 7.4 0 10.5-1.1 6.2-2.3-2.3-.5-3.2-4.5-3.2-14.2 0-11.9 2.6-16 8.3-13.4 1.4.6 3.3.9 4.1.6 2.3-.9 2-5.4-.3-6.7-2.9-1.5-4.5-1.2-7.6 1.2zM183 692c0 2.5-1.8 2.9-15.6 3.2-12.8.3-14.5 1.2-16.2 7.9-2 7.8 2.5 16.9 8.2 16.9 1.3 0 2.9-.6 3.5-1.4 1.9-2.3-.4-5.6-3.9-5.6-5.3 0-7.5-4.4-4.4-8.8 1.1-1.6 2.5-2.2 5.3-2.2 3.6 0 4 .3 6 4.5 1.2 2.5 2.1 4.7 2.1 5 0 .3 1.1 2.3 2.5 4.4 4.2 6.2 10 7.8 14.9 4 3.4-2.7 3.7-9.6.4-14.2l-2.2-3 2.2-1.5c3.8-2.5 2.6-11.2-1.5-11.2-.7 0-1.3.9-1.3 2zm-1.6 12.2c3.3 4.7 1 9.8-4.4 9.8-3.4 0-9-6.1-9-9.7 0-2.1.4-2.3 5.9-2.3 5.1 0 6.2.3 7.5 2.2zm-93.6-7.6-.3 2.9-13 .5c-7.1.3-13.8.9-14.7 1.4-3 1.4-5.1 7.4-4.5 12.7.9 7.8 5.4 12.4 10.2 10.5 4.1-1.5 2.3-6.6-2.4-6.6-3.6 0-5.1-1.7-5.1-5.7 0-2.7.5-3.5 2.7-4.4 3.5-1.3 7.4-.8 8.3 1.1.4.8 2.2 4.5 3.9 8.2 2.5 5.2 4 7 6.7 8.3 4.1 1.9 8.4 1.3 11-1.7 2.6-2.7 2.4-9.6-.4-13.5l-2-2.9 2.5-2.2c2.9-2.5 2.6-6.3-.7-9.6-1.8-1.8-1.8-1.8-2.2 1zm-3.1 11.2c2.1 1.3 3.4 6.1 2.2 8.3-2.6 4.9-9.2 3.7-12.9-2.4-3.4-5.6-2.8-6.7 3.8-6.7 3.1 0 6.2.4 6.9.8zm97.3 18.1c0 .6.5 1.3 1 1.6 1.7 1.1 1.1 4.4-1 5.5-1.2.6-7.1.9-14.7.8l-12.8-.3-.3-3.8c-.2-2-.7-3.7-1.2-3.7s-1 1.7-1.2 3.7c-.3 3.8-.3 3.8-5 4.1-2.7.2-4.8.6-4.8 1s2.5 2.9 5.6 5.6c4.8 4.2 5.7 4.6 6.7 3.3.9-1.2 4-1.6 14.2-1.9 16.5-.4 18.9-1.4 19.3-7.8.2-3.5-.2-5-1.8-6.8-2.2-2.3-4-2.9-4-1.3zm-93.2 9.2c-1.7 1.8-3.4 1.9-26.3 1.9-23.8 0-24.5.1-24.5 2 0 2.6 2.3 11 3 11 .3 0 1.1-1.4 1.7-3l1.1-3H65c21.1 0 25 .6 25 3.5 0 .8.5 1.5 1 1.5.6 0 1-3.3 1-8 0-4.4-.3-8-.7-7.9-.5 0-1.6.9-2.5 2zm73.9 14.6c-1.6.2-4.6 2.2-6.7 4.3-8.7 8.7-6.5 22.5 4.7 28.7 3.8 2.2 14.2 1.6 18.8-1 6-3.4 8.5-7.8 8.5-14.9 0-7.5-1.4-10.2-7.8-14.7-3.4-2.3-11.4-3.5-17.5-2.4zm13.8 7.4c5.1 1.3 9.5 5.2 9.5 8.3 0 6.2-7.8 10.6-18.8 10.6-9.7 0-13.2-2.2-13.2-8.1 0-5 3.1-8.3 9.1-9.9 2.4-.6 4.9-1.3 5.4-1.5 1.8-.6 3.6-.5 8 .6zM87.2 756c-1.1 1.9-2.3 2-16.2 2H56v6c0 5.8 1.2 8 2.3 4 .5-1.9 1.4-2 13.6-2h13l1.6 3c2.1 4.1 1.9 5.5-1.1 7.9-2.4 1.9-4 2.1-16 2.1H56v5.5c0 5.8.7 6.8 2.8 3.5 1.1-1.8 2.3-2 14.7-2 12.6 0 13.5-.1 16.1-2.4 2.4-2 2.8-3.1 2.8-7.4 0-4.1-.5-5.7-2.4-7.7l-2.4-2.6 2.2-.6C91 765 92 764 92 763c0-1.6-2.7-9-3.3-9-.1 0-.8.9-1.5 2zm95.3 32c-.3.5-.1 1.1.5 1.5 1.7 1.1 1.1 4.4-1 5.5-1.2.6-7.1.9-14.7.8l-12.8-.3-.3-3.8c-.4-4.9-1.8-4.7-2.6.3-.6 4-.6 4-5.1 4-2.5 0-4.5.3-4.5.7 0 .5 2.5 3 5.6 5.7 4.9 4.3 5.8 4.7 6.6 3.3.8-1.5 2.8-1.7 13.6-1.7 15.9 0 19.5-1.3 20-7.4.4-4.2-1.2-8.1-3.4-9-.7-.3-1.6-.1-1.9.4zM90 794.4c0 2.1-2.3 2.6-12.8 2.6-11.8 0-16.1.7-19 2.9-4.2 3.1-3.7 10.8 1 17.2.9 1.4.7 2.3-1.6 5s-2.7 4-2.3 7.1c.3 2 1.5 5.1 2.7 6.8l2.2 3.1-2.1.6c-2.4.6-2.6 2.6-.9 8.3 1.3 4 2.8 5.4 2.8 2.5 0-2.6 3.8-3.5 15.4-3.5 10.3 0 11.8.2 13.6 2 1.1 1.1 2.2 2 2.5 2 .3 0 .5-3.4.5-7.5 0-7.7-.6-9-2.8-5.5-1.1 1.8-2.3 2-13.1 2h-12l-2-2.9c-2.7-3.7-2.8-8.7-.2-10.1 1.1-.5 7.6-1 14.4-1 11.8 0 12.5.1 14 2.2 1.5 2.2 1.6 1.8 1.6-6 .1-4.8-.3-8.2-.9-8.2-.5 0-1 .6-1 1.4 0 2.2-2.4 2.6-15 2.6-11.4 0-11.8-.1-13.4-2.5-2.3-3.5-2.1-8.1.6-9.9 1.7-1.2 5-1.6 14-1.6 10.7 0 11.9.2 13 2 2.2 3.5 2.8 2.2 2.8-5.5 0-4.3-.4-7.5-1-7.5-.5 0-1 .6-1 1.4zM87.2 858c-1.1 1.9-2.3 2-16.2 2H56v6c0 5.8 1.2 8 2.3 4.1.6-2.5 7.2-3.6 18-2.8 8.6.6 10.1 1.5 11.4 6.5.4 1.7-.1 3-1.6 4.5-2 2-3.4 2.2-16.1 2.5l-14 .4v5.4c0 5.7.7 6.6 2.8 3.4 1.1-1.8 2.3-2 14-2 14.6 0 18.4-1.3 19.5-6.9.8-3.9-.1-8.7-1.9-10.2-1.8-1.5-1.8-2.9.3-4.4 1.4-1.1 1.5-1.7.2-5.8-1.5-5.3-1.9-5.5-3.7-2.7zm-4.6 38.9c-.4.5.7 3.1 2.3 5.6 4.9 7.8 5 18.5.2 24.7-1.1 1.3-4 3.5-6.6 4.8-3.8 2-6.2 2.4-12.9 2.4-9 0-13.6-1.4-17.9-5.3-4.2-3.8-5.7-7.3-5.7-13.4 0-6.9 2.8-11.4 9.4-14.6 3.2-1.5 4.4-2.7 3.8-3.3-1.1-1.1-15.6-.7-16.7.4-.4.3-.1 1.5.6 2.6.9 1.5.9 3 .1 6.5-2.1 8.1-1.5 16.2 1.5 22.3 4.9 10.1 12.3 14.3 25.1 14.4 11.9 0 18.1-3.1 23.9-12.3 2.4-3.8 2.7-5.2 2.8-13.7 0-8.5-.3-10-2.6-14-3.2-5.4-6.4-8.5-7.3-7.1zm738 183.4c-3.8 2.7.2 9.5 4.2 7.1 2.4-1.6 2.8-5.5.6-7.1-1-.7-2.1-1.3-2.4-1.3-.3 0-1.4.6-2.4 1.3zm349 0c-2.2 1.6-1.8 5.5.7 7.1 3.9 2.4 7.9-4.4 4.1-7.1-1-.7-2.1-1.3-2.4-1.3-.3 0-1.4.6-2.4 1.3zm172.5-.6c-5.7 1.1-8.8 5-10.7 13.8-.8 3.4-1.3 4-3.7 4.3-3.3.4-3.1 2.4.4 3.2l2.4.6v14.4c0 14.1-.1 14.5-2.2 15.5-4.3 1.8-2.3 2.5 7.2 2.5 5.7 0 9.5-.4 9.5-1s-.8-1-1.8-1c-3.7 0-4.2-1.9-4.2-16.6v-14.3l4.2-.3c5.9-.4 6.3-2.8.5-2.8-4.9 0-5.7-.9-5.7-6.1 0-3.8 2.5-9.9 4.2-9.9.6 0 2.7 1.5 4.5 3.2 2.7 2.6 3.7 3 5.1 2.2 3.1-2 2.6-5-1.1-6.8-3.5-1.6-4.3-1.7-8.6-.9zm-785.5 2.3c-10.3 4.1-16.6 13.8-16.6 25.4 0 11.2 4.3 19.3 12.8 24.3 4.2 2.5 5.7 2.8 13.7 2.8 9.7 0 13.7-1.3 18.8-6 2.6-2.5 3.5-4.5 2-4.5-.5 0-2.7 1.4-5.1 3-11.6 7.8-26.4 3.6-30.6-8.7-3-8.7-1.6-22.1 2.9-27.6 3.4-4.2 8.6-6.7 13.8-6.7 7.4 0 11.6 3 16.2 11.4 1.9 3.5 3 1.2 2.7-5.9-.3-8.8-.7-10.1-2.7-8.5-.9.8-2.8 1-5.2.6-10.1-1.8-17.8-1.6-22.7.4zm184.4-1c-.8.5-2.5 1-3.7 1-1.3 0-2.3.3-2.3.8 0 .4 1 1.2 2.3 1.7 2.2 1 2.2 1.3 2.5 23l.3 22-2.8 2.2-2.8 2.3h9.3c5 0 9.2-.2 9.2-.5s-1.1-1-2.5-1.5l-2.5-1v-51h-2.7c-1.6 0-3.5.5-4.3 1zm55.7 13.3c-4.6 5-4.7 5.2-2.7 6.6 1.8 1.2 2 2.4 2 15.3 0 13.4.1 14 2.5 16.3 1.3 1.4 3.4 2.5 4.7 2.5 3.2 0 8.8-3.6 8.8-5.7 0-1.3-.3-1.4-1.2-.5-.7.7-2.2 1.2-3.5 1.2-3.5 0-4.4-3.7-4.1-16.9l.3-11.6 3.4-.5c4.9-.7 5.1-2.8.4-3.2-3.7-.3-3.8-.4-4.1-4.6-.2-2.3-.6-4.2-1-4.2s-2.9 2.4-5.5 5.3zm349.8-.9c-4.3 5.3-5.7 5.9-9.1 4.4-2.1-1-3.1-.9-6 .7-1.9 1-3.4 2.2-3.4 2.7 0 .4-.4.8-1 .8-.5 0-1-.9-1-2 0-2.3-1.5-2.5-7-.8-4.4 1.4-4.7 1.9-2.5 3.8 1.2 1 1.5 4 1.5 14.7 0 12.6-.1 13.5-2 14-4.6 1.2-1.5 2.3 6.5 2.3 8.6 0 10.4-.7 6.3-2.5-2.2-.9-2.3-1.7-2.6-12-.3-11.1.5-14.8 3.5-15.9.8-.3 2.4-.1 3.5.5 2.7 1.5 6.4.4 7.1-2.1.3-1.3 1-1.8 2.1-1.4 1.3.5 1.6 2.4 1.6 11 0 18.5 2.7 24.4 10.3 23 3.1-.6 8.2-4.8 7.1-5.9-.3-.3-1.8 0-3.4.6-2.2.8-3.2.8-4.4-.3-1.4-1.1-1.6-3.3-1.4-14.4l.3-13.1 3.4-.5c4.9-.7 5.1-2.8.4-3.2-3.7-.3-3.8-.4-4.1-4.6-.2-2.3-.7-4.2-1.2-4.2s-2.5 2-4.5 4.4zm-508.7 5.5c-4.7 1.6-6.3 3.1-3.3 3.1 2.6 0 3.5 3.7 3.5 15s-.9 15-3.5 15c-.8 0-1.5.4-1.5 1s3.3 1 8 1 8-.4 8-1-.6-1-1.4-1c-2.2 0-2.6-2.4-2.6-14.5 0-11.1.1-11.4 2.7-13.5 3.6-2.8 8.3-2.4 10 1 .8 1.5 1.3 6.6 1.3 13.2 0 9.5-.2 11-2 12.8-1.1 1.1-2 2.2-2 2.5 0 .3 3.6.5 8 .5 4.7 0 8-.4 8-1s-.7-1-1.5-1c-2.6 0-3.5-3.7-3.5-14.8 0-10.1.2-11 2.3-13 3.1-2.9 9.2-3 10.7-.3.5 1.1 1 7.7 1 14.6 0 11.8-.1 12.7-2 13.2-4.5 1.2-1.5 2.3 6 2.3s10.5-1.1 6-2.3c-1.9-.5-2-1.4-2-11.7 0-12.8-1.3-18.3-4.8-21.1-3.4-2.6-7.5-2.4-13.2.7l-4.7 2.6-2.6-2.6c-3.3-3.3-6.9-3.3-13.1-.2l-4.7 2.4-.9-2.4c-.5-1.3-1.1-2.4-1.2-2.3-.2.1-2.4.8-5 1.8zm129.7-1.3c-2.9.7-7.2 4.5-7.9 7-.6 2 1.5 5.4 3.2 5.4 2-.1 3.5-2.2 4.1-5.6.6-3.8.8-3.9 4.6-3.9 3.2 0 4.2.5 5.4 2.6 1.7 3.1.8 7.7-1.7 8.5-5.3 1.8-12.6 5.8-14.8 8.1-1.6 1.7-2.4 3.8-2.4 6.2 0 7.9 6.1 10.9 14.6 7.2l4.7-2.1 2.2 2c2.6 2.4 5.3 2.6 8.3.4 2.7-1.9 2.8-3.4.2-3.4-2.5 0-2.8-1.7-3.2-15.7-.3-10.7-.5-11.4-3-13.9-2-2-3.8-2.7-7.5-3-2.6-.1-5.7 0-6.8.2zm10.3 22.1c.3 4.7 0 5.6-2.4 7.8-4.7 4.3-9.4 2.3-9.4-4 0-2.7.8-4 3.8-6.5 2-1.7 4.6-2.9 5.7-2.8 1.7.3 2.1 1.2 2.3 5.5zm105.7-21.1c-7.3 3.8-9.8 8.3-9.9 17.9 0 7.6 1.4 11.3 5.9 15.5 3.7 3.5 13.4 3.6 18.2.2 2.8-2 7.3-7.9 7.3-9.6 0-1.4-2.6-.4-3.8 1.5-3.2 5-13 6-17 1.6-2.5-2.9-4.4-8-4-10.9.3-2.2.6-2.3 12.1-2.6 13.2-.3 13.3-.3 9.7-7.8-3.3-6.8-11.7-9.4-18.5-5.8zm8.8 3.6c.9.7 1.8 2.4 1.9 3.8.3 2.5.2 2.5-6.6 2.5-4.1 0-7.1-.4-7.3-1.1-.2-.6.6-2.3 1.7-3.7 2.4-3 7.3-3.7 10.3-1.5zm52.4-3.2c-4.4 2.4-4.7 2.4-4.7.5 0-1.7-4-2-6.8-.6-.9.5-2.6 1.2-3.6 1.6-1.9.5-1.9.6.2 2.1s2.2 2.1 2.2 23.4c0 20.7-.1 22-2 23.3-1.1.8-1.7 1.7-1.3 2 .8.9 16.3.9 16.3.1 0-.3-1.1-1.5-2.5-2.6-2.2-1.7-2.5-2.7-2.5-8.2 0-3.4.3-6.5.6-6.8.3-.3 1.8-.1 3.3.5 6.3 2.3 15.5-2.7 18.6-10.1.8-1.9 1.5-6.4 1.5-9.9 0-7.9-2.7-13.5-7.6-15.8-4.3-2-7.2-1.9-11.7.5zm5.7 4.2c3.7 1.6 5.7 5.2 6.3 11.1.7 6.8-1.1 13.1-4.4 15.6-3.3 2.7-6.3 2.7-9.7 0-2.5-2-2.6-2.4-2.6-13V1106l3.3-2c3.8-2.3 3.8-2.3 7.1-.8zm35.6-5.5c-.8.4-2.2 1.4-3.1 2.5-2.1 2.3-2.9 2.3-2.9-.2 0-2.2-2.4-2.6-6.2-1.1-1.3.5-3.2 1.2-4.2 1.6-1.9.5-1.9.6.2 2.1 2.1 1.4 2.2 2.3 2.2 15.1 0 12.6-.1 13.5-2 14-4.6 1.2-1.5 2.3 6.5 2.3 8.6 0 10.4-.7 6.3-2.5-2.1-.9-2.3-1.7-2.6-11.5-.2-5.8 0-11.5.3-12.7.8-3.3 3.6-4.5 7.3-3.1 2.4.9 3.4.9 4.6-.1 4.2-3.5-.9-8.5-6.4-6.4zm21.5 0c-3.2.8-8.4 5.1-10 8.3-.9 1.8-1.5 5.6-1.5 10 0 6.3.4 7.7 3 11.4 6.9 10.2 21.1 10 28.3-.3 2.9-4.1 3.2-5.3 3.2-11.6 0-7.7-1.8-11.5-7.5-15.5-3-2.2-11.5-3.4-15.5-2.3zm11 5.8c2.7 2.8 3.4 4.6 4 9.4.9 7.9-.1 13.4-3 16.5-6.1 6.6-14.4.3-15.8-12.1-.8-7.2.1-11.9 3.1-14.8 3.6-3.7 7.7-3.3 11.7 1zm32.2-4.5c-4.4 2.4-4.7 2.4-4.7.5 0-.8-.8-1.5-1.7-1.5-1.4 0-7.9 1.9-9.1 2.6-.2.2.6 1.6 1.8 3.1 2 2.8 2.1 3.8 1.8 23-.3 17.5-.5 20.3-2 22-1 1.1-1.8 2.3-1.8 2.6 0 1.1 15.8.8 16.5-.3.3-.6 0-1-.8-1-3.1 0-4.7-3.5-4.7-10.4 0-6.6.1-6.7 2.3-5.9 3.7 1.3 11.1.7 14-1.2 1.5-1 4-3.8 5.5-6.3 2.2-3.8 2.6-5.8 2.6-11.6.1-8.3-1.8-12.7-6.7-15.6-4.1-2.5-8.3-2.5-13 0zm7.4 5.1c6.8 4.8 7.2 19.9.7 25.4-3.6 3-5.3 3.1-9.5.5l-3.3-2v-22l3.3-2c4-2.5 5.2-2.5 8.8.1zm29.1-6.4c-3.9.8-9.9 7.4-11.2 12.3-2.3 8.5.3 16.8 6.7 21.7 3.1 2.4 4.6 2.8 9.8 2.8 11.2 0 17.5-6.8 17.5-18.9 0-7.8-1.5-11.4-6.4-15.1-3.5-2.7-11.1-4-16.4-2.8zm9.6 3.9c6.6 4.6 8.2 22.1 2.4 27.9-4.5 4.5-9.9 3-13.4-3.8-1.6-3.3-2.2-6.1-2.2-12.5-.1-8 0-8.5 2.7-10.8 3.2-2.8 7.3-3.1 10.5-.8zm73.2-2.8c-5.8 2.1-5.7 1.9-3.2 4.2 2 1.9 2.2 3.1 2.2 13.6 0 11.6-.9 15.4-3.5 15.4-.8 0-1.5.4-1.5 1s3.5 1 8.5 1 8.5-.4 8.5-1-.7-1-1.5-1c-2.8 0-3.5-3.9-3.5-18.9 0-8.2-.3-15.2-.7-15.4-.5-.2-2.8.3-5.3 1.1zm26.5-.4c-6.8 3.1-10.5 9.4-10.5 17.6 0 6.3 2.2 11.2 6.7 14.9 7.2 5.9 16 5.4 22.7-1.2 8.7-8.8 8.2-22.3-1-29.3-4.1-3.2-13.3-4.2-17.9-2zm11 3.2c2.9 1.9 6.5 10.9 6.5 16.4 0 7.1-4.4 14-9 14-6.5 0-11-7.8-11-19.2 0-6.4.2-7.2 2.9-9.9 3.3-3.3 6.9-3.7 10.6-1.3zm23-2.8c-2.2.8-4.1 1.6-4.3 1.8-.2.1.6 1.2 1.7 2.3 1.9 1.9 2.1 3.3 2.1 14.1 0 10.7-.2 12.2-2 14-1.1 1.1-2 2.2-2 2.5 0 .3 3.4.5 7.5.5s7.5-.2 7.5-.5-.9-1.4-2-2.5c-1.8-1.8-2-3.3-2-13 0-10.7.1-11.2 2.6-13.5 3.2-3 6.5-3.2 8.7-.7 1.4 1.5 1.7 4.1 1.7 13.4 0 12.4-.4 14.8-2.6 14.8-.8 0-1.4.4-1.4 1s3.3 1 8 1c7.5 0 10.5-1.1 6-2.3-1.9-.5-2-1.4-2-12.2 0-14.4-1.1-18.7-5.5-21.1-3.6-1.9-9.5-1.4-11.5 1.1-1.6 1.9-4 1.9-4 .1 0-2.2-2.2-2.5-6.5-.8zm64.8.1c-11.1 5.1-12.9 23.8-3.1 32.3 3.2 2.7 8.6 4.1 13.6 3.4 8.9-1.2 15.1-9.1 15.2-19.2 0-13.9-13-22.2-25.7-16.5zm13.3 4.6c3.7 3.9 5.1 10.9 4 19.3-1.1 8.5-8.6 12.1-13.7 6.4-3.9-4.2-4.9-7.6-4.9-16.1 0-7.1.2-8.1 2.6-10.5 3.8-3.8 7.8-3.5 12 .9zm-715.6-4.6c0 .5.7 1.1 1.5 1.5 1.2.4 1.5 2.9 1.5 13.3 0 14 1.3 18.1 6.4 20.4 3.1 1.4 8.7.4 11.9-2.1 3.2-2.5 3.7-2.5 3.7 0 0 2.3 1.9 2.5 6.7.8 3.8-1.4 4-1.9 1.3-4.3-1.8-1.6-2-3.1-2-16.2V1098h-6c-3.3 0-6 .4-6 1 0 .5.6 1 1.3 1 3.5 0 4.7 3.4 4.7 13.3 0 10.6-1 13.9-4.7 15.6-3.4 1.6-5 1.4-7.3-.9-1.8-1.8-2-3.3-2-16v-14h-5.5c-3 0-5.5.4-5.5.9zm102 0c0 .5.7 1.1 1.5 1.5 1.2.4 1.5 2.8 1.5 12.9 0 6.8.5 13.7 1 15.4 2.2 6.3 10.5 7.9 16.9 3.4 3.6-2.6 4.1-2.6 4.1-.1 0 2.3 1.9 2.5 6.7.8 3.8-1.4 4-1.9 1.3-4.3-1.8-1.6-2-3.1-2-16.2V1098h-6c-3.3 0-6 .4-6 1 0 .5.6 1 1.4 1 3.1 0 4.6 4.2 4.6 13.1 0 10.3-1.1 14-4.7 15.6-3.7 1.8-5.7 1.6-7.6-.5-1.4-1.5-1.7-4.2-1.7-16V1098h-5.5c-3 0-5.5.4-5.5.9zm124.3.4c-3.8 1.3-4 1.8-1.3 4.2 1.8 1.6 2 3.1 2 13.2 0 11.6-.9 15.3-3.5 15.3-.8 0-1.5.4-1.5 1s3.5 1 8.5 1 8.5-.4 8.5-1-.7-1-1.5-1c-2.7 0-3.5-4.7-3.5-19.6 0-14.3 0-14.4-2.2-14.3-1.3.1-3.8.7-5.5 1.2zm15.7-.4c0 .5.6 1.1 1.3 1.4.8.3 2.1 2.1 3 4.1 4 8.5 4.8 10.5 7.9 18.1 4.7 11.4 5.3 12.4 7.1 10.5.8-.8 3.8-7.6 6.7-15 2.9-7.4 6.2-14.7 7.2-16.2 1-1.4 1.8-2.9 1.8-3.2 0-.3-2.2-.6-5-.6-4.9 0-6.6 1.2-3.4 2.4 2 .8 1.5 3.1-2.7 13.8-2.8 6.9-4.9 9.8-4.9 6.8 0-.6-.8-2.8-1.8-4.8-3.5-7.4-5.8-15.5-4.4-15.9 3.3-1.2.5-2.3-5.8-2.3-3.8 0-7 .4-7 .9zm228.5 78.1c-1.7 1.8-1.7 2.1-.1 4.5 2 3 3.7 3.2 5.9.7s2.1-4.9-.2-6.2c-2.7-1.4-3.5-1.3-5.6 1zm-236.7.3c-3 1.2-3.7 2.7-1.3 2.7 2.8 0 3.5 4.9 3.5 22.9 0 20.2-.5 24.2-3.1 24.8-4 1.1-.4 2.3 6.7 2.3 7.6 0 8.8-.6 5.4-2.8-1.7-1-2-2.3-2-8.5l.1-7.2 3 3.5c5.6 6.4 8.9 11.8 8.3 13.4-.5 1.4.4 1.6 6.5 1.6 3.9 0 7.1-.4 7.1-.8 0-.5-1.4-1.8-3-3.1-1.7-1.2-5.9-5.8-9.4-10.3-5.1-6.4-6.2-8.5-5.4-9.7 1.7-2.6 11.4-10.1 13.1-10.1.9 0 1.9-.5 2.2-1 .4-.6-1.7-1-5.5-1-5.3 0-6.1.2-5.6 1.6.4 1.1-1.1 3.1-4.6 6.5-2.9 2.7-5.6 4.9-6 4.9-.5 0-.8-7-.8-15.5V1176l-3.2.1c-1.8.1-4.5.6-6 1.2zm95 0c-3.4 1.3-3.5 1.9-.5 3.2 1.9.9 2.2 1.9 2.5 7.2.3 5.8.1 6.3-1.8 6.3-1.2 0-3-.5-4.1-1.1-1.4-.7-3-.7-5.7.2-13.2 4.5-17.8 22.9-8.2 33 3.4 3.6 4.1 3.9 9.1 3.9 3.3 0 6.3-.6 7.6-1.5 2-1.4 2.3-1.4 3.1.2.9 1.5 1.4 1.6 5.3.3 6.1-1.9 6.7-2.6 4.1-5-2.1-2-2.2-2.7-2.2-25v-23l-3.2.1c-1.8.1-4.5.6-6 1.2zm.1 21.6c1.8 2.5 2.1 4.4 2.1 12.9 0 9.7-.1 10.1-2.6 12.1-3.2 2.5-4.5 2.6-8.5.5-7.8-4-9.2-18.6-2.5-26.2 3-3.4 8.8-3.1 11.5.7zm38.6-21.7c-3 1.7-3 1.7-.7 3.4 2.1 1.5 2.2 2 2.2 23.2 0 11.9.4 22.2.8 22.9 2.1 3.3 15.9 4.6 21 1.9 11-5.7 13.9-24.2 5-32.2-4.7-4.3-12.3-4.9-16.2-1.3-2.1 1.9-2.5.5-2.8-8.9l-.3-9.7-3.5-.2c-1.9-.2-4.4.2-5.5.9zm20.3 22.4c3.6 2.5 5.3 7 5.4 14.1 0 7.1-1.6 10.5-6.5 13.3-2.3 1.3-3 1.2-6.1-.3l-3.6-1.7v-23.9l2.8-1.5c3.5-2 5.2-2 8 0zm350.5-22.3c-.6.7-3.2 3.1-5.6 5.4-8.9 8.4-12.6 20.4-10.3 33.5 1.6 8.8 5.1 15.4 12 22 4.8 4.7 8.1 6.3 7 3.3-.4-.8-1-1.5-1.5-1.5s-2.4-2.4-4.3-5.3c-4.9-7.3-7-16.7-6.3-28.1.6-12.1 2.7-18.3 8.2-24.4 2.5-2.7 4.5-5.3 4.5-5.6 0-1-2.4-.6-3.7.7zm22.5.7c-7.1 3.8-13 14.2-11.4 20.3 1.5 6.1 7.1 9.5 13 7.9 3.3-.9 10.6-7.9 10.6-10.2 0-.9.4-2 .9-2.6.5-.5 1.1-2.7 1.3-4.9.3-3.8.5-4 4.3-4.6 2.2-.3 4.7-.8 5.5-1 2.2-.6 1.5 1.4-4.5 11.8-3 5.2-5.5 9.6-5.5 9.8 0 .2-3.2 5.8-7 12.6-5.3 9.2-6.8 12.4-5.8 13 2 1.2 3.8-1.2 12-16.1 4.1-7.4 8.8-15.8 10.3-18.5 1.5-2.8 4.1-7.5 5.8-10.5 1.6-3 3.4-5.9 3.8-6.4 2.8-3.1-.7-3.4-5.3-.6-4.4 2.7-12.6 2.7-17 0-4.1-2.5-6.3-2.5-11 0zm10 3.6c3.7 2.5 2.3 11.5-2.7 17.5-2.1 2.5-3.5 3.2-6.6 3.3-3.3.1-4-.3-4.8-2.4-1.2-3.3.5-9.3 4.3-15.3 3.2-5.1 5.8-5.9 9.8-3.1zm43.2-4.8c0 .5 1.4 2.1 3.1 3.8 4.8 4.6 7.5 11 8.9 21.1 2.1 15.2-1.1 29.2-8 35.8-4 3.8-4.1 6.4-.2 4 4.4-2.9 9.7-9.2 12.8-15.3 2.6-5.3 2.8-6.5 2.8-16.7-.1-10.4-.3-11.3-3.3-17.1-4.2-8.1-16.1-19.5-16.1-15.6zm-929.5 16.4c-1.6.6-3.7 1.7-4.6 2.4-2.1 1.9-2.6 1.8-3.2-.6-.5-1.9-.7-1.9-5.4-.5-2.6.8-5.1 1.5-5.5 1.5-.5 0-.8.4-.8 1 0 .5.7 1 1.5 1 3.1 0 3.6 3.8 3.3 24.6-.3 18.3-.5 20.6-2 21.5-3.6 2-1.6 2.9 6.2 2.9 8.2 0 9.9-.8 5.5-2.8-2.3-1.1-2.5-1.7-2.5-8v-6.9l6.8.4c6.5.5 6.8.4 10.8-3 6.5-5.6 8.9-15.6 6-24-1.8-4.9-4.2-7.5-8.5-9.3-3.8-1.6-3.6-1.6-7.6-.2zm3.9 5.9c3.5 1.6 5.6 6.7 5.6 13.3 0 7.6-2 12.2-6.4 14.2-3.2 1.6-3.6 1.6-6.8-.3l-3.3-1.9-.3-11.1c-.3-11-.2-11.1 2.4-13.2 3-2.4 5.2-2.6 8.8-1zm29.1-5.6c-8.5 3.1-13.6 13.6-11.4 23.5 2.2 9.7 6 13 14.9 13 2.8 0 6.4-.7 8-1.5 4.3-2.2 10.1-10.5 7.4-10.5-.4 0-2.2 1.3-4.1 3-2.7 2.4-4.3 3-8.2 3-6.4 0-10-3.8-11.5-12.2l-.7-3.7 11.8-.3c11.3-.3 11.8-.4 12.1-2.5.5-3.5-2.6-9-6.1-10.6-5.1-2.4-7.9-2.7-12.2-1.2zm7.5 4.5c1.1 1.1 2 2.9 2 4 0 1.8-.7 2-7 2-7.8 0-8.9-1.3-4.8-5.7 2.7-2.9 7.1-3 9.8-.3zm32.4-3.4c-3.3 2.3-3.8 2.4-4.6 1-1.1-1.9-4.6-2.1-8.5-.4-3.9 1.7-3.9 1.7-1.5 3.4 2.1 1.4 2.2 2.3 2.2 14.4 0 11.9-.2 13.1-2 14.2-3.5 2.2-2.2 2.8 6 2.8s9.5-.6 6-2.8c-1.8-1.1-2-2.3-2-13 0-15.2 1.2-17.1 9.1-13.8 2.2.9 4.9-1.8 4.2-4.3-.2-1-1.5-2.3-2.8-2.9-2-.9-3-.7-6.1 1.4zm19.7-1.2c-5.2 1.9-7.4 5.2-6.8 10.3.6 5.4 1.5 6.5 9.7 11.3 4.3 2.5 7 4.8 7.3 6.2 1.7 6.4-8.1 9.7-12.1 4-1-1.5-2.2-3.5-2.5-4.5-1.2-3.4-2.7-1.6-2.7 3.2 0 3 .5 5.1 1.3 5.3.6.3 4.2.6 7.9.7 9.9.3 14.1-2.4 14.2-9.4.1-5.2-2.2-8-9.8-12.4-7.3-4.1-9.2-6.5-7.8-9.6 2.4-5.2 10.2-3.6 12.5 2.6 1.7 4.3 2.7 3.5 2.7-2 0-4.8 0-4.8-3.7-5.4-2.1-.3-4.5-.7-5.3-1-.8-.3-3 0-4.9.7zm34.8 0c-5.7 1.8-8.5 4.1-10.8 9-2.7 5.8-2.7 12.4 0 18.2 3.1 6.4 7.8 9.4 15.2 9.4 6.8 0 10.7-1.7 14-6.2 8.7-11.7 4.6-26.4-8.4-30.2-2.9-.9-5.5-1.6-5.8-1.5-.3.1-2.2.6-4.2 1.3zm9.9 4.9c2.9 3 5.2 9.9 5.2 15.4 0 12-8.7 18.1-15.4 10.8-5.1-5.5-6-21.3-1.6-26 3.1-3.3 8.8-3.4 11.8-.2zm33.9-3.8c-5.7 2.9-5.7 2.9-5.7 1.1 0-.8-.4-1.7-.8-2-1-.6-7 .9-9.2 2.4-1.3.8-1.2 1.2.8 2.5 2.1 1.5 2.2 2.3 2.2 13.9 0 9.2-.4 12.7-1.5 14.2-.8 1-1.5 2.2-1.5 2.6 0 .5 3.2.8 7 .8 3.9 0 7-.2 7-.5s-.9-1.4-2-2.5c-1.8-1.8-2-3.3-2-13 0-10.4.1-11.2 2.5-13.5 2.8-2.8 7.6-3.3 9.5-1 3 3.6 2.1 28.5-1 28.5-.6 0-1 .4-1 1s3 1 7 1c7 0 8.3-.7 5.5-3-1.2-1-1.5-3.8-1.5-13.7 0-14.3-1.1-17.6-6.5-19.9-4.1-1.7-3.1-1.8-8.8 1.1zm32.1-1.2c-5 2.3-6.8 4.7-6.8 9.2 0 5.3 1.6 7.3 10 12.8 5.1 3.3 6.6 4.8 6.8 7 .5 3.9-1.4 5.7-5.9 5.7-3.1 0-4.2-.6-6.3-3.3-1.5-1.9-2.6-4.1-2.6-5 0-1-.4-1.7-1-1.7s-1 2.6-1 5.9v5.9l8.6.1 8.6.2 3.4-3.6c5.9-6.3 4-11.1-7-18-7.5-4.8-9.3-7.3-7.5-10.6 2.3-4.4 8.7-3.2 11.4 2.1 2.2 4.3 3.7 3.7 3.3-1.2-.3-4-.5-4.3-3.8-5-1.9-.3-4.4-.9-5.5-1.2-1.1-.2-3.2.1-4.7.7zm79.1.1c-2.1.6-4.6 2-5.8 3-2.5 2.2-2.8 6.8-.6 8.6 2.2 1.8 5.5-1.4 5.5-5.2 0-2.1.6-3.1 2.5-3.8 3-1.1 7 .1 7.9 2.5 1.9 5 0 8-6.4 10.5-11.9 4.7-16.1 11.7-10.9 18.4 2.7 3.4 9.6 3.7 14.1.5l2.9-2.1 1.5 2.1c1.7 2.3 6.2 2.8 9.5 1.1 2.6-1.4 2.4-3.8-.3-4.2-2.2-.3-2.3-.8-2.8-12.9-.6-14.4-1.6-16.9-7.8-18.7-4.5-1.4-4.5-1.4-9.3.2zm10.1 22.5c0 6.4-.9 7.7-5.8 8.7-4.1.8-6.2-.9-6.2-5 0-4 5.3-9.5 9.3-9.5 2.6-.1 2.7 0 2.7 5.8zm31.6-21.4c-5.5 2.9-5.6 2.9-5.6 1.1 0-2.4-1.5-2.6-6.9-1-4.8 1.4-6.9 3.4-3.6 3.4 2.7 0 3.7 5.1 3.3 16.8-.3 9.4-.6 11.6-2.1 12.6-2.9 2.2-2 2.6 5.3 2.6 7 0 8.3-.7 5.5-3-1.2-1-1.5-3.8-1.5-13.1 0-10.9.2-12 2.2-13.9 1.3-1.2 3.5-2 5.5-2 3 0 3.6.5 4.9 3.7 2.2 5.2 1.6 22.3-.8 25-1 1.1-1.8 2.3-1.8 2.6 0 .4 3.2.7 7 .7 4 0 7-.4 7-1s-.4-1-.8-1c-2.1 0-3.2-5.8-3.2-17.1 0-6.6-.5-12.9-1-14-.8-1.4-6.8-4.9-8.5-4.9-.1 0-2.3 1.1-4.9 2.5zm73.7-1.1c-7.8 2.9-11.3 8.7-11.3 19.1 0 12.6 4.2 17.5 14.8 17.5 5.5 0 6.2-.3 10.6-4.1 2.5-2.2 4.6-4.9 4.6-6 0-2.5-.5-2.4-4.2 1.1-2.5 2.5-3.9 3-7.7 3-2.5 0-5.3-.6-6.2-1.3-2.9-2.2-5.9-8.1-5.9-11.5v-3.2h11.4c7.3 0 11.7-.4 12.2-1.1.9-1.6-1.5-8.5-3.8-10.6-1.9-1.7-8.4-4.4-10.3-4.2-.5.1-2.4.7-4.2 1.3zm6.9 4.3c.9 1 1.9 2.8 2.2 4 .7 2.2.6 2.3-6.8 2.3-4.2 0-7.6-.3-7.6-.6 0-1.2 2.4-5 3.9-6.1 2.3-1.8 6.6-1.6 8.3.4zm215.4-3.2c-5.5 2.9-5.6 2.9-5.6 1.1 0-2.4-1.5-2.6-6.9-1s-6.4 2.8-3.1 3.7c1.9.5 2 1.4 2 14.6 0 11.7-.3 14.3-1.5 14.7-3.5 1.4-1 2.4 5.5 2.4 7 0 8.3-.7 5.5-3-1.2-1-1.5-3.8-1.5-13.1 0-10.9.2-12 2.2-13.9 2.4-2.2 7.7-2.7 9.6-.8 1.9 1.9 1.6 26.2-.3 28.2-.8.8-1.5 1.7-1.5 2 0 .3 3.2.6 7 .6 6.3 0 9.1-1.1 5.8-2.2-.9-.3-1.5-4.5-1.8-14.4-.6-15.5-1.6-18.4-7.2-20.3-1.7-.6-3.2-1.1-3.3-1.1-.1 0-2.3 1.1-4.9 2.5zm36.4-1.2c-13.4 4-18.6 21.8-9.3 32.3 5.9 6.8 18.6 5.7 23.7-2.1.9-1.3 1.6-3.2 1.6-4 0-1.3-.9-.9-3.7 1.4-9.8 8.1-20.8-.7-18.8-14.9.9-6.3 4.8-10.3 9.6-9.8 2.8.2 3.7 1 5.2 4 1.4 3.2 2.2 3.8 4.7 3.8 2.6 0 3-.4 3-2.8 0-1.6-.9-3.7-2-4.7-1.8-1.7-8.6-4.6-10-4.4-.3.1-2.1.6-4 1.2zm34.9.1c-5.7 1.8-8.5 4.1-10.8 9-4.1 8.9-1.5 20.2 5.8 25.2 4.7 3.1 14 3.4 18.8.4 5-3 9.2-10.9 9.3-17.2 0-3.7-3.6-11.6-6.3-13.9-1.9-1.6-11-5.1-12.6-4.8-.3.1-2.2.6-4.2 1.3zm10.4 5.8c4.8 6.5 6.1 15.3 3.2 22.1-2.9 6.9-8.5 8.6-13 3.9-3.6-3.6-5.5-9.4-5.5-16.9 0-5.2.4-6.6 2.6-9.2 2.1-2.5 3.4-3.1 6.4-3.1 3.2 0 4.3.6 6.3 3.2zm34.2-4.7c-4.8 2.3-6.4 2.1-6.5-.9 0-1.5-11 1.9-11 3.4 0 .4.9 1 2 1.3 1.9.5 2 1.4 2 14 0 10.7-.3 13.9-1.5 15.1-.8.8-1.5 1.7-1.5 2 0 .3 3.2.6 7 .6 6.5 0 9-1 5.5-2.4-1.2-.4-1.5-2.9-1.5-13.5 0-12.3.1-13.1 2.2-14.5 1.2-.9 3.7-1.6 5.5-1.6 5.2 0 6.3 2.6 6.3 15.7 0 10-.2 11.5-2 13.3-1.1 1.1-2 2.2-2 2.5 0 .3 3.4.5 7.5.5 7.8 0 8.7-.4 5.8-2.6-1.5-1-1.9-3.2-2.1-13.2-.3-11.1-.2-12.2 1.7-14.1 1.4-1.4 3.4-2.1 6.1-2.1 5.3 0 6 1.9 6 16.1 0 9.6-.2 11.1-2 12.9-1.1 1.1-2 2.2-2 2.5 0 .3 3.4.5 7.5.5s7.5-.2 7.5-.5-.9-1.4-2-2.5c-1.8-1.8-2-3.3-2-14.9 0-11.2-.2-13.1-2-15.3-3.4-4.4-6.9-5.2-12.5-2.8-2.7 1.2-5.3 2.6-5.6 3.2-.5.7-1.8.2-3.9-1.5-1.7-1.5-3.5-2.7-4-2.7s-1.4-.2-2.2-.5c-.7-.2-3.5.7-6.3 2zm56-.9c-8 3-11.5 8.7-11.5 19.1 0 11.7 4.9 17.3 15.1 17.3 6.1 0 10.8-2.5 13.8-7.4 3.5-5.6 2.2-6.3-2.9-1.6-2.6 2.5-4.1 3-7.9 3-3.9 0-5.2-.5-7.2-2.8-3-3.2-4.9-7.4-4.9-10.7 0-2.4.1-2.4 11.8-2.7 11.7-.3 11.7-.3 12-2.8.2-1.5-.7-4.1-2-6-3.9-5.7-10-7.8-16.3-5.4zm7.4 5c3.6 4.6 2.9 5.4-4.8 5.4-3.9 0-7.2-.4-7.5-.9-.4-.5.6-2.3 2-4 3.3-4 7.4-4.2 10.3-.5zm-539.2-3.6c-3 2.4-3.7 2.5-3.7.5 0-1.9-4.7-2-8.7-.3-3.9 1.7-3.9 1.7-1.5 3.4 2.1 1.4 2.2 2.3 2.2 14.4 0 11.9-.2 13.1-2 14.2-3.5 2.2-2.2 2.8 5.8 2.8 8.5 0 10.5-.7 6.9-2.4-2.1-1.1-2.2-1.9-2.5-13.2-.2-11.1-.1-12.2 1.8-13.9 1.8-1.6 2.5-1.7 5.2-.7 3.2 1.2 6.8.2 6.8-1.9 0-4.8-5.8-6.4-10.3-2.9zm326.1-.2c-4.3 1.4-6.4 3.2-3.9 3.2.5 0 1.7.7 2.5 1.6 1.3 1.2 1.6 3.9 1.6 13.2-.1 11.6-1 15.2-3.9 15.2-.6 0-1.1.4-1.1 1s3.3 1 8 1c4.4 0 8-.3 8-.6 0-.4-.8-1.3-1.7-2-1.6-1.1-1.9-3.5-2.3-17.5-.3-9.6-.9-16.3-1.5-16.5-.5-.1-3.1.5-5.7 1.4zm-64.8.1c0 .5.4 1.1.9 1.3 1.1.3 13.7 26.4 14.7 30.3.8 3.3-2.1 11.2-4.6 12.5-1.1.6-2.8.7-4.2.1-3.1-1.1-6.8.4-6.8 2.8 0 2.9 2.7 5.1 6.2 5.1 5.2 0 9.6-5.8 14.6-19.1 2.4-6.3 4.7-12.3 5.2-13.4.4-1.1 2.3-5.7 4-10.3 1.8-4.5 3.6-8.2 4.1-8.2.5 0 .9-.5.9-1 0-.6-2-1-4.5-1-4.5 0-5.4.7-3.5 2.6.8.8.6 2.4-.4 5.5-5.6 16-6.4 17.2-8.6 11.7-.8-1.8-2.6-6-4.2-9.2-3.3-7-3.3-7.5-1-9.2 1.5-1.2.7-1.3-5.5-1.4-4 0-7.3.4-7.3.9zm385.5 6.3c-14 7.7-15 28.8-1.3 28.8 3.6 0 10.2-4.6 12.5-8.7 4.9-8.9 5.3-15.4 1.1-19.3-2.4-2.2-8.9-2.7-12.3-.8zm10.5 3.3c3 3.7-.2 16.3-5.2 20.2-3.9 3-9.8 1.3-9.8-2.9 0-5.4 4.1-14.4 8-17.5 2.1-1.7 5.5-1.6 7 .2z"/></svg>