<svg version="1.0" xmlns="http://www.w3.org/2000/svg" viewBox="0 0 1522 1280"><path d="M362.5 27.3c-.3.6-.4 254.5-.3 564.2l.3 563 563.8.3c500.5.2 563.7 0 563.7-1.3s-63.2-1.5-561.7-1.7l-561.8-.3-.3-562.1c-.2-504.7-.4-562.2-1.7-562.8-.9-.3-1.8 0-2 .7zm-266 5.1c-2 1.5-1.7 4.4.7 5.9 1.2.8 2.1.7 3.2-.2 3.6-3-.1-8.5-3.9-5.7zm-70.5.7c-1.1.8-1.2 1.2-.2 1.6 4 1.6 4.2 2.9 4.2 22.4 0 19-.6 22.9-3.5 22.9-2.3 0-1.8 1.7.8 2.4 4.4 1.2 15.7.3 15.7-1.3 0-.3-1-1.1-2.2-1.6-2.1-.9-2.3-1.6-2.3-9.5v-8.5l6-.7c8.9-1.1 10.1-1.5 14-4.9 6.1-5.4 5.8-15.8-.8-19.7-5.8-3.6-28-5.7-31.7-3.1zm22.3 4c8.9 4.5 7.1 17.6-2.6 19.4-6.9 1.3-7.2 1-7.5-8.9-.2-4.9-.1-9.5.2-10.3.7-1.6 6.9-1.7 9.9-.2zm152.2-3.9c-3 1.6-3.1 1.8-1.5 2.8 2.2 1.4 2.2 42.6 0 44-2.4 1.5-.2 2.5 5.5 2.5 6.1 0 7.4-.7 5.1-3-1.4-1.4-1.6-4.8-1.6-24.6V32h-2.7c-1.6 0-3.7.6-4.8 1.2zm120.8.1c-2.7 1.4-2.9 2.3-.8 3.1 1.3.4 1.5 3.8 1.5 21.5 0 18.9-.2 21.1-1.7 22-2.8 1.5-.6 2.6 5.2 2.6 6 0 7.7-.9 5.2-2.8-1.5-1-1.7-4.1-1.9-24.2l-.3-23-2.5-.1c-1.4-.1-3.5.3-4.7.9zm-251 16.3C67.1 51 66 53.3 68 54.5c.6.4 1 5.5 1 12 0 8.8-.3 11.7-1.5 12.9-.8.8-1.5 1.7-1.5 2 0 1 7.1 1.8 10.6 1.1l3.6-.6-2.1-2c-1.9-1.8-2.1-3.1-2.1-12.4s.2-10.7 2.1-12.6c1.3-1.3 2.6-1.8 3.7-1.3 4.7 2 9-.7 6.3-4-1.8-2.2-5.3-2-8.4.4-1.4 1.1-2.7 2-3 2-.3 0-.7-.9-1-2-.6-2.3-1-2.3-5.4-.4zm26 0c-3.6 1.6-4 2.5-1.8 4.4 1.2 1 1.5 3.7 1.5 12 0 9.3-.3 11.1-2 13.3l-2.1 2.6 3.5.6c5.6 1.1 12.7-1.3 8.4-2.7-.9-.3-1.4-4.8-1.8-15.8-.3-9-.9-15.4-1.5-15.6-.5-.1-2.5.4-4.2 1.2zm23.3.3c-6.3 3.7-9.3 11.8-7.7 20.7 1.5 8.1 6.2 12.4 13.4 12.4 5.1 0 9-2.2 11.7-6.5 2.6-4.2 1.9-5.7-1.3-2.8-4.9 4.6-11.3 4.1-15.3-1.3-4.8-6.2-3.2-17.9 2.8-21 3.9-2 6.7-.9 8.4 3.2 1.1 2.5 2 3.4 3.9 3.4 2.9 0 3.9-1.4 3.1-4.5-1.3-5.1-12.8-7.3-19-3.6zm32.4.2c-4.6 2.8-5.5 4.3-7.1 10.6-2.4 10.3 2.1 20.5 9.8 21.9 6.1 1.2 10.5-.2 14.6-4.5 4.3-4.7 5.3-8.5 1.5-5.7-8 5.8-9.4 6.1-13.5 3.6-4.1-2.5-6.5-6.1-6.7-10.2l-.1-3.3 10.5-.3c6.2-.2 10.7-.7 11.1-1.4 1.2-1.9-1-7.2-4.1-10.1-3.9-3.5-10.8-3.7-16-.6zm10 2.9c3.8 3.8 2.7 5-4.5 5-6.8 0-7.9-.9-5.2-4.2 2.5-3.2 6.9-3.6 9.7-.8zm63.4-3.6c-8.6 4.7-11.8 15.7-7.4 25.3 3.3 7.4 11.4 10.3 19.4 6.9 3.8-1.6 7.6-6 7.6-8.9 0-2-.1-2-2.7.4-4.6 4.2-7.8 5.1-11.8 3.5-1.8-.8-3.9-2.5-4.6-3.8-2.1-3.6-3.8-9.1-3.3-10 .3-.4 5.2-.8 11-.8 11.8 0 12.4-.4 10.4-6.5-1.6-4.8-6.1-7.5-12-7.4-2.5.1-5.5.6-6.6 1.3zm8.4 3.2c1.2.8 2.2 2.4 2.2 3.5 0 1.7-.7 1.9-6.5 1.9-7.2 0-7.8-.8-4-4.5 2.8-2.9 5.1-3.1 8.3-.9zm14.8-3.8c-.3.6.2 1.6 1.1 2.3 1.9 1.6 7 12.5 10.3 21.9 2.9 8.1 4.4 10.1 6.3 8 .8-.8 2.4-4.2 3.7-7.5 1.3-3.3 2.6-6.5 3-7 .4-.6 1.7-3.9 2.9-7.5 1.3-3.6 2.7-6.9 3.2-7.4 1.9-2.1.9-3.6-2.5-3.6s-3.4 0-2.9 3.8c.4 2.8-.3 5.5-2.7 11-1.8 4-3.8 7.1-4.4 6.9-1.8-.6-6.6-13.9-6.3-17.7l.2-3.5-5.7-.3c-3.1-.2-5.9.1-6.2.6zm42.7 1.5c-5 3.4-7.3 8.4-7.3 15.7 0 11.6 5.9 17.7 16 16.8 4.6-.5 5.9-1.1 8.7-4.2 1.8-1.9 3.3-4.6 3.3-5.8 0-2.1 0-2.1-2.7.4-6.6 6.3-13.5 5.1-17.3-2.9-3.8-8.1-3.6-8.3 9-8.3h11v-2.5c0-3.5-2.4-7.9-5.4-9.9-3.7-2.3-11.3-2-15.3.7zm11.4 2.9c.7.6 1.3 1.9 1.3 2.9 0 1.7-.8 1.9-6.5 1.9-6.8 0-7.9-.9-5.2-4.2 2.3-2.9 7.3-3.2 10.4-.6z"/><path d="M729.5 161.9c-.3.6 1.9 5.9 4.9 11.8 3 6 8.2 16.2 11.4 22.8l8 16c1.2 2.2 4.8 9.4 8 16l8 16c1.1 2.2 4.3 8.5 7 14 2.8 5.5 6.4 12.7 8 16l16 32c9.8 19.6 15.2 30.5 17 34 1.2 2.2 4.8 9.4 8 16l8 16 8 16 8 16c8.7 17.2 13.1 26.1 16.4 33 2.1 4.4 4.8 9.8 5.9 12 1.1 2.2 4.8 9.4 8.1 16l8 16 8 16c3.2 6.6 6.8 13.8 8 16 1.1 2.2 4.7 9.4 7.9 16l8 16c1.2 2.2 4.8 9.4 8 16 3.3 6.6 7.4 14.7 9.1 18 1.6 3.3 5.2 10.5 8 16 2.7 5.5 5.8 11.8 7 14 1.1 2.2 4.6 9.2 7.7 15.5 3.2 6.3 10.7 21.4 16.8 33.5 6 12.1 13.3 26.7 16.2 32.5 2.9 5.8 6.6 13.2 8.3 16.5 1.6 3.3 5.2 10.5 7.9 16s7.3 14.5 10.1 20c2.9 5.5 6.4 12.5 7.8 15.5 2 4.4 19.3 38.9 30.8 61.5 1.1 2.2 15.4 30.8 31.7 63.5 16.2 32.7 30.6 61.5 31.9 64 1.3 2.5 8.4 16.5 15.6 31.2 12 24.3 16 30.6 16 25.2 0-1.3-330.5-664.6-336.2-674.9-1.1-1.8-30.4-60.4-44.6-89l-8-16c-1.2-2.2-4.9-9.6-8.3-16.5-22.7-45.7-24.6-48.9-26.4-46.1zm-211.5.4c0 .4 227.5 456.2 229.2 459.2.6 1.1 7 13.7 14 28 12.4 25 18.2 36.4 22.6 45 1.2 2.2 4.8 9.4 8 16 3.3 6.6 7.4 14.7 9 18 1.7 3.3 4.9 9.6 7 14 3.7 7.8 13.2 26.8 19.4 39 1.7 3.3 4.8 9.6 7 14 4.5 9.2 10.6 21.2 13.6 27 2.4 4.5 12.5 24.9 18.4 37l8 16 8 16c2.1 4.4 5.7 11.6 8 16l8 16c2.1 4.4 5.7 11.6 8 16l8 16c6.2 12.7 11.2 22.5 14.5 29 1.7 3.3 4.8 9.5 6.8 13.7 3.4 7.2 6.5 10.1 6.5 6.1 0-1-73.4-148.7-163.1-328.3C616.3 350.7 606 330.1 602.2 322.5c-1.2-2.2-4.9-9.6-8.3-16.5-5.6-11.2-15.1-30.3-31.9-64-3.2-6.3-6.7-13.3-7.8-15.5-1.2-2.2-4.8-9.4-8-16l-8-16c-1.2-2.2-4.7-9.4-8-16-7.4-15.1-8.3-16.5-10.4-16.5-1 0-1.8.2-1.8.3zm449.3 830.9c-.6.7-2.4 3.9-4.2 7.2-1.7 3.2-4.4 7.7-5.9 10-1.6 2.2-5 8-7.6 12.8-2.6 4.8-6.2 10.8-8.1 13.3-1.9 2.5-3.5 4.7-3.5 5 0 .3 2.7.5 6 .5s6-.2 6-.5-.5-1.4-1.2-2.5c-1-1.5-.9-2.7.1-5.7 2.8-7.8 3.5-8.3 11.7-8.3 4 0 7.6.5 7.9 1 .4.6.9 3.5 1.2 6.4.5 4.8.3 5.6-1.6 6.8-3.6 2.2-2.4 2.8 5.9 2.8 4.4 0 8-.2 8-.5s-.8-1.7-1.7-3.1c-1.6-2.5-3.5-11.4-6.8-32.4-2.2-13.1-3.6-16.1-6.2-12.8zm-.8 18c1.3 9.9 1.7 9.3-4.7 9.6-3.4.2-5.8-.1-5.8-.7 0-1.4 8.1-14.1 9-14.1.4 0 1 2.4 1.5 5.2zm32.3-18.6c-.4.3.3 1.5 1.4 2.6 1.1 1.1 1.7 2.5 1.5 3.3-.3.7-1.7 5.9-3.2 11.6-1.4 5.7-3.5 13.3-4.6 16.9-1 3.6-1.9 7-1.9 7.6 0 .6-1.1 2.1-2.5 3.4-1.4 1.3-2.5 2.7-2.5 3.2 0 .4 5.1.8 11.3.8 8.6 0 12.9-.5 18.5-2.2 12.1-3.5 20.5-12.7 21.8-23.8 1.3-11.7-4.2-20.4-14.5-22.8-5.3-1.2-24.3-1.7-25.3-.6zm25.4 5c5.6 2.9 7.4 12.7 4.3 23.2-1.8 6.1-5.3 10.5-11.4 14.4-3.6 2.2-5.6 2.8-10.3 2.8-4.5 0-6-.4-6.5-1.6-.5-1.5 1.6-10.6 5.2-21.9.7-2.2 2.1-6.9 3-10.5 1-3.6 2.5-7.1 3.4-7.8 1.9-1.6 7.8-.9 12.3 1.4zm149.8 2.6c-2.4 4.6-6 10.9-8.2 14-2.1 3.1-3.8 5.9-3.8 6.2 0 1.1-8.7 15.3-10.7 17.6-1.3 1.4-2.3 2.8-2.3 3.2 0 .5 2.7.8 6 .8 5.5 0 7.5-1 5-2.5-1.7-1-1.1-5.8 1.3-10l2.3-4h15.9l.9 5.9c.9 5.4.8 6-1.2 7.7-1.2.9-2.2 2-2.2 2.3 0 .3 3.6.6 8 .6 7.9 0 9.3-.6 6.6-3-1.4-1.1-2.3-4.7-4.6-18.3-4.7-27.2-5-28.7-7-28.7-1.2 0-3.2 2.7-6 8.2zm2.9 8.9c.6 1.8 1.1 5.2 1.1 7.5v4.4h-5.6c-3.9 0-5.5-.4-5.2-1.3.5-2.1 7.3-13.7 8-13.7.3 0 1.1 1.4 1.7 3.1zm32.1-16.2c0 .5.7 1.1 1.5 1.5 2 .7 1.9 5.4-.4 12.9-1.1 3.4-3.3 11.6-5 18.1-2.1 7.7-3.9 12.5-5.1 13.6-1.1 1-2 2-2 2.4 0 1.2 22.5.6 27.5-.8 14.9-3.9 24.5-14.8 24.5-27.6 0-10.5-5.3-17.5-15.2-19.9-5.5-1.3-25.8-1.5-25.8-.2zm26.6 4.7c3.2 2.1 4.9 7 4.8 13.9-.1 11-3.9 18.3-12.2 23.6-3.8 2.4-5.7 2.9-10.9 2.9-7.7 0-7.7.1-3.2-15 1.7-5.8 4-13.9 5.1-18 1.1-4.1 2.7-8.1 3.6-8.8 2-1.6 9.4-.8 12.8 1.4zm-186.1 31.3c-2.7 1.2-5.1 4.1-5.9 7.3l-.6 2.6 3-3c2.6-2.5 3.6-2.9 6.3-2.4 9.9 1.9 8.5 12.4-3.4 24.6-3.2 3.3-5.9 6.5-5.9 7 0 .6 4.5 1 10.5 1 10.5 0 10.6 0 11.6-2.6 1.2-3.4.8-3.7-2.5-2.4-3.4 1.3-9.6 1.3-11.6 0-1.2-.8-.5-2 4.1-6.7 7.3-7.7 8.9-10.4 8.9-15.5-.1-8-7.2-12.8-14.5-9.9zm213.2 1.7c-2.7 1.4-2.8 1.7-1.3 3.3 2.3 2.5 2.4 28.9.1 29.7-3.2 1.3-1.3 2.4 4 2.4 3 0 5.5-.5 5.5-1 0-.6-.4-1-1-1s-1-6-1-15.9c0-8.8-.3-16.6-.6-17.5-.8-2-2.1-2-5.7 0zm-130.4 152.2c-1.6 1-2.1 10.4-.6 10.9.7.3 1.7-.6 2.2-1.9 1.4-3.7 3.6-5 8.8-5.1l4.8-.2.3 20.4c.3 21.1-.1 23.1-3.9 23.1-1.1 0-1.9.4-1.9 1s4 1 10 1c10 0 12-.7 7.8-2.5-2.3-1-2.3-1.3-2.6-21.8-.3-23.3-.5-22.7 7.1-21.1 3.1.7 4.7 1.7 6.2 4.1 1.1 1.8 2.3 3.2 2.8 3.3 1.2 0 .8-9.5-.5-10.8-1.3-1.3-38.4-1.7-40.5-.4zm133 .4c-3.8 1.3-4.3 2.5-1 3 2.2.3 2.2.4 2.5 21.6.2 20.7.2 21.4-1.8 21.9-4.5 1.2-1.5 2.3 6 2.3 4.7 0 8-.4 8-1s-.9-1-1.9-1c-1 0-2.2-.7-2.5-1.6-.3-.9-.6-11.7-.6-24V1182l-2.7.1c-1.6.1-4.3.6-6 1.1zM1212 1195c-3.7 4.4-4.1 5.2-2.7 6.3 1.2.9 1.6 4 1.9 14.6.4 12.7.5 13.4 2.8 15.3 3.7 3 12 1.1 12-2.8 0-1-.8-1.2-2.9-.8-2.5.5-3 .2-4-2.7-1.5-4.4-1.5-21.1.1-22.7.7-.7 2.2-1.2 3.5-1.2 3.7 0 2.8-2.8-.9-3.2-3-.3-3.3-.6-3.6-4.1-.2-2-.7-3.7-1.2-3.7-.4 0-2.7 2.3-5 5zm170.3-2.9c-1 1.3-2.8 3.3-4 4.6-2.7 2.8-2.8 3.9-.9 5 1 .6 1.5 4.1 1.8 14 .3 11.1.7 13.5 2.2 15.2 2.3 2.5 5.8 2.7 9.7.4 3.7-2.2 3.9-4.6.4-3.7-4.7 1.2-5.5-.7-5.5-13.6 0-12.5.2-13 5.1-13 1 0 1.9-.7 1.9-1.5 0-1-1.1-1.5-3.5-1.5-3.3 0-3.5-.2-3.5-3.4 0-4.4-1.4-5.3-3.7-2.5zm95.7-1.4c0 .5-1.7 2.9-3.7 5.2-3.2 3.8-3.4 4.4-2 5.3 1.4.7 1.7 2.7 1.8 12.1 0 13.1 1.3 17.8 5.1 19.1 3.2 1.1 8.4-.8 9.9-3.6 1-1.8.8-1.9-2.4-1.3-4.9 1-5.7-1-5.7-14.3 0-11.6.2-12.2 5.1-12.2 3.3 0 2.2-2.8-1.3-3.2-2.9-.3-3.4-.7-3.8-3.7-.3-1.9-1.1-3.6-1.7-3.9-.7-.2-1.3 0-1.3.5zm-62.9 7.1c-1.4.2-3.5 1.1-4.8 1.9-2.2 1.5-2.5 1.4-3.7-.2-1.2-1.7-1.7-1.7-4.7-.5-4.9 1.9-5.5 2.7-3.6 4.8 1.5 1.6 1.7 4.5 1.7 20.7 0 18-.1 19-2.2 21.2l-2.1 2.3h8.2c5.2 0 8-.4 7.6-1-.3-.6-1.2-1-2-1-1.8 0-2.5-2.3-2.5-8.7v-5.5l4 .7c5.5.9 9.3-.1 12.9-3.6 7.7-7.3 8.4-21.8 1.3-28.2-2.3-2.1-6.8-3.4-10.1-2.9zm4.3 7.5c4.6 4.6 4.5 16.3-.1 21.7-2.9 3.5-6 3.8-9.7.9-2.5-1.9-2.6-2.5-2.6-11.5 0-8.1.3-9.7 2-11.4 2.7-2.7 7.5-2.6 10.4.3zm-240.4-5.1c-5.9 4-7.3 6.9-7.3 14.5 0 11.9 5.2 17.7 15.9 17.8 5.1 0 6.6-.4 9.7-2.8 5.2-3.9 7-8 7.1-15.5 0-7-1.6-10-7.4-14-2.5-1.6-4.7-2.2-9-2.2s-6.5.6-9 2.2zm11.8 1.4c3.8 2.7 5.6 7.3 5.6 15.1.1 5.8-.3 7.7-2 10-2.3 3.1-6.2 4-9.4 2.3-3.3-1.8-6.2-9.4-6.4-16.7-.1-6.1.1-6.6 3.2-9.4 3.7-3.3 5.8-3.6 9-1.3zm44.5-1.6c-2.5 1.5-3.3 2.7-3.3 4.9 0 3.4 1.2 4.5 3.9 3.6 1.3-.4 2.1-1.7 2.3-3.7.4-4 2.8-5.5 6.5-4.2 2.4.8 2.8 1.6 3.1 5l.3 4.1-6.3 3c-9 4.3-11.8 7.3-11.8 12.2 0 3.1.6 4.4 2.6 6 3.4 2.7 6.7 2.6 11.6-.2l4.1-2.2 1.4 2.2c1.8 2.7 4.9 2.9 8.1.7 2.7-1.9 2.8-3.4.3-3.4-2.6 0-3.1-1.8-3.1-12.5 0-14.5-1.8-17.4-11-17.5-3.8 0-6.5.6-8.7 2zm12.7 19c0 5.9-.1 6.1-3.6 7.7-3.5 1.7-3.6 1.7-5.5-.6-2.4-2.9-2.4-5.3-.1-8 1.6-1.9 6.8-5.1 8.5-5.1.4 0 .7 2.7.7 6zm61-18.7c-5 3.3-7.3 7.9-7.3 14.6 0 6.4 1.8 10.7 6.3 14.4 8.5 7.2 21.4 3.2 25.6-7.9 2-5.2 1.4-12.9-1.2-16.9-4.2-6.4-16.9-8.7-23.4-4.2zm13.3 2.7c6.2 5.4 7.2 17.9 2 24.1-3.4 3.9-7.3 3.9-10.7-.1-2.3-2.8-3.1-4.8-5-13-.9-4.1 1.4-10.1 4.8-12.1 4.1-2.5 5-2.4 8.9 1.1zm15.7-4.6c0 .4.9 1.5 2 2.6 1.8 1.8 2 3.3 2 14.1v12.1l3 3c2.7 2.7 3.6 3 7.1 2.5 2.3-.3 5.2-1.6 6.5-2.8l2.5-2.3.6 2.2c.6 2.5 2.8 2.8 7 1 3.9-1.7 3.9-1.7 1.7-3.2-1.7-1.3-2-3.1-2.4-15.3l-.5-13.8-5.2-.3c-2.9-.2-5.3 0-5.3.4 0 .3 1.2 1.5 2.6 2.6 2.5 2 2.6 2.3 2.2 12.5-.3 11.2-1 12.5-6.6 14-4.6 1.1-5.7-1.5-6.2-16l-.5-13.2-5.2-.3c-2.9-.2-5.3-.1-5.3.2zm95.7.3c-.4.3.1 1.2 1.1 1.9 1.4 1 1.8 3.4 2.2 14.3.5 11.9.7 13.2 2.8 15.3 3.1 3.2 9.7 3.1 13.7 0 2.9-2.3 2.9-2.3 3.7-.3.8 2.4 2.5 2.6 6.5.9 3.9-1.7 3.9-1.7 1.7-3.2-1.7-1.3-2-3.1-2.4-15.3l-.5-13.8-5.2-.3c-5.1-.3-7.3 1-3.5 2.1 2.2.5 3.2 4.5 3.2 12.7 0 8.9-.9 11.9-4.1 13.5-3.7 2-4.5 1.9-6.9-.5-1.8-1.8-2-3.3-2-15v-13h-4.8c-2.7 0-5.2.3-5.5.7z"/></svg>